G04 EAGLE Gerber RS-274X export*
G75*
%MOMM*%
%FSLAX34Y34*%
%LPD*%
%INTop Copper*%
%IPPOS*%
%AMOC8*
5,1,8,0,0,1.08239X$1,22.5*%
G01*
%ADD10C,1.524000*%
%ADD11P,2.364373X8X202.500000*%
%ADD12P,2.364373X8X22.500000*%
%ADD13C,1.950000*%
%ADD14R,1.950000X1.950000*%
%ADD15C,1.800000*%
%ADD16C,3.000000*%
%ADD17C,0.300000*%
%ADD18C,0.600000*%
%ADD19C,1.050000*%
%ADD20C,1.200000*%
%ADD21C,0.250000*%
%ADD22C,0.350000*%

G36*
X645020Y101814D02*
X645020Y101814D01*
X645039Y101812D01*
X645141Y101834D01*
X645243Y101850D01*
X645260Y101860D01*
X645280Y101864D01*
X645369Y101917D01*
X645460Y101966D01*
X645474Y101980D01*
X645491Y101990D01*
X645558Y102069D01*
X645630Y102144D01*
X645638Y102162D01*
X645651Y102177D01*
X645690Y102273D01*
X645733Y102367D01*
X645735Y102387D01*
X645743Y102405D01*
X645761Y102572D01*
X645761Y116913D01*
X645754Y116958D01*
X645756Y117004D01*
X645734Y117079D01*
X645722Y117156D01*
X645700Y117196D01*
X645687Y117240D01*
X645643Y117304D01*
X645606Y117373D01*
X645573Y117405D01*
X645547Y117442D01*
X645484Y117489D01*
X645428Y117543D01*
X645386Y117562D01*
X645350Y117589D01*
X645276Y117613D01*
X645205Y117646D01*
X645159Y117651D01*
X645116Y117665D01*
X645038Y117665D01*
X644961Y117673D01*
X644916Y117663D01*
X644870Y117663D01*
X644738Y117625D01*
X644720Y117621D01*
X644716Y117618D01*
X644709Y117616D01*
X641288Y116199D01*
X636712Y116199D01*
X632485Y117950D01*
X629250Y121185D01*
X627499Y125412D01*
X627499Y129988D01*
X629250Y134215D01*
X632485Y137450D01*
X636712Y139201D01*
X641288Y139201D01*
X645515Y137450D01*
X648750Y134215D01*
X650501Y129988D01*
X650501Y125412D01*
X649208Y122291D01*
X649197Y122247D01*
X649178Y122205D01*
X649170Y122128D01*
X649152Y122052D01*
X649156Y122006D01*
X649151Y121961D01*
X649168Y121884D01*
X649175Y121807D01*
X649194Y121765D01*
X649203Y121720D01*
X649243Y121653D01*
X649275Y121582D01*
X649306Y121548D01*
X649329Y121509D01*
X649389Y121459D01*
X649441Y121401D01*
X649481Y121379D01*
X649516Y121349D01*
X649589Y121320D01*
X649657Y121283D01*
X649702Y121274D01*
X649745Y121257D01*
X649880Y121242D01*
X649899Y121239D01*
X649904Y121240D01*
X649911Y121239D01*
X738089Y121239D01*
X738134Y121246D01*
X738180Y121244D01*
X738255Y121266D01*
X738332Y121279D01*
X738372Y121300D01*
X738416Y121313D01*
X738480Y121357D01*
X738549Y121394D01*
X738581Y121427D01*
X738618Y121453D01*
X738665Y121515D01*
X738718Y121572D01*
X738738Y121614D01*
X738765Y121650D01*
X738789Y121724D01*
X738822Y121795D01*
X738827Y121841D01*
X738841Y121884D01*
X738840Y121962D01*
X738849Y122039D01*
X738839Y122084D01*
X738839Y122130D01*
X738801Y122262D01*
X738797Y122280D01*
X738794Y122284D01*
X738792Y122291D01*
X737499Y125412D01*
X737499Y129988D01*
X739250Y134215D01*
X742485Y137450D01*
X746712Y139201D01*
X751288Y139201D01*
X755515Y137450D01*
X758750Y134215D01*
X760501Y129988D01*
X760501Y125412D01*
X758750Y121185D01*
X755515Y117950D01*
X751288Y116199D01*
X746712Y116199D01*
X745291Y116788D01*
X745247Y116798D01*
X745205Y116818D01*
X745128Y116826D01*
X745052Y116844D01*
X745006Y116840D01*
X744961Y116845D01*
X744884Y116828D01*
X744807Y116821D01*
X744765Y116802D01*
X744720Y116793D01*
X744653Y116753D01*
X744582Y116721D01*
X744548Y116690D01*
X744509Y116666D01*
X744459Y116607D01*
X744401Y116555D01*
X744379Y116514D01*
X744349Y116479D01*
X744320Y116407D01*
X744283Y116339D01*
X744274Y116294D01*
X744257Y116251D01*
X744242Y116115D01*
X744239Y116097D01*
X744240Y116092D01*
X744239Y116085D01*
X744239Y102572D01*
X744242Y102552D01*
X744240Y102533D01*
X744262Y102431D01*
X744279Y102329D01*
X744288Y102312D01*
X744292Y102292D01*
X744345Y102203D01*
X744394Y102112D01*
X744408Y102098D01*
X744418Y102081D01*
X744497Y102014D01*
X744572Y101942D01*
X744590Y101934D01*
X744605Y101921D01*
X744701Y101882D01*
X744795Y101839D01*
X744815Y101837D01*
X744833Y101829D01*
X745000Y101811D01*
X977428Y101811D01*
X977448Y101814D01*
X977467Y101812D01*
X977569Y101834D01*
X977671Y101850D01*
X977688Y101860D01*
X977708Y101864D01*
X977797Y101917D01*
X977888Y101966D01*
X977902Y101980D01*
X977919Y101990D01*
X977986Y102069D01*
X978058Y102144D01*
X978066Y102162D01*
X978079Y102177D01*
X978118Y102273D01*
X978161Y102367D01*
X978163Y102387D01*
X978171Y102405D01*
X978189Y102572D01*
X978189Y684428D01*
X978186Y684448D01*
X978188Y684467D01*
X978166Y684569D01*
X978150Y684671D01*
X978140Y684688D01*
X978136Y684708D01*
X978083Y684797D01*
X978034Y684888D01*
X978020Y684902D01*
X978010Y684919D01*
X977931Y684986D01*
X977856Y685058D01*
X977838Y685066D01*
X977823Y685079D01*
X977727Y685118D01*
X977633Y685161D01*
X977613Y685163D01*
X977595Y685171D01*
X977428Y685189D01*
X554572Y685189D01*
X554552Y685186D01*
X554533Y685188D01*
X554431Y685166D01*
X554329Y685150D01*
X554312Y685140D01*
X554292Y685136D01*
X554203Y685083D01*
X554112Y685034D01*
X554098Y685020D01*
X554081Y685010D01*
X554014Y684931D01*
X553942Y684856D01*
X553934Y684838D01*
X553921Y684823D01*
X553882Y684727D01*
X553839Y684633D01*
X553837Y684613D01*
X553829Y684595D01*
X553811Y684428D01*
X553811Y625872D01*
X553822Y625802D01*
X553824Y625730D01*
X553842Y625681D01*
X553850Y625629D01*
X553884Y625566D01*
X553909Y625499D01*
X553941Y625458D01*
X553966Y625412D01*
X554018Y625363D01*
X554062Y625307D01*
X554106Y625279D01*
X554144Y625243D01*
X554209Y625213D01*
X554269Y625174D01*
X554320Y625161D01*
X554367Y625139D01*
X554438Y625131D01*
X554508Y625114D01*
X554560Y625118D01*
X554611Y625112D01*
X554682Y625127D01*
X554753Y625133D01*
X554801Y625153D01*
X554852Y625164D01*
X554913Y625201D01*
X554979Y625229D01*
X555035Y625274D01*
X555063Y625290D01*
X555078Y625308D01*
X555110Y625334D01*
X558495Y628719D01*
X565960Y631811D01*
X574040Y631811D01*
X581505Y628719D01*
X587219Y623005D01*
X590311Y615540D01*
X590311Y607460D01*
X587219Y599995D01*
X581505Y594281D01*
X574040Y591189D01*
X565960Y591189D01*
X558495Y594281D01*
X555110Y597666D01*
X555052Y597708D01*
X555000Y597757D01*
X554953Y597779D01*
X554911Y597810D01*
X554842Y597831D01*
X554777Y597861D01*
X554725Y597867D01*
X554675Y597882D01*
X554604Y597880D01*
X554533Y597888D01*
X554482Y597877D01*
X554430Y597876D01*
X554362Y597851D01*
X554292Y597836D01*
X554247Y597809D01*
X554199Y597791D01*
X554143Y597746D01*
X554081Y597710D01*
X554047Y597670D01*
X554007Y597637D01*
X553968Y597577D01*
X553921Y597523D01*
X553902Y597474D01*
X553874Y597431D01*
X553856Y597361D01*
X553829Y597294D01*
X553821Y597223D01*
X553813Y597192D01*
X553815Y597169D01*
X553811Y597128D01*
X553811Y240872D01*
X553822Y240802D01*
X553824Y240730D01*
X553842Y240681D01*
X553850Y240629D01*
X553884Y240566D01*
X553909Y240499D01*
X553941Y240458D01*
X553966Y240412D01*
X554018Y240363D01*
X554062Y240307D01*
X554106Y240279D01*
X554144Y240243D01*
X554209Y240213D01*
X554269Y240174D01*
X554320Y240161D01*
X554367Y240139D01*
X554438Y240131D01*
X554508Y240114D01*
X554560Y240118D01*
X554611Y240112D01*
X554682Y240127D01*
X554753Y240133D01*
X554801Y240153D01*
X554852Y240164D01*
X554913Y240201D01*
X554979Y240229D01*
X555035Y240274D01*
X555063Y240290D01*
X555078Y240308D01*
X555110Y240334D01*
X558495Y243719D01*
X565960Y246811D01*
X574040Y246811D01*
X581505Y243719D01*
X587219Y238005D01*
X590311Y230540D01*
X590311Y222460D01*
X587219Y214995D01*
X581505Y209281D01*
X574040Y206189D01*
X565960Y206189D01*
X558495Y209281D01*
X555110Y212666D01*
X555052Y212708D01*
X555000Y212757D01*
X554953Y212779D01*
X554911Y212810D01*
X554842Y212831D01*
X554777Y212861D01*
X554725Y212867D01*
X554675Y212882D01*
X554604Y212880D01*
X554533Y212888D01*
X554482Y212877D01*
X554430Y212876D01*
X554362Y212851D01*
X554292Y212836D01*
X554247Y212809D01*
X554199Y212791D01*
X554143Y212746D01*
X554081Y212710D01*
X554047Y212670D01*
X554007Y212637D01*
X553968Y212577D01*
X553921Y212523D01*
X553902Y212474D01*
X553874Y212431D01*
X553856Y212361D01*
X553829Y212294D01*
X553821Y212223D01*
X553813Y212192D01*
X553815Y212169D01*
X553811Y212128D01*
X553811Y102572D01*
X553814Y102552D01*
X553812Y102533D01*
X553834Y102431D01*
X553850Y102329D01*
X553860Y102312D01*
X553864Y102292D01*
X553917Y102203D01*
X553966Y102112D01*
X553980Y102098D01*
X553990Y102081D01*
X554069Y102014D01*
X554144Y101942D01*
X554162Y101934D01*
X554177Y101921D01*
X554273Y101882D01*
X554367Y101839D01*
X554387Y101837D01*
X554405Y101829D01*
X554572Y101811D01*
X645000Y101811D01*
X645020Y101814D01*
G37*
%LPC*%
G36*
X835440Y111577D02*
X835440Y111577D01*
X827577Y119440D01*
X827577Y130560D01*
X835440Y138423D01*
X846560Y138423D01*
X853162Y131821D01*
X853178Y131809D01*
X853190Y131794D01*
X853278Y131738D01*
X853361Y131677D01*
X853380Y131672D01*
X853397Y131661D01*
X853498Y131635D01*
X853597Y131605D01*
X853616Y131606D01*
X853636Y131601D01*
X853739Y131609D01*
X853842Y131611D01*
X853861Y131618D01*
X853881Y131620D01*
X853976Y131660D01*
X854073Y131696D01*
X854089Y131708D01*
X854107Y131716D01*
X854238Y131821D01*
X859579Y137162D01*
X859591Y137178D01*
X859606Y137190D01*
X859662Y137278D01*
X859723Y137361D01*
X859728Y137380D01*
X859739Y137397D01*
X859765Y137498D01*
X859795Y137597D01*
X859794Y137616D01*
X859799Y137636D01*
X859791Y137739D01*
X859789Y137842D01*
X859782Y137861D01*
X859780Y137881D01*
X859740Y137976D01*
X859704Y138073D01*
X859692Y138089D01*
X859684Y138107D01*
X859579Y138238D01*
X852977Y144840D01*
X852977Y145638D01*
X852974Y145658D01*
X852976Y145677D01*
X852954Y145779D01*
X852938Y145881D01*
X852928Y145898D01*
X852924Y145918D01*
X852871Y146007D01*
X852822Y146098D01*
X852808Y146112D01*
X852798Y146129D01*
X852719Y146196D01*
X852644Y146268D01*
X852626Y146276D01*
X852611Y146289D01*
X852515Y146328D01*
X852421Y146371D01*
X852401Y146373D01*
X852383Y146381D01*
X852216Y146399D01*
X834736Y146399D01*
X834646Y146385D01*
X834555Y146377D01*
X834526Y146365D01*
X834494Y146360D01*
X834413Y146317D01*
X834329Y146281D01*
X834297Y146255D01*
X834276Y146244D01*
X834254Y146221D01*
X834198Y146176D01*
X831815Y143793D01*
X828691Y142499D01*
X825309Y142499D01*
X822185Y143793D01*
X819793Y146185D01*
X818499Y149309D01*
X818499Y152691D01*
X819793Y155815D01*
X822185Y158207D01*
X825309Y159501D01*
X827550Y159501D01*
X827621Y159512D01*
X827692Y159514D01*
X827741Y159532D01*
X827793Y159540D01*
X827856Y159574D01*
X827923Y159599D01*
X827964Y159631D01*
X828010Y159656D01*
X828059Y159707D01*
X828115Y159752D01*
X828144Y159796D01*
X828180Y159834D01*
X828210Y159899D01*
X828248Y159959D01*
X828261Y160010D01*
X828283Y160057D01*
X828291Y160128D01*
X828309Y160198D01*
X828304Y160250D01*
X828310Y160301D01*
X828295Y160372D01*
X828289Y160443D01*
X828269Y160491D01*
X828258Y160542D01*
X828221Y160603D01*
X828193Y160669D01*
X828148Y160725D01*
X828132Y160753D01*
X828114Y160768D01*
X828088Y160800D01*
X814199Y174690D01*
X814183Y174701D01*
X814170Y174717D01*
X814095Y174765D01*
X814077Y174780D01*
X814067Y174785D01*
X813999Y174833D01*
X813980Y174839D01*
X813963Y174850D01*
X813863Y174875D01*
X813764Y174905D01*
X813744Y174905D01*
X813725Y174910D01*
X813622Y174902D01*
X813518Y174899D01*
X813499Y174892D01*
X813480Y174891D01*
X813385Y174850D01*
X813287Y174815D01*
X813272Y174802D01*
X813253Y174794D01*
X813183Y174738D01*
X813179Y174736D01*
X813174Y174731D01*
X813122Y174690D01*
X811433Y173000D01*
X807713Y171459D01*
X803687Y171459D01*
X799967Y173000D01*
X797120Y175847D01*
X795579Y179567D01*
X795579Y198833D01*
X797120Y202553D01*
X799967Y205400D01*
X803687Y206941D01*
X807713Y206941D01*
X811433Y205400D01*
X814280Y202553D01*
X815821Y198833D01*
X815821Y185406D01*
X815835Y185316D01*
X815843Y185225D01*
X815855Y185195D01*
X815860Y185163D01*
X815903Y185083D01*
X815939Y184999D01*
X815965Y184967D01*
X815976Y184946D01*
X815999Y184924D01*
X816044Y184868D01*
X831438Y169474D01*
X831512Y169421D01*
X831581Y169361D01*
X831611Y169349D01*
X831638Y169330D01*
X831724Y169303D01*
X831809Y169269D01*
X831850Y169265D01*
X831873Y169258D01*
X831905Y169259D01*
X831976Y169251D01*
X852924Y169251D01*
X853014Y169265D01*
X853105Y169273D01*
X853135Y169285D01*
X853167Y169290D01*
X853247Y169333D01*
X853331Y169369D01*
X853363Y169395D01*
X853384Y169406D01*
X853406Y169429D01*
X853462Y169474D01*
X857165Y173176D01*
X857176Y173192D01*
X857192Y173205D01*
X857248Y173292D01*
X857308Y173376D01*
X857314Y173395D01*
X857325Y173412D01*
X857350Y173512D01*
X857381Y173611D01*
X857380Y173631D01*
X857385Y173650D01*
X857377Y173753D01*
X857374Y173857D01*
X857367Y173876D01*
X857366Y173895D01*
X857325Y173990D01*
X857290Y174088D01*
X857277Y174104D01*
X857270Y174122D01*
X857165Y174253D01*
X853238Y178179D01*
X853222Y178191D01*
X853210Y178206D01*
X853123Y178262D01*
X853039Y178323D01*
X853019Y178329D01*
X853003Y178339D01*
X852902Y178365D01*
X852803Y178395D01*
X852784Y178394D01*
X852764Y178399D01*
X852661Y178391D01*
X852558Y178389D01*
X852539Y178382D01*
X852519Y178380D01*
X852424Y178340D01*
X852327Y178304D01*
X852311Y178292D01*
X852293Y178284D01*
X852162Y178179D01*
X845560Y171577D01*
X834440Y171577D01*
X826577Y179440D01*
X826577Y190560D01*
X834440Y198423D01*
X835488Y198423D01*
X835508Y198426D01*
X835527Y198424D01*
X835629Y198446D01*
X835731Y198462D01*
X835748Y198472D01*
X835768Y198476D01*
X835857Y198529D01*
X835948Y198578D01*
X835962Y198592D01*
X835979Y198602D01*
X836046Y198681D01*
X836118Y198756D01*
X836126Y198774D01*
X836139Y198789D01*
X836178Y198885D01*
X836221Y198979D01*
X836223Y198999D01*
X836231Y199017D01*
X836249Y199184D01*
X836249Y209554D01*
X838669Y211974D01*
X858581Y231885D01*
X858648Y231979D01*
X858719Y232074D01*
X858721Y232080D01*
X858724Y232085D01*
X858758Y232195D01*
X858795Y232307D01*
X858795Y232314D01*
X858796Y232320D01*
X858793Y232436D01*
X858792Y232553D01*
X858790Y232561D01*
X858790Y232566D01*
X858784Y232583D01*
X858746Y232715D01*
X858499Y233309D01*
X858499Y236691D01*
X859793Y239815D01*
X862185Y242207D01*
X865309Y243501D01*
X868691Y243501D01*
X871815Y242207D01*
X874207Y239815D01*
X875501Y236691D01*
X875501Y233309D01*
X874207Y230185D01*
X871815Y227793D01*
X868691Y226499D01*
X865309Y226499D01*
X864715Y226746D01*
X864601Y226772D01*
X864487Y226801D01*
X864481Y226800D01*
X864475Y226802D01*
X864359Y226791D01*
X864242Y226782D01*
X864236Y226779D01*
X864230Y226779D01*
X864123Y226731D01*
X864016Y226685D01*
X864010Y226681D01*
X864005Y226679D01*
X863992Y226666D01*
X863885Y226581D01*
X862427Y225122D01*
X862385Y225064D01*
X862335Y225012D01*
X862313Y224965D01*
X862283Y224923D01*
X862262Y224854D01*
X862232Y224789D01*
X862226Y224737D01*
X862211Y224687D01*
X862213Y224616D01*
X862205Y224545D01*
X862216Y224494D01*
X862217Y224442D01*
X862242Y224374D01*
X862257Y224304D01*
X862284Y224260D01*
X862301Y224211D01*
X862346Y224155D01*
X862383Y224093D01*
X862423Y224059D01*
X862455Y224019D01*
X862515Y223980D01*
X862570Y223933D01*
X862618Y223914D01*
X862662Y223886D01*
X862732Y223868D01*
X862798Y223841D01*
X862869Y223833D01*
X862901Y223825D01*
X862924Y223827D01*
X862965Y223823D01*
X870960Y223823D01*
X872524Y222259D01*
X872540Y222247D01*
X872553Y222231D01*
X872640Y222175D01*
X872724Y222115D01*
X872743Y222109D01*
X872760Y222098D01*
X872860Y222073D01*
X872959Y222043D01*
X872979Y222043D01*
X872998Y222038D01*
X873101Y222046D01*
X873205Y222049D01*
X873224Y222056D01*
X873243Y222057D01*
X873338Y222098D01*
X873436Y222133D01*
X873451Y222146D01*
X873470Y222154D01*
X873601Y222259D01*
X923776Y272434D01*
X923829Y272508D01*
X923889Y272578D01*
X923901Y272608D01*
X923920Y272634D01*
X923947Y272721D01*
X923981Y272806D01*
X923985Y272847D01*
X923992Y272869D01*
X923991Y272901D01*
X923999Y272972D01*
X923999Y368028D01*
X923985Y368118D01*
X923977Y368209D01*
X923965Y368238D01*
X923960Y368270D01*
X923917Y368351D01*
X923881Y368435D01*
X923855Y368467D01*
X923844Y368488D01*
X923821Y368510D01*
X923776Y368566D01*
X904450Y387892D01*
X904392Y387934D01*
X904340Y387983D01*
X904293Y388005D01*
X904251Y388035D01*
X904182Y388056D01*
X904117Y388087D01*
X904065Y388092D01*
X904015Y388108D01*
X903944Y388106D01*
X903873Y388114D01*
X903822Y388103D01*
X903770Y388101D01*
X903702Y388077D01*
X903632Y388062D01*
X903587Y388035D01*
X903539Y388017D01*
X903483Y387972D01*
X903421Y387935D01*
X903387Y387896D01*
X903347Y387863D01*
X903308Y387803D01*
X903261Y387748D01*
X903242Y387700D01*
X903214Y387656D01*
X903196Y387587D01*
X903169Y387520D01*
X903161Y387449D01*
X903153Y387418D01*
X903155Y387395D01*
X903151Y387354D01*
X903151Y386663D01*
X902128Y384194D01*
X902101Y384080D01*
X902073Y383967D01*
X902073Y383961D01*
X902072Y383955D01*
X902083Y383838D01*
X902092Y383722D01*
X902094Y383716D01*
X902095Y383710D01*
X902143Y383602D01*
X902188Y383496D01*
X902193Y383490D01*
X902195Y383485D01*
X902208Y383472D01*
X902293Y383365D01*
X914434Y371224D01*
X917001Y368657D01*
X917001Y288682D01*
X901596Y273277D01*
X880204Y273277D01*
X872177Y281304D01*
X872103Y281357D01*
X872033Y281417D01*
X872003Y281429D01*
X871977Y281448D01*
X871890Y281475D01*
X871805Y281509D01*
X871764Y281513D01*
X871742Y281520D01*
X871710Y281519D01*
X871638Y281527D01*
X847694Y281527D01*
X847604Y281513D01*
X847513Y281505D01*
X847484Y281493D01*
X847452Y281488D01*
X847371Y281445D01*
X847287Y281409D01*
X847255Y281383D01*
X847234Y281372D01*
X847212Y281349D01*
X847156Y281304D01*
X833279Y267427D01*
X791721Y267427D01*
X780944Y278204D01*
X780870Y278257D01*
X780801Y278317D01*
X780770Y278329D01*
X780744Y278348D01*
X780657Y278375D01*
X780572Y278409D01*
X780531Y278413D01*
X780509Y278420D01*
X780477Y278419D01*
X780406Y278427D01*
X696119Y278427D01*
X673687Y300859D01*
X673687Y362445D01*
X676254Y365012D01*
X690666Y379424D01*
X690678Y379440D01*
X690694Y379453D01*
X690750Y379540D01*
X690810Y379624D01*
X690816Y379643D01*
X690827Y379660D01*
X690852Y379760D01*
X690882Y379859D01*
X690882Y379879D01*
X690887Y379898D01*
X690879Y380001D01*
X690876Y380105D01*
X690869Y380124D01*
X690867Y380144D01*
X690827Y380238D01*
X690791Y380336D01*
X690779Y380352D01*
X690771Y380370D01*
X690666Y380501D01*
X688800Y382367D01*
X687259Y386087D01*
X687259Y390113D01*
X688741Y393691D01*
X688752Y393735D01*
X688771Y393777D01*
X688780Y393854D01*
X688797Y393930D01*
X688793Y393976D01*
X688798Y394021D01*
X688782Y394098D01*
X688774Y394175D01*
X688756Y394217D01*
X688746Y394262D01*
X688706Y394329D01*
X688674Y394400D01*
X688643Y394434D01*
X688620Y394473D01*
X688561Y394524D01*
X688508Y394581D01*
X688468Y394603D01*
X688433Y394633D01*
X688361Y394662D01*
X688292Y394699D01*
X688247Y394708D01*
X688205Y394725D01*
X688069Y394740D01*
X688050Y394743D01*
X688045Y394742D01*
X688038Y394743D01*
X641962Y394743D01*
X641917Y394736D01*
X641871Y394738D01*
X641796Y394716D01*
X641719Y394704D01*
X641679Y394682D01*
X641635Y394669D01*
X641571Y394625D01*
X641502Y394588D01*
X641470Y394555D01*
X641433Y394529D01*
X641386Y394467D01*
X641333Y394410D01*
X641313Y394368D01*
X641286Y394332D01*
X641262Y394258D01*
X641229Y394187D01*
X641224Y394141D01*
X641210Y394098D01*
X641210Y394020D01*
X641202Y393943D01*
X641212Y393898D01*
X641212Y393852D01*
X641250Y393720D01*
X641254Y393702D01*
X641257Y393698D01*
X641259Y393691D01*
X642741Y390113D01*
X642741Y386087D01*
X641200Y382367D01*
X638353Y379520D01*
X634633Y377979D01*
X617216Y377979D01*
X617146Y377968D01*
X617074Y377966D01*
X617025Y377948D01*
X616974Y377940D01*
X616910Y377906D01*
X616843Y377881D01*
X616802Y377849D01*
X616756Y377824D01*
X616707Y377772D01*
X616651Y377728D01*
X616623Y377684D01*
X616587Y377646D01*
X616557Y377581D01*
X616518Y377521D01*
X616505Y377470D01*
X616483Y377423D01*
X616475Y377352D01*
X616458Y377282D01*
X616462Y377230D01*
X616456Y377179D01*
X616471Y377108D01*
X616477Y377037D01*
X616497Y376989D01*
X616508Y376938D01*
X616545Y376877D01*
X616573Y376811D01*
X616618Y376755D01*
X616635Y376727D01*
X616652Y376712D01*
X616678Y376680D01*
X620314Y373044D01*
X620388Y372991D01*
X620458Y372931D01*
X620488Y372919D01*
X620514Y372900D01*
X620601Y372873D01*
X620686Y372839D01*
X620727Y372835D01*
X620749Y372828D01*
X620781Y372829D01*
X620852Y372821D01*
X634633Y372821D01*
X638353Y371280D01*
X641200Y368433D01*
X642741Y364713D01*
X642741Y360687D01*
X641200Y356967D01*
X638353Y354120D01*
X634633Y352579D01*
X617216Y352579D01*
X617146Y352568D01*
X617074Y352566D01*
X617025Y352548D01*
X616974Y352540D01*
X616910Y352506D01*
X616843Y352481D01*
X616802Y352449D01*
X616756Y352424D01*
X616707Y352372D01*
X616651Y352328D01*
X616623Y352284D01*
X616587Y352246D01*
X616557Y352181D01*
X616518Y352121D01*
X616505Y352070D01*
X616483Y352023D01*
X616475Y351952D01*
X616458Y351882D01*
X616462Y351830D01*
X616456Y351779D01*
X616471Y351708D01*
X616477Y351637D01*
X616497Y351589D01*
X616508Y351538D01*
X616545Y351477D01*
X616573Y351411D01*
X616618Y351355D01*
X616635Y351327D01*
X616652Y351312D01*
X616678Y351280D01*
X620314Y347644D01*
X620388Y347591D01*
X620458Y347531D01*
X620488Y347519D01*
X620514Y347500D01*
X620601Y347473D01*
X620686Y347439D01*
X620727Y347435D01*
X620749Y347428D01*
X620781Y347429D01*
X620852Y347421D01*
X634633Y347421D01*
X638353Y345880D01*
X641200Y343033D01*
X642741Y339313D01*
X642741Y335287D01*
X641200Y331567D01*
X638353Y328720D01*
X634633Y327179D01*
X619943Y327179D01*
X619873Y327168D01*
X619801Y327166D01*
X619752Y327148D01*
X619701Y327140D01*
X619637Y327106D01*
X619570Y327081D01*
X619529Y327049D01*
X619483Y327024D01*
X619434Y326972D01*
X619378Y326928D01*
X619350Y326884D01*
X619314Y326846D01*
X619284Y326781D01*
X619245Y326721D01*
X619232Y326670D01*
X619210Y326623D01*
X619202Y326552D01*
X619185Y326482D01*
X619189Y326430D01*
X619183Y326379D01*
X619199Y326308D01*
X619204Y326237D01*
X619224Y326189D01*
X619236Y326138D01*
X619272Y326077D01*
X619300Y326011D01*
X619345Y325955D01*
X619362Y325927D01*
X619379Y325912D01*
X619405Y325880D01*
X623041Y322244D01*
X623115Y322191D01*
X623185Y322131D01*
X623215Y322119D01*
X623241Y322100D01*
X623328Y322073D01*
X623413Y322039D01*
X623454Y322035D01*
X623476Y322028D01*
X623508Y322029D01*
X623580Y322021D01*
X634633Y322021D01*
X638353Y320480D01*
X641200Y317633D01*
X642741Y313913D01*
X642741Y309887D01*
X641200Y306167D01*
X638353Y303320D01*
X634633Y301779D01*
X615367Y301779D01*
X611647Y303320D01*
X608800Y306167D01*
X607259Y309887D01*
X607259Y313913D01*
X608800Y317633D01*
X611647Y320480D01*
X611897Y320583D01*
X611936Y320608D01*
X611979Y320623D01*
X612040Y320672D01*
X612106Y320713D01*
X612135Y320748D01*
X612171Y320777D01*
X612213Y320843D01*
X612263Y320903D01*
X612279Y320945D01*
X612304Y320984D01*
X612323Y321060D01*
X612351Y321132D01*
X612353Y321178D01*
X612364Y321223D01*
X612358Y321300D01*
X612362Y321378D01*
X612349Y321422D01*
X612345Y321468D01*
X612315Y321539D01*
X612293Y321614D01*
X612267Y321652D01*
X612249Y321694D01*
X612164Y321801D01*
X612153Y321816D01*
X612149Y321819D01*
X612144Y321825D01*
X596254Y337715D01*
X593687Y340282D01*
X593687Y397914D01*
X596254Y400480D01*
X596254Y400481D01*
X609523Y413750D01*
X609524Y413750D01*
X612090Y416317D01*
X733535Y416317D01*
X736101Y413750D01*
X736102Y413750D01*
X746006Y403846D01*
X746006Y403845D01*
X748573Y401279D01*
X748573Y394762D01*
X748576Y394742D01*
X748574Y394723D01*
X748596Y394621D01*
X748612Y394519D01*
X748622Y394502D01*
X748626Y394482D01*
X748679Y394393D01*
X748728Y394302D01*
X748742Y394288D01*
X748752Y394271D01*
X748831Y394204D01*
X748906Y394132D01*
X748924Y394124D01*
X748939Y394111D01*
X749035Y394072D01*
X749129Y394029D01*
X749149Y394027D01*
X749167Y394019D01*
X749334Y394001D01*
X799161Y394001D01*
X799276Y394020D01*
X799392Y394037D01*
X799398Y394039D01*
X799404Y394040D01*
X799507Y394095D01*
X799611Y394148D01*
X799616Y394153D01*
X799621Y394156D01*
X799701Y394240D01*
X799784Y394324D01*
X799787Y394330D01*
X799791Y394334D01*
X799799Y394351D01*
X799865Y394471D01*
X800514Y396040D01*
X803960Y399486D01*
X808463Y401351D01*
X813337Y401351D01*
X817840Y399486D01*
X821286Y396040D01*
X823151Y391537D01*
X823151Y386663D01*
X821286Y382160D01*
X817840Y378714D01*
X813337Y376849D01*
X808463Y376849D01*
X803960Y378714D01*
X800514Y382160D01*
X799119Y385529D01*
X799057Y385629D01*
X798997Y385729D01*
X798993Y385733D01*
X798989Y385738D01*
X798899Y385813D01*
X798811Y385889D01*
X798805Y385891D01*
X798800Y385895D01*
X798691Y385937D01*
X798582Y385981D01*
X798575Y385982D01*
X798570Y385983D01*
X798552Y385984D01*
X798416Y385999D01*
X744810Y385999D01*
X744790Y385996D01*
X744771Y385998D01*
X744669Y385976D01*
X744567Y385960D01*
X744550Y385950D01*
X744530Y385946D01*
X744441Y385893D01*
X744350Y385844D01*
X744336Y385830D01*
X744319Y385820D01*
X744252Y385741D01*
X744180Y385666D01*
X744172Y385648D01*
X744159Y385633D01*
X744120Y385537D01*
X744077Y385443D01*
X744075Y385423D01*
X744067Y385405D01*
X744049Y385238D01*
X744049Y384720D01*
X744063Y384630D01*
X744071Y384539D01*
X744083Y384510D01*
X744088Y384478D01*
X744131Y384397D01*
X744167Y384313D01*
X744193Y384281D01*
X744204Y384260D01*
X744227Y384238D01*
X744272Y384182D01*
X765130Y363324D01*
X765204Y363271D01*
X765273Y363211D01*
X765304Y363199D01*
X765330Y363180D01*
X765417Y363153D01*
X765502Y363119D01*
X765543Y363115D01*
X765565Y363108D01*
X765597Y363109D01*
X765668Y363101D01*
X798788Y363101D01*
X798903Y363120D01*
X799019Y363137D01*
X799025Y363139D01*
X799031Y363140D01*
X799134Y363195D01*
X799239Y363248D01*
X799243Y363253D01*
X799249Y363256D01*
X799328Y363340D01*
X799411Y363424D01*
X799414Y363430D01*
X799418Y363434D01*
X799426Y363451D01*
X799492Y363571D01*
X800514Y366040D01*
X803960Y369486D01*
X808463Y371351D01*
X813337Y371351D01*
X817840Y369486D01*
X821286Y366040D01*
X823151Y361537D01*
X823151Y356663D01*
X821286Y352160D01*
X817840Y348714D01*
X813337Y346849D01*
X808463Y346849D01*
X803960Y348714D01*
X800514Y352160D01*
X799492Y354629D01*
X799430Y354729D01*
X799370Y354829D01*
X799365Y354833D01*
X799362Y354838D01*
X799272Y354913D01*
X799183Y354989D01*
X799177Y354991D01*
X799173Y354995D01*
X799065Y355037D01*
X798955Y355081D01*
X798948Y355082D01*
X798943Y355083D01*
X798925Y355084D01*
X798788Y355099D01*
X768794Y355099D01*
X768724Y355088D01*
X768652Y355086D01*
X768603Y355068D01*
X768552Y355060D01*
X768488Y355026D01*
X768421Y355001D01*
X768380Y354969D01*
X768334Y354944D01*
X768285Y354892D01*
X768229Y354848D01*
X768201Y354804D01*
X768165Y354766D01*
X768135Y354701D01*
X768096Y354641D01*
X768083Y354590D01*
X768061Y354543D01*
X768053Y354472D01*
X768036Y354402D01*
X768040Y354350D01*
X768034Y354299D01*
X768049Y354228D01*
X768055Y354157D01*
X768075Y354109D01*
X768086Y354058D01*
X768123Y353997D01*
X768151Y353931D01*
X768196Y353875D01*
X768213Y353847D01*
X768230Y353832D01*
X768256Y353800D01*
X788732Y333324D01*
X788806Y333271D01*
X788876Y333211D01*
X788906Y333199D01*
X788932Y333180D01*
X789019Y333153D01*
X789104Y333119D01*
X789145Y333115D01*
X789167Y333108D01*
X789199Y333109D01*
X789270Y333101D01*
X798788Y333101D01*
X798903Y333120D01*
X799019Y333137D01*
X799025Y333139D01*
X799031Y333140D01*
X799134Y333195D01*
X799239Y333248D01*
X799243Y333253D01*
X799249Y333256D01*
X799328Y333340D01*
X799411Y333424D01*
X799414Y333430D01*
X799418Y333434D01*
X799426Y333451D01*
X799492Y333571D01*
X800514Y336040D01*
X803960Y339486D01*
X808463Y341351D01*
X813337Y341351D01*
X817840Y339486D01*
X821286Y336040D01*
X823151Y331537D01*
X823151Y326663D01*
X821286Y322160D01*
X817840Y318714D01*
X813337Y316849D01*
X808463Y316849D01*
X803960Y318714D01*
X800514Y322160D01*
X799492Y324629D01*
X799430Y324729D01*
X799370Y324829D01*
X799365Y324833D01*
X799362Y324838D01*
X799272Y324913D01*
X799183Y324989D01*
X799177Y324991D01*
X799173Y324995D01*
X799065Y325037D01*
X798955Y325081D01*
X798948Y325082D01*
X798943Y325083D01*
X798925Y325084D01*
X798788Y325099D01*
X792396Y325099D01*
X792326Y325088D01*
X792254Y325086D01*
X792205Y325068D01*
X792154Y325060D01*
X792090Y325026D01*
X792023Y325001D01*
X791982Y324969D01*
X791936Y324944D01*
X791887Y324893D01*
X791831Y324848D01*
X791803Y324804D01*
X791767Y324766D01*
X791737Y324701D01*
X791698Y324641D01*
X791685Y324590D01*
X791663Y324543D01*
X791655Y324472D01*
X791638Y324402D01*
X791642Y324350D01*
X791636Y324299D01*
X791651Y324228D01*
X791657Y324157D01*
X791677Y324109D01*
X791688Y324058D01*
X791725Y323997D01*
X791753Y323931D01*
X791798Y323875D01*
X791815Y323847D01*
X791832Y323832D01*
X791858Y323800D01*
X804084Y311574D01*
X804158Y311521D01*
X804228Y311461D01*
X804258Y311449D01*
X804284Y311430D01*
X804371Y311403D01*
X804456Y311369D01*
X804497Y311365D01*
X804519Y311358D01*
X804551Y311359D01*
X804622Y311351D01*
X821686Y311351D01*
X822552Y310484D01*
X822631Y310427D01*
X822707Y310365D01*
X822731Y310356D01*
X822752Y310341D01*
X822845Y310312D01*
X822936Y310277D01*
X822962Y310276D01*
X822987Y310268D01*
X823084Y310271D01*
X823182Y310267D01*
X823207Y310274D01*
X823233Y310275D01*
X823325Y310308D01*
X823418Y310335D01*
X823440Y310350D01*
X823464Y310359D01*
X823540Y310420D01*
X823620Y310475D01*
X823636Y310496D01*
X823656Y310513D01*
X823709Y310595D01*
X823767Y310673D01*
X823775Y310698D01*
X823789Y310720D01*
X823813Y310814D01*
X823843Y310907D01*
X823843Y310933D01*
X823849Y310958D01*
X823842Y311055D01*
X823841Y311153D01*
X823832Y311184D01*
X823830Y311203D01*
X823817Y311234D01*
X823794Y311314D01*
X823649Y311663D01*
X823649Y316537D01*
X825514Y321040D01*
X828960Y324486D01*
X833463Y326351D01*
X838337Y326351D01*
X842840Y324486D01*
X846286Y321040D01*
X848151Y316537D01*
X848151Y311663D01*
X846286Y307160D01*
X843525Y304400D01*
X843484Y304342D01*
X843434Y304290D01*
X843412Y304243D01*
X843382Y304201D01*
X843361Y304132D01*
X843331Y304067D01*
X843325Y304015D01*
X843309Y303965D01*
X843311Y303894D01*
X843303Y303823D01*
X843315Y303772D01*
X843316Y303720D01*
X843340Y303652D01*
X843356Y303582D01*
X843382Y303537D01*
X843400Y303489D01*
X843445Y303433D01*
X843482Y303371D01*
X843521Y303337D01*
X843554Y303297D01*
X843614Y303258D01*
X843669Y303211D01*
X843717Y303192D01*
X843761Y303164D01*
X843830Y303146D01*
X843897Y303119D01*
X843968Y303111D01*
X843999Y303103D01*
X844023Y303105D01*
X844064Y303101D01*
X857736Y303101D01*
X857807Y303112D01*
X857879Y303114D01*
X857928Y303132D01*
X857979Y303140D01*
X858042Y303174D01*
X858110Y303199D01*
X858150Y303231D01*
X858196Y303256D01*
X858246Y303308D01*
X858302Y303352D01*
X858330Y303396D01*
X858366Y303434D01*
X858396Y303499D01*
X858435Y303559D01*
X858448Y303610D01*
X858469Y303657D01*
X858477Y303728D01*
X858495Y303798D01*
X858491Y303850D01*
X858497Y303901D01*
X858481Y303972D01*
X858476Y304043D01*
X858455Y304091D01*
X858444Y304142D01*
X858407Y304203D01*
X858379Y304269D01*
X858335Y304325D01*
X858318Y304353D01*
X858300Y304368D01*
X858275Y304400D01*
X855514Y307160D01*
X853649Y311663D01*
X853649Y316537D01*
X855514Y321040D01*
X858960Y324486D01*
X863463Y326351D01*
X868337Y326351D01*
X872840Y324486D01*
X876286Y321040D01*
X878151Y316537D01*
X878151Y311663D01*
X876286Y307160D01*
X873525Y304400D01*
X873484Y304342D01*
X873434Y304290D01*
X873412Y304243D01*
X873382Y304201D01*
X873361Y304132D01*
X873331Y304067D01*
X873325Y304015D01*
X873309Y303965D01*
X873311Y303894D01*
X873303Y303823D01*
X873315Y303772D01*
X873316Y303720D01*
X873340Y303652D01*
X873356Y303582D01*
X873382Y303537D01*
X873400Y303489D01*
X873445Y303433D01*
X873482Y303371D01*
X873521Y303337D01*
X873554Y303297D01*
X873614Y303258D01*
X873669Y303211D01*
X873717Y303192D01*
X873761Y303164D01*
X873830Y303146D01*
X873897Y303119D01*
X873968Y303111D01*
X873999Y303103D01*
X874023Y303105D01*
X874064Y303101D01*
X878788Y303101D01*
X878903Y303120D01*
X879019Y303137D01*
X879025Y303139D01*
X879031Y303140D01*
X879134Y303195D01*
X879239Y303248D01*
X879243Y303253D01*
X879249Y303256D01*
X879328Y303340D01*
X879411Y303424D01*
X879414Y303430D01*
X879418Y303434D01*
X879426Y303451D01*
X879492Y303571D01*
X880514Y306040D01*
X883960Y309486D01*
X888463Y311351D01*
X889219Y311351D01*
X889290Y311362D01*
X889361Y311364D01*
X889410Y311382D01*
X889462Y311390D01*
X889525Y311424D01*
X889592Y311449D01*
X889633Y311481D01*
X889679Y311506D01*
X889728Y311558D01*
X889784Y311602D01*
X889812Y311646D01*
X889848Y311684D01*
X889878Y311749D01*
X889917Y311809D01*
X889930Y311860D01*
X889952Y311907D01*
X889960Y311978D01*
X889977Y312048D01*
X889973Y312100D01*
X889979Y312151D01*
X889964Y312222D01*
X889958Y312293D01*
X889938Y312341D01*
X889927Y312392D01*
X889890Y312453D01*
X889862Y312519D01*
X889817Y312575D01*
X889801Y312603D01*
X889783Y312618D01*
X889757Y312650D01*
X889566Y312842D01*
X886999Y315408D01*
X886999Y316947D01*
X886980Y317062D01*
X886963Y317178D01*
X886961Y317184D01*
X886960Y317190D01*
X886905Y317292D01*
X886852Y317397D01*
X886847Y317402D01*
X886844Y317407D01*
X886760Y317487D01*
X886676Y317569D01*
X886670Y317573D01*
X886666Y317577D01*
X886649Y317584D01*
X886529Y317650D01*
X883960Y318714D01*
X880514Y322160D01*
X878649Y326663D01*
X878649Y331537D01*
X880514Y336040D01*
X883960Y339486D01*
X888463Y341351D01*
X893337Y341351D01*
X897840Y339486D01*
X901286Y336040D01*
X902733Y332546D01*
X902784Y332463D01*
X902830Y332377D01*
X902849Y332359D01*
X902862Y332337D01*
X902937Y332275D01*
X903008Y332208D01*
X903032Y332197D01*
X903052Y332180D01*
X903143Y332145D01*
X903231Y332104D01*
X903257Y332101D01*
X903281Y332092D01*
X903379Y332088D01*
X903475Y332077D01*
X903501Y332083D01*
X903527Y332082D01*
X903621Y332109D01*
X903716Y332129D01*
X903738Y332143D01*
X903763Y332150D01*
X903843Y332206D01*
X903927Y332256D01*
X903944Y332275D01*
X903965Y332290D01*
X904024Y332368D01*
X904087Y332442D01*
X904097Y332467D01*
X904112Y332488D01*
X904142Y332580D01*
X904179Y332671D01*
X904182Y332703D01*
X904188Y332722D01*
X904188Y332755D01*
X904197Y332837D01*
X904197Y336830D01*
X904183Y336920D01*
X904175Y337011D01*
X904163Y337040D01*
X904158Y337072D01*
X904115Y337153D01*
X904079Y337237D01*
X904053Y337269D01*
X904042Y337290D01*
X904019Y337312D01*
X903974Y337368D01*
X902999Y338343D01*
X902999Y341028D01*
X902985Y341118D01*
X902977Y341209D01*
X902965Y341238D01*
X902960Y341270D01*
X902917Y341351D01*
X902881Y341435D01*
X902855Y341467D01*
X902844Y341488D01*
X902821Y341510D01*
X902776Y341566D01*
X896635Y347707D01*
X896540Y347775D01*
X896447Y347845D01*
X896441Y347847D01*
X896436Y347850D01*
X896324Y347885D01*
X896213Y347921D01*
X896206Y347921D01*
X896200Y347923D01*
X896084Y347920D01*
X895967Y347919D01*
X895960Y347917D01*
X895955Y347916D01*
X895937Y347910D01*
X895806Y347872D01*
X893337Y346849D01*
X888463Y346849D01*
X883960Y348714D01*
X880514Y352160D01*
X878649Y356663D01*
X878649Y361537D01*
X880514Y366040D01*
X883960Y369486D01*
X888463Y371351D01*
X893337Y371351D01*
X897840Y369486D01*
X901286Y366040D01*
X903151Y361537D01*
X903151Y356663D01*
X902128Y354194D01*
X902101Y354081D01*
X902073Y353967D01*
X902073Y353961D01*
X902072Y353955D01*
X902083Y353838D01*
X902092Y353722D01*
X902094Y353716D01*
X902095Y353710D01*
X902143Y353602D01*
X902188Y353496D01*
X902193Y353490D01*
X902195Y353485D01*
X902208Y353472D01*
X902293Y353365D01*
X907700Y347958D01*
X907758Y347916D01*
X907810Y347867D01*
X907857Y347845D01*
X907899Y347815D01*
X907968Y347794D01*
X908033Y347763D01*
X908085Y347758D01*
X908135Y347742D01*
X908206Y347744D01*
X908277Y347736D01*
X908328Y347747D01*
X908380Y347749D01*
X908448Y347773D01*
X908518Y347788D01*
X908562Y347815D01*
X908611Y347833D01*
X908667Y347878D01*
X908729Y347915D01*
X908763Y347954D01*
X908803Y347987D01*
X908842Y348047D01*
X908889Y348102D01*
X908908Y348150D01*
X908936Y348194D01*
X908954Y348263D01*
X908981Y348330D01*
X908989Y348401D01*
X908997Y348432D01*
X908995Y348455D01*
X908999Y348496D01*
X908999Y365028D01*
X908985Y365118D01*
X908977Y365209D01*
X908965Y365238D01*
X908960Y365270D01*
X908917Y365351D01*
X908881Y365435D01*
X908855Y365467D01*
X908844Y365488D01*
X908821Y365510D01*
X908776Y365566D01*
X896635Y377707D01*
X896540Y377775D01*
X896447Y377845D01*
X896441Y377847D01*
X896436Y377850D01*
X896324Y377885D01*
X896213Y377921D01*
X896206Y377921D01*
X896200Y377923D01*
X896084Y377920D01*
X895967Y377919D01*
X895960Y377917D01*
X895955Y377916D01*
X895937Y377910D01*
X895806Y377872D01*
X893337Y376849D01*
X888463Y376849D01*
X883960Y378714D01*
X880605Y382070D01*
X880589Y382082D01*
X880576Y382097D01*
X880489Y382153D01*
X880405Y382214D01*
X880386Y382220D01*
X880369Y382230D01*
X880269Y382256D01*
X880170Y382286D01*
X880150Y382286D01*
X880131Y382290D01*
X880028Y382282D01*
X879924Y382280D01*
X879905Y382273D01*
X879885Y382271D01*
X879790Y382231D01*
X879693Y382195D01*
X879677Y382183D01*
X879659Y382175D01*
X879528Y382070D01*
X877293Y379835D01*
X877225Y379740D01*
X877155Y379647D01*
X877153Y379641D01*
X877150Y379636D01*
X877115Y379524D01*
X877079Y379413D01*
X877079Y379406D01*
X877077Y379400D01*
X877080Y379284D01*
X877081Y379167D01*
X877083Y379160D01*
X877084Y379155D01*
X877090Y379137D01*
X877128Y379006D01*
X878151Y376537D01*
X878151Y371663D01*
X876286Y367160D01*
X872840Y363714D01*
X868337Y361849D01*
X863463Y361849D01*
X858960Y363714D01*
X855514Y367160D01*
X853649Y371663D01*
X853649Y376537D01*
X855514Y381040D01*
X858960Y384486D01*
X863463Y386351D01*
X868337Y386351D01*
X870806Y385328D01*
X870919Y385301D01*
X871033Y385273D01*
X871039Y385273D01*
X871045Y385272D01*
X871162Y385283D01*
X871278Y385292D01*
X871284Y385294D01*
X871290Y385295D01*
X871397Y385343D01*
X871504Y385388D01*
X871510Y385393D01*
X871515Y385395D01*
X871528Y385408D01*
X871635Y385493D01*
X873902Y387760D01*
X873955Y387834D01*
X874015Y387904D01*
X874027Y387934D01*
X874046Y387960D01*
X874073Y388047D01*
X874107Y388132D01*
X874111Y388173D01*
X874118Y388195D01*
X874117Y388227D01*
X874125Y388298D01*
X874125Y393162D01*
X874114Y393233D01*
X874112Y393305D01*
X874094Y393354D01*
X874086Y393405D01*
X874052Y393468D01*
X874027Y393536D01*
X873995Y393577D01*
X873970Y393622D01*
X873918Y393672D01*
X873874Y393728D01*
X873830Y393756D01*
X873792Y393792D01*
X873727Y393822D01*
X873667Y393861D01*
X873616Y393874D01*
X873569Y393895D01*
X873498Y393903D01*
X873428Y393921D01*
X873376Y393917D01*
X873325Y393923D01*
X873254Y393907D01*
X873183Y393902D01*
X873135Y393881D01*
X873084Y393870D01*
X873023Y393833D01*
X872957Y393805D01*
X872901Y393761D01*
X872873Y393744D01*
X872858Y393726D01*
X872847Y393717D01*
X868337Y391849D01*
X863463Y391849D01*
X858960Y393714D01*
X855514Y397160D01*
X853649Y401663D01*
X853649Y406537D01*
X855514Y411040D01*
X858960Y414486D01*
X862612Y415998D01*
X862668Y416033D01*
X862728Y416058D01*
X862793Y416110D01*
X862821Y416128D01*
X862833Y416143D01*
X862859Y416163D01*
X867245Y420550D01*
X867287Y420608D01*
X867337Y420660D01*
X867359Y420707D01*
X867389Y420749D01*
X867410Y420818D01*
X867440Y420883D01*
X867446Y420935D01*
X867461Y420985D01*
X867459Y421056D01*
X867467Y421127D01*
X867456Y421178D01*
X867455Y421230D01*
X867430Y421298D01*
X867415Y421368D01*
X867388Y421412D01*
X867371Y421461D01*
X867326Y421517D01*
X867289Y421579D01*
X867249Y421613D01*
X867217Y421653D01*
X867157Y421692D01*
X867102Y421739D01*
X867054Y421758D01*
X867010Y421786D01*
X866940Y421804D01*
X866874Y421831D01*
X866803Y421839D01*
X866771Y421847D01*
X866748Y421845D01*
X866707Y421849D01*
X863463Y421849D01*
X858960Y423714D01*
X855514Y427160D01*
X853649Y431663D01*
X853649Y436537D01*
X855514Y441040D01*
X858960Y444486D01*
X863463Y446351D01*
X868337Y446351D01*
X872840Y444486D01*
X876286Y441040D01*
X878151Y436537D01*
X878151Y433293D01*
X878162Y433222D01*
X878164Y433150D01*
X878182Y433101D01*
X878190Y433050D01*
X878224Y432987D01*
X878249Y432919D01*
X878281Y432879D01*
X878306Y432833D01*
X878357Y432783D01*
X878402Y432727D01*
X878446Y432699D01*
X878484Y432663D01*
X878549Y432633D01*
X878609Y432594D01*
X878660Y432582D01*
X878707Y432560D01*
X878778Y432552D01*
X878848Y432534D01*
X878900Y432538D01*
X878951Y432533D01*
X879022Y432548D01*
X879093Y432553D01*
X879141Y432574D01*
X879192Y432585D01*
X879253Y432622D01*
X879319Y432650D01*
X879375Y432695D01*
X879403Y432711D01*
X879418Y432729D01*
X879450Y432755D01*
X884180Y437484D01*
X884207Y437522D01*
X884241Y437553D01*
X884278Y437621D01*
X884323Y437684D01*
X884337Y437728D01*
X884359Y437768D01*
X884373Y437845D01*
X884396Y437919D01*
X884395Y437965D01*
X884403Y438010D01*
X884391Y438087D01*
X884389Y438165D01*
X884374Y438208D01*
X884367Y438254D01*
X884332Y438323D01*
X884305Y438396D01*
X884276Y438432D01*
X884255Y438473D01*
X884200Y438527D01*
X884151Y438588D01*
X884113Y438613D01*
X884080Y438645D01*
X883969Y438706D01*
X880514Y442160D01*
X878649Y446663D01*
X878649Y451537D01*
X880514Y456040D01*
X883960Y459486D01*
X888463Y461351D01*
X893337Y461351D01*
X895806Y460328D01*
X895919Y460301D01*
X896033Y460273D01*
X896039Y460273D01*
X896045Y460272D01*
X896162Y460283D01*
X896278Y460292D01*
X896284Y460294D01*
X896290Y460295D01*
X896398Y460343D01*
X896504Y460388D01*
X896510Y460393D01*
X896515Y460395D01*
X896528Y460408D01*
X896635Y460493D01*
X905776Y469634D01*
X905829Y469708D01*
X905889Y469778D01*
X905901Y469808D01*
X905920Y469834D01*
X905947Y469921D01*
X905981Y470006D01*
X905985Y470047D01*
X905992Y470069D01*
X905991Y470101D01*
X905999Y470172D01*
X905999Y486704D01*
X905988Y486774D01*
X905986Y486846D01*
X905968Y486895D01*
X905960Y486946D01*
X905926Y487010D01*
X905901Y487077D01*
X905869Y487118D01*
X905844Y487164D01*
X905793Y487213D01*
X905748Y487269D01*
X905704Y487297D01*
X905666Y487333D01*
X905601Y487363D01*
X905541Y487402D01*
X905490Y487415D01*
X905443Y487437D01*
X905372Y487445D01*
X905302Y487462D01*
X905250Y487458D01*
X905199Y487464D01*
X905128Y487449D01*
X905057Y487443D01*
X905009Y487423D01*
X904958Y487412D01*
X904897Y487375D01*
X904831Y487347D01*
X904775Y487302D01*
X904747Y487285D01*
X904732Y487268D01*
X904700Y487242D01*
X902293Y484835D01*
X902225Y484740D01*
X902155Y484647D01*
X902153Y484641D01*
X902150Y484635D01*
X902115Y484524D01*
X902079Y484413D01*
X902079Y484406D01*
X902077Y484400D01*
X902080Y484284D01*
X902081Y484167D01*
X902083Y484160D01*
X902084Y484155D01*
X902090Y484137D01*
X902128Y484006D01*
X903151Y481537D01*
X903151Y476663D01*
X901286Y472160D01*
X897840Y468714D01*
X893337Y466849D01*
X888463Y466849D01*
X883960Y468714D01*
X880514Y472160D01*
X878649Y476663D01*
X878649Y481537D01*
X880514Y486040D01*
X883960Y489486D01*
X888463Y491351D01*
X893337Y491351D01*
X895806Y490328D01*
X895919Y490301D01*
X896033Y490273D01*
X896039Y490273D01*
X896045Y490272D01*
X896162Y490283D01*
X896278Y490292D01*
X896284Y490294D01*
X896290Y490295D01*
X896397Y490343D01*
X896504Y490388D01*
X896510Y490393D01*
X896515Y490395D01*
X896528Y490408D01*
X896635Y490493D01*
X899776Y493634D01*
X899829Y493708D01*
X899889Y493778D01*
X899901Y493808D01*
X899920Y493834D01*
X899947Y493921D01*
X899981Y494006D01*
X899985Y494047D01*
X899992Y494069D01*
X899991Y494101D01*
X899999Y494172D01*
X899999Y499036D01*
X899988Y499107D01*
X899986Y499179D01*
X899968Y499228D01*
X899960Y499279D01*
X899926Y499342D01*
X899901Y499410D01*
X899869Y499450D01*
X899844Y499496D01*
X899792Y499546D01*
X899748Y499602D01*
X899704Y499630D01*
X899666Y499666D01*
X899601Y499696D01*
X899541Y499735D01*
X899490Y499748D01*
X899443Y499769D01*
X899372Y499777D01*
X899302Y499795D01*
X899250Y499791D01*
X899199Y499797D01*
X899128Y499781D01*
X899057Y499776D01*
X899009Y499755D01*
X898958Y499744D01*
X898897Y499707D01*
X898831Y499679D01*
X898775Y499635D01*
X898747Y499618D01*
X898732Y499600D01*
X898700Y499575D01*
X897840Y498714D01*
X893337Y496849D01*
X888463Y496849D01*
X883960Y498714D01*
X880514Y502160D01*
X878649Y506663D01*
X878649Y511537D01*
X880514Y516040D01*
X883960Y519486D01*
X886429Y520508D01*
X886529Y520570D01*
X886629Y520630D01*
X886633Y520635D01*
X886638Y520638D01*
X886713Y520728D01*
X886789Y520817D01*
X886791Y520823D01*
X886795Y520827D01*
X886837Y520935D01*
X886881Y521045D01*
X886882Y521052D01*
X886883Y521057D01*
X886884Y521075D01*
X886899Y521212D01*
X886899Y521557D01*
X890892Y525550D01*
X890934Y525608D01*
X890983Y525660D01*
X891005Y525707D01*
X891035Y525749D01*
X891056Y525818D01*
X891087Y525883D01*
X891092Y525935D01*
X891108Y525985D01*
X891106Y526056D01*
X891114Y526127D01*
X891103Y526178D01*
X891101Y526230D01*
X891077Y526298D01*
X891062Y526368D01*
X891035Y526413D01*
X891017Y526461D01*
X890972Y526517D01*
X890935Y526579D01*
X890896Y526613D01*
X890863Y526653D01*
X890803Y526692D01*
X890748Y526739D01*
X890700Y526758D01*
X890656Y526786D01*
X890587Y526804D01*
X890520Y526831D01*
X890449Y526839D01*
X890418Y526847D01*
X890395Y526845D01*
X890354Y526849D01*
X888463Y526849D01*
X883960Y528714D01*
X880514Y532160D01*
X879492Y534629D01*
X879430Y534729D01*
X879370Y534829D01*
X879365Y534833D01*
X879362Y534838D01*
X879272Y534913D01*
X879183Y534989D01*
X879177Y534991D01*
X879173Y534995D01*
X879065Y535037D01*
X878955Y535081D01*
X878948Y535082D01*
X878943Y535083D01*
X878925Y535084D01*
X878788Y535099D01*
X874064Y535099D01*
X873993Y535088D01*
X873921Y535086D01*
X873872Y535068D01*
X873821Y535060D01*
X873758Y535026D01*
X873690Y535001D01*
X873650Y534969D01*
X873604Y534944D01*
X873554Y534892D01*
X873498Y534848D01*
X873470Y534804D01*
X873434Y534766D01*
X873404Y534701D01*
X873365Y534641D01*
X873352Y534590D01*
X873331Y534543D01*
X873323Y534472D01*
X873305Y534402D01*
X873309Y534350D01*
X873303Y534299D01*
X873319Y534228D01*
X873324Y534157D01*
X873345Y534109D01*
X873356Y534058D01*
X873393Y533997D01*
X873421Y533931D01*
X873465Y533875D01*
X873482Y533847D01*
X873500Y533832D01*
X873525Y533800D01*
X876286Y531040D01*
X878151Y526537D01*
X878151Y521663D01*
X876286Y517160D01*
X872840Y513714D01*
X868337Y511849D01*
X863463Y511849D01*
X858960Y513714D01*
X855514Y517160D01*
X853649Y521663D01*
X853649Y526537D01*
X855514Y531040D01*
X858275Y533800D01*
X858316Y533858D01*
X858366Y533910D01*
X858388Y533957D01*
X858418Y533999D01*
X858439Y534068D01*
X858469Y534133D01*
X858475Y534185D01*
X858491Y534235D01*
X858489Y534306D01*
X858497Y534377D01*
X858485Y534428D01*
X858484Y534480D01*
X858460Y534548D01*
X858444Y534618D01*
X858418Y534663D01*
X858400Y534711D01*
X858355Y534767D01*
X858318Y534829D01*
X858279Y534863D01*
X858246Y534903D01*
X858186Y534942D01*
X858131Y534989D01*
X858083Y535008D01*
X858039Y535036D01*
X857970Y535054D01*
X857903Y535081D01*
X857832Y535089D01*
X857801Y535097D01*
X857777Y535095D01*
X857736Y535099D01*
X844064Y535099D01*
X843993Y535088D01*
X843921Y535086D01*
X843872Y535068D01*
X843821Y535060D01*
X843758Y535026D01*
X843690Y535001D01*
X843650Y534969D01*
X843604Y534944D01*
X843554Y534892D01*
X843498Y534848D01*
X843470Y534804D01*
X843434Y534766D01*
X843404Y534701D01*
X843365Y534641D01*
X843352Y534590D01*
X843331Y534543D01*
X843323Y534472D01*
X843305Y534402D01*
X843309Y534350D01*
X843303Y534299D01*
X843319Y534228D01*
X843324Y534157D01*
X843345Y534109D01*
X843356Y534058D01*
X843393Y533997D01*
X843421Y533931D01*
X843465Y533875D01*
X843482Y533847D01*
X843500Y533832D01*
X843525Y533800D01*
X846286Y531040D01*
X848151Y526537D01*
X848151Y521663D01*
X846286Y517160D01*
X842840Y513714D01*
X838337Y511849D01*
X833463Y511849D01*
X828960Y513714D01*
X825514Y517160D01*
X823649Y521663D01*
X823649Y526537D01*
X825514Y531040D01*
X828275Y533800D01*
X828316Y533858D01*
X828366Y533910D01*
X828388Y533957D01*
X828418Y533999D01*
X828439Y534068D01*
X828469Y534133D01*
X828475Y534185D01*
X828491Y534235D01*
X828489Y534306D01*
X828497Y534377D01*
X828485Y534428D01*
X828484Y534480D01*
X828460Y534548D01*
X828444Y534618D01*
X828418Y534663D01*
X828400Y534711D01*
X828355Y534767D01*
X828318Y534829D01*
X828279Y534863D01*
X828246Y534903D01*
X828186Y534942D01*
X828131Y534989D01*
X828083Y535008D01*
X828039Y535036D01*
X827970Y535054D01*
X827903Y535081D01*
X827832Y535089D01*
X827801Y535097D01*
X827777Y535095D01*
X827736Y535099D01*
X827243Y535099D01*
X824450Y537892D01*
X824392Y537934D01*
X824340Y537983D01*
X824293Y538005D01*
X824251Y538035D01*
X824182Y538056D01*
X824117Y538087D01*
X824065Y538092D01*
X824015Y538108D01*
X823944Y538106D01*
X823873Y538114D01*
X823822Y538103D01*
X823770Y538101D01*
X823702Y538077D01*
X823632Y538062D01*
X823587Y538035D01*
X823539Y538017D01*
X823483Y537972D01*
X823421Y537935D01*
X823387Y537896D01*
X823347Y537863D01*
X823308Y537803D01*
X823261Y537748D01*
X823242Y537700D01*
X823214Y537656D01*
X823196Y537587D01*
X823169Y537520D01*
X823161Y537449D01*
X823153Y537418D01*
X823155Y537395D01*
X823151Y537354D01*
X823151Y536663D01*
X821286Y532160D01*
X817840Y528714D01*
X813337Y526849D01*
X808463Y526849D01*
X805994Y527872D01*
X805881Y527899D01*
X805767Y527927D01*
X805761Y527927D01*
X805755Y527928D01*
X805638Y527917D01*
X805522Y527908D01*
X805516Y527906D01*
X805510Y527905D01*
X805402Y527857D01*
X805296Y527812D01*
X805290Y527807D01*
X805285Y527805D01*
X805272Y527792D01*
X805165Y527707D01*
X791858Y514400D01*
X791816Y514342D01*
X791767Y514290D01*
X791745Y514243D01*
X791715Y514201D01*
X791694Y514132D01*
X791663Y514067D01*
X791658Y514015D01*
X791642Y513965D01*
X791644Y513894D01*
X791636Y513823D01*
X791647Y513772D01*
X791649Y513720D01*
X791673Y513652D01*
X791688Y513582D01*
X791715Y513538D01*
X791733Y513489D01*
X791778Y513433D01*
X791815Y513371D01*
X791854Y513337D01*
X791887Y513297D01*
X791947Y513258D01*
X792002Y513211D01*
X792050Y513192D01*
X792094Y513164D01*
X792163Y513146D01*
X792230Y513119D01*
X792301Y513111D01*
X792332Y513103D01*
X792355Y513105D01*
X792396Y513101D01*
X798788Y513101D01*
X798903Y513120D01*
X799019Y513137D01*
X799025Y513139D01*
X799031Y513140D01*
X799134Y513195D01*
X799239Y513248D01*
X799243Y513253D01*
X799249Y513256D01*
X799328Y513340D01*
X799411Y513424D01*
X799414Y513430D01*
X799418Y513434D01*
X799426Y513451D01*
X799492Y513571D01*
X800514Y516040D01*
X803960Y519486D01*
X808463Y521351D01*
X813337Y521351D01*
X817840Y519486D01*
X821286Y516040D01*
X823151Y511537D01*
X823151Y506663D01*
X821286Y502160D01*
X817840Y498714D01*
X813337Y496849D01*
X808463Y496849D01*
X803960Y498714D01*
X800514Y502160D01*
X799492Y504629D01*
X799430Y504729D01*
X799370Y504829D01*
X799365Y504833D01*
X799362Y504838D01*
X799272Y504913D01*
X799183Y504989D01*
X799177Y504991D01*
X799173Y504995D01*
X799065Y505037D01*
X798955Y505081D01*
X798948Y505082D01*
X798943Y505083D01*
X798925Y505084D01*
X798788Y505099D01*
X789270Y505099D01*
X789180Y505085D01*
X789089Y505077D01*
X789060Y505065D01*
X789028Y505060D01*
X788947Y505017D01*
X788863Y504981D01*
X788831Y504955D01*
X788810Y504944D01*
X788788Y504921D01*
X788732Y504876D01*
X768256Y484400D01*
X768214Y484342D01*
X768165Y484290D01*
X768143Y484243D01*
X768113Y484201D01*
X768091Y484132D01*
X768061Y484067D01*
X768055Y484015D01*
X768040Y483965D01*
X768042Y483894D01*
X768034Y483823D01*
X768045Y483772D01*
X768047Y483720D01*
X768071Y483652D01*
X768086Y483582D01*
X768113Y483537D01*
X768131Y483489D01*
X768176Y483433D01*
X768213Y483371D01*
X768252Y483337D01*
X768285Y483297D01*
X768345Y483258D01*
X768399Y483211D01*
X768448Y483192D01*
X768492Y483164D01*
X768561Y483146D01*
X768628Y483119D01*
X768699Y483111D01*
X768730Y483103D01*
X768753Y483105D01*
X768794Y483101D01*
X798788Y483101D01*
X798903Y483120D01*
X799019Y483137D01*
X799025Y483139D01*
X799031Y483140D01*
X799134Y483195D01*
X799239Y483248D01*
X799243Y483253D01*
X799249Y483256D01*
X799328Y483340D01*
X799411Y483424D01*
X799414Y483430D01*
X799418Y483434D01*
X799426Y483451D01*
X799492Y483571D01*
X800514Y486040D01*
X803960Y489486D01*
X808463Y491351D01*
X813337Y491351D01*
X817840Y489486D01*
X821286Y486040D01*
X823151Y481537D01*
X823151Y476663D01*
X821286Y472160D01*
X817840Y468714D01*
X813337Y466849D01*
X808463Y466849D01*
X803960Y468714D01*
X800514Y472160D01*
X799492Y474629D01*
X799430Y474729D01*
X799370Y474829D01*
X799365Y474833D01*
X799362Y474838D01*
X799272Y474913D01*
X799183Y474989D01*
X799177Y474991D01*
X799173Y474995D01*
X799065Y475037D01*
X798955Y475081D01*
X798948Y475082D01*
X798943Y475083D01*
X798925Y475084D01*
X798788Y475099D01*
X765668Y475099D01*
X765578Y475085D01*
X765487Y475077D01*
X765458Y475065D01*
X765426Y475060D01*
X765345Y475017D01*
X765261Y474981D01*
X765229Y474955D01*
X765208Y474944D01*
X765186Y474921D01*
X765130Y474876D01*
X744654Y454400D01*
X744612Y454342D01*
X744563Y454290D01*
X744541Y454243D01*
X744510Y454201D01*
X744489Y454132D01*
X744459Y454067D01*
X744453Y454015D01*
X744438Y453965D01*
X744440Y453894D01*
X744432Y453823D01*
X744443Y453772D01*
X744444Y453720D01*
X744469Y453652D01*
X744484Y453582D01*
X744511Y453537D01*
X744529Y453489D01*
X744574Y453433D01*
X744611Y453371D01*
X744650Y453337D01*
X744683Y453297D01*
X744743Y453258D01*
X744797Y453211D01*
X744846Y453192D01*
X744890Y453164D01*
X744959Y453146D01*
X745026Y453119D01*
X745097Y453111D01*
X745128Y453103D01*
X745151Y453105D01*
X745192Y453101D01*
X798788Y453101D01*
X798903Y453120D01*
X799019Y453137D01*
X799025Y453139D01*
X799031Y453140D01*
X799134Y453195D01*
X799239Y453248D01*
X799243Y453253D01*
X799249Y453256D01*
X799328Y453340D01*
X799411Y453424D01*
X799414Y453430D01*
X799418Y453434D01*
X799426Y453451D01*
X799492Y453571D01*
X800514Y456040D01*
X803960Y459486D01*
X808463Y461351D01*
X813337Y461351D01*
X817840Y459486D01*
X821286Y456040D01*
X823151Y451537D01*
X823151Y446663D01*
X821286Y442160D01*
X817840Y438714D01*
X813337Y436849D01*
X808463Y436849D01*
X803960Y438714D01*
X800514Y442160D01*
X799492Y444629D01*
X799430Y444729D01*
X799370Y444829D01*
X799365Y444833D01*
X799362Y444838D01*
X799272Y444913D01*
X799183Y444989D01*
X799177Y444991D01*
X799173Y444995D01*
X799065Y445037D01*
X798955Y445081D01*
X798948Y445082D01*
X798943Y445083D01*
X798925Y445084D01*
X798788Y445099D01*
X748334Y445099D01*
X748314Y445096D01*
X748295Y445098D01*
X748193Y445076D01*
X748091Y445060D01*
X748074Y445050D01*
X748054Y445046D01*
X747965Y444993D01*
X747874Y444944D01*
X747860Y444930D01*
X747843Y444920D01*
X747776Y444841D01*
X747704Y444766D01*
X747696Y444748D01*
X747683Y444733D01*
X747644Y444637D01*
X747601Y444543D01*
X747599Y444523D01*
X747591Y444505D01*
X747573Y444338D01*
X747573Y439721D01*
X730279Y422427D01*
X613346Y422427D01*
X593687Y442086D01*
X593687Y502445D01*
X596254Y505012D01*
X610666Y519424D01*
X610678Y519440D01*
X610694Y519453D01*
X610750Y519540D01*
X610810Y519624D01*
X610816Y519643D01*
X610827Y519660D01*
X610852Y519760D01*
X610882Y519859D01*
X610882Y519879D01*
X610887Y519898D01*
X610879Y520001D01*
X610876Y520105D01*
X610869Y520124D01*
X610867Y520144D01*
X610827Y520238D01*
X610791Y520336D01*
X610779Y520352D01*
X610771Y520370D01*
X610666Y520501D01*
X608800Y522367D01*
X607259Y526087D01*
X607259Y530113D01*
X608800Y533833D01*
X611647Y536680D01*
X615367Y538221D01*
X634633Y538221D01*
X638353Y536680D01*
X641200Y533833D01*
X642741Y530113D01*
X642741Y526087D01*
X641200Y522367D01*
X638353Y519520D01*
X634633Y517979D01*
X620852Y517979D01*
X620762Y517965D01*
X620671Y517957D01*
X620642Y517945D01*
X620610Y517940D01*
X620529Y517897D01*
X620445Y517861D01*
X620413Y517835D01*
X620392Y517824D01*
X620370Y517801D01*
X620314Y517756D01*
X616678Y514120D01*
X616636Y514062D01*
X616587Y514010D01*
X616565Y513963D01*
X616535Y513921D01*
X616514Y513852D01*
X616483Y513787D01*
X616478Y513735D01*
X616462Y513685D01*
X616464Y513614D01*
X616456Y513543D01*
X616467Y513492D01*
X616469Y513440D01*
X616493Y513372D01*
X616508Y513302D01*
X616535Y513257D01*
X616553Y513209D01*
X616598Y513153D01*
X616635Y513091D01*
X616674Y513057D01*
X616707Y513017D01*
X616767Y512978D01*
X616822Y512931D01*
X616870Y512912D01*
X616914Y512884D01*
X616983Y512866D01*
X617050Y512839D01*
X617121Y512831D01*
X617152Y512823D01*
X617175Y512825D01*
X617216Y512821D01*
X634633Y512821D01*
X638353Y511280D01*
X641200Y508433D01*
X642741Y504713D01*
X642741Y500687D01*
X641200Y496967D01*
X638353Y494120D01*
X634633Y492579D01*
X620852Y492579D01*
X620762Y492565D01*
X620671Y492557D01*
X620642Y492545D01*
X620610Y492540D01*
X620529Y492497D01*
X620445Y492461D01*
X620413Y492435D01*
X620392Y492424D01*
X620370Y492401D01*
X620314Y492356D01*
X616678Y488720D01*
X616636Y488662D01*
X616587Y488610D01*
X616565Y488563D01*
X616535Y488521D01*
X616514Y488452D01*
X616483Y488387D01*
X616478Y488335D01*
X616462Y488285D01*
X616464Y488214D01*
X616456Y488143D01*
X616467Y488092D01*
X616469Y488040D01*
X616493Y487972D01*
X616508Y487902D01*
X616535Y487857D01*
X616553Y487809D01*
X616598Y487753D01*
X616635Y487691D01*
X616674Y487657D01*
X616707Y487617D01*
X616767Y487578D01*
X616822Y487531D01*
X616870Y487512D01*
X616914Y487484D01*
X616983Y487466D01*
X617050Y487439D01*
X617121Y487431D01*
X617152Y487423D01*
X617175Y487425D01*
X617216Y487421D01*
X634633Y487421D01*
X638353Y485880D01*
X641200Y483033D01*
X642741Y479313D01*
X642741Y475287D01*
X641200Y471567D01*
X638353Y468720D01*
X634633Y467179D01*
X618152Y467179D01*
X618062Y467165D01*
X617971Y467157D01*
X617942Y467145D01*
X617910Y467140D01*
X617829Y467097D01*
X617745Y467061D01*
X617713Y467035D01*
X617692Y467024D01*
X617670Y467001D01*
X617614Y466956D01*
X613484Y462826D01*
X613427Y462747D01*
X613365Y462672D01*
X613356Y462647D01*
X613340Y462626D01*
X613312Y462533D01*
X613277Y462442D01*
X613276Y462416D01*
X613268Y462391D01*
X613270Y462294D01*
X613266Y462197D01*
X613274Y462171D01*
X613274Y462145D01*
X613308Y462054D01*
X613335Y461960D01*
X613350Y461939D01*
X613359Y461914D01*
X613420Y461838D01*
X613475Y461758D01*
X613496Y461743D01*
X613512Y461722D01*
X613594Y461670D01*
X613673Y461611D01*
X613697Y461603D01*
X613719Y461589D01*
X613814Y461565D01*
X613906Y461535D01*
X613933Y461536D01*
X613958Y461529D01*
X614055Y461537D01*
X614152Y461538D01*
X614184Y461547D01*
X614203Y461548D01*
X614233Y461561D01*
X614313Y461584D01*
X615367Y462021D01*
X634633Y462021D01*
X638353Y460480D01*
X641200Y457633D01*
X642741Y453913D01*
X642741Y449887D01*
X641200Y446167D01*
X640333Y445300D01*
X640291Y445242D01*
X640242Y445190D01*
X640220Y445143D01*
X640190Y445101D01*
X640168Y445032D01*
X640138Y444967D01*
X640133Y444915D01*
X640117Y444865D01*
X640119Y444794D01*
X640111Y444723D01*
X640122Y444672D01*
X640124Y444620D01*
X640148Y444552D01*
X640163Y444482D01*
X640190Y444437D01*
X640208Y444389D01*
X640253Y444333D01*
X640290Y444271D01*
X640329Y444237D01*
X640362Y444197D01*
X640422Y444158D01*
X640477Y444111D01*
X640525Y444092D01*
X640569Y444064D01*
X640638Y444046D01*
X640705Y444019D01*
X640776Y444011D01*
X640807Y444003D01*
X640830Y444005D01*
X640871Y444001D01*
X689129Y444001D01*
X689199Y444012D01*
X689271Y444014D01*
X689320Y444032D01*
X689371Y444040D01*
X689435Y444074D01*
X689502Y444099D01*
X689543Y444131D01*
X689589Y444156D01*
X689638Y444208D01*
X689694Y444252D01*
X689722Y444296D01*
X689758Y444334D01*
X689788Y444399D01*
X689827Y444459D01*
X689840Y444510D01*
X689862Y444557D01*
X689870Y444628D01*
X689887Y444698D01*
X689883Y444750D01*
X689889Y444801D01*
X689874Y444872D01*
X689868Y444943D01*
X689848Y444991D01*
X689837Y445042D01*
X689800Y445103D01*
X689772Y445169D01*
X689727Y445225D01*
X689710Y445253D01*
X689693Y445268D01*
X689667Y445300D01*
X688800Y446167D01*
X687259Y449887D01*
X687259Y453913D01*
X688800Y457633D01*
X690666Y459499D01*
X690678Y459515D01*
X690694Y459528D01*
X690750Y459615D01*
X690810Y459699D01*
X690816Y459718D01*
X690827Y459735D01*
X690852Y459835D01*
X690882Y459934D01*
X690882Y459954D01*
X690887Y459973D01*
X690879Y460076D01*
X690876Y460180D01*
X690869Y460199D01*
X690867Y460218D01*
X690827Y460313D01*
X690791Y460411D01*
X690779Y460427D01*
X690771Y460445D01*
X690666Y460576D01*
X676254Y474988D01*
X673687Y477555D01*
X673687Y537914D01*
X693346Y557573D01*
X786141Y557573D01*
X786231Y557587D01*
X786322Y557595D01*
X786351Y557607D01*
X786383Y557612D01*
X786464Y557655D01*
X786548Y557691D01*
X786580Y557717D01*
X786601Y557728D01*
X786623Y557751D01*
X786679Y557796D01*
X798330Y569447D01*
X823470Y569447D01*
X836021Y556896D01*
X836095Y556843D01*
X836165Y556783D01*
X836195Y556771D01*
X836221Y556752D01*
X836308Y556725D01*
X836393Y556691D01*
X836434Y556687D01*
X836456Y556680D01*
X836488Y556681D01*
X836559Y556673D01*
X871638Y556673D01*
X871729Y556687D01*
X871819Y556695D01*
X871849Y556707D01*
X871881Y556712D01*
X871962Y556755D01*
X872046Y556791D01*
X872078Y556817D01*
X872099Y556828D01*
X872121Y556851D01*
X872177Y556896D01*
X880204Y564923D01*
X901596Y564923D01*
X916723Y549796D01*
X916723Y527269D01*
X914224Y524770D01*
X914171Y524696D01*
X914111Y524627D01*
X914099Y524596D01*
X914080Y524570D01*
X914053Y524483D01*
X914019Y524398D01*
X914015Y524357D01*
X914008Y524335D01*
X914009Y524303D01*
X914001Y524232D01*
X914001Y466543D01*
X911434Y463976D01*
X902293Y454835D01*
X902225Y454740D01*
X902155Y454647D01*
X902153Y454641D01*
X902150Y454636D01*
X902115Y454524D01*
X902079Y454413D01*
X902079Y454406D01*
X902077Y454400D01*
X902080Y454284D01*
X902081Y454167D01*
X902083Y454160D01*
X902084Y454155D01*
X902090Y454137D01*
X902128Y454006D01*
X903151Y451537D01*
X903151Y450781D01*
X903162Y450711D01*
X903164Y450639D01*
X903182Y450590D01*
X903190Y450538D01*
X903224Y450475D01*
X903249Y450408D01*
X903281Y450367D01*
X903306Y450321D01*
X903357Y450272D01*
X903402Y450216D01*
X903446Y450188D01*
X903484Y450152D01*
X903549Y450122D01*
X903609Y450083D01*
X903660Y450070D01*
X903707Y450048D01*
X903778Y450040D01*
X903848Y450023D01*
X903900Y450027D01*
X903951Y450021D01*
X904022Y450036D01*
X904093Y450042D01*
X904141Y450062D01*
X904192Y450073D01*
X904253Y450110D01*
X904319Y450138D01*
X904375Y450183D01*
X904403Y450199D01*
X904418Y450217D01*
X904450Y450243D01*
X924026Y469819D01*
X924079Y469893D01*
X924139Y469962D01*
X924151Y469993D01*
X924170Y470019D01*
X924197Y470106D01*
X924231Y470191D01*
X924235Y470231D01*
X924242Y470254D01*
X924241Y470286D01*
X924249Y470357D01*
X924249Y554131D01*
X924235Y554221D01*
X924227Y554312D01*
X924215Y554342D01*
X924210Y554374D01*
X924167Y554455D01*
X924131Y554538D01*
X924105Y554571D01*
X924094Y554591D01*
X924071Y554613D01*
X924026Y554669D01*
X888669Y590026D01*
X888595Y590079D01*
X888526Y590139D01*
X888496Y590151D01*
X888470Y590170D01*
X888383Y590197D01*
X888298Y590231D01*
X888257Y590235D01*
X888235Y590242D01*
X888202Y590241D01*
X888131Y590249D01*
X771446Y590249D01*
X730249Y631446D01*
X730249Y631870D01*
X730231Y631985D01*
X730213Y632101D01*
X730211Y632107D01*
X730210Y632113D01*
X730155Y632216D01*
X730102Y632321D01*
X730097Y632325D01*
X730094Y632330D01*
X730010Y632410D01*
X729926Y632493D01*
X729920Y632496D01*
X729916Y632500D01*
X729899Y632508D01*
X729779Y632574D01*
X728267Y633200D01*
X725420Y636047D01*
X723879Y639767D01*
X723879Y659033D01*
X725420Y662753D01*
X728267Y665600D01*
X731987Y667141D01*
X736013Y667141D01*
X739733Y665600D01*
X742580Y662753D01*
X744121Y659033D01*
X744121Y639767D01*
X742580Y636047D01*
X739957Y633424D01*
X739945Y633408D01*
X739930Y633395D01*
X739874Y633308D01*
X739813Y633224D01*
X739807Y633205D01*
X739797Y633188D01*
X739771Y633088D01*
X739741Y632989D01*
X739741Y632969D01*
X739737Y632950D01*
X739745Y632847D01*
X739747Y632743D01*
X739754Y632725D01*
X739756Y632705D01*
X739796Y632610D01*
X739832Y632512D01*
X739844Y632497D01*
X739852Y632478D01*
X739957Y632347D01*
X774331Y597974D01*
X774405Y597921D01*
X774474Y597861D01*
X774504Y597849D01*
X774530Y597830D01*
X774617Y597803D01*
X774702Y597769D01*
X774743Y597765D01*
X774765Y597758D01*
X774798Y597759D01*
X774869Y597751D01*
X788390Y597751D01*
X788460Y597762D01*
X788532Y597764D01*
X788581Y597782D01*
X788632Y597790D01*
X788696Y597824D01*
X788763Y597849D01*
X788804Y597881D01*
X788850Y597906D01*
X788899Y597958D01*
X788955Y598002D01*
X788983Y598046D01*
X789019Y598084D01*
X789049Y598149D01*
X789088Y598209D01*
X789101Y598260D01*
X789123Y598307D01*
X789131Y598378D01*
X789148Y598448D01*
X789144Y598500D01*
X789150Y598551D01*
X789135Y598622D01*
X789129Y598693D01*
X789109Y598741D01*
X789098Y598792D01*
X789061Y598853D01*
X789033Y598919D01*
X788988Y598975D01*
X788971Y599003D01*
X788954Y599018D01*
X788928Y599050D01*
X787793Y600185D01*
X786499Y603309D01*
X786499Y606691D01*
X786746Y607285D01*
X786772Y607399D01*
X786801Y607513D01*
X786800Y607519D01*
X786802Y607525D01*
X786791Y607641D01*
X786782Y607758D01*
X786779Y607764D01*
X786779Y607770D01*
X786731Y607877D01*
X786685Y607984D01*
X786681Y607990D01*
X786679Y607995D01*
X786666Y608008D01*
X786581Y608115D01*
X762921Y631775D01*
X762826Y631843D01*
X762732Y631913D01*
X762726Y631915D01*
X762721Y631919D01*
X762609Y631953D01*
X762498Y631989D01*
X762492Y631989D01*
X762486Y631991D01*
X762369Y631988D01*
X762252Y631987D01*
X762245Y631985D01*
X762240Y631985D01*
X762222Y631978D01*
X762091Y631940D01*
X761413Y631659D01*
X757387Y631659D01*
X753667Y633200D01*
X750820Y636047D01*
X749279Y639767D01*
X749279Y659033D01*
X750820Y662753D01*
X753667Y665600D01*
X757387Y667141D01*
X761413Y667141D01*
X765133Y665600D01*
X767980Y662753D01*
X769521Y659033D01*
X769521Y639767D01*
X768549Y637420D01*
X768522Y637306D01*
X768493Y637193D01*
X768494Y637187D01*
X768493Y637181D01*
X768504Y637064D01*
X768513Y636948D01*
X768515Y636942D01*
X768516Y636936D01*
X768564Y636828D01*
X768609Y636722D01*
X768614Y636716D01*
X768616Y636711D01*
X768628Y636697D01*
X768714Y636591D01*
X791885Y613419D01*
X791979Y613352D01*
X792074Y613281D01*
X792080Y613279D01*
X792085Y613276D01*
X792195Y613242D01*
X792307Y613205D01*
X792314Y613205D01*
X792320Y613204D01*
X792436Y613207D01*
X792553Y613208D01*
X792561Y613210D01*
X792566Y613210D01*
X792583Y613216D01*
X792715Y613254D01*
X793309Y613501D01*
X796691Y613501D01*
X799815Y612207D01*
X802207Y609815D01*
X803501Y606691D01*
X803501Y603309D01*
X802207Y600185D01*
X801072Y599050D01*
X801030Y598992D01*
X800981Y598940D01*
X800959Y598893D01*
X800929Y598851D01*
X800907Y598782D01*
X800877Y598717D01*
X800872Y598665D01*
X800856Y598615D01*
X800858Y598544D01*
X800850Y598473D01*
X800861Y598422D01*
X800863Y598370D01*
X800887Y598302D01*
X800902Y598232D01*
X800929Y598187D01*
X800947Y598139D01*
X800992Y598083D01*
X801029Y598021D01*
X801068Y597987D01*
X801101Y597947D01*
X801161Y597908D01*
X801215Y597861D01*
X801264Y597842D01*
X801308Y597814D01*
X801377Y597796D01*
X801444Y597769D01*
X801515Y597761D01*
X801546Y597753D01*
X801569Y597755D01*
X801610Y597751D01*
X891554Y597751D01*
X931751Y557554D01*
X931751Y466935D01*
X929331Y464515D01*
X897641Y432825D01*
X892482Y432825D01*
X892419Y432815D01*
X892356Y432815D01*
X892299Y432795D01*
X892240Y432786D01*
X892183Y432756D01*
X892123Y432735D01*
X892075Y432698D01*
X892022Y432670D01*
X891978Y432624D01*
X891928Y432585D01*
X891894Y432536D01*
X891853Y432492D01*
X891826Y432434D01*
X891790Y432381D01*
X891775Y432323D01*
X891749Y432269D01*
X891742Y432206D01*
X891725Y432144D01*
X891729Y432084D01*
X891722Y432025D01*
X891736Y431962D01*
X891739Y431898D01*
X891762Y431843D01*
X891775Y431784D01*
X891807Y431729D01*
X891831Y431670D01*
X891870Y431625D01*
X891901Y431573D01*
X891949Y431532D01*
X891991Y431483D01*
X892042Y431452D01*
X892088Y431413D01*
X892147Y431389D01*
X892202Y431356D01*
X892285Y431334D01*
X892316Y431321D01*
X892340Y431319D01*
X892363Y431312D01*
X893778Y431088D01*
X895618Y430490D01*
X897342Y429612D01*
X898907Y428475D01*
X900275Y427107D01*
X901412Y425542D01*
X902290Y423818D01*
X902888Y421978D01*
X903103Y420623D01*
X891662Y420623D01*
X891642Y420620D01*
X891623Y420622D01*
X891521Y420600D01*
X891419Y420583D01*
X891402Y420574D01*
X891382Y420570D01*
X891293Y420517D01*
X891202Y420468D01*
X891188Y420454D01*
X891171Y420444D01*
X891104Y420365D01*
X891033Y420290D01*
X891024Y420272D01*
X891011Y420257D01*
X890973Y420161D01*
X890929Y420067D01*
X890927Y420047D01*
X890919Y420029D01*
X890901Y419862D01*
X890901Y418338D01*
X890904Y418318D01*
X890902Y418299D01*
X890924Y418197D01*
X890941Y418095D01*
X890950Y418078D01*
X890954Y418058D01*
X891007Y417969D01*
X891056Y417878D01*
X891070Y417864D01*
X891080Y417847D01*
X891159Y417780D01*
X891234Y417709D01*
X891252Y417700D01*
X891267Y417687D01*
X891363Y417648D01*
X891457Y417605D01*
X891477Y417603D01*
X891495Y417595D01*
X891662Y417577D01*
X903103Y417577D01*
X902888Y416222D01*
X902290Y414382D01*
X901412Y412658D01*
X900275Y411093D01*
X898907Y409725D01*
X897342Y408588D01*
X895618Y407710D01*
X894542Y407360D01*
X894538Y407358D01*
X894534Y407357D01*
X894430Y407302D01*
X894323Y407247D01*
X894320Y407244D01*
X894317Y407242D01*
X894235Y407156D01*
X894152Y407071D01*
X894150Y407067D01*
X894147Y407064D01*
X894097Y406956D01*
X894046Y406849D01*
X894045Y406845D01*
X894044Y406841D01*
X894031Y406723D01*
X894016Y406604D01*
X894017Y406600D01*
X894017Y406597D01*
X894042Y406479D01*
X894066Y406364D01*
X894068Y406360D01*
X894069Y406356D01*
X894131Y406253D01*
X894190Y406151D01*
X894193Y406148D01*
X894195Y406145D01*
X894286Y406067D01*
X894375Y405989D01*
X894379Y405988D01*
X894382Y405985D01*
X894494Y405940D01*
X894602Y405895D01*
X894606Y405895D01*
X894610Y405893D01*
X894777Y405875D01*
X897848Y405875D01*
X907764Y395959D01*
X907793Y395891D01*
X907819Y395859D01*
X907830Y395838D01*
X907853Y395816D01*
X907898Y395760D01*
X932001Y371657D01*
X932001Y269343D01*
X879046Y216388D01*
X878993Y216314D01*
X878933Y216244D01*
X878921Y216214D01*
X878902Y216188D01*
X878875Y216101D01*
X878841Y216016D01*
X878837Y215975D01*
X878830Y215953D01*
X878831Y215921D01*
X878823Y215850D01*
X878823Y204840D01*
X872221Y198238D01*
X872209Y198222D01*
X872194Y198210D01*
X872163Y198161D01*
X872158Y198156D01*
X872154Y198148D01*
X872138Y198122D01*
X872077Y198039D01*
X872072Y198020D01*
X872061Y198003D01*
X872035Y197902D01*
X872005Y197803D01*
X872006Y197784D01*
X872001Y197764D01*
X872009Y197661D01*
X872011Y197558D01*
X872018Y197539D01*
X872020Y197519D01*
X872060Y197424D01*
X872096Y197327D01*
X872108Y197311D01*
X872116Y197293D01*
X872221Y197162D01*
X877562Y191821D01*
X877578Y191809D01*
X877590Y191794D01*
X877678Y191738D01*
X877761Y191677D01*
X877780Y191672D01*
X877797Y191661D01*
X877898Y191635D01*
X877997Y191605D01*
X878016Y191606D01*
X878036Y191601D01*
X878139Y191609D01*
X878242Y191611D01*
X878261Y191618D01*
X878281Y191620D01*
X878376Y191660D01*
X878473Y191696D01*
X878489Y191708D01*
X878507Y191716D01*
X878638Y191821D01*
X885240Y198423D01*
X896360Y198423D01*
X904223Y190560D01*
X904223Y179440D01*
X896360Y171577D01*
X885240Y171577D01*
X878638Y178179D01*
X878622Y178191D01*
X878610Y178206D01*
X878522Y178262D01*
X878439Y178323D01*
X878420Y178328D01*
X878403Y178339D01*
X878302Y178365D01*
X878203Y178395D01*
X878184Y178394D01*
X878164Y178399D01*
X878061Y178391D01*
X877958Y178389D01*
X877939Y178382D01*
X877919Y178380D01*
X877824Y178340D01*
X877727Y178304D01*
X877711Y178292D01*
X877693Y178284D01*
X877562Y178179D01*
X870960Y171577D01*
X867904Y171577D01*
X867814Y171563D01*
X867723Y171555D01*
X867693Y171543D01*
X867661Y171538D01*
X867581Y171495D01*
X867497Y171459D01*
X867465Y171433D01*
X867444Y171422D01*
X867422Y171399D01*
X867366Y171354D01*
X861134Y165122D01*
X861092Y165064D01*
X861042Y165012D01*
X861020Y164965D01*
X860990Y164923D01*
X860969Y164854D01*
X860939Y164789D01*
X860933Y164737D01*
X860918Y164687D01*
X860920Y164616D01*
X860912Y164545D01*
X860923Y164494D01*
X860924Y164442D01*
X860949Y164374D01*
X860964Y164304D01*
X860991Y164260D01*
X861009Y164211D01*
X861053Y164155D01*
X861090Y164093D01*
X861130Y164059D01*
X861162Y164019D01*
X861223Y163980D01*
X861277Y163933D01*
X861325Y163914D01*
X861369Y163886D01*
X861439Y163868D01*
X861505Y163841D01*
X861577Y163833D01*
X861608Y163825D01*
X861631Y163827D01*
X861672Y163823D01*
X871960Y163823D01*
X879823Y155960D01*
X879823Y146272D01*
X879834Y146201D01*
X879836Y146130D01*
X879854Y146081D01*
X879862Y146029D01*
X879896Y145966D01*
X879921Y145899D01*
X879953Y145858D01*
X879978Y145812D01*
X880030Y145763D01*
X880074Y145707D01*
X880118Y145678D01*
X880156Y145642D01*
X880221Y145612D01*
X880281Y145574D01*
X880332Y145561D01*
X880379Y145539D01*
X880450Y145531D01*
X880520Y145513D01*
X880572Y145518D01*
X880623Y145512D01*
X880694Y145527D01*
X880765Y145533D01*
X880813Y145553D01*
X880864Y145564D01*
X880925Y145601D01*
X880991Y145629D01*
X881047Y145674D01*
X881075Y145690D01*
X881090Y145708D01*
X881122Y145734D01*
X894926Y159538D01*
X897639Y162251D01*
X936261Y162251D01*
X938974Y159538D01*
X948201Y150310D01*
X948217Y150299D01*
X948230Y150283D01*
X948317Y150227D01*
X948401Y150167D01*
X948420Y150161D01*
X948437Y150150D01*
X948537Y150125D01*
X948636Y150095D01*
X948656Y150095D01*
X948675Y150090D01*
X948778Y150098D01*
X948882Y150101D01*
X948900Y150108D01*
X948920Y150109D01*
X949015Y150150D01*
X949113Y150185D01*
X949128Y150198D01*
X949147Y150206D01*
X949278Y150310D01*
X950967Y152000D01*
X954687Y153541D01*
X958713Y153541D01*
X962433Y152000D01*
X965280Y149153D01*
X966821Y145433D01*
X966821Y126167D01*
X965280Y122447D01*
X962433Y119600D01*
X958713Y118059D01*
X954687Y118059D01*
X950967Y119600D01*
X948120Y122447D01*
X946579Y126167D01*
X946579Y139594D01*
X946565Y139684D01*
X946557Y139775D01*
X946545Y139805D01*
X946540Y139837D01*
X946497Y139917D01*
X946461Y140001D01*
X946435Y140033D01*
X946424Y140054D01*
X946401Y140076D01*
X946356Y140132D01*
X942760Y143728D01*
X942702Y143770D01*
X942650Y143820D01*
X942603Y143841D01*
X942561Y143872D01*
X942492Y143893D01*
X942427Y143923D01*
X942375Y143929D01*
X942325Y143944D01*
X942254Y143942D01*
X942183Y143950D01*
X942132Y143939D01*
X942080Y143938D01*
X942012Y143913D01*
X941942Y143898D01*
X941897Y143871D01*
X941849Y143853D01*
X941793Y143809D01*
X941731Y143772D01*
X941697Y143732D01*
X941657Y143700D01*
X941618Y143639D01*
X941571Y143585D01*
X941552Y143537D01*
X941524Y143493D01*
X941506Y143423D01*
X941479Y143357D01*
X941471Y143285D01*
X941463Y143254D01*
X941465Y143231D01*
X941461Y143190D01*
X941461Y137323D01*
X932062Y137323D01*
X932042Y137320D01*
X932023Y137322D01*
X931921Y137300D01*
X931819Y137283D01*
X931802Y137274D01*
X931782Y137270D01*
X931693Y137217D01*
X931602Y137168D01*
X931588Y137154D01*
X931571Y137144D01*
X931504Y137065D01*
X931433Y136990D01*
X931424Y136972D01*
X931411Y136957D01*
X931373Y136861D01*
X931329Y136767D01*
X931327Y136747D01*
X931319Y136729D01*
X931301Y136562D01*
X931301Y135799D01*
X931299Y135799D01*
X931299Y136562D01*
X931296Y136582D01*
X931298Y136601D01*
X931276Y136703D01*
X931259Y136805D01*
X931250Y136822D01*
X931246Y136842D01*
X931193Y136931D01*
X931144Y137022D01*
X931130Y137036D01*
X931120Y137053D01*
X931041Y137120D01*
X930966Y137191D01*
X930948Y137200D01*
X930933Y137213D01*
X930837Y137252D01*
X930743Y137295D01*
X930723Y137297D01*
X930705Y137305D01*
X930538Y137323D01*
X921139Y137323D01*
X921139Y144220D01*
X921389Y145799D01*
X921884Y147320D01*
X922610Y148745D01*
X923550Y150039D01*
X924681Y151170D01*
X925975Y152110D01*
X926366Y152310D01*
X926421Y152350D01*
X926481Y152382D01*
X926519Y152422D01*
X926564Y152455D01*
X926603Y152511D01*
X926650Y152560D01*
X926674Y152611D01*
X926706Y152657D01*
X926725Y152721D01*
X926754Y152783D01*
X926760Y152839D01*
X926776Y152892D01*
X926773Y152960D01*
X926781Y153027D01*
X926769Y153082D01*
X926767Y153138D01*
X926743Y153202D01*
X926729Y153268D01*
X926700Y153316D01*
X926680Y153368D01*
X926637Y153421D01*
X926602Y153479D01*
X926560Y153515D01*
X926524Y153559D01*
X926467Y153595D01*
X926415Y153639D01*
X926363Y153660D01*
X926316Y153690D01*
X926250Y153705D01*
X926187Y153731D01*
X926109Y153739D01*
X926077Y153747D01*
X926056Y153745D01*
X926021Y153749D01*
X901476Y153749D01*
X901386Y153735D01*
X901295Y153727D01*
X901265Y153715D01*
X901233Y153710D01*
X901153Y153667D01*
X901069Y153631D01*
X901037Y153605D01*
X901016Y153594D01*
X900994Y153571D01*
X900938Y153526D01*
X887134Y139722D01*
X887092Y139664D01*
X887042Y139612D01*
X887020Y139565D01*
X886990Y139523D01*
X886969Y139454D01*
X886939Y139389D01*
X886933Y139337D01*
X886918Y139287D01*
X886920Y139216D01*
X886912Y139145D01*
X886923Y139094D01*
X886924Y139042D01*
X886949Y138974D01*
X886964Y138904D01*
X886991Y138859D01*
X887009Y138811D01*
X887053Y138755D01*
X887090Y138693D01*
X887130Y138659D01*
X887162Y138619D01*
X887223Y138580D01*
X887277Y138533D01*
X887325Y138514D01*
X887369Y138486D01*
X887439Y138468D01*
X887505Y138441D01*
X887577Y138433D01*
X887608Y138425D01*
X887631Y138427D01*
X887672Y138423D01*
X897360Y138423D01*
X905223Y130560D01*
X905223Y119440D01*
X897360Y111577D01*
X886240Y111577D01*
X879638Y118179D01*
X879622Y118191D01*
X879610Y118206D01*
X879522Y118262D01*
X879439Y118323D01*
X879420Y118328D01*
X879403Y118339D01*
X879302Y118365D01*
X879203Y118395D01*
X879184Y118394D01*
X879164Y118399D01*
X879061Y118391D01*
X878958Y118389D01*
X878939Y118382D01*
X878919Y118380D01*
X878824Y118340D01*
X878727Y118304D01*
X878711Y118292D01*
X878693Y118284D01*
X878562Y118179D01*
X871960Y111577D01*
X860840Y111577D01*
X854238Y118179D01*
X854222Y118191D01*
X854210Y118206D01*
X854122Y118262D01*
X854039Y118323D01*
X854020Y118328D01*
X854003Y118339D01*
X853902Y118365D01*
X853803Y118395D01*
X853784Y118394D01*
X853764Y118399D01*
X853661Y118391D01*
X853558Y118389D01*
X853539Y118382D01*
X853519Y118380D01*
X853424Y118340D01*
X853327Y118304D01*
X853311Y118292D01*
X853293Y118284D01*
X853162Y118179D01*
X846560Y111577D01*
X835440Y111577D01*
G37*
%LPD*%
%LPC*%
G36*
X951860Y206289D02*
X951860Y206289D01*
X944395Y209381D01*
X938681Y215095D01*
X935589Y222560D01*
X935589Y230640D01*
X938681Y238105D01*
X944395Y243819D01*
X951860Y246911D01*
X959940Y246911D01*
X967405Y243819D01*
X973119Y238105D01*
X976211Y230640D01*
X976211Y222560D01*
X973119Y215095D01*
X967405Y209381D01*
X959940Y206289D01*
X951860Y206289D01*
G37*
%LPD*%
%LPC*%
G36*
X951860Y591289D02*
X951860Y591289D01*
X944395Y594381D01*
X938681Y600095D01*
X935589Y607560D01*
X935589Y615640D01*
X938681Y623105D01*
X944395Y628819D01*
X951860Y631911D01*
X959940Y631911D01*
X967405Y628819D01*
X973119Y623105D01*
X976211Y615640D01*
X976211Y607560D01*
X973119Y600095D01*
X967405Y594381D01*
X959940Y591289D01*
X951860Y591289D01*
G37*
%LPD*%
%LPC*%
G36*
X715519Y210199D02*
X715519Y210199D01*
X709087Y212864D01*
X704164Y217787D01*
X701499Y224219D01*
X701499Y231181D01*
X704164Y237613D01*
X709087Y242536D01*
X715519Y245201D01*
X722481Y245201D01*
X728913Y242536D01*
X733836Y237613D01*
X736501Y231181D01*
X736501Y224219D01*
X733836Y217787D01*
X728913Y212864D01*
X722481Y210199D01*
X715519Y210199D01*
G37*
%LPD*%
%LPC*%
G36*
X665519Y210199D02*
X665519Y210199D01*
X659087Y212864D01*
X654164Y217787D01*
X651499Y224219D01*
X651499Y231181D01*
X654164Y237613D01*
X659087Y242536D01*
X665519Y245201D01*
X672481Y245201D01*
X678913Y242536D01*
X683836Y237613D01*
X686501Y231181D01*
X686501Y224219D01*
X683836Y217787D01*
X678913Y212864D01*
X672481Y210199D01*
X665519Y210199D01*
G37*
%LPD*%
%LPC*%
G36*
X626367Y599579D02*
X626367Y599579D01*
X622647Y601120D01*
X619800Y603967D01*
X618259Y607687D01*
X618259Y611713D01*
X619800Y615433D01*
X622647Y618280D01*
X626367Y619821D01*
X645633Y619821D01*
X649353Y618280D01*
X652200Y615433D01*
X653741Y611713D01*
X653741Y607687D01*
X652200Y603967D01*
X649353Y601120D01*
X645633Y599579D01*
X626367Y599579D01*
G37*
%LPD*%
%LPC*%
G36*
X681187Y631659D02*
X681187Y631659D01*
X677467Y633200D01*
X674620Y636047D01*
X673079Y639767D01*
X673079Y659033D01*
X674620Y662753D01*
X677467Y665600D01*
X681187Y667141D01*
X685213Y667141D01*
X688933Y665600D01*
X691780Y662753D01*
X693321Y659033D01*
X693321Y639767D01*
X691780Y636047D01*
X688933Y633200D01*
X685213Y631659D01*
X681187Y631659D01*
G37*
%LPD*%
%LPC*%
G36*
X823887Y631859D02*
X823887Y631859D01*
X820167Y633400D01*
X817320Y636247D01*
X815779Y639967D01*
X815779Y659233D01*
X817320Y662953D01*
X820167Y665800D01*
X823887Y667341D01*
X827913Y667341D01*
X831633Y665800D01*
X834480Y662953D01*
X836021Y659233D01*
X836021Y639967D01*
X834480Y636247D01*
X831633Y633400D01*
X827913Y631859D01*
X823887Y631859D01*
G37*
%LPD*%
%LPC*%
G36*
X621687Y156459D02*
X621687Y156459D01*
X617967Y158000D01*
X615120Y160847D01*
X613579Y164567D01*
X613579Y183833D01*
X615120Y187553D01*
X617967Y190400D01*
X621687Y191941D01*
X625713Y191941D01*
X629433Y190400D01*
X632280Y187553D01*
X633821Y183833D01*
X633821Y164567D01*
X632280Y160847D01*
X629433Y158000D01*
X625713Y156459D01*
X621687Y156459D01*
G37*
%LPD*%
%LPC*%
G36*
X874687Y631859D02*
X874687Y631859D01*
X870967Y633400D01*
X868120Y636247D01*
X866579Y639967D01*
X866579Y659233D01*
X868120Y662953D01*
X870967Y665800D01*
X874687Y667341D01*
X878713Y667341D01*
X882433Y665800D01*
X885280Y662953D01*
X886821Y659233D01*
X886821Y639967D01*
X885280Y636247D01*
X882433Y633400D01*
X878713Y631859D01*
X874687Y631859D01*
G37*
%LPD*%
%LPC*%
G36*
X596287Y156459D02*
X596287Y156459D01*
X592567Y158000D01*
X589720Y160847D01*
X588179Y164567D01*
X588179Y183833D01*
X589720Y187553D01*
X592567Y190400D01*
X596287Y191941D01*
X600313Y191941D01*
X604033Y190400D01*
X606880Y187553D01*
X608421Y183833D01*
X608421Y164567D01*
X606880Y160847D01*
X604033Y158000D01*
X600313Y156459D01*
X596287Y156459D01*
G37*
%LPD*%
%LPC*%
G36*
X900087Y631859D02*
X900087Y631859D01*
X896367Y633400D01*
X893520Y636247D01*
X891979Y639967D01*
X891979Y659233D01*
X893520Y662953D01*
X896367Y665800D01*
X900087Y667341D01*
X904113Y667341D01*
X907833Y665800D01*
X910680Y662953D01*
X912221Y659233D01*
X912221Y639967D01*
X910680Y636247D01*
X907833Y633400D01*
X904113Y631859D01*
X900087Y631859D01*
G37*
%LPD*%
%LPC*%
G36*
X626367Y655579D02*
X626367Y655579D01*
X622647Y657120D01*
X619800Y659967D01*
X618259Y663687D01*
X618259Y667713D01*
X619800Y671433D01*
X622647Y674280D01*
X626367Y675821D01*
X645633Y675821D01*
X649353Y674280D01*
X652200Y671433D01*
X653741Y667713D01*
X653741Y663687D01*
X652200Y659967D01*
X649353Y657120D01*
X645633Y655579D01*
X626367Y655579D01*
G37*
%LPD*%
%LPC*%
G36*
X778287Y171459D02*
X778287Y171459D01*
X774567Y173000D01*
X771720Y175847D01*
X770179Y179567D01*
X770179Y198833D01*
X771720Y202553D01*
X774567Y205400D01*
X778287Y206941D01*
X782313Y206941D01*
X786033Y205400D01*
X788880Y202553D01*
X790421Y198833D01*
X790421Y179567D01*
X788880Y175847D01*
X786033Y173000D01*
X782313Y171459D01*
X778287Y171459D01*
G37*
%LPD*%
%LPC*%
G36*
X833463Y331849D02*
X833463Y331849D01*
X828960Y333714D01*
X825514Y337160D01*
X823649Y341663D01*
X823649Y346537D01*
X825514Y351040D01*
X828960Y354486D01*
X833463Y356351D01*
X838337Y356351D01*
X842840Y354486D01*
X846286Y351040D01*
X848151Y346537D01*
X848151Y341663D01*
X846286Y337160D01*
X842840Y333714D01*
X838337Y331849D01*
X833463Y331849D01*
G37*
%LPD*%
%LPC*%
G36*
X863463Y481849D02*
X863463Y481849D01*
X858960Y483714D01*
X855514Y487160D01*
X853649Y491663D01*
X853649Y496537D01*
X855514Y501040D01*
X858960Y504486D01*
X863463Y506351D01*
X868337Y506351D01*
X872840Y504486D01*
X876286Y501040D01*
X878151Y496537D01*
X878151Y491663D01*
X876286Y487160D01*
X872840Y483714D01*
X868337Y481849D01*
X863463Y481849D01*
G37*
%LPD*%
%LPC*%
G36*
X833463Y481849D02*
X833463Y481849D01*
X828960Y483714D01*
X825514Y487160D01*
X823649Y491663D01*
X823649Y496537D01*
X825514Y501040D01*
X828960Y504486D01*
X833463Y506351D01*
X838337Y506351D01*
X842840Y504486D01*
X846286Y501040D01*
X848151Y496537D01*
X848151Y491663D01*
X846286Y487160D01*
X842840Y483714D01*
X838337Y481849D01*
X833463Y481849D01*
G37*
%LPD*%
%LPC*%
G36*
X833463Y451849D02*
X833463Y451849D01*
X828960Y453714D01*
X825514Y457160D01*
X823649Y461663D01*
X823649Y466537D01*
X825514Y471040D01*
X828960Y474486D01*
X833463Y476351D01*
X838337Y476351D01*
X842840Y474486D01*
X846286Y471040D01*
X848151Y466537D01*
X848151Y461663D01*
X846286Y457160D01*
X842840Y453714D01*
X838337Y451849D01*
X833463Y451849D01*
G37*
%LPD*%
%LPC*%
G36*
X863463Y451849D02*
X863463Y451849D01*
X858960Y453714D01*
X855514Y457160D01*
X853649Y461663D01*
X853649Y466537D01*
X855514Y471040D01*
X858960Y474486D01*
X863463Y476351D01*
X868337Y476351D01*
X872840Y474486D01*
X876286Y471040D01*
X878151Y466537D01*
X878151Y461663D01*
X876286Y457160D01*
X872840Y453714D01*
X868337Y451849D01*
X863463Y451849D01*
G37*
%LPD*%
%LPC*%
G36*
X833463Y421849D02*
X833463Y421849D01*
X828960Y423714D01*
X825514Y427160D01*
X823649Y431663D01*
X823649Y436537D01*
X825514Y441040D01*
X828960Y444486D01*
X833463Y446351D01*
X838337Y446351D01*
X842840Y444486D01*
X846286Y441040D01*
X848151Y436537D01*
X848151Y431663D01*
X846286Y427160D01*
X842840Y423714D01*
X838337Y421849D01*
X833463Y421849D01*
G37*
%LPD*%
%LPC*%
G36*
X833463Y391849D02*
X833463Y391849D01*
X828960Y393714D01*
X825514Y397160D01*
X823649Y401663D01*
X823649Y406537D01*
X825514Y411040D01*
X828960Y414486D01*
X833463Y416351D01*
X838337Y416351D01*
X842840Y414486D01*
X846286Y411040D01*
X848151Y406537D01*
X848151Y401663D01*
X846286Y397160D01*
X842840Y393714D01*
X838337Y391849D01*
X833463Y391849D01*
G37*
%LPD*%
%LPC*%
G36*
X863463Y331849D02*
X863463Y331849D01*
X858960Y333714D01*
X855514Y337160D01*
X853649Y341663D01*
X853649Y346537D01*
X855514Y351040D01*
X858960Y354486D01*
X863463Y356351D01*
X868337Y356351D01*
X872840Y354486D01*
X876286Y351040D01*
X878151Y346537D01*
X878151Y341663D01*
X876286Y337160D01*
X872840Y333714D01*
X868337Y331849D01*
X863463Y331849D01*
G37*
%LPD*%
%LPC*%
G36*
X833463Y361849D02*
X833463Y361849D01*
X828960Y363714D01*
X825514Y367160D01*
X823649Y371663D01*
X823649Y376537D01*
X825514Y381040D01*
X828960Y384486D01*
X833463Y386351D01*
X838337Y386351D01*
X842840Y384486D01*
X846286Y381040D01*
X848151Y376537D01*
X848151Y371663D01*
X846286Y367160D01*
X842840Y363714D01*
X838337Y361849D01*
X833463Y361849D01*
G37*
%LPD*%
G36*
X879022Y401167D02*
X879022Y401167D01*
X879093Y401172D01*
X879141Y401193D01*
X879192Y401204D01*
X879253Y401240D01*
X879319Y401269D01*
X879375Y401313D01*
X879403Y401330D01*
X879418Y401348D01*
X879450Y401373D01*
X881385Y403308D01*
X883952Y405875D01*
X887023Y405875D01*
X887027Y405875D01*
X887031Y405875D01*
X887150Y405896D01*
X887266Y405914D01*
X887269Y405916D01*
X887273Y405917D01*
X887380Y405975D01*
X887483Y406030D01*
X887486Y406032D01*
X887490Y406034D01*
X887572Y406123D01*
X887653Y406208D01*
X887654Y406212D01*
X887657Y406214D01*
X887706Y406323D01*
X887756Y406431D01*
X887757Y406435D01*
X887758Y406439D01*
X887770Y406558D01*
X887783Y406675D01*
X887783Y406679D01*
X887783Y406683D01*
X887756Y406800D01*
X887731Y406916D01*
X887729Y406919D01*
X887728Y406923D01*
X887666Y407026D01*
X887605Y407127D01*
X887602Y407129D01*
X887600Y407133D01*
X887508Y407210D01*
X887418Y407287D01*
X887414Y407288D01*
X887411Y407291D01*
X887258Y407360D01*
X886182Y407710D01*
X884458Y408588D01*
X882893Y409725D01*
X881525Y411093D01*
X880388Y412658D01*
X879510Y414382D01*
X878912Y416222D01*
X878697Y417577D01*
X890138Y417577D01*
X890158Y417580D01*
X890177Y417578D01*
X890279Y417600D01*
X890381Y417617D01*
X890398Y417626D01*
X890418Y417630D01*
X890507Y417683D01*
X890598Y417732D01*
X890612Y417746D01*
X890629Y417756D01*
X890696Y417835D01*
X890767Y417910D01*
X890776Y417928D01*
X890789Y417943D01*
X890827Y418039D01*
X890871Y418133D01*
X890873Y418153D01*
X890881Y418171D01*
X890899Y418338D01*
X890899Y419862D01*
X890896Y419882D01*
X890898Y419901D01*
X890876Y420003D01*
X890859Y420105D01*
X890850Y420122D01*
X890846Y420142D01*
X890793Y420231D01*
X890744Y420322D01*
X890730Y420336D01*
X890720Y420353D01*
X890641Y420420D01*
X890566Y420491D01*
X890548Y420500D01*
X890533Y420513D01*
X890437Y420552D01*
X890343Y420595D01*
X890323Y420597D01*
X890305Y420605D01*
X890138Y420623D01*
X878243Y420623D01*
X878153Y420608D01*
X878062Y420601D01*
X878032Y420589D01*
X878000Y420583D01*
X877919Y420541D01*
X877836Y420505D01*
X877803Y420479D01*
X877783Y420468D01*
X877761Y420445D01*
X877705Y420400D01*
X872853Y415549D01*
X872841Y415533D01*
X872826Y415520D01*
X872770Y415433D01*
X872709Y415349D01*
X872704Y415330D01*
X872693Y415313D01*
X872668Y415213D01*
X872637Y415114D01*
X872638Y415094D01*
X872633Y415075D01*
X872641Y414972D01*
X872643Y414868D01*
X872650Y414849D01*
X872652Y414829D01*
X872692Y414735D01*
X872728Y414637D01*
X872740Y414621D01*
X872748Y414603D01*
X872853Y414472D01*
X876286Y411040D01*
X878151Y406537D01*
X878151Y401912D01*
X878162Y401841D01*
X878164Y401769D01*
X878182Y401720D01*
X878190Y401669D01*
X878224Y401606D01*
X878249Y401538D01*
X878281Y401498D01*
X878306Y401451D01*
X878358Y401402D01*
X878402Y401346D01*
X878446Y401318D01*
X878484Y401282D01*
X878549Y401252D01*
X878609Y401213D01*
X878660Y401200D01*
X878707Y401178D01*
X878778Y401171D01*
X878848Y401153D01*
X878900Y401157D01*
X878951Y401151D01*
X879022Y401167D01*
G37*
%LPC*%
G36*
X786323Y650923D02*
X786323Y650923D01*
X786323Y667066D01*
X787179Y666931D01*
X788700Y666436D01*
X790125Y665710D01*
X791419Y664770D01*
X792550Y663639D01*
X793490Y662345D01*
X794216Y660920D01*
X794711Y659399D01*
X794961Y657820D01*
X794961Y650923D01*
X786323Y650923D01*
G37*
%LPD*%
%LPC*%
G36*
X710123Y650923D02*
X710123Y650923D01*
X710123Y667066D01*
X710979Y666931D01*
X712500Y666436D01*
X713925Y665710D01*
X715219Y664770D01*
X716350Y663639D01*
X717290Y662345D01*
X718016Y660920D01*
X718511Y659399D01*
X718761Y657820D01*
X718761Y650923D01*
X710123Y650923D01*
G37*
%LPD*%
%LPC*%
G36*
X852823Y651123D02*
X852823Y651123D01*
X852823Y667266D01*
X853679Y667131D01*
X855200Y666636D01*
X856625Y665910D01*
X857919Y664970D01*
X859050Y663839D01*
X859990Y662545D01*
X860716Y661120D01*
X861211Y659599D01*
X861461Y658020D01*
X861461Y651123D01*
X852823Y651123D01*
G37*
%LPD*%
%LPC*%
G36*
X637523Y641823D02*
X637523Y641823D01*
X637523Y650461D01*
X644420Y650461D01*
X645999Y650211D01*
X647520Y649716D01*
X648945Y648990D01*
X650239Y648050D01*
X651370Y646919D01*
X652310Y645625D01*
X653036Y644200D01*
X653531Y642679D01*
X653666Y641823D01*
X637523Y641823D01*
G37*
%LPD*%
%LPC*%
G36*
X637523Y585823D02*
X637523Y585823D01*
X637523Y594461D01*
X644420Y594461D01*
X645999Y594211D01*
X647520Y593716D01*
X648945Y592990D01*
X650239Y592050D01*
X651370Y590919D01*
X652310Y589625D01*
X653036Y588200D01*
X653531Y586679D01*
X653666Y585823D01*
X637523Y585823D01*
G37*
%LPD*%
%LPC*%
G36*
X618334Y585823D02*
X618334Y585823D01*
X618469Y586679D01*
X618964Y588200D01*
X619690Y589625D01*
X620630Y590919D01*
X621761Y592050D01*
X623055Y592990D01*
X624480Y593716D01*
X626001Y594211D01*
X627580Y594461D01*
X634477Y594461D01*
X634477Y585823D01*
X618334Y585823D01*
G37*
%LPD*%
%LPC*%
G36*
X618334Y641823D02*
X618334Y641823D01*
X618469Y642679D01*
X618964Y644200D01*
X619690Y645625D01*
X620630Y646919D01*
X621761Y648050D01*
X623055Y648990D01*
X624480Y649716D01*
X626001Y650211D01*
X627580Y650461D01*
X634477Y650461D01*
X634477Y641823D01*
X618334Y641823D01*
G37*
%LPD*%
%LPC*%
G36*
X710123Y647877D02*
X710123Y647877D01*
X718761Y647877D01*
X718761Y640980D01*
X718511Y639401D01*
X718016Y637880D01*
X717290Y636455D01*
X716350Y635161D01*
X715219Y634030D01*
X713925Y633090D01*
X712500Y632364D01*
X710979Y631869D01*
X710123Y631734D01*
X710123Y647877D01*
G37*
%LPD*%
%LPC*%
G36*
X932823Y134277D02*
X932823Y134277D01*
X941461Y134277D01*
X941461Y127380D01*
X941211Y125801D01*
X940716Y124280D01*
X939990Y122855D01*
X939050Y121561D01*
X937919Y120430D01*
X936625Y119490D01*
X935200Y118764D01*
X933679Y118269D01*
X932823Y118134D01*
X932823Y134277D01*
G37*
%LPD*%
%LPC*%
G36*
X852823Y648077D02*
X852823Y648077D01*
X861461Y648077D01*
X861461Y641180D01*
X861211Y639601D01*
X860716Y638080D01*
X859990Y636655D01*
X859050Y635361D01*
X857919Y634230D01*
X856625Y633290D01*
X855200Y632564D01*
X853679Y632069D01*
X852823Y631934D01*
X852823Y648077D01*
G37*
%LPD*%
%LPC*%
G36*
X786323Y647877D02*
X786323Y647877D01*
X794961Y647877D01*
X794961Y640980D01*
X794711Y639401D01*
X794216Y637880D01*
X793490Y636455D01*
X792550Y635161D01*
X791419Y634030D01*
X790125Y633090D01*
X788700Y632364D01*
X787179Y631869D01*
X786323Y631734D01*
X786323Y647877D01*
G37*
%LPD*%
%LPC*%
G36*
X637523Y574139D02*
X637523Y574139D01*
X637523Y582777D01*
X653666Y582777D01*
X653531Y581921D01*
X653036Y580400D01*
X652310Y578975D01*
X651370Y577681D01*
X650239Y576550D01*
X648945Y575610D01*
X647520Y574884D01*
X645999Y574389D01*
X644420Y574139D01*
X637523Y574139D01*
G37*
%LPD*%
%LPC*%
G36*
X841139Y651123D02*
X841139Y651123D01*
X841139Y658020D01*
X841389Y659599D01*
X841884Y661120D01*
X842610Y662545D01*
X843550Y663839D01*
X844681Y664970D01*
X845975Y665910D01*
X847400Y666636D01*
X848921Y667131D01*
X849777Y667266D01*
X849777Y651123D01*
X841139Y651123D01*
G37*
%LPD*%
%LPC*%
G36*
X698439Y650923D02*
X698439Y650923D01*
X698439Y657820D01*
X698689Y659399D01*
X699184Y660920D01*
X699910Y662345D01*
X700850Y663639D01*
X701981Y664770D01*
X703275Y665710D01*
X704700Y666436D01*
X706221Y666931D01*
X707077Y667066D01*
X707077Y650923D01*
X698439Y650923D01*
G37*
%LPD*%
%LPC*%
G36*
X774639Y650923D02*
X774639Y650923D01*
X774639Y657820D01*
X774889Y659399D01*
X775384Y660920D01*
X776110Y662345D01*
X777050Y663639D01*
X778181Y664770D01*
X779475Y665710D01*
X780900Y666436D01*
X782421Y666931D01*
X783277Y667066D01*
X783277Y650923D01*
X774639Y650923D01*
G37*
%LPD*%
%LPC*%
G36*
X637523Y630139D02*
X637523Y630139D01*
X637523Y638777D01*
X653666Y638777D01*
X653531Y637921D01*
X653036Y636400D01*
X652310Y634975D01*
X651370Y633681D01*
X650239Y632550D01*
X648945Y631610D01*
X647520Y630884D01*
X645999Y630389D01*
X644420Y630139D01*
X637523Y630139D01*
G37*
%LPD*%
%LPC*%
G36*
X706221Y631869D02*
X706221Y631869D01*
X704700Y632364D01*
X703275Y633090D01*
X701981Y634030D01*
X700850Y635161D01*
X699910Y636455D01*
X699184Y637880D01*
X698689Y639401D01*
X698439Y640980D01*
X698439Y647877D01*
X707077Y647877D01*
X707077Y631734D01*
X706221Y631869D01*
G37*
%LPD*%
%LPC*%
G36*
X848921Y632069D02*
X848921Y632069D01*
X847400Y632564D01*
X845975Y633290D01*
X844681Y634230D01*
X843550Y635361D01*
X842610Y636655D01*
X841884Y638080D01*
X841389Y639601D01*
X841139Y641180D01*
X841139Y648077D01*
X849777Y648077D01*
X849777Y631934D01*
X848921Y632069D01*
G37*
%LPD*%
%LPC*%
G36*
X627580Y574139D02*
X627580Y574139D01*
X626001Y574389D01*
X624480Y574884D01*
X623055Y575610D01*
X621761Y576550D01*
X620630Y577681D01*
X619690Y578975D01*
X618964Y580400D01*
X618469Y581921D01*
X618334Y582777D01*
X634477Y582777D01*
X634477Y574139D01*
X627580Y574139D01*
G37*
%LPD*%
%LPC*%
G36*
X928921Y118269D02*
X928921Y118269D01*
X927400Y118764D01*
X925975Y119490D01*
X924681Y120430D01*
X923550Y121561D01*
X922610Y122855D01*
X921884Y124280D01*
X921389Y125801D01*
X921139Y127380D01*
X921139Y134277D01*
X929777Y134277D01*
X929777Y118134D01*
X928921Y118269D01*
G37*
%LPD*%
%LPC*%
G36*
X627580Y630139D02*
X627580Y630139D01*
X626001Y630389D01*
X624480Y630884D01*
X623055Y631610D01*
X621761Y632550D01*
X620630Y633681D01*
X619690Y634975D01*
X618964Y636400D01*
X618469Y637921D01*
X618334Y638777D01*
X634477Y638777D01*
X634477Y630139D01*
X627580Y630139D01*
G37*
%LPD*%
%LPC*%
G36*
X782421Y631869D02*
X782421Y631869D01*
X780900Y632364D01*
X779475Y633090D01*
X778181Y634030D01*
X777050Y635161D01*
X776110Y636455D01*
X775384Y637880D01*
X774889Y639401D01*
X774639Y640980D01*
X774639Y647877D01*
X783277Y647877D01*
X783277Y631734D01*
X782421Y631869D01*
G37*
%LPD*%
%LPC*%
G36*
X812423Y420623D02*
X812423Y420623D01*
X812423Y431303D01*
X813778Y431088D01*
X815618Y430490D01*
X817342Y429612D01*
X818907Y428475D01*
X820275Y427107D01*
X821412Y425542D01*
X822290Y423818D01*
X822888Y421978D01*
X823103Y420623D01*
X812423Y420623D01*
G37*
%LPD*%
%LPC*%
G36*
X812423Y417577D02*
X812423Y417577D01*
X823103Y417577D01*
X822888Y416222D01*
X822290Y414382D01*
X821412Y412658D01*
X820275Y411093D01*
X818907Y409725D01*
X817342Y408588D01*
X815618Y407710D01*
X813778Y407112D01*
X812423Y406897D01*
X812423Y417577D01*
G37*
%LPD*%
%LPC*%
G36*
X798697Y420623D02*
X798697Y420623D01*
X798912Y421978D01*
X799510Y423818D01*
X800388Y425542D01*
X801525Y427107D01*
X802893Y428475D01*
X804458Y429612D01*
X806182Y430490D01*
X808022Y431088D01*
X809377Y431303D01*
X809377Y420623D01*
X798697Y420623D01*
G37*
%LPD*%
%LPC*%
G36*
X808022Y407112D02*
X808022Y407112D01*
X806182Y407710D01*
X804458Y408588D01*
X802893Y409725D01*
X801525Y411093D01*
X800388Y412658D01*
X799510Y414382D01*
X798912Y416222D01*
X798697Y417577D01*
X809377Y417577D01*
X809377Y406897D01*
X808022Y407112D01*
G37*
%LPD*%
%LPC*%
G36*
X784799Y649399D02*
X784799Y649399D01*
X784799Y649401D01*
X784801Y649401D01*
X784801Y649399D01*
X784799Y649399D01*
G37*
%LPD*%
%LPC*%
G36*
X851299Y649599D02*
X851299Y649599D01*
X851299Y649601D01*
X851301Y649601D01*
X851301Y649599D01*
X851299Y649599D01*
G37*
%LPD*%
%LPC*%
G36*
X708599Y649399D02*
X708599Y649399D01*
X708599Y649401D01*
X708601Y649401D01*
X708601Y649399D01*
X708599Y649399D01*
G37*
%LPD*%
%LPC*%
G36*
X635999Y584299D02*
X635999Y584299D01*
X635999Y584301D01*
X636001Y584301D01*
X636001Y584299D01*
X635999Y584299D01*
G37*
%LPD*%
%LPC*%
G36*
X635999Y640299D02*
X635999Y640299D01*
X635999Y640301D01*
X636001Y640301D01*
X636001Y640299D01*
X635999Y640299D01*
G37*
%LPD*%
%LPC*%
G36*
X810899Y419099D02*
X810899Y419099D01*
X810899Y419101D01*
X810901Y419101D01*
X810901Y419099D01*
X810899Y419099D01*
G37*
%LPD*%
D10*
X632620Y311900D02*
X617380Y311900D01*
X617380Y337300D02*
X632620Y337300D01*
X632620Y362700D02*
X617380Y362700D01*
X617380Y388100D02*
X632620Y388100D01*
X632620Y451900D02*
X617380Y451900D01*
X617380Y477300D02*
X632620Y477300D01*
X632620Y502700D02*
X617380Y502700D01*
X617380Y528100D02*
X632620Y528100D01*
X697380Y388100D02*
X712620Y388100D01*
X712620Y362700D02*
X697380Y362700D01*
X697380Y337300D02*
X712620Y337300D01*
X712620Y311900D02*
X697380Y311900D01*
X697380Y528100D02*
X712620Y528100D01*
X712620Y502700D02*
X697380Y502700D01*
X697380Y477300D02*
X712620Y477300D01*
X712620Y451900D02*
X697380Y451900D01*
X931300Y143420D02*
X931300Y128180D01*
X956700Y128180D02*
X956700Y143420D01*
X780300Y181580D02*
X780300Y196820D01*
X805700Y196820D02*
X805700Y181580D01*
X598300Y181820D02*
X598300Y166580D01*
X623700Y166580D02*
X623700Y181820D01*
D11*
X840000Y185000D03*
D12*
X865400Y185000D03*
D11*
X890800Y185000D03*
D12*
X865400Y210400D03*
D11*
X841000Y125000D03*
D12*
X866400Y125000D03*
D11*
X891800Y125000D03*
D12*
X866400Y150400D03*
D13*
X890900Y299100D03*
X890900Y329100D03*
X890900Y359100D03*
X890900Y389100D03*
X890900Y419100D03*
X890900Y449100D03*
X890900Y479100D03*
X890900Y509100D03*
X890900Y539100D03*
X865900Y314100D03*
X865900Y344100D03*
X865900Y374100D03*
X865900Y404100D03*
X865900Y434100D03*
X865900Y464100D03*
X865900Y494100D03*
X865900Y524100D03*
X835900Y314100D03*
X835900Y344100D03*
X835900Y374100D03*
X835900Y404100D03*
X835900Y434100D03*
X835900Y464100D03*
X835900Y494100D03*
X835900Y524100D03*
D14*
X810900Y299100D03*
D13*
X810900Y329100D03*
X810900Y359100D03*
X810900Y389100D03*
X810900Y419100D03*
X810900Y449100D03*
X810900Y479100D03*
X810900Y509100D03*
X810900Y539100D03*
D10*
X825900Y641980D02*
X825900Y657220D01*
X851300Y657220D02*
X851300Y641980D01*
X876700Y641980D02*
X876700Y657220D01*
X902100Y657220D02*
X902100Y641980D01*
X734000Y641780D02*
X734000Y657020D01*
X759400Y657020D02*
X759400Y641780D01*
X784800Y641780D02*
X784800Y657020D01*
X708600Y657020D02*
X708600Y641780D01*
X683200Y641780D02*
X683200Y657020D01*
D15*
X639000Y127700D03*
X749000Y127700D03*
D16*
X719000Y227700D03*
X669000Y227700D03*
D10*
X643620Y640300D02*
X628380Y640300D01*
X628380Y665700D02*
X643620Y665700D01*
X643620Y584300D02*
X628380Y584300D01*
X628380Y609700D02*
X643620Y609700D01*
D17*
X731000Y379000D02*
X810900Y299100D01*
X726256Y398744D02*
X635644Y398744D01*
X726256Y398744D02*
X731000Y394000D01*
X635644Y398744D02*
X625000Y388100D01*
X731000Y394000D02*
X731000Y379000D01*
X787298Y329100D02*
X810900Y329100D01*
X735524Y380874D02*
X735524Y395874D01*
X728130Y403268D01*
X735524Y380874D02*
X787298Y329100D01*
X617495Y403268D02*
X606736Y392509D01*
X617495Y403268D02*
X728130Y403268D01*
X625000Y362700D02*
X606736Y380964D01*
X606736Y392509D01*
X763696Y359100D02*
X810900Y359100D01*
X740048Y382748D02*
X740048Y397748D01*
X730004Y407792D01*
X740048Y382748D02*
X763696Y359100D01*
X615621Y407792D02*
X602212Y394383D01*
X615621Y407792D02*
X730004Y407792D01*
X625000Y337300D02*
X602212Y360088D01*
X602212Y394383D01*
X810000Y390000D02*
X810900Y389100D01*
X810000Y390000D02*
X744572Y390000D01*
X744572Y399622D01*
X731878Y412316D01*
X613747Y412316D02*
X597688Y396257D01*
X613747Y412316D02*
X731878Y412316D01*
X625000Y314627D02*
X625000Y311900D01*
X625000Y314627D02*
X597688Y341939D01*
X597688Y396257D01*
D18*
X851000Y682190D02*
X975190Y682190D01*
X851000Y682190D02*
X785000Y682190D01*
X708600Y682190D01*
X975190Y682190D02*
X975190Y626000D01*
X975190Y597925D02*
X975190Y419100D01*
X975190Y243000D01*
X975190Y212925D02*
X975190Y105810D01*
X931300Y105810D01*
X750000Y105810D01*
X580655Y588190D02*
X594310Y601845D01*
X594310Y621155D01*
X580655Y634810D01*
X557810Y634810D01*
X557810Y682190D01*
X931300Y135800D02*
X931300Y105810D01*
X708600Y649400D02*
X708600Y682190D01*
X890900Y419100D02*
X975190Y419100D01*
X638000Y127000D02*
X638000Y106810D01*
X750000Y105810D02*
X750000Y127000D01*
X946245Y634910D02*
X965555Y634910D01*
X946245Y634910D02*
X932590Y621255D01*
X932590Y601945D01*
X946245Y588290D01*
X965555Y588290D01*
X975190Y597925D01*
X975190Y626000D02*
X974465Y626000D01*
X965555Y634910D01*
X965555Y249910D02*
X946245Y249910D01*
X932590Y236255D01*
X932590Y216945D01*
X946245Y203290D01*
X965555Y203290D01*
X975190Y212925D01*
X975190Y243000D02*
X972465Y243000D01*
X965555Y249910D01*
X750000Y127000D02*
X638000Y127000D01*
X636000Y584300D02*
X634000Y586300D01*
X582545Y586300D01*
X580655Y588190D01*
X557000Y106810D02*
X638000Y106810D01*
X557000Y106810D02*
X556810Y107000D01*
X556810Y206725D01*
X560345Y203190D01*
X579655Y203190D01*
X593310Y216845D01*
X593310Y236155D01*
X579655Y249810D01*
X560345Y249810D01*
X560345Y588190D02*
X556810Y591725D01*
X560345Y588190D02*
X580655Y588190D01*
X556810Y591725D02*
X556810Y419000D01*
X580000Y682190D02*
X708600Y682190D01*
X580000Y682190D02*
X557810Y682190D01*
X621890Y640300D02*
X636000Y640300D01*
X621890Y640300D02*
X580000Y682190D01*
X734993Y419100D02*
X810900Y419100D01*
X734993Y419100D02*
X734777Y419316D01*
X557126Y419316D01*
X556810Y419000D01*
X556810Y253345D01*
X560345Y249810D01*
X784800Y649400D02*
X784800Y681990D01*
X785000Y682190D01*
X851300Y681890D02*
X851300Y649600D01*
X851300Y681890D02*
X851000Y682190D01*
D19*
X584000Y556000D03*
X588000Y274000D03*
X956000Y559000D03*
X960000Y263000D03*
D17*
X810900Y449100D02*
X744672Y449100D01*
X743572Y448000D01*
X743572Y441378D01*
X728622Y426428D01*
X615003Y426428D02*
X597688Y443743D01*
X615003Y426428D02*
X728622Y426428D01*
X625000Y528100D02*
X597688Y500788D01*
X597688Y443743D01*
X763696Y479100D02*
X810900Y479100D01*
X739048Y454452D02*
X739048Y443252D01*
X726748Y430952D01*
X739048Y454452D02*
X763696Y479100D01*
X616877Y430952D02*
X602212Y445617D01*
X616877Y430952D02*
X726748Y430952D01*
X625000Y502700D02*
X602212Y479912D01*
X602212Y445617D01*
X787298Y509100D02*
X810900Y509100D01*
X734524Y456326D02*
X734524Y445126D01*
X724874Y435476D01*
X734524Y456326D02*
X787298Y509100D01*
X618751Y435476D02*
X606736Y447491D01*
X618751Y435476D02*
X724874Y435476D01*
X625000Y477300D02*
X622300Y477300D01*
X606736Y461736D02*
X606736Y447491D01*
X606736Y461736D02*
X622300Y477300D01*
X732800Y461000D02*
X810900Y539100D01*
X732800Y461000D02*
X732000Y461000D01*
X730000Y459000D01*
X730000Y447000D01*
X723000Y440000D01*
X636900Y440000D02*
X625000Y451900D01*
X636900Y440000D02*
X723000Y440000D01*
X840100Y299100D02*
X890900Y299100D01*
X840100Y299100D02*
X826000Y285000D01*
X799000Y285000D01*
X788000Y296000D01*
X722000Y296000D01*
X706100Y311900D01*
X705000Y311900D01*
X890900Y329100D02*
X891000Y329000D01*
X903674Y304391D02*
X903674Y293809D01*
X896191Y286326D01*
X903674Y304391D02*
X891000Y317065D01*
X891000Y329000D01*
X877359Y294576D02*
X885609Y286326D01*
X896191Y286326D01*
X877359Y294576D02*
X841974Y294576D01*
X827874Y280476D02*
X797126Y280476D01*
X786126Y291476D01*
X827874Y280476D02*
X841974Y294576D01*
X686736Y306264D02*
X686736Y319036D01*
X686736Y306264D02*
X701524Y291476D01*
X686736Y319036D02*
X705000Y337300D01*
X701524Y291476D02*
X786126Y291476D01*
X890900Y359100D02*
X907000Y343000D01*
X907000Y340000D01*
X908198Y338802D01*
X908198Y291935D02*
X898065Y281802D01*
X883735Y281802D01*
X875485Y290052D01*
X908198Y291935D02*
X908198Y338802D01*
X843848Y290052D02*
X829748Y275952D01*
X795252Y275952D01*
X784252Y286952D01*
X843848Y290052D02*
X875485Y290052D01*
X699650Y286952D02*
X682212Y304390D01*
X699650Y286952D02*
X784252Y286952D01*
X705000Y362700D02*
X682212Y339912D01*
X682212Y304390D01*
X890900Y389100D02*
X913000Y367000D01*
X913000Y290339D01*
X899939Y277278D02*
X881861Y277278D01*
X873611Y285528D01*
X899939Y277278D02*
X913000Y290339D01*
X873611Y285528D02*
X845722Y285528D01*
X831622Y271428D02*
X793378Y271428D01*
X782378Y282428D01*
X831622Y271428D02*
X845722Y285528D01*
X697776Y282428D02*
X677688Y302516D01*
X697776Y282428D02*
X782378Y282428D01*
X677688Y360788D02*
X705000Y388100D01*
X677688Y360788D02*
X677688Y302516D01*
X890900Y449100D02*
X910000Y468200D01*
X910000Y526204D02*
X912722Y528926D01*
X910000Y526204D02*
X910000Y468200D01*
X912722Y548139D02*
X899939Y560922D01*
X881861Y560922D01*
X873611Y552672D01*
X912722Y548139D02*
X912722Y528926D01*
X834587Y552672D02*
X821813Y565446D01*
X799987Y565446D01*
X788113Y553572D01*
X834587Y552672D02*
X873611Y552672D01*
X695003Y553572D02*
X677688Y536257D01*
X695003Y553572D02*
X788113Y553572D01*
X705000Y451900D02*
X677688Y479212D01*
X677688Y536257D01*
X890900Y479100D02*
X904000Y492200D01*
X904000Y526602D01*
X908198Y530800D02*
X908198Y546265D01*
X898065Y556398D01*
X883735Y556398D01*
X875485Y548148D01*
X904000Y526602D02*
X908198Y530800D01*
X832713Y548148D02*
X819939Y560922D01*
X801861Y560922D01*
X789987Y549048D01*
X832713Y548148D02*
X875485Y548148D01*
X696877Y549048D02*
X682212Y534383D01*
X696877Y549048D02*
X789987Y549048D01*
X705000Y477300D02*
X682212Y500088D01*
X682212Y534383D01*
X890900Y519900D02*
X890900Y509100D01*
X903674Y544391D02*
X896191Y551874D01*
X885609Y551874D01*
X877359Y543624D01*
X903674Y544391D02*
X903674Y532674D01*
X890900Y519900D01*
X793602Y546000D02*
X793602Y546265D01*
X793602Y546000D02*
X792126Y544524D01*
X803735Y556398D02*
X818065Y556398D01*
X803735Y556398D02*
X793602Y546265D01*
X818065Y556398D02*
X830839Y543624D01*
X877359Y543624D01*
X792126Y544524D02*
X698751Y544524D01*
X686736Y532509D01*
X686736Y520964D02*
X705000Y502700D01*
X686736Y520964D02*
X686736Y532509D01*
X828900Y539100D02*
X890900Y539100D01*
X823674Y544391D02*
X816191Y551874D01*
X805609Y551874D01*
X798126Y544391D01*
X823674Y544326D02*
X823674Y544391D01*
X798126Y544391D02*
X798126Y544126D01*
X823674Y544326D02*
X828900Y539100D01*
X798126Y544126D02*
X794000Y540000D01*
X716900Y540000D02*
X705000Y528100D01*
X716900Y540000D02*
X794000Y540000D01*
D20*
X795000Y605000D03*
D21*
X759400Y640600D01*
X759400Y649400D01*
D20*
X867000Y235000D03*
D21*
X840000Y208000D01*
X840000Y185000D01*
X865900Y404100D02*
X865900Y413900D01*
X888576Y436576D02*
X896088Y436576D01*
X928000Y468488D01*
X888576Y436576D02*
X865900Y413900D01*
X890000Y594000D02*
X773000Y594000D01*
X734000Y633000D01*
X734000Y649400D01*
X928000Y556000D02*
X928000Y468488D01*
X928000Y556000D02*
X890000Y594000D01*
D22*
X865400Y185000D02*
X865400Y175400D01*
X855000Y165000D01*
X829900Y165000D01*
X805700Y189200D01*
X866400Y125000D02*
X899400Y158000D01*
X934500Y158000D02*
X956700Y135800D01*
X934500Y158000D02*
X899400Y158000D01*
D20*
X827000Y151000D03*
D17*
X827600Y150400D02*
X866400Y150400D01*
X827600Y150400D02*
X827000Y151000D01*
X878126Y394391D02*
X885609Y401874D01*
X896191Y401874D01*
X903674Y394391D01*
X878126Y386326D02*
X865900Y374100D01*
X878126Y386326D02*
X878126Y394391D01*
X903674Y394391D02*
X903674Y394326D01*
X928000Y370000D01*
X928000Y271000D01*
X867400Y210400D02*
X865400Y210400D01*
X867400Y210400D02*
X928000Y271000D01*
M02*
