M48
;GenerationSoftware,Autodesk,EAGLE,9.3.2*%
;CreationDate,2019-07-04T14:32:46Z*%
FMAT,2
ICI,OFF
METRIC,TZ,000.000
T8C0.400
T7C0.500
T6C0.600
T5C0.700
T4C1.016
T3C1.300
T2C3.000
T1C3.300
%
G90
M71
T1
X42950Y44300
X42950Y5800
T2
X6200Y35550
X6200Y19450
T3
X28450Y28050
X28450Y25050
X28450Y22050
X28450Y19050
X28450Y13050
X30950Y35550
X30950Y32550
X30950Y29550
X30950Y26550
X30950Y23550
X30950Y20550
X30950Y17550
X30950Y14550
X28450Y31050
X28450Y34050
X28450Y16050
X28450Y37050
X36450Y13050
X36450Y16050
X36450Y19050
X36450Y22050
X36450Y25050
X36450Y28050
X36450Y31050
X36450Y34050
X36450Y37050
X33950Y14550
X33950Y17550
X33950Y20550
X33950Y23550
X33950Y26550
X33950Y29550
X33950Y32550
X33950Y35550
T4
X22200Y9690
X17210Y21900
X22200Y12230
X22200Y14770
X22200Y17310
X9390Y9590
X11930Y7050
X9390Y7050
X6850Y7050
X9190Y44440
X11730Y41900
X9190Y41900
X6650Y41900
X22200Y40180
X22200Y37640
X22200Y30020
X22200Y32560
X9590Y35600
X12130Y35600
X14670Y35600
X17210Y35600
X9540Y28300
X12080Y28300
X14620Y28300
X17160Y28300
X9590Y21900
X12130Y21900
X14670Y21900
X22200Y35100
X9740Y14550
X12280Y14550
X14820Y14550
X17360Y14550
X14730Y41900
X17270Y41900
X14830Y8000
X17370Y8000
X21280Y23800
X23820Y23800
T5
X18745Y32766
X18745Y35585
X14478Y4420
X31090Y43053
T6
X38633Y22174
X38633Y29566
X13564Y9601
T7
X30175Y10592
T8
X25222Y19279
X16231Y31547
X20726Y27661
X19812Y21869
X26899Y20422
X26365Y21869
X16383Y16383
X25298Y42139
X17450Y19279
M30