M48
;GenerationSoftware,Autodesk,EAGLE,9.3.2*%
;CreationDate,2019-07-04T14:29:21Z*%
FMAT,2
ICI,OFF
METRIC,TZ,000.000
T7C0.700
T6C0.800
T5C1.016
T4C1.200
T3C1.300
T2C2.000
T1C3.300
%
G90
M71
T1
X57000Y22650
X57000Y61150
X95590Y61160
X95590Y22660
T2
X66900Y22770
X71900Y22770
T3
X81090Y50910
X81090Y53910
X89090Y29910
X89090Y32910
X89090Y44910
X81090Y47910
X81090Y44910
X81090Y41910
X81090Y38910
X81090Y35910
X81090Y32910
X81090Y29910
X83590Y52410
X83590Y49410
X83590Y46410
X83590Y43410
X83590Y40410
X83590Y37410
X83590Y34410
X83590Y31410
X86590Y52410
X86590Y49410
X86590Y46410
X86590Y43410
X86590Y40410
X86590Y37410
X86590Y34410
X86590Y31410
X89090Y53910
X89090Y50910
X89090Y47910
X89090Y41910
X89090Y38910
X89090Y35910
T4
X74900Y12770
X63900Y12770
T5
X86640Y15040
X89180Y12500
X86640Y12500
X84100Y12500
X63600Y60970
X86540Y21040
X89080Y18500
X86540Y18500
X84000Y18500
X62370Y17420
X59830Y17420
X80570Y18920
X78030Y18920
X95670Y13580
X93130Y13580
X70500Y45190
X70500Y47730
X70500Y50270
X70500Y52810
X70500Y31190
X70500Y33730
X70500Y36270
X70500Y38810
X62500Y52810
X62500Y50270
X62500Y47730
X62500Y45190
X62500Y38810
X62500Y36270
X62500Y33730
X62500Y31190
X63600Y58430
X63600Y66570
X82590Y64960
X85130Y64960
X87670Y64960
X90210Y64960
X73400Y64940
X75940Y64940
X78480Y64940
X70860Y64940
X68320Y64940
X63600Y64030
T6
X79500Y60500
X86700Y23500
X82700Y15100
T7
X96000Y26300
X95600Y55900
X58800Y27400
X58400Y55600
M30