G04 EAGLE Gerber RS-274X export*
G75*
%MOMM*%
%FSLAX34Y34*%
%LPD*%
%INTop Copper*%
%IPPOS*%
%AMOC8*
5,1,8,0,0,1.08239X$1,22.5*%
G01*
%ADD10C,1.950000*%
%ADD11R,1.950000X1.950000*%
%ADD12C,1.524000*%
%ADD13C,2.032000*%
%ADD14C,2.032000*%
%ADD15R,2.032000X2.032000*%
%ADD16C,0.400000*%
%ADD17C,0.654000*%
%ADD18C,0.500000*%
%ADD19C,0.754000*%
%ADD20C,0.600000*%
%ADD21C,0.900000*%
%ADD22C,0.700000*%
%ADD23C,1.050000*%
%ADD24C,0.152400*%

G36*
X449746Y34328D02*
X449746Y34328D01*
X449810Y34327D01*
X449885Y34348D01*
X449961Y34359D01*
X450020Y34385D01*
X450082Y34402D01*
X450148Y34443D01*
X450218Y34475D01*
X450267Y34517D01*
X450322Y34550D01*
X450374Y34608D01*
X450432Y34658D01*
X450468Y34712D01*
X450511Y34760D01*
X450544Y34829D01*
X450587Y34894D01*
X450606Y34956D01*
X450634Y35013D01*
X450645Y35083D01*
X450669Y35164D01*
X450670Y35249D01*
X450681Y35318D01*
X450681Y51038D01*
X450669Y51124D01*
X450666Y51211D01*
X450649Y51263D01*
X450641Y51317D01*
X450606Y51396D01*
X450579Y51479D01*
X450548Y51524D01*
X450525Y51574D01*
X450469Y51640D01*
X450420Y51712D01*
X450378Y51747D01*
X450342Y51789D01*
X450269Y51836D01*
X450202Y51891D01*
X450152Y51913D01*
X450106Y51943D01*
X450023Y51968D01*
X449943Y52003D01*
X449889Y52009D01*
X449836Y52025D01*
X449749Y52027D01*
X449663Y52037D01*
X449609Y52028D01*
X449554Y52029D01*
X449470Y52006D01*
X449385Y51992D01*
X449335Y51969D01*
X449282Y51954D01*
X449208Y51908D01*
X449130Y51871D01*
X449089Y51835D01*
X449042Y51806D01*
X448984Y51741D01*
X448919Y51684D01*
X448893Y51640D01*
X448853Y51596D01*
X448804Y51494D01*
X448759Y51420D01*
X446719Y46495D01*
X441005Y40781D01*
X433540Y37689D01*
X425460Y37689D01*
X417995Y40781D01*
X412281Y46495D01*
X409189Y53960D01*
X409189Y62040D01*
X412281Y69505D01*
X417995Y75219D01*
X425460Y78311D01*
X433540Y78311D01*
X441005Y75219D01*
X446719Y69505D01*
X448759Y64580D01*
X448803Y64505D01*
X448839Y64426D01*
X448874Y64384D01*
X448902Y64337D01*
X448966Y64277D01*
X449022Y64211D01*
X449068Y64181D01*
X449108Y64144D01*
X449185Y64105D01*
X449258Y64057D01*
X449311Y64041D01*
X449360Y64016D01*
X449445Y64000D01*
X449528Y63975D01*
X449583Y63974D01*
X449637Y63964D01*
X449723Y63972D01*
X449810Y63971D01*
X449863Y63985D01*
X449917Y63991D01*
X449998Y64023D01*
X450082Y64046D01*
X450129Y64075D01*
X450179Y64095D01*
X450248Y64149D01*
X450322Y64194D01*
X450358Y64235D01*
X450402Y64269D01*
X450453Y64339D01*
X450511Y64404D01*
X450535Y64453D01*
X450567Y64497D01*
X450596Y64579D01*
X450634Y64657D01*
X450642Y64708D01*
X450661Y64763D01*
X450668Y64877D01*
X450681Y64962D01*
X450681Y436038D01*
X450672Y436100D01*
X450673Y436145D01*
X450668Y436164D01*
X450666Y436211D01*
X450649Y436263D01*
X450641Y436317D01*
X450606Y436396D01*
X450579Y436479D01*
X450548Y436524D01*
X450525Y436574D01*
X450469Y436640D01*
X450420Y436712D01*
X450378Y436747D01*
X450342Y436789D01*
X450269Y436836D01*
X450202Y436891D01*
X450152Y436913D01*
X450106Y436943D01*
X450023Y436968D01*
X449943Y437003D01*
X449889Y437009D01*
X449836Y437025D01*
X449749Y437027D01*
X449663Y437037D01*
X449609Y437028D01*
X449554Y437029D01*
X449470Y437006D01*
X449385Y436992D01*
X449335Y436969D01*
X449282Y436954D01*
X449208Y436908D01*
X449130Y436871D01*
X449089Y436835D01*
X449042Y436806D01*
X448984Y436741D01*
X448919Y436684D01*
X448893Y436640D01*
X448853Y436596D01*
X448805Y436497D01*
X448768Y436441D01*
X448765Y436431D01*
X448759Y436420D01*
X446719Y431495D01*
X441005Y425781D01*
X433540Y422689D01*
X425460Y422689D01*
X417995Y425781D01*
X412281Y431495D01*
X409189Y438960D01*
X409189Y447040D01*
X412281Y454505D01*
X417995Y460219D01*
X425460Y463311D01*
X433540Y463311D01*
X441005Y460219D01*
X446719Y454505D01*
X448759Y449580D01*
X448803Y449505D01*
X448839Y449426D01*
X448874Y449384D01*
X448902Y449337D01*
X448966Y449277D01*
X449022Y449211D01*
X449068Y449181D01*
X449108Y449144D01*
X449185Y449105D01*
X449258Y449057D01*
X449311Y449041D01*
X449360Y449016D01*
X449445Y449000D01*
X449528Y448975D01*
X449583Y448974D01*
X449637Y448964D01*
X449723Y448972D01*
X449810Y448971D01*
X449863Y448985D01*
X449917Y448991D01*
X449998Y449023D01*
X450082Y449046D01*
X450129Y449075D01*
X450179Y449095D01*
X450248Y449149D01*
X450322Y449194D01*
X450358Y449235D01*
X450402Y449269D01*
X450453Y449339D01*
X450511Y449404D01*
X450535Y449453D01*
X450567Y449497D01*
X450596Y449579D01*
X450634Y449657D01*
X450642Y449708D01*
X450661Y449763D01*
X450666Y449841D01*
X450669Y449853D01*
X450670Y449888D01*
X450681Y449962D01*
X450681Y464682D01*
X450672Y464746D01*
X450673Y464810D01*
X450652Y464885D01*
X450641Y464961D01*
X450615Y465020D01*
X450598Y465082D01*
X450557Y465148D01*
X450525Y465218D01*
X450483Y465267D01*
X450450Y465322D01*
X450392Y465374D01*
X450342Y465432D01*
X450288Y465468D01*
X450240Y465511D01*
X450171Y465544D01*
X450106Y465587D01*
X450044Y465606D01*
X449987Y465634D01*
X449917Y465645D01*
X449836Y465669D01*
X449751Y465670D01*
X449682Y465681D01*
X45318Y465681D01*
X45254Y465672D01*
X45190Y465673D01*
X45115Y465652D01*
X45039Y465641D01*
X44980Y465615D01*
X44918Y465598D01*
X44852Y465557D01*
X44782Y465525D01*
X44733Y465483D01*
X44678Y465450D01*
X44626Y465392D01*
X44568Y465342D01*
X44532Y465288D01*
X44489Y465240D01*
X44456Y465171D01*
X44413Y465106D01*
X44394Y465044D01*
X44366Y464987D01*
X44355Y464917D01*
X44331Y464836D01*
X44330Y464751D01*
X44319Y464682D01*
X44319Y366834D01*
X44323Y366802D01*
X44321Y366769D01*
X44343Y366663D01*
X44359Y366554D01*
X44372Y366525D01*
X44378Y366493D01*
X44430Y366397D01*
X44475Y366297D01*
X44496Y366273D01*
X44511Y366244D01*
X44587Y366166D01*
X44658Y366083D01*
X44685Y366065D01*
X44708Y366042D01*
X44803Y365989D01*
X44894Y365929D01*
X44925Y365919D01*
X44953Y365903D01*
X45060Y365878D01*
X45164Y365846D01*
X45196Y365846D01*
X45227Y365838D01*
X45337Y365844D01*
X45446Y365842D01*
X45477Y365851D01*
X45509Y365853D01*
X45612Y365889D01*
X45718Y365918D01*
X45745Y365935D01*
X45776Y365945D01*
X45849Y365999D01*
X45958Y366066D01*
X45990Y366102D01*
X46025Y366127D01*
X51345Y371447D01*
X58258Y374311D01*
X65742Y374311D01*
X72655Y371447D01*
X77947Y366155D01*
X78373Y365127D01*
X78417Y365053D01*
X78453Y364973D01*
X78488Y364932D01*
X78516Y364885D01*
X78580Y364825D01*
X78636Y364759D01*
X78682Y364729D01*
X78722Y364692D01*
X78799Y364652D01*
X78872Y364605D01*
X78925Y364589D01*
X78974Y364564D01*
X79059Y364548D01*
X79142Y364522D01*
X79197Y364522D01*
X79251Y364511D01*
X79337Y364520D01*
X79424Y364519D01*
X79477Y364533D01*
X79531Y364539D01*
X79612Y364571D01*
X79696Y364594D01*
X79742Y364623D01*
X79793Y364643D01*
X79862Y364696D01*
X79936Y364742D01*
X79972Y364783D01*
X80016Y364816D01*
X80067Y364887D01*
X80125Y364951D01*
X80149Y365001D01*
X80181Y365045D01*
X80210Y365127D01*
X80248Y365205D01*
X80256Y365255D01*
X80275Y365311D01*
X80282Y365424D01*
X80295Y365510D01*
X80295Y369506D01*
X89107Y378317D01*
X89126Y378343D01*
X89151Y378364D01*
X89211Y378456D01*
X89276Y378543D01*
X89287Y378573D01*
X89305Y378600D01*
X89337Y378705D01*
X89376Y378807D01*
X89378Y378839D01*
X89387Y378870D01*
X89389Y378979D01*
X89397Y379088D01*
X89391Y379120D01*
X89391Y379152D01*
X89362Y379257D01*
X89340Y379364D01*
X89325Y379393D01*
X89316Y379424D01*
X89259Y379517D01*
X89207Y379613D01*
X89185Y379636D01*
X89168Y379664D01*
X89087Y379737D01*
X89011Y379815D01*
X88982Y379831D01*
X88959Y379853D01*
X88860Y379900D01*
X88765Y379954D01*
X88734Y379962D01*
X88705Y379976D01*
X88616Y379990D01*
X88491Y380019D01*
X88442Y380017D01*
X88400Y380023D01*
X84439Y380023D01*
X63031Y401431D01*
X63031Y407122D01*
X63030Y407131D01*
X63031Y407140D01*
X63010Y407270D01*
X62991Y407401D01*
X62988Y407409D01*
X62986Y407419D01*
X62929Y407538D01*
X62875Y407658D01*
X62869Y407665D01*
X62865Y407674D01*
X62777Y407772D01*
X62692Y407872D01*
X62684Y407877D01*
X62678Y407884D01*
X62612Y407924D01*
X62456Y408027D01*
X62433Y408034D01*
X62414Y408045D01*
X59881Y409094D01*
X56594Y412381D01*
X54815Y416676D01*
X54815Y421324D01*
X56594Y425619D01*
X59881Y428906D01*
X64176Y430685D01*
X68824Y430685D01*
X73119Y428906D01*
X76406Y425619D01*
X78185Y421324D01*
X78185Y416676D01*
X76406Y412381D01*
X73119Y409094D01*
X71698Y408505D01*
X71689Y408501D01*
X71680Y408498D01*
X71568Y408429D01*
X71455Y408362D01*
X71448Y408355D01*
X71440Y408350D01*
X71352Y408252D01*
X71262Y408156D01*
X71258Y408148D01*
X71251Y408141D01*
X71194Y408022D01*
X71134Y407905D01*
X71132Y407895D01*
X71128Y407887D01*
X71116Y407811D01*
X71082Y407628D01*
X71084Y407604D01*
X71081Y407582D01*
X71081Y405179D01*
X71094Y405084D01*
X71099Y404988D01*
X71114Y404945D01*
X71121Y404900D01*
X71160Y404812D01*
X71192Y404721D01*
X71217Y404687D01*
X71237Y404643D01*
X71320Y404546D01*
X71373Y404472D01*
X78509Y397336D01*
X78535Y397317D01*
X78556Y397293D01*
X78611Y397257D01*
X78655Y397217D01*
X78693Y397199D01*
X78735Y397167D01*
X78765Y397156D01*
X78792Y397138D01*
X78862Y397117D01*
X78909Y397094D01*
X78943Y397089D01*
X78999Y397068D01*
X79031Y397065D01*
X79062Y397056D01*
X79163Y397054D01*
X79213Y397046D01*
X79216Y397046D01*
X79235Y397049D01*
X79280Y397046D01*
X79312Y397052D01*
X79344Y397052D01*
X79439Y397078D01*
X79495Y397086D01*
X79513Y397094D01*
X79556Y397103D01*
X79585Y397118D01*
X79616Y397127D01*
X79699Y397178D01*
X79752Y397203D01*
X79768Y397216D01*
X79805Y397236D01*
X79828Y397258D01*
X79856Y397275D01*
X79919Y397345D01*
X79966Y397386D01*
X79979Y397405D01*
X80007Y397433D01*
X80023Y397461D01*
X80045Y397485D01*
X80084Y397565D01*
X80121Y397622D01*
X80129Y397647D01*
X80146Y397678D01*
X80154Y397709D01*
X80168Y397738D01*
X80179Y397813D01*
X80203Y397892D01*
X80204Y397921D01*
X80211Y397952D01*
X80209Y398001D01*
X80215Y398043D01*
X80215Y421324D01*
X81994Y425619D01*
X85281Y428906D01*
X89576Y430685D01*
X94224Y430685D01*
X98519Y428906D01*
X101806Y425619D01*
X103585Y421324D01*
X103585Y414475D01*
X103598Y414380D01*
X103603Y414284D01*
X103618Y414241D01*
X103625Y414196D01*
X103664Y414109D01*
X103696Y414018D01*
X103721Y413983D01*
X103741Y413939D01*
X103824Y413842D01*
X103877Y413769D01*
X105348Y412298D01*
X105417Y412246D01*
X105480Y412187D01*
X105529Y412162D01*
X105573Y412129D01*
X105654Y412099D01*
X105732Y412059D01*
X105786Y412049D01*
X105837Y412030D01*
X105924Y412023D01*
X106009Y412007D01*
X106064Y412012D01*
X106118Y412008D01*
X106203Y412026D01*
X106290Y412034D01*
X106341Y412054D01*
X106394Y412065D01*
X106471Y412106D01*
X106552Y412138D01*
X106595Y412172D01*
X106643Y412198D01*
X106706Y412259D01*
X106774Y412312D01*
X106806Y412356D01*
X106845Y412395D01*
X106888Y412470D01*
X106939Y412541D01*
X106957Y412592D01*
X106984Y412640D01*
X107004Y412725D01*
X107033Y412806D01*
X107037Y412861D01*
X107049Y412915D01*
X107045Y413001D01*
X107050Y413088D01*
X107038Y413137D01*
X107035Y413196D01*
X106998Y413304D01*
X106977Y413387D01*
X105615Y416676D01*
X105615Y441644D01*
X107394Y445939D01*
X110681Y449226D01*
X114976Y451005D01*
X119624Y451005D01*
X123919Y449226D01*
X127206Y445939D01*
X128985Y441644D01*
X128985Y416676D01*
X127206Y412381D01*
X123919Y409094D01*
X119624Y407315D01*
X114976Y407315D01*
X111687Y408677D01*
X111603Y408699D01*
X111522Y408730D01*
X111467Y408734D01*
X111414Y408747D01*
X111328Y408745D01*
X111241Y408751D01*
X111187Y408740D01*
X111132Y408738D01*
X111050Y408711D01*
X110965Y408694D01*
X110916Y408668D01*
X110864Y408651D01*
X110793Y408602D01*
X110716Y408561D01*
X110677Y408523D01*
X110631Y408492D01*
X110576Y408425D01*
X110514Y408365D01*
X110487Y408317D01*
X110452Y408274D01*
X110418Y408195D01*
X110375Y408119D01*
X110362Y408066D01*
X110341Y408015D01*
X110330Y407929D01*
X110310Y407845D01*
X110313Y407790D01*
X110306Y407735D01*
X110320Y407650D01*
X110324Y407563D01*
X110342Y407511D01*
X110351Y407457D01*
X110388Y407378D01*
X110417Y407297D01*
X110447Y407255D01*
X110472Y407202D01*
X110548Y407117D01*
X110598Y407048D01*
X113803Y403843D01*
X113879Y403786D01*
X113951Y403721D01*
X113992Y403701D01*
X114028Y403674D01*
X114118Y403640D01*
X114205Y403598D01*
X114247Y403592D01*
X114292Y403575D01*
X114420Y403565D01*
X114509Y403551D01*
X138468Y403551D01*
X138562Y403564D01*
X138657Y403569D01*
X138701Y403584D01*
X138747Y403591D01*
X138834Y403630D01*
X138923Y403661D01*
X138962Y403688D01*
X139004Y403707D01*
X139076Y403768D01*
X139154Y403823D01*
X139183Y403860D01*
X139218Y403890D01*
X139270Y403970D01*
X139330Y404044D01*
X139347Y404087D01*
X139373Y404126D01*
X139400Y404217D01*
X139437Y404305D01*
X139442Y404351D01*
X139455Y404396D01*
X139456Y404491D01*
X139466Y404585D01*
X139458Y404631D01*
X139459Y404678D01*
X139434Y404769D01*
X139417Y404863D01*
X139397Y404902D01*
X139384Y404950D01*
X139317Y405057D01*
X139276Y405137D01*
X138610Y406055D01*
X137884Y407480D01*
X137389Y409001D01*
X137139Y410580D01*
X137139Y417001D01*
X146300Y417001D01*
X146363Y417010D01*
X146428Y417009D01*
X146502Y417030D01*
X146579Y417041D01*
X146638Y417067D01*
X146700Y417084D01*
X146766Y417125D01*
X146836Y417157D01*
X146885Y417199D01*
X146940Y417232D01*
X146991Y417290D01*
X147050Y417340D01*
X147086Y417394D01*
X147129Y417442D01*
X147162Y417511D01*
X147205Y417576D01*
X147224Y417638D01*
X147252Y417695D01*
X147262Y417765D01*
X147287Y417846D01*
X147288Y417931D01*
X147299Y418000D01*
X147299Y419001D01*
X147301Y419001D01*
X147301Y418000D01*
X147310Y417939D01*
X147309Y417903D01*
X147309Y417901D01*
X147309Y417872D01*
X147330Y417797D01*
X147341Y417721D01*
X147367Y417662D01*
X147384Y417600D01*
X147425Y417534D01*
X147457Y417464D01*
X147499Y417415D01*
X147532Y417360D01*
X147590Y417308D01*
X147640Y417250D01*
X147694Y417214D01*
X147742Y417171D01*
X147811Y417138D01*
X147876Y417095D01*
X147938Y417076D01*
X147996Y417048D01*
X148065Y417037D01*
X148146Y417013D01*
X148231Y417012D01*
X148300Y417001D01*
X157461Y417001D01*
X157461Y413105D01*
X157465Y413073D01*
X157463Y413041D01*
X157485Y412934D01*
X157501Y412826D01*
X157514Y412797D01*
X157520Y412765D01*
X157572Y412668D01*
X157617Y412569D01*
X157638Y412545D01*
X157653Y412516D01*
X157729Y412438D01*
X157800Y412355D01*
X157827Y412337D01*
X157850Y412314D01*
X157945Y412260D01*
X158036Y412200D01*
X158067Y412191D01*
X158095Y412175D01*
X158202Y412150D01*
X158306Y412118D01*
X158338Y412117D01*
X158369Y412110D01*
X158479Y412116D01*
X158588Y412114D01*
X158619Y412123D01*
X158651Y412124D01*
X158754Y412160D01*
X158860Y412189D01*
X158887Y412206D01*
X158918Y412217D01*
X158990Y412270D01*
X159100Y412337D01*
X159132Y412373D01*
X159167Y412399D01*
X163263Y416495D01*
X163320Y416571D01*
X163385Y416643D01*
X163405Y416684D01*
X163432Y416720D01*
X163466Y416810D01*
X163508Y416897D01*
X163514Y416939D01*
X163531Y416984D01*
X163541Y417112D01*
X163555Y417201D01*
X163555Y428439D01*
X164947Y431800D01*
X167520Y434373D01*
X170881Y435765D01*
X174519Y435765D01*
X177880Y434373D01*
X180453Y431800D01*
X181845Y428439D01*
X181845Y409561D01*
X180453Y406200D01*
X177880Y403627D01*
X174519Y402235D01*
X170881Y402235D01*
X167520Y403627D01*
X166770Y404377D01*
X166719Y404416D01*
X166674Y404462D01*
X166607Y404500D01*
X166545Y404546D01*
X166485Y404569D01*
X166429Y404601D01*
X166353Y404619D01*
X166281Y404646D01*
X166217Y404651D01*
X166154Y404666D01*
X166077Y404662D01*
X166000Y404668D01*
X165937Y404655D01*
X165873Y404651D01*
X165799Y404626D01*
X165724Y404610D01*
X165667Y404580D01*
X165606Y404559D01*
X165549Y404517D01*
X165475Y404478D01*
X165414Y404418D01*
X165357Y404377D01*
X157717Y396737D01*
X154481Y393501D01*
X109933Y393501D01*
X105291Y398143D01*
X105265Y398163D01*
X105244Y398187D01*
X105152Y398247D01*
X105065Y398313D01*
X105035Y398324D01*
X105008Y398342D01*
X104903Y398374D01*
X104801Y398412D01*
X104769Y398415D01*
X104738Y398424D01*
X104629Y398426D01*
X104520Y398434D01*
X104488Y398427D01*
X104456Y398428D01*
X104351Y398399D01*
X104244Y398376D01*
X104215Y398361D01*
X104184Y398353D01*
X104091Y398295D01*
X103995Y398244D01*
X103972Y398221D01*
X103944Y398205D01*
X103871Y398123D01*
X103793Y398047D01*
X103777Y398019D01*
X103755Y397995D01*
X103708Y397897D01*
X103654Y397802D01*
X103646Y397770D01*
X103632Y397741D01*
X103618Y397652D01*
X103589Y397527D01*
X103591Y397479D01*
X103585Y397437D01*
X103585Y396356D01*
X101806Y392061D01*
X99523Y389779D01*
X99504Y389753D01*
X99479Y389732D01*
X99419Y389640D01*
X99354Y389553D01*
X99343Y389523D01*
X99325Y389496D01*
X99293Y389391D01*
X99254Y389289D01*
X99252Y389257D01*
X99243Y389226D01*
X99241Y389117D01*
X99233Y389008D01*
X99239Y388976D01*
X99239Y388944D01*
X99268Y388839D01*
X99290Y388732D01*
X99305Y388703D01*
X99314Y388672D01*
X99371Y388579D01*
X99423Y388483D01*
X99445Y388460D01*
X99462Y388432D01*
X99543Y388359D01*
X99619Y388281D01*
X99648Y388265D01*
X99671Y388243D01*
X99770Y388196D01*
X99865Y388142D01*
X99896Y388134D01*
X99925Y388120D01*
X100014Y388106D01*
X100139Y388077D01*
X100188Y388079D01*
X100230Y388073D01*
X174641Y388073D01*
X175315Y387398D01*
X175367Y387360D01*
X175412Y387314D01*
X175479Y387276D01*
X175541Y387229D01*
X175601Y387206D01*
X175657Y387175D01*
X175732Y387157D01*
X175805Y387130D01*
X175869Y387125D01*
X175931Y387110D01*
X176009Y387114D01*
X176086Y387108D01*
X176149Y387121D01*
X176213Y387124D01*
X176286Y387150D01*
X176362Y387165D01*
X176419Y387196D01*
X176480Y387217D01*
X176536Y387258D01*
X176611Y387298D01*
X176672Y387357D01*
X176729Y387398D01*
X207121Y417791D01*
X247386Y417791D01*
X247418Y417795D01*
X247450Y417793D01*
X247557Y417815D01*
X247665Y417831D01*
X247695Y417844D01*
X247726Y417850D01*
X247823Y417902D01*
X247922Y417947D01*
X247947Y417968D01*
X247975Y417983D01*
X248053Y418059D01*
X248137Y418130D01*
X248154Y418157D01*
X248177Y418180D01*
X248231Y418275D01*
X248291Y418366D01*
X248300Y418397D01*
X248316Y418425D01*
X248342Y418532D01*
X248373Y418636D01*
X248374Y418668D01*
X248381Y418700D01*
X248376Y418809D01*
X248377Y418918D01*
X248369Y418949D01*
X248367Y418981D01*
X248331Y419084D01*
X248302Y419190D01*
X248285Y419217D01*
X248274Y419248D01*
X248221Y419321D01*
X248189Y419372D01*
X248189Y423372D01*
X250998Y426181D01*
X254970Y426181D01*
X255947Y425203D01*
X256024Y425146D01*
X256096Y425081D01*
X256137Y425061D01*
X256173Y425034D01*
X256263Y425000D01*
X256349Y424958D01*
X256391Y424952D01*
X256437Y424935D01*
X256564Y424925D01*
X256654Y424911D01*
X304522Y424911D01*
X304554Y424915D01*
X304586Y424913D01*
X304693Y424935D01*
X304801Y424951D01*
X304831Y424964D01*
X304862Y424970D01*
X304959Y425022D01*
X305058Y425067D01*
X305083Y425088D01*
X305111Y425103D01*
X305189Y425179D01*
X305272Y425250D01*
X305290Y425277D01*
X305313Y425300D01*
X305367Y425395D01*
X305427Y425486D01*
X305436Y425517D01*
X305452Y425545D01*
X305477Y425652D01*
X305509Y425756D01*
X305510Y425788D01*
X305517Y425820D01*
X305512Y425929D01*
X305513Y426038D01*
X305504Y426069D01*
X305503Y426101D01*
X305467Y426204D01*
X305438Y426310D01*
X305421Y426337D01*
X305410Y426368D01*
X305357Y426441D01*
X305290Y426550D01*
X305254Y426582D01*
X305229Y426617D01*
X305153Y426692D01*
X304121Y429182D01*
X304121Y431878D01*
X305153Y434368D01*
X307058Y436273D01*
X309548Y437305D01*
X312244Y437305D01*
X314734Y436273D01*
X315160Y435847D01*
X315236Y435790D01*
X315308Y435725D01*
X315349Y435705D01*
X315385Y435678D01*
X315475Y435644D01*
X315561Y435602D01*
X315604Y435596D01*
X315649Y435579D01*
X315777Y435569D01*
X315866Y435555D01*
X327455Y435555D01*
X413457Y349553D01*
X413457Y134317D01*
X318311Y39171D01*
X149750Y39171D01*
X149655Y39158D01*
X149559Y39153D01*
X149516Y39138D01*
X149471Y39131D01*
X149383Y39092D01*
X149292Y39060D01*
X149258Y39035D01*
X149214Y39015D01*
X149117Y38932D01*
X149044Y38879D01*
X148618Y38453D01*
X146128Y37421D01*
X143432Y37421D01*
X140942Y38453D01*
X139037Y40358D01*
X138005Y42848D01*
X138005Y45544D01*
X139037Y48034D01*
X139137Y48133D01*
X139156Y48159D01*
X139180Y48180D01*
X139240Y48272D01*
X139306Y48359D01*
X139317Y48389D01*
X139335Y48416D01*
X139367Y48520D01*
X139405Y48623D01*
X139408Y48655D01*
X139417Y48686D01*
X139419Y48795D01*
X139427Y48904D01*
X139421Y48936D01*
X139421Y48968D01*
X139392Y49073D01*
X139370Y49180D01*
X139354Y49209D01*
X139346Y49240D01*
X139288Y49333D01*
X139237Y49429D01*
X139215Y49452D01*
X139198Y49480D01*
X139117Y49553D01*
X139040Y49631D01*
X139012Y49647D01*
X138988Y49669D01*
X138890Y49716D01*
X138795Y49770D01*
X138764Y49778D01*
X138735Y49792D01*
X138645Y49806D01*
X138521Y49835D01*
X138472Y49833D01*
X138430Y49839D01*
X107647Y49839D01*
X107291Y50195D01*
X107265Y50215D01*
X107244Y50239D01*
X107152Y50299D01*
X107065Y50365D01*
X107035Y50376D01*
X107008Y50394D01*
X106903Y50426D01*
X106801Y50464D01*
X106769Y50467D01*
X106738Y50476D01*
X106629Y50478D01*
X106520Y50486D01*
X106488Y50479D01*
X106456Y50480D01*
X106351Y50451D01*
X106244Y50428D01*
X106215Y50413D01*
X106184Y50405D01*
X106091Y50347D01*
X105995Y50296D01*
X105972Y50273D01*
X105944Y50257D01*
X105871Y50175D01*
X105793Y50099D01*
X105777Y50071D01*
X105755Y50047D01*
X105708Y49949D01*
X105654Y49854D01*
X105646Y49822D01*
X105632Y49793D01*
X105618Y49704D01*
X105589Y49579D01*
X105591Y49531D01*
X105585Y49489D01*
X105585Y47856D01*
X103806Y43561D01*
X100519Y40274D01*
X96224Y38495D01*
X91576Y38495D01*
X87281Y40274D01*
X83994Y43561D01*
X82215Y47856D01*
X82215Y72824D01*
X83994Y77119D01*
X87281Y80406D01*
X91576Y82185D01*
X96224Y82185D01*
X100519Y80406D01*
X103806Y77119D01*
X105585Y72824D01*
X105585Y66527D01*
X105598Y66432D01*
X105603Y66336D01*
X105618Y66293D01*
X105625Y66248D01*
X105664Y66161D01*
X105696Y66070D01*
X105721Y66035D01*
X105741Y65991D01*
X105824Y65894D01*
X105877Y65821D01*
X106957Y64741D01*
X107027Y64689D01*
X107090Y64629D01*
X107139Y64604D01*
X107183Y64572D01*
X107264Y64541D01*
X107341Y64502D01*
X107395Y64491D01*
X107447Y64472D01*
X107533Y64465D01*
X107619Y64449D01*
X107673Y64454D01*
X107728Y64450D01*
X107813Y64468D01*
X107899Y64476D01*
X107950Y64497D01*
X108004Y64508D01*
X108081Y64549D01*
X108161Y64581D01*
X108204Y64614D01*
X108253Y64640D01*
X108315Y64701D01*
X108384Y64754D01*
X108416Y64799D01*
X108455Y64837D01*
X108498Y64913D01*
X108549Y64983D01*
X108567Y65035D01*
X108594Y65082D01*
X108614Y65167D01*
X108643Y65249D01*
X108646Y65303D01*
X108659Y65357D01*
X108655Y65443D01*
X108660Y65530D01*
X108648Y65580D01*
X108645Y65638D01*
X108607Y65746D01*
X108587Y65830D01*
X107615Y68176D01*
X107615Y91184D01*
X107611Y91216D01*
X107613Y91248D01*
X107591Y91355D01*
X107575Y91463D01*
X107562Y91493D01*
X107556Y91524D01*
X107504Y91621D01*
X107459Y91720D01*
X107438Y91745D01*
X107423Y91773D01*
X107347Y91851D01*
X107276Y91934D01*
X107249Y91952D01*
X107226Y91975D01*
X107131Y92029D01*
X107040Y92089D01*
X107009Y92098D01*
X106981Y92114D01*
X106874Y92139D01*
X106770Y92171D01*
X106738Y92172D01*
X106707Y92179D01*
X106597Y92174D01*
X106488Y92175D01*
X106457Y92166D01*
X106425Y92165D01*
X106322Y92129D01*
X106216Y92100D01*
X106189Y92083D01*
X106158Y92072D01*
X106085Y92019D01*
X105976Y91952D01*
X105951Y91924D01*
X105944Y91920D01*
X105935Y91909D01*
X105909Y91891D01*
X105877Y91858D01*
X105820Y91782D01*
X105755Y91710D01*
X105735Y91669D01*
X105708Y91633D01*
X105674Y91543D01*
X105632Y91457D01*
X105626Y91414D01*
X105609Y91369D01*
X105599Y91241D01*
X105585Y91152D01*
X105585Y85108D01*
X104692Y84215D01*
X83108Y84215D01*
X82215Y85108D01*
X82215Y106692D01*
X83108Y107585D01*
X104692Y107585D01*
X105593Y106684D01*
X105609Y106605D01*
X105625Y106497D01*
X105638Y106467D01*
X105644Y106436D01*
X105696Y106339D01*
X105741Y106240D01*
X105762Y106215D01*
X105777Y106187D01*
X105853Y106109D01*
X105924Y106026D01*
X105951Y106008D01*
X105974Y105985D01*
X106069Y105931D01*
X106160Y105871D01*
X106191Y105862D01*
X106219Y105846D01*
X106325Y105821D01*
X106430Y105789D01*
X106462Y105788D01*
X106493Y105781D01*
X106603Y105786D01*
X106712Y105785D01*
X106743Y105794D01*
X106775Y105795D01*
X106878Y105831D01*
X106984Y105860D01*
X107011Y105877D01*
X107042Y105888D01*
X107115Y105941D01*
X107224Y106008D01*
X107256Y106044D01*
X107291Y106069D01*
X108721Y107500D01*
X111664Y110443D01*
X127604Y110443D01*
X135718Y102329D01*
X135794Y102272D01*
X135866Y102207D01*
X135907Y102187D01*
X135943Y102160D01*
X136033Y102126D01*
X136119Y102084D01*
X136162Y102078D01*
X136207Y102061D01*
X136335Y102051D01*
X136424Y102037D01*
X136834Y102037D01*
X139049Y101119D01*
X140743Y99425D01*
X141661Y97210D01*
X141661Y96264D01*
X141670Y96201D01*
X141669Y96144D01*
X141682Y96096D01*
X141689Y96028D01*
X141697Y96007D01*
X141701Y95984D01*
X141733Y95912D01*
X141744Y95873D01*
X141763Y95841D01*
X141793Y95766D01*
X141807Y95748D01*
X141817Y95727D01*
X141878Y95656D01*
X141892Y95633D01*
X141910Y95616D01*
X141967Y95544D01*
X141985Y95531D01*
X142000Y95513D01*
X142089Y95455D01*
X142102Y95444D01*
X142115Y95437D01*
X142196Y95379D01*
X142217Y95371D01*
X142236Y95359D01*
X142346Y95325D01*
X142355Y95321D01*
X142363Y95319D01*
X142461Y95284D01*
X142484Y95283D01*
X142506Y95276D01*
X142624Y95275D01*
X142743Y95268D01*
X142764Y95273D01*
X142788Y95273D01*
X142905Y95305D01*
X142960Y95313D01*
X142997Y95329D01*
X143042Y95340D01*
X146481Y96765D01*
X150119Y96765D01*
X153480Y95373D01*
X156053Y92800D01*
X157445Y89439D01*
X157445Y73237D01*
X157449Y73205D01*
X157447Y73173D01*
X157469Y73066D01*
X157485Y72958D01*
X157498Y72929D01*
X157504Y72897D01*
X157556Y72801D01*
X157601Y72701D01*
X157622Y72677D01*
X157637Y72648D01*
X157713Y72570D01*
X157784Y72487D01*
X157811Y72469D01*
X157834Y72446D01*
X157928Y72392D01*
X158020Y72332D01*
X158051Y72323D01*
X158079Y72307D01*
X158185Y72282D01*
X158290Y72250D01*
X158322Y72249D01*
X158353Y72242D01*
X158463Y72248D01*
X158572Y72246D01*
X158603Y72255D01*
X158635Y72256D01*
X158738Y72292D01*
X158844Y72321D01*
X158871Y72338D01*
X158902Y72349D01*
X158975Y72402D01*
X159084Y72469D01*
X159116Y72505D01*
X159151Y72531D01*
X159755Y73135D01*
X159755Y73136D01*
X164263Y77643D01*
X164320Y77719D01*
X164385Y77791D01*
X164405Y77832D01*
X164432Y77868D01*
X164466Y77958D01*
X164508Y78045D01*
X164514Y78087D01*
X164531Y78132D01*
X164541Y78260D01*
X164555Y78349D01*
X164555Y89439D01*
X165947Y92800D01*
X168249Y95101D01*
X168287Y95153D01*
X168333Y95198D01*
X168372Y95265D01*
X168418Y95327D01*
X168441Y95387D01*
X168472Y95443D01*
X168490Y95518D01*
X168518Y95591D01*
X168523Y95655D01*
X168537Y95717D01*
X168533Y95795D01*
X168539Y95872D01*
X168526Y95935D01*
X168523Y95999D01*
X168498Y96072D01*
X168482Y96148D01*
X168452Y96205D01*
X168431Y96266D01*
X168389Y96322D01*
X168349Y96397D01*
X168290Y96458D01*
X168249Y96515D01*
X166871Y97893D01*
X166870Y97893D01*
X132015Y132749D01*
X131963Y132787D01*
X131918Y132833D01*
X131851Y132872D01*
X131789Y132918D01*
X131729Y132941D01*
X131673Y132972D01*
X131598Y132990D01*
X131525Y133018D01*
X131461Y133023D01*
X131398Y133037D01*
X131321Y133033D01*
X131244Y133039D01*
X131181Y133026D01*
X131117Y133023D01*
X131044Y132998D01*
X130968Y132982D01*
X130911Y132952D01*
X130850Y132931D01*
X130794Y132889D01*
X130719Y132849D01*
X130658Y132790D01*
X130601Y132749D01*
X127980Y130127D01*
X124619Y128735D01*
X120981Y128735D01*
X117620Y130127D01*
X115047Y132700D01*
X113655Y136061D01*
X113655Y152740D01*
X113651Y152772D01*
X113653Y152804D01*
X113631Y152911D01*
X113615Y153019D01*
X113602Y153049D01*
X113596Y153080D01*
X113544Y153177D01*
X113499Y153276D01*
X113478Y153301D01*
X113463Y153329D01*
X113387Y153407D01*
X113316Y153491D01*
X113289Y153508D01*
X113266Y153531D01*
X113171Y153585D01*
X113080Y153645D01*
X113049Y153655D01*
X113021Y153670D01*
X112914Y153696D01*
X112810Y153727D01*
X112778Y153728D01*
X112747Y153735D01*
X112637Y153730D01*
X112528Y153731D01*
X112497Y153723D01*
X112465Y153721D01*
X112362Y153685D01*
X112256Y153656D01*
X112229Y153639D01*
X112198Y153628D01*
X112125Y153575D01*
X112016Y153508D01*
X111984Y153472D01*
X111949Y153447D01*
X106837Y148335D01*
X106780Y148258D01*
X106715Y148186D01*
X106695Y148146D01*
X106668Y148109D01*
X106634Y148019D01*
X106592Y147933D01*
X106586Y147891D01*
X106569Y147845D01*
X106559Y147718D01*
X106545Y147628D01*
X106545Y136061D01*
X105153Y132700D01*
X102580Y130127D01*
X99219Y128735D01*
X95581Y128735D01*
X92220Y130127D01*
X89647Y132700D01*
X88255Y136061D01*
X88255Y154939D01*
X89647Y158300D01*
X92220Y160873D01*
X95581Y162265D01*
X99219Y162265D01*
X102580Y160873D01*
X105286Y158166D01*
X105338Y158128D01*
X105383Y158082D01*
X105450Y158043D01*
X105512Y157997D01*
X105572Y157974D01*
X105628Y157943D01*
X105703Y157925D01*
X105776Y157897D01*
X105840Y157892D01*
X105902Y157878D01*
X105980Y157882D01*
X106057Y157876D01*
X106120Y157889D01*
X106184Y157892D01*
X106257Y157917D01*
X106333Y157933D01*
X106390Y157963D01*
X106451Y157984D01*
X106507Y158026D01*
X106582Y158066D01*
X106643Y158125D01*
X106700Y158166D01*
X114293Y165759D01*
X116610Y168076D01*
X116648Y168128D01*
X116695Y168173D01*
X116733Y168240D01*
X116779Y168302D01*
X116802Y168362D01*
X116834Y168419D01*
X116851Y168494D01*
X116879Y168566D01*
X116883Y168630D01*
X116898Y168693D01*
X116894Y168770D01*
X116900Y168847D01*
X116887Y168910D01*
X116884Y168975D01*
X116858Y169048D01*
X116843Y169123D01*
X116812Y169180D01*
X116791Y169241D01*
X116750Y169298D01*
X116710Y169372D01*
X116651Y169433D01*
X116609Y169490D01*
X116579Y169521D01*
X80295Y205804D01*
X80295Y345490D01*
X80283Y345576D01*
X80280Y345663D01*
X80263Y345715D01*
X80255Y345770D01*
X80220Y345849D01*
X80193Y345931D01*
X80162Y345977D01*
X80139Y346027D01*
X80083Y346092D01*
X80034Y346164D01*
X79991Y346199D01*
X79956Y346241D01*
X79883Y346288D01*
X79816Y346344D01*
X79766Y346365D01*
X79720Y346395D01*
X79637Y346421D01*
X79557Y346455D01*
X79503Y346462D01*
X79450Y346478D01*
X79363Y346479D01*
X79277Y346489D01*
X79223Y346481D01*
X79168Y346481D01*
X79084Y346458D01*
X78999Y346444D01*
X78949Y346421D01*
X78896Y346406D01*
X78822Y346361D01*
X78744Y346323D01*
X78703Y346287D01*
X78656Y346258D01*
X78598Y346194D01*
X78533Y346136D01*
X78507Y346092D01*
X78467Y346049D01*
X78418Y345946D01*
X78373Y345873D01*
X77947Y344845D01*
X72655Y339553D01*
X65742Y336689D01*
X58258Y336689D01*
X51345Y339553D01*
X46025Y344873D01*
X45999Y344892D01*
X45978Y344917D01*
X45886Y344977D01*
X45799Y345042D01*
X45769Y345054D01*
X45742Y345071D01*
X45637Y345103D01*
X45535Y345142D01*
X45503Y345144D01*
X45472Y345154D01*
X45363Y345155D01*
X45254Y345164D01*
X45222Y345157D01*
X45190Y345158D01*
X45085Y345128D01*
X44978Y345106D01*
X44949Y345091D01*
X44918Y345082D01*
X44825Y345025D01*
X44729Y344974D01*
X44706Y344951D01*
X44678Y344934D01*
X44605Y344853D01*
X44527Y344777D01*
X44511Y344749D01*
X44489Y344725D01*
X44442Y344627D01*
X44388Y344531D01*
X44380Y344500D01*
X44366Y344471D01*
X44352Y344382D01*
X44323Y344257D01*
X44325Y344209D01*
X44319Y344166D01*
X44319Y205834D01*
X44323Y205802D01*
X44321Y205769D01*
X44343Y205663D01*
X44359Y205554D01*
X44372Y205525D01*
X44378Y205493D01*
X44430Y205397D01*
X44475Y205297D01*
X44496Y205273D01*
X44511Y205244D01*
X44587Y205166D01*
X44658Y205083D01*
X44685Y205065D01*
X44708Y205042D01*
X44803Y204989D01*
X44894Y204929D01*
X44925Y204919D01*
X44953Y204903D01*
X45060Y204878D01*
X45164Y204846D01*
X45196Y204846D01*
X45227Y204838D01*
X45337Y204844D01*
X45446Y204842D01*
X45477Y204851D01*
X45509Y204853D01*
X45612Y204889D01*
X45718Y204918D01*
X45745Y204935D01*
X45776Y204945D01*
X45849Y204999D01*
X45958Y205066D01*
X45990Y205102D01*
X46025Y205127D01*
X51345Y210447D01*
X58258Y213311D01*
X65742Y213311D01*
X72655Y210447D01*
X77947Y205155D01*
X80811Y198242D01*
X80811Y190758D01*
X77947Y183845D01*
X72655Y178553D01*
X65742Y175689D01*
X58258Y175689D01*
X51345Y178553D01*
X46025Y183873D01*
X45999Y183892D01*
X45978Y183917D01*
X45886Y183977D01*
X45799Y184042D01*
X45769Y184054D01*
X45742Y184071D01*
X45637Y184103D01*
X45535Y184142D01*
X45503Y184144D01*
X45472Y184154D01*
X45363Y184155D01*
X45254Y184164D01*
X45222Y184157D01*
X45190Y184158D01*
X45085Y184128D01*
X44978Y184106D01*
X44949Y184091D01*
X44918Y184082D01*
X44825Y184025D01*
X44729Y183974D01*
X44706Y183951D01*
X44678Y183934D01*
X44605Y183853D01*
X44527Y183777D01*
X44511Y183749D01*
X44489Y183725D01*
X44442Y183627D01*
X44388Y183531D01*
X44380Y183500D01*
X44366Y183471D01*
X44352Y183382D01*
X44323Y183257D01*
X44325Y183209D01*
X44319Y183166D01*
X44319Y35318D01*
X44328Y35254D01*
X44327Y35190D01*
X44348Y35115D01*
X44359Y35039D01*
X44385Y34980D01*
X44402Y34918D01*
X44443Y34852D01*
X44475Y34782D01*
X44517Y34733D01*
X44550Y34678D01*
X44608Y34626D01*
X44658Y34568D01*
X44712Y34532D01*
X44760Y34489D01*
X44829Y34456D01*
X44894Y34413D01*
X44956Y34394D01*
X45013Y34366D01*
X45083Y34355D01*
X45164Y34331D01*
X45249Y34330D01*
X45318Y34319D01*
X449682Y34319D01*
X449746Y34328D01*
G37*
G36*
X327685Y207883D02*
X327685Y207883D01*
X327740Y207882D01*
X327824Y207905D01*
X327909Y207919D01*
X327959Y207943D01*
X328012Y207957D01*
X328085Y208003D01*
X328164Y208040D01*
X328205Y208077D01*
X328252Y208106D01*
X328310Y208170D01*
X328375Y208228D01*
X328401Y208271D01*
X328441Y208315D01*
X328490Y208417D01*
X328535Y208491D01*
X329942Y211887D01*
X333113Y215058D01*
X337257Y216775D01*
X341743Y216775D01*
X345114Y215378D01*
X345228Y215349D01*
X345342Y215314D01*
X345365Y215314D01*
X345387Y215308D01*
X345505Y215312D01*
X345624Y215311D01*
X345646Y215317D01*
X345669Y215317D01*
X345781Y215354D01*
X345896Y215386D01*
X345915Y215398D01*
X345937Y215405D01*
X346035Y215472D01*
X346136Y215534D01*
X346151Y215551D01*
X346170Y215564D01*
X346245Y215655D01*
X346325Y215743D01*
X346335Y215764D01*
X346349Y215781D01*
X346396Y215890D01*
X346448Y215997D01*
X346451Y216018D01*
X346461Y216041D01*
X346483Y216225D01*
X346495Y216302D01*
X346495Y223639D01*
X346493Y223656D01*
X346495Y223673D01*
X346473Y223795D01*
X346455Y223919D01*
X346449Y223934D01*
X346446Y223950D01*
X346390Y224063D01*
X346339Y224176D01*
X346328Y224188D01*
X346321Y224203D01*
X346237Y224296D01*
X346156Y224390D01*
X346142Y224399D01*
X346131Y224411D01*
X346024Y224476D01*
X345920Y224544D01*
X345904Y224549D01*
X345890Y224558D01*
X345769Y224590D01*
X345650Y224627D01*
X345634Y224627D01*
X345617Y224631D01*
X345492Y224629D01*
X345368Y224630D01*
X345352Y224626D01*
X345335Y224626D01*
X345251Y224598D01*
X345096Y224555D01*
X345069Y224539D01*
X345042Y224530D01*
X344218Y224110D01*
X342378Y223512D01*
X341499Y223373D01*
X341499Y234500D01*
X341490Y234563D01*
X341491Y234628D01*
X341470Y234702D01*
X341459Y234779D01*
X341433Y234838D01*
X341416Y234900D01*
X341375Y234966D01*
X341343Y235036D01*
X341301Y235085D01*
X341268Y235140D01*
X341210Y235191D01*
X341160Y235250D01*
X341106Y235286D01*
X341058Y235329D01*
X340989Y235362D01*
X340924Y235405D01*
X340862Y235424D01*
X340805Y235452D01*
X340735Y235462D01*
X340654Y235487D01*
X340569Y235488D01*
X340500Y235499D01*
X339499Y235499D01*
X339499Y235501D01*
X340500Y235501D01*
X340564Y235510D01*
X340628Y235509D01*
X340703Y235530D01*
X340779Y235541D01*
X340838Y235567D01*
X340900Y235584D01*
X340966Y235625D01*
X341036Y235657D01*
X341085Y235699D01*
X341140Y235732D01*
X341192Y235790D01*
X341250Y235840D01*
X341286Y235894D01*
X341329Y235942D01*
X341362Y236011D01*
X341405Y236076D01*
X341424Y236138D01*
X341452Y236196D01*
X341462Y236265D01*
X341487Y236346D01*
X341488Y236431D01*
X341499Y236500D01*
X341499Y247627D01*
X342378Y247488D01*
X344218Y246890D01*
X345042Y246470D01*
X345058Y246465D01*
X345072Y246456D01*
X345191Y246419D01*
X345309Y246379D01*
X345326Y246378D01*
X345342Y246373D01*
X345467Y246372D01*
X345591Y246366D01*
X345607Y246370D01*
X345624Y246370D01*
X345744Y246403D01*
X345865Y246432D01*
X345880Y246440D01*
X345896Y246445D01*
X346002Y246510D01*
X346110Y246572D01*
X346122Y246584D01*
X346136Y246593D01*
X346219Y246685D01*
X346306Y246775D01*
X346313Y246790D01*
X346325Y246802D01*
X346379Y246914D01*
X346437Y247025D01*
X346440Y247041D01*
X346448Y247056D01*
X346461Y247144D01*
X346493Y247301D01*
X346491Y247333D01*
X346495Y247361D01*
X346495Y254698D01*
X346479Y254816D01*
X346467Y254934D01*
X346459Y254955D01*
X346455Y254978D01*
X346407Y255086D01*
X346363Y255196D01*
X346349Y255214D01*
X346339Y255235D01*
X346262Y255325D01*
X346189Y255418D01*
X346171Y255431D01*
X346156Y255449D01*
X346057Y255514D01*
X345960Y255583D01*
X345939Y255591D01*
X345920Y255603D01*
X345806Y255638D01*
X345695Y255678D01*
X345672Y255679D01*
X345650Y255686D01*
X345532Y255687D01*
X345413Y255694D01*
X345392Y255689D01*
X345368Y255689D01*
X345189Y255640D01*
X345114Y255622D01*
X341743Y254225D01*
X337257Y254225D01*
X333113Y255942D01*
X329942Y259113D01*
X328225Y263257D01*
X328225Y267743D01*
X329942Y271887D01*
X333113Y275058D01*
X337257Y276775D01*
X341743Y276775D01*
X345114Y275378D01*
X345228Y275349D01*
X345342Y275314D01*
X345365Y275314D01*
X345387Y275308D01*
X345505Y275312D01*
X345624Y275311D01*
X345646Y275317D01*
X345669Y275317D01*
X345781Y275354D01*
X345896Y275386D01*
X345915Y275398D01*
X345937Y275405D01*
X346035Y275472D01*
X346136Y275534D01*
X346151Y275551D01*
X346170Y275564D01*
X346245Y275655D01*
X346325Y275743D01*
X346335Y275764D01*
X346349Y275781D01*
X346396Y275890D01*
X346448Y275997D01*
X346451Y276018D01*
X346461Y276041D01*
X346483Y276225D01*
X346495Y276302D01*
X346495Y284698D01*
X346479Y284816D01*
X346467Y284934D01*
X346459Y284955D01*
X346455Y284978D01*
X346407Y285086D01*
X346363Y285196D01*
X346349Y285214D01*
X346339Y285235D01*
X346262Y285325D01*
X346189Y285418D01*
X346171Y285431D01*
X346156Y285449D01*
X346057Y285514D01*
X345960Y285583D01*
X345939Y285591D01*
X345920Y285603D01*
X345806Y285638D01*
X345695Y285678D01*
X345672Y285679D01*
X345650Y285686D01*
X345532Y285687D01*
X345413Y285694D01*
X345392Y285689D01*
X345368Y285689D01*
X345189Y285640D01*
X345114Y285622D01*
X341743Y284225D01*
X337257Y284225D01*
X333113Y285942D01*
X329942Y289113D01*
X328225Y293257D01*
X328225Y297743D01*
X329942Y301887D01*
X333113Y305058D01*
X337257Y306775D01*
X341743Y306775D01*
X345114Y305378D01*
X345228Y305349D01*
X345342Y305314D01*
X345365Y305314D01*
X345387Y305308D01*
X345505Y305312D01*
X345624Y305311D01*
X345646Y305317D01*
X345669Y305317D01*
X345781Y305354D01*
X345896Y305386D01*
X345915Y305398D01*
X345937Y305405D01*
X346035Y305472D01*
X346136Y305534D01*
X346151Y305551D01*
X346170Y305564D01*
X346245Y305655D01*
X346325Y305743D01*
X346335Y305764D01*
X346349Y305781D01*
X346396Y305890D01*
X346448Y305997D01*
X346451Y306018D01*
X346461Y306041D01*
X346483Y306225D01*
X346495Y306302D01*
X346495Y314698D01*
X346479Y314816D01*
X346467Y314934D01*
X346459Y314955D01*
X346455Y314978D01*
X346407Y315086D01*
X346363Y315196D01*
X346349Y315214D01*
X346339Y315235D01*
X346262Y315325D01*
X346189Y315418D01*
X346171Y315431D01*
X346156Y315449D01*
X346057Y315514D01*
X345960Y315583D01*
X345939Y315591D01*
X345920Y315603D01*
X345806Y315638D01*
X345695Y315678D01*
X345672Y315679D01*
X345650Y315686D01*
X345532Y315687D01*
X345413Y315694D01*
X345392Y315689D01*
X345368Y315689D01*
X345189Y315640D01*
X345114Y315622D01*
X341743Y314225D01*
X337257Y314225D01*
X333113Y315942D01*
X329942Y319113D01*
X328225Y323257D01*
X328225Y327743D01*
X329942Y331887D01*
X333113Y335058D01*
X337257Y336775D01*
X341743Y336775D01*
X345114Y335378D01*
X345228Y335349D01*
X345342Y335314D01*
X345365Y335314D01*
X345387Y335308D01*
X345505Y335312D01*
X345624Y335311D01*
X345646Y335317D01*
X345669Y335317D01*
X345781Y335354D01*
X345896Y335386D01*
X345915Y335398D01*
X345937Y335405D01*
X346035Y335472D01*
X346136Y335534D01*
X346151Y335551D01*
X346170Y335564D01*
X346245Y335655D01*
X346325Y335743D01*
X346335Y335764D01*
X346349Y335781D01*
X346396Y335890D01*
X346448Y335997D01*
X346451Y336018D01*
X346461Y336041D01*
X346483Y336225D01*
X346495Y336302D01*
X346495Y344698D01*
X346479Y344816D01*
X346467Y344934D01*
X346459Y344955D01*
X346455Y344978D01*
X346407Y345085D01*
X346363Y345196D01*
X346349Y345214D01*
X346339Y345235D01*
X346262Y345325D01*
X346189Y345418D01*
X346171Y345431D01*
X346156Y345449D01*
X346057Y345514D01*
X345960Y345583D01*
X345939Y345591D01*
X345920Y345603D01*
X345806Y345638D01*
X345695Y345678D01*
X345672Y345679D01*
X345650Y345686D01*
X345532Y345687D01*
X345413Y345694D01*
X345392Y345689D01*
X345368Y345689D01*
X345189Y345640D01*
X345114Y345622D01*
X341743Y344225D01*
X337257Y344225D01*
X333113Y345942D01*
X329942Y349113D01*
X328225Y353257D01*
X328225Y357743D01*
X329942Y361887D01*
X333113Y365058D01*
X337257Y366775D01*
X339877Y366775D01*
X339909Y366779D01*
X339941Y366777D01*
X340048Y366799D01*
X340156Y366815D01*
X340186Y366828D01*
X340217Y366834D01*
X340314Y366886D01*
X340413Y366931D01*
X340438Y366952D01*
X340466Y366967D01*
X340545Y367043D01*
X340627Y367114D01*
X340645Y367141D01*
X340668Y367164D01*
X340722Y367259D01*
X340782Y367350D01*
X340791Y367381D01*
X340807Y367409D01*
X340832Y367516D01*
X340864Y367620D01*
X340865Y367652D01*
X340872Y367683D01*
X340867Y367793D01*
X340868Y367902D01*
X340860Y367933D01*
X340858Y367965D01*
X340822Y368068D01*
X340793Y368174D01*
X340776Y368201D01*
X340765Y368232D01*
X340712Y368305D01*
X340645Y368414D01*
X340609Y368446D01*
X340584Y368481D01*
X299616Y409449D01*
X299539Y409506D01*
X299467Y409571D01*
X299426Y409591D01*
X299390Y409618D01*
X299300Y409652D01*
X299214Y409694D01*
X299172Y409700D01*
X299126Y409717D01*
X298998Y409727D01*
X298909Y409741D01*
X238371Y409741D01*
X238277Y409728D01*
X238182Y409723D01*
X238138Y409708D01*
X238092Y409701D01*
X238005Y409662D01*
X237915Y409631D01*
X237877Y409604D01*
X237835Y409585D01*
X237763Y409524D01*
X237685Y409469D01*
X237656Y409432D01*
X237620Y409402D01*
X237568Y409322D01*
X237509Y409248D01*
X237491Y409205D01*
X237466Y409166D01*
X237438Y409075D01*
X237402Y408987D01*
X237397Y408941D01*
X237384Y408896D01*
X237382Y408801D01*
X237372Y408707D01*
X237380Y408661D01*
X237380Y408614D01*
X237405Y408523D01*
X237422Y408429D01*
X237442Y408390D01*
X237455Y408342D01*
X237521Y408235D01*
X237562Y408155D01*
X238310Y407125D01*
X239036Y405700D01*
X239531Y404179D01*
X239591Y403799D01*
X223000Y403799D01*
X222937Y403790D01*
X222872Y403791D01*
X222798Y403770D01*
X222721Y403759D01*
X222662Y403733D01*
X222600Y403716D01*
X222534Y403675D01*
X222464Y403643D01*
X222415Y403601D01*
X222360Y403568D01*
X222309Y403510D01*
X222250Y403460D01*
X222214Y403406D01*
X222171Y403358D01*
X222138Y403289D01*
X222095Y403224D01*
X222076Y403162D01*
X222048Y403105D01*
X222038Y403035D01*
X222013Y402954D01*
X222012Y402869D01*
X222001Y402800D01*
X222001Y401799D01*
X221999Y401799D01*
X221999Y402800D01*
X221990Y402864D01*
X221991Y402928D01*
X221970Y403003D01*
X221959Y403079D01*
X221933Y403138D01*
X221916Y403200D01*
X221875Y403266D01*
X221843Y403336D01*
X221801Y403385D01*
X221768Y403440D01*
X221710Y403492D01*
X221660Y403550D01*
X221606Y403586D01*
X221558Y403629D01*
X221489Y403662D01*
X221424Y403705D01*
X221362Y403724D01*
X221304Y403752D01*
X221235Y403762D01*
X221154Y403787D01*
X221069Y403788D01*
X221000Y403799D01*
X204927Y403799D01*
X204832Y403786D01*
X204736Y403781D01*
X204693Y403766D01*
X204648Y403759D01*
X204560Y403720D01*
X204469Y403688D01*
X204435Y403663D01*
X204391Y403643D01*
X204293Y403560D01*
X204220Y403507D01*
X182420Y381707D01*
X182382Y381655D01*
X182336Y381610D01*
X182298Y381543D01*
X182251Y381481D01*
X182228Y381421D01*
X182197Y381365D01*
X182179Y381290D01*
X182152Y381217D01*
X182147Y381153D01*
X182132Y381091D01*
X182136Y381013D01*
X182130Y380936D01*
X182143Y380873D01*
X182146Y380809D01*
X182172Y380736D01*
X182187Y380660D01*
X182218Y380603D01*
X182239Y380542D01*
X182280Y380486D01*
X182320Y380411D01*
X182379Y380350D01*
X182420Y380293D01*
X205874Y356840D01*
X205925Y356801D01*
X205970Y356755D01*
X206038Y356717D01*
X206100Y356670D01*
X206160Y356648D01*
X206216Y356616D01*
X206291Y356598D01*
X206363Y356571D01*
X206427Y356566D01*
X206490Y356551D01*
X206568Y356555D01*
X206645Y356549D01*
X206708Y356562D01*
X206772Y356566D01*
X206845Y356591D01*
X206921Y356607D01*
X206978Y356637D01*
X207038Y356658D01*
X207095Y356699D01*
X207170Y356739D01*
X207230Y356798D01*
X207287Y356840D01*
X209200Y358753D01*
X212561Y360145D01*
X231439Y360145D01*
X234800Y358753D01*
X237373Y356180D01*
X238765Y352819D01*
X238765Y349181D01*
X237373Y345820D01*
X236635Y345083D01*
X236616Y345057D01*
X236591Y345036D01*
X236531Y344944D01*
X236466Y344857D01*
X236455Y344827D01*
X236437Y344800D01*
X236405Y344695D01*
X236366Y344593D01*
X236364Y344561D01*
X236354Y344530D01*
X236353Y344421D01*
X236345Y344312D01*
X236351Y344280D01*
X236351Y344248D01*
X236380Y344143D01*
X236402Y344036D01*
X236417Y344007D01*
X236426Y343976D01*
X236483Y343883D01*
X236535Y343787D01*
X236557Y343764D01*
X236574Y343736D01*
X236655Y343663D01*
X236731Y343585D01*
X236759Y343569D01*
X236783Y343547D01*
X236881Y343500D01*
X236977Y343446D01*
X237008Y343438D01*
X237037Y343424D01*
X237127Y343410D01*
X237251Y343381D01*
X237300Y343383D01*
X237342Y343377D01*
X272820Y343377D01*
X272830Y343378D01*
X272839Y343377D01*
X272969Y343398D01*
X273099Y343417D01*
X273108Y343420D01*
X273117Y343422D01*
X273237Y343479D01*
X273356Y343533D01*
X273364Y343539D01*
X273372Y343543D01*
X273471Y343631D01*
X273571Y343716D01*
X273576Y343724D01*
X273583Y343730D01*
X273623Y343796D01*
X273725Y343952D01*
X273732Y343975D01*
X273743Y343994D01*
X274942Y346887D01*
X278113Y350058D01*
X278395Y350175D01*
X278481Y350226D01*
X278507Y350238D01*
X278517Y350246D01*
X278601Y350291D01*
X278618Y350307D01*
X278637Y350318D01*
X278718Y350405D01*
X278803Y350488D01*
X278815Y350507D01*
X278830Y350524D01*
X278884Y350630D01*
X278942Y350733D01*
X278948Y350755D01*
X278958Y350775D01*
X278980Y350892D01*
X279007Y351007D01*
X279006Y351030D01*
X279010Y351053D01*
X278999Y351170D01*
X278993Y351289D01*
X278986Y351311D01*
X278983Y351333D01*
X278939Y351443D01*
X278901Y351556D01*
X278888Y351573D01*
X278879Y351595D01*
X278764Y351742D01*
X278719Y351804D01*
X258675Y371849D01*
X258598Y371906D01*
X258526Y371971D01*
X258486Y371991D01*
X258449Y372018D01*
X258359Y372052D01*
X258273Y372094D01*
X258231Y372100D01*
X258185Y372117D01*
X258058Y372127D01*
X257968Y372141D01*
X238422Y372141D01*
X238412Y372140D01*
X238403Y372141D01*
X238273Y372120D01*
X238143Y372101D01*
X238134Y372098D01*
X238125Y372096D01*
X238005Y372039D01*
X237886Y371985D01*
X237879Y371979D01*
X237870Y371975D01*
X237771Y371887D01*
X237671Y371802D01*
X237666Y371794D01*
X237659Y371788D01*
X237619Y371722D01*
X237517Y371566D01*
X237510Y371543D01*
X237499Y371524D01*
X237373Y371220D01*
X234800Y368647D01*
X231439Y367255D01*
X212561Y367255D01*
X209200Y368647D01*
X206627Y371220D01*
X205235Y374581D01*
X205235Y378219D01*
X206627Y381580D01*
X209200Y384153D01*
X212561Y385545D01*
X231439Y385545D01*
X234800Y384153D01*
X237373Y381580D01*
X238107Y379808D01*
X238112Y379799D01*
X238114Y379790D01*
X238183Y379678D01*
X238250Y379565D01*
X238257Y379558D01*
X238262Y379550D01*
X238360Y379462D01*
X238456Y379372D01*
X238464Y379368D01*
X238472Y379361D01*
X238590Y379304D01*
X238707Y379244D01*
X238717Y379242D01*
X238725Y379238D01*
X238801Y379226D01*
X238985Y379192D01*
X239009Y379194D01*
X239030Y379191D01*
X261302Y379191D01*
X271519Y368973D01*
X271545Y368954D01*
X271566Y368929D01*
X271658Y368869D01*
X271745Y368804D01*
X271775Y368793D01*
X271802Y368775D01*
X271907Y368743D01*
X272009Y368704D01*
X272041Y368702D01*
X272072Y368693D01*
X272181Y368691D01*
X272290Y368683D01*
X272322Y368689D01*
X272354Y368689D01*
X272459Y368718D01*
X272566Y368740D01*
X272595Y368755D01*
X272626Y368764D01*
X272719Y368821D01*
X272815Y368873D01*
X272838Y368895D01*
X272866Y368912D01*
X272939Y368993D01*
X273017Y369069D01*
X273033Y369098D01*
X273055Y369121D01*
X273102Y369220D01*
X273156Y369315D01*
X273164Y369346D01*
X273178Y369375D01*
X273192Y369464D01*
X273221Y369589D01*
X273219Y369638D01*
X273225Y369680D01*
X273225Y372743D01*
X274942Y376887D01*
X278113Y380058D01*
X282257Y381775D01*
X286743Y381775D01*
X290887Y380058D01*
X294058Y376887D01*
X295775Y372743D01*
X295775Y368257D01*
X294058Y364113D01*
X290887Y360942D01*
X288075Y359777D01*
X288000Y359733D01*
X287921Y359697D01*
X287880Y359662D01*
X287832Y359634D01*
X287773Y359570D01*
X287707Y359514D01*
X287677Y359468D01*
X287639Y359428D01*
X287600Y359351D01*
X287553Y359278D01*
X287537Y359225D01*
X287512Y359176D01*
X287495Y359091D01*
X287470Y359008D01*
X287469Y358953D01*
X287459Y358899D01*
X287468Y358813D01*
X287466Y358726D01*
X287481Y358673D01*
X287486Y358619D01*
X287518Y358538D01*
X287542Y358454D01*
X287571Y358407D01*
X287591Y358357D01*
X287644Y358288D01*
X287690Y358214D01*
X287731Y358178D01*
X287764Y358134D01*
X287835Y358083D01*
X287899Y358025D01*
X287948Y358001D01*
X287993Y357969D01*
X288075Y357940D01*
X288153Y357902D01*
X288203Y357894D01*
X288259Y357875D01*
X288372Y357868D01*
X288457Y357855D01*
X291020Y357855D01*
X296519Y352355D01*
X296545Y352336D01*
X296566Y352311D01*
X296627Y352272D01*
X296650Y352251D01*
X296674Y352239D01*
X296745Y352186D01*
X296775Y352175D01*
X296802Y352157D01*
X296907Y352125D01*
X297009Y352086D01*
X297041Y352084D01*
X297072Y352075D01*
X297181Y352073D01*
X297290Y352065D01*
X297322Y352071D01*
X297354Y352071D01*
X297459Y352100D01*
X297566Y352122D01*
X297595Y352137D01*
X297626Y352146D01*
X297719Y352203D01*
X297815Y352255D01*
X297838Y352277D01*
X297866Y352294D01*
X297939Y352375D01*
X298017Y352451D01*
X298033Y352480D01*
X298055Y352503D01*
X298102Y352602D01*
X298156Y352697D01*
X298164Y352728D01*
X298178Y352757D01*
X298192Y352846D01*
X298200Y352882D01*
X298213Y352925D01*
X298213Y352939D01*
X298221Y352971D01*
X298219Y353020D01*
X298225Y353062D01*
X298225Y357743D01*
X299942Y361887D01*
X303113Y365058D01*
X307257Y366775D01*
X311743Y366775D01*
X315887Y365058D01*
X319058Y361887D01*
X320775Y357743D01*
X320775Y353257D01*
X319058Y349113D01*
X315887Y345942D01*
X311743Y344225D01*
X307257Y344225D01*
X303084Y345954D01*
X303034Y345986D01*
X302947Y346052D01*
X302917Y346063D01*
X302890Y346081D01*
X302786Y346113D01*
X302683Y346151D01*
X302651Y346154D01*
X302620Y346163D01*
X302511Y346165D01*
X302402Y346173D01*
X302370Y346167D01*
X302338Y346167D01*
X302233Y346138D01*
X302126Y346116D01*
X302098Y346100D01*
X302066Y346092D01*
X301973Y346034D01*
X301877Y345983D01*
X301854Y345961D01*
X301826Y345944D01*
X301753Y345863D01*
X301675Y345786D01*
X301659Y345758D01*
X301637Y345734D01*
X301590Y345636D01*
X301536Y345541D01*
X301528Y345510D01*
X301514Y345481D01*
X301500Y345391D01*
X301471Y345267D01*
X301473Y345218D01*
X301467Y345176D01*
X301467Y335824D01*
X301471Y335792D01*
X301469Y335760D01*
X301491Y335653D01*
X301507Y335545D01*
X301520Y335515D01*
X301526Y335484D01*
X301578Y335387D01*
X301623Y335288D01*
X301644Y335263D01*
X301659Y335235D01*
X301735Y335156D01*
X301806Y335074D01*
X301833Y335056D01*
X301856Y335033D01*
X301951Y334979D01*
X302042Y334919D01*
X302073Y334910D01*
X302101Y334894D01*
X302207Y334869D01*
X302312Y334837D01*
X302344Y334836D01*
X302376Y334829D01*
X302485Y334834D01*
X302594Y334833D01*
X302625Y334842D01*
X302657Y334843D01*
X302760Y334879D01*
X302866Y334908D01*
X302893Y334925D01*
X302924Y334936D01*
X302997Y334989D01*
X303099Y335052D01*
X307257Y336775D01*
X311743Y336775D01*
X315887Y335058D01*
X319058Y331887D01*
X320775Y327743D01*
X320775Y323257D01*
X319058Y319113D01*
X315887Y315942D01*
X311743Y314225D01*
X307257Y314225D01*
X303084Y315954D01*
X303034Y315986D01*
X302947Y316052D01*
X302917Y316063D01*
X302890Y316081D01*
X302786Y316113D01*
X302683Y316151D01*
X302651Y316154D01*
X302620Y316163D01*
X302511Y316165D01*
X302402Y316173D01*
X302370Y316167D01*
X302338Y316167D01*
X302233Y316138D01*
X302126Y316116D01*
X302098Y316100D01*
X302066Y316092D01*
X301973Y316034D01*
X301877Y315983D01*
X301854Y315961D01*
X301826Y315944D01*
X301753Y315863D01*
X301675Y315786D01*
X301659Y315758D01*
X301637Y315734D01*
X301590Y315636D01*
X301536Y315541D01*
X301528Y315510D01*
X301514Y315481D01*
X301500Y315391D01*
X301471Y315267D01*
X301473Y315218D01*
X301467Y315176D01*
X301467Y305824D01*
X301471Y305792D01*
X301469Y305760D01*
X301491Y305653D01*
X301507Y305545D01*
X301520Y305515D01*
X301526Y305484D01*
X301578Y305387D01*
X301623Y305288D01*
X301644Y305263D01*
X301659Y305235D01*
X301735Y305156D01*
X301806Y305074D01*
X301833Y305056D01*
X301856Y305033D01*
X301951Y304979D01*
X302042Y304919D01*
X302073Y304910D01*
X302101Y304894D01*
X302207Y304869D01*
X302312Y304837D01*
X302344Y304836D01*
X302376Y304829D01*
X302485Y304834D01*
X302594Y304833D01*
X302625Y304842D01*
X302657Y304843D01*
X302760Y304879D01*
X302866Y304908D01*
X302893Y304925D01*
X302924Y304936D01*
X302997Y304989D01*
X303099Y305052D01*
X307257Y306775D01*
X311743Y306775D01*
X315887Y305058D01*
X319058Y301887D01*
X320775Y297743D01*
X320775Y293257D01*
X319058Y289113D01*
X315887Y285942D01*
X311743Y284225D01*
X307257Y284225D01*
X303084Y285954D01*
X303034Y285986D01*
X302947Y286052D01*
X302917Y286063D01*
X302890Y286081D01*
X302786Y286113D01*
X302683Y286151D01*
X302651Y286154D01*
X302620Y286163D01*
X302511Y286165D01*
X302402Y286173D01*
X302370Y286167D01*
X302338Y286167D01*
X302233Y286138D01*
X302126Y286116D01*
X302098Y286100D01*
X302066Y286092D01*
X301973Y286034D01*
X301877Y285983D01*
X301854Y285961D01*
X301826Y285944D01*
X301753Y285863D01*
X301675Y285786D01*
X301659Y285758D01*
X301637Y285734D01*
X301590Y285636D01*
X301536Y285541D01*
X301528Y285510D01*
X301514Y285481D01*
X301500Y285391D01*
X301471Y285267D01*
X301473Y285218D01*
X301467Y285176D01*
X301467Y275824D01*
X301471Y275792D01*
X301469Y275760D01*
X301491Y275653D01*
X301507Y275545D01*
X301520Y275515D01*
X301526Y275484D01*
X301578Y275387D01*
X301623Y275288D01*
X301644Y275263D01*
X301659Y275235D01*
X301735Y275156D01*
X301806Y275074D01*
X301833Y275056D01*
X301856Y275033D01*
X301951Y274979D01*
X302042Y274919D01*
X302073Y274910D01*
X302101Y274894D01*
X302207Y274869D01*
X302312Y274837D01*
X302344Y274836D01*
X302376Y274829D01*
X302485Y274834D01*
X302594Y274833D01*
X302625Y274842D01*
X302657Y274843D01*
X302760Y274879D01*
X302866Y274908D01*
X302893Y274925D01*
X302924Y274936D01*
X302997Y274989D01*
X303099Y275052D01*
X307257Y276775D01*
X311743Y276775D01*
X315887Y275058D01*
X319058Y271887D01*
X320775Y267743D01*
X320775Y263257D01*
X319058Y259113D01*
X315887Y255942D01*
X311743Y254225D01*
X307146Y254225D01*
X307114Y254221D01*
X307082Y254223D01*
X306975Y254201D01*
X306867Y254185D01*
X306837Y254172D01*
X306806Y254166D01*
X306709Y254114D01*
X306610Y254069D01*
X306585Y254048D01*
X306557Y254033D01*
X306479Y253957D01*
X306395Y253886D01*
X306378Y253859D01*
X306355Y253836D01*
X306301Y253741D01*
X306241Y253650D01*
X306231Y253619D01*
X306216Y253591D01*
X306190Y253484D01*
X306159Y253380D01*
X306158Y253348D01*
X306151Y253317D01*
X306156Y253207D01*
X306155Y253098D01*
X306163Y253067D01*
X306165Y253035D01*
X306201Y252932D01*
X306230Y252826D01*
X306247Y252799D01*
X306258Y252768D01*
X306311Y252695D01*
X306378Y252586D01*
X306414Y252554D01*
X306439Y252519D01*
X310539Y248419D01*
X312355Y246603D01*
X312389Y246578D01*
X312416Y246547D01*
X312490Y246502D01*
X312581Y246434D01*
X312636Y246413D01*
X312680Y246387D01*
X315887Y245058D01*
X319058Y241887D01*
X320775Y237743D01*
X320775Y233257D01*
X319058Y229113D01*
X315887Y225942D01*
X313379Y224903D01*
X313305Y224859D01*
X313226Y224823D01*
X313184Y224788D01*
X313137Y224760D01*
X313077Y224696D01*
X313011Y224640D01*
X312981Y224594D01*
X312944Y224554D01*
X312904Y224477D01*
X312857Y224404D01*
X312841Y224351D01*
X312816Y224302D01*
X312800Y224217D01*
X312774Y224134D01*
X312774Y224079D01*
X312763Y224025D01*
X312772Y223939D01*
X312771Y223852D01*
X312785Y223799D01*
X312791Y223745D01*
X312823Y223664D01*
X312846Y223580D01*
X312875Y223533D01*
X312895Y223483D01*
X312948Y223414D01*
X312994Y223340D01*
X313035Y223304D01*
X313068Y223260D01*
X313139Y223209D01*
X313203Y223151D01*
X313253Y223127D01*
X313297Y223095D01*
X313379Y223066D01*
X313457Y223028D01*
X313507Y223020D01*
X313563Y223001D01*
X313677Y222994D01*
X313762Y222981D01*
X316166Y222981D01*
X326613Y212534D01*
X326613Y208873D01*
X326625Y208787D01*
X326628Y208701D01*
X326645Y208648D01*
X326653Y208594D01*
X326688Y208515D01*
X326715Y208432D01*
X326746Y208387D01*
X326769Y208337D01*
X326825Y208271D01*
X326874Y208199D01*
X326916Y208165D01*
X326952Y208123D01*
X327025Y208075D01*
X327092Y208020D01*
X327142Y207998D01*
X327188Y207968D01*
X327271Y207943D01*
X327351Y207909D01*
X327405Y207902D01*
X327458Y207886D01*
X327545Y207885D01*
X327631Y207874D01*
X327685Y207883D01*
G37*
G36*
X296339Y101839D02*
X296339Y101839D01*
X296457Y101851D01*
X296479Y101859D01*
X296501Y101863D01*
X296609Y101911D01*
X296719Y101955D01*
X296737Y101969D01*
X296758Y101979D01*
X296848Y102056D01*
X296942Y102129D01*
X296955Y102147D01*
X296972Y102162D01*
X297037Y102262D01*
X297107Y102358D01*
X297114Y102379D01*
X297127Y102398D01*
X297161Y102512D01*
X297201Y102623D01*
X297202Y102646D01*
X297209Y102668D01*
X297211Y102786D01*
X297218Y102905D01*
X297213Y102926D01*
X297213Y102950D01*
X297163Y103129D01*
X297145Y103204D01*
X296457Y104865D01*
X296457Y106971D01*
X297263Y108917D01*
X298753Y110407D01*
X300699Y111213D01*
X300941Y111213D01*
X301036Y111226D01*
X301132Y111231D01*
X301175Y111246D01*
X301220Y111253D01*
X301308Y111292D01*
X301399Y111324D01*
X301433Y111349D01*
X301477Y111369D01*
X301575Y111452D01*
X301648Y111505D01*
X329269Y139126D01*
X329274Y139134D01*
X329282Y139140D01*
X329359Y139247D01*
X329438Y139352D01*
X329441Y139361D01*
X329447Y139369D01*
X329491Y139492D01*
X329537Y139616D01*
X329538Y139625D01*
X329541Y139634D01*
X329549Y139766D01*
X329559Y139897D01*
X329557Y139906D01*
X329558Y139916D01*
X329540Y139991D01*
X329502Y140173D01*
X329490Y140194D01*
X329485Y140215D01*
X328225Y143257D01*
X328225Y147743D01*
X329942Y151887D01*
X333113Y155058D01*
X335210Y155927D01*
X335219Y155932D01*
X335228Y155934D01*
X335340Y156004D01*
X335453Y156071D01*
X335460Y156077D01*
X335468Y156082D01*
X335556Y156180D01*
X335646Y156276D01*
X335650Y156285D01*
X335657Y156292D01*
X335714Y156410D01*
X335774Y156528D01*
X335776Y156537D01*
X335780Y156545D01*
X335792Y156621D01*
X335826Y156805D01*
X335824Y156829D01*
X335827Y156850D01*
X335827Y157877D01*
X341207Y163256D01*
X341264Y163333D01*
X341329Y163405D01*
X341348Y163445D01*
X341376Y163482D01*
X341410Y163572D01*
X341452Y163658D01*
X341458Y163700D01*
X341475Y163746D01*
X341485Y163873D01*
X341499Y163963D01*
X341499Y174500D01*
X341490Y174563D01*
X341491Y174628D01*
X341470Y174702D01*
X341459Y174779D01*
X341433Y174838D01*
X341416Y174900D01*
X341375Y174966D01*
X341343Y175036D01*
X341301Y175085D01*
X341268Y175140D01*
X341210Y175191D01*
X341160Y175250D01*
X341106Y175286D01*
X341058Y175329D01*
X340989Y175362D01*
X340924Y175405D01*
X340862Y175424D01*
X340805Y175452D01*
X340735Y175462D01*
X340654Y175487D01*
X340569Y175488D01*
X340500Y175499D01*
X339499Y175499D01*
X339499Y175501D01*
X340500Y175501D01*
X340564Y175510D01*
X340628Y175509D01*
X340703Y175530D01*
X340779Y175541D01*
X340838Y175567D01*
X340900Y175584D01*
X340966Y175625D01*
X341036Y175657D01*
X341085Y175699D01*
X341140Y175732D01*
X341192Y175790D01*
X341250Y175840D01*
X341286Y175894D01*
X341329Y175942D01*
X341362Y176011D01*
X341405Y176076D01*
X341424Y176138D01*
X341452Y176196D01*
X341462Y176265D01*
X341487Y176346D01*
X341488Y176431D01*
X341499Y176500D01*
X341499Y187627D01*
X342378Y187488D01*
X344218Y186890D01*
X345042Y186470D01*
X345058Y186465D01*
X345072Y186456D01*
X345191Y186419D01*
X345309Y186379D01*
X345326Y186378D01*
X345342Y186373D01*
X345466Y186372D01*
X345591Y186366D01*
X345607Y186370D01*
X345624Y186370D01*
X345744Y186403D01*
X345865Y186432D01*
X345879Y186440D01*
X345896Y186445D01*
X346002Y186510D01*
X346110Y186572D01*
X346121Y186584D01*
X346136Y186593D01*
X346219Y186685D01*
X346306Y186775D01*
X346314Y186790D01*
X346325Y186802D01*
X346379Y186914D01*
X346437Y187025D01*
X346440Y187041D01*
X346448Y187056D01*
X346461Y187144D01*
X346493Y187301D01*
X346491Y187333D01*
X346495Y187361D01*
X346495Y194698D01*
X346479Y194816D01*
X346467Y194934D01*
X346459Y194955D01*
X346455Y194978D01*
X346407Y195086D01*
X346363Y195196D01*
X346349Y195214D01*
X346339Y195235D01*
X346262Y195325D01*
X346189Y195418D01*
X346171Y195431D01*
X346156Y195449D01*
X346057Y195514D01*
X345960Y195583D01*
X345939Y195591D01*
X345920Y195603D01*
X345806Y195638D01*
X345695Y195678D01*
X345672Y195679D01*
X345650Y195686D01*
X345532Y195687D01*
X345413Y195694D01*
X345392Y195689D01*
X345368Y195689D01*
X345189Y195640D01*
X345114Y195622D01*
X341743Y194225D01*
X337257Y194225D01*
X333113Y195942D01*
X329942Y199113D01*
X328535Y202509D01*
X328491Y202584D01*
X328455Y202663D01*
X328420Y202705D01*
X328392Y202752D01*
X328328Y202811D01*
X328272Y202877D01*
X328226Y202907D01*
X328186Y202945D01*
X328109Y202984D01*
X328036Y203032D01*
X327983Y203048D01*
X327934Y203073D01*
X327849Y203089D01*
X327766Y203114D01*
X327711Y203115D01*
X327657Y203125D01*
X327571Y203117D01*
X327484Y203118D01*
X327431Y203103D01*
X327377Y203098D01*
X327296Y203066D01*
X327212Y203043D01*
X327165Y203014D01*
X327115Y202993D01*
X327046Y202940D01*
X326972Y202894D01*
X326936Y202854D01*
X326892Y202820D01*
X326841Y202750D01*
X326783Y202685D01*
X326759Y202636D01*
X326727Y202591D01*
X326698Y202509D01*
X326660Y202431D01*
X326652Y202381D01*
X326633Y202326D01*
X326626Y202212D01*
X326613Y202127D01*
X326613Y198184D01*
X315247Y186819D01*
X315176Y186724D01*
X315101Y186632D01*
X315092Y186611D01*
X315078Y186593D01*
X315036Y186482D01*
X314989Y186373D01*
X314987Y186350D01*
X314978Y186329D01*
X314969Y186211D01*
X314955Y186093D01*
X314958Y186071D01*
X314957Y186048D01*
X314981Y185932D01*
X315000Y185815D01*
X315010Y185794D01*
X315014Y185772D01*
X315070Y185667D01*
X315121Y185560D01*
X315136Y185543D01*
X315147Y185523D01*
X315230Y185438D01*
X315308Y185349D01*
X315327Y185338D01*
X315344Y185321D01*
X315506Y185229D01*
X315571Y185189D01*
X315887Y185058D01*
X319058Y181887D01*
X320775Y177743D01*
X320775Y173257D01*
X319058Y169113D01*
X315887Y165942D01*
X311743Y164225D01*
X307257Y164225D01*
X303113Y165942D01*
X299942Y169113D01*
X298598Y172356D01*
X298594Y172365D01*
X298591Y172374D01*
X298522Y172486D01*
X298455Y172599D01*
X298448Y172606D01*
X298443Y172614D01*
X298345Y172702D01*
X298249Y172792D01*
X298241Y172796D01*
X298234Y172803D01*
X298115Y172860D01*
X297998Y172920D01*
X297988Y172922D01*
X297980Y172926D01*
X297904Y172938D01*
X297721Y172972D01*
X297697Y172970D01*
X297675Y172973D01*
X288873Y172973D01*
X288787Y172961D01*
X288700Y172958D01*
X288648Y172941D01*
X288593Y172933D01*
X288514Y172898D01*
X288432Y172871D01*
X288387Y172840D01*
X288337Y172817D01*
X288271Y172761D01*
X288199Y172712D01*
X288164Y172670D01*
X288122Y172634D01*
X288075Y172561D01*
X288020Y172494D01*
X287998Y172444D01*
X287968Y172398D01*
X287942Y172315D01*
X287908Y172235D01*
X287901Y172181D01*
X287885Y172128D01*
X287884Y172041D01*
X287874Y171955D01*
X287882Y171901D01*
X287882Y171846D01*
X287905Y171762D01*
X287919Y171677D01*
X287942Y171627D01*
X287957Y171574D01*
X288003Y171500D01*
X288040Y171422D01*
X288076Y171381D01*
X288105Y171334D01*
X288169Y171276D01*
X288227Y171211D01*
X288271Y171185D01*
X288314Y171145D01*
X288417Y171096D01*
X288490Y171051D01*
X290887Y170058D01*
X294058Y166887D01*
X295775Y162743D01*
X295775Y158257D01*
X294058Y154113D01*
X290887Y150942D01*
X286743Y149225D01*
X282257Y149225D01*
X278113Y150942D01*
X274942Y154113D01*
X273225Y158257D01*
X273225Y160899D01*
X273221Y160931D01*
X273223Y160963D01*
X273201Y161070D01*
X273185Y161178D01*
X273172Y161208D01*
X273166Y161239D01*
X273114Y161336D01*
X273069Y161435D01*
X273048Y161460D01*
X273033Y161488D01*
X272957Y161566D01*
X272886Y161649D01*
X272859Y161667D01*
X272836Y161690D01*
X272741Y161744D01*
X272650Y161804D01*
X272619Y161813D01*
X272591Y161829D01*
X272484Y161854D01*
X272380Y161886D01*
X272348Y161887D01*
X272317Y161894D01*
X272207Y161889D01*
X272098Y161890D01*
X272067Y161881D01*
X272035Y161880D01*
X271932Y161844D01*
X271826Y161815D01*
X271799Y161798D01*
X271768Y161787D01*
X271695Y161734D01*
X271586Y161667D01*
X271554Y161631D01*
X271519Y161606D01*
X255455Y145541D01*
X239292Y145541D01*
X239282Y145540D01*
X239273Y145541D01*
X239143Y145520D01*
X239012Y145501D01*
X239004Y145498D01*
X238994Y145496D01*
X238875Y145439D01*
X238756Y145385D01*
X238748Y145379D01*
X238740Y145375D01*
X238641Y145287D01*
X238541Y145202D01*
X238536Y145194D01*
X238529Y145188D01*
X238489Y145122D01*
X238387Y144966D01*
X238380Y144943D01*
X238368Y144924D01*
X237373Y142520D01*
X234800Y139947D01*
X233863Y139559D01*
X233788Y139515D01*
X233709Y139479D01*
X233667Y139444D01*
X233620Y139416D01*
X233561Y139352D01*
X233495Y139296D01*
X233465Y139250D01*
X233427Y139210D01*
X233388Y139133D01*
X233340Y139060D01*
X233324Y139007D01*
X233299Y138958D01*
X233283Y138873D01*
X233258Y138790D01*
X233257Y138735D01*
X233247Y138681D01*
X233255Y138595D01*
X233254Y138508D01*
X233269Y138455D01*
X233274Y138401D01*
X233306Y138320D01*
X233329Y138236D01*
X233358Y138190D01*
X233378Y138139D01*
X233432Y138070D01*
X233477Y137996D01*
X233518Y137960D01*
X233552Y137916D01*
X233622Y137865D01*
X233687Y137807D01*
X233736Y137783D01*
X233781Y137751D01*
X233862Y137722D01*
X233940Y137684D01*
X233991Y137676D01*
X234046Y137657D01*
X234160Y137650D01*
X234245Y137637D01*
X272226Y137637D01*
X272290Y137646D01*
X272354Y137645D01*
X272429Y137666D01*
X272505Y137677D01*
X272564Y137703D01*
X272626Y137720D01*
X272692Y137761D01*
X272762Y137793D01*
X272811Y137835D01*
X272866Y137868D01*
X272918Y137926D01*
X272976Y137976D01*
X273012Y138030D01*
X273055Y138078D01*
X273088Y138147D01*
X273131Y138212D01*
X273150Y138274D01*
X273178Y138331D01*
X273189Y138401D01*
X273213Y138482D01*
X273214Y138567D01*
X273225Y138636D01*
X273225Y140882D01*
X274118Y141775D01*
X294882Y141775D01*
X295775Y140882D01*
X295775Y120118D01*
X294882Y119225D01*
X274118Y119225D01*
X273225Y120118D01*
X273225Y129588D01*
X273216Y129652D01*
X273217Y129716D01*
X273196Y129791D01*
X273185Y129867D01*
X273159Y129926D01*
X273142Y129988D01*
X273101Y130054D01*
X273069Y130124D01*
X273027Y130173D01*
X272994Y130228D01*
X272936Y130280D01*
X272886Y130338D01*
X272832Y130374D01*
X272784Y130417D01*
X272715Y130450D01*
X272650Y130493D01*
X272588Y130512D01*
X272531Y130540D01*
X272461Y130551D01*
X272380Y130575D01*
X272295Y130576D01*
X272226Y130587D01*
X238115Y130587D01*
X238082Y130583D01*
X238050Y130585D01*
X237943Y130563D01*
X237835Y130547D01*
X237806Y130534D01*
X237774Y130527D01*
X237677Y130476D01*
X237578Y130431D01*
X237554Y130410D01*
X237525Y130395D01*
X237447Y130319D01*
X237364Y130248D01*
X237346Y130220D01*
X237323Y130198D01*
X237269Y130103D01*
X237210Y130012D01*
X237200Y129981D01*
X237184Y129952D01*
X237159Y129846D01*
X237127Y129742D01*
X237127Y129710D01*
X237119Y129678D01*
X237125Y129569D01*
X237124Y129460D01*
X237132Y129429D01*
X237134Y129396D01*
X237170Y129293D01*
X237199Y129188D01*
X237216Y129161D01*
X237227Y129130D01*
X237280Y129057D01*
X237316Y128998D01*
X237324Y128983D01*
X237335Y128968D01*
X237347Y128948D01*
X237353Y128943D01*
X238310Y127625D01*
X239036Y126200D01*
X239531Y124679D01*
X239591Y124299D01*
X223000Y124299D01*
X222937Y124290D01*
X222872Y124291D01*
X222798Y124270D01*
X222721Y124259D01*
X222662Y124233D01*
X222600Y124216D01*
X222534Y124175D01*
X222464Y124143D01*
X222415Y124101D01*
X222360Y124068D01*
X222309Y124010D01*
X222250Y123960D01*
X222214Y123906D01*
X222171Y123858D01*
X222138Y123789D01*
X222095Y123724D01*
X222076Y123662D01*
X222048Y123605D01*
X222038Y123535D01*
X222013Y123454D01*
X222012Y123369D01*
X222001Y123300D01*
X222001Y121300D01*
X222010Y121236D01*
X222009Y121172D01*
X222030Y121097D01*
X222041Y121021D01*
X222067Y120962D01*
X222084Y120900D01*
X222125Y120834D01*
X222157Y120764D01*
X222199Y120715D01*
X222232Y120660D01*
X222290Y120608D01*
X222340Y120550D01*
X222394Y120514D01*
X222442Y120471D01*
X222511Y120438D01*
X222576Y120395D01*
X222638Y120376D01*
X222696Y120348D01*
X222765Y120337D01*
X222846Y120313D01*
X222931Y120312D01*
X223000Y120301D01*
X239591Y120301D01*
X239531Y119921D01*
X239036Y118400D01*
X238310Y116975D01*
X237370Y115681D01*
X236239Y114550D01*
X234913Y113586D01*
X234880Y113571D01*
X234808Y113510D01*
X234732Y113456D01*
X234702Y113419D01*
X234665Y113388D01*
X234614Y113309D01*
X234555Y113236D01*
X234537Y113192D01*
X234511Y113152D01*
X234484Y113062D01*
X234448Y112976D01*
X234443Y112928D01*
X234429Y112882D01*
X234427Y112788D01*
X234417Y112695D01*
X234425Y112648D01*
X234425Y112600D01*
X234450Y112510D01*
X234466Y112417D01*
X234487Y112374D01*
X234500Y112328D01*
X234549Y112248D01*
X234591Y112164D01*
X234623Y112129D01*
X234648Y112088D01*
X234718Y112025D01*
X234781Y111956D01*
X234822Y111931D01*
X234857Y111899D01*
X234942Y111858D01*
X235022Y111810D01*
X235068Y111797D01*
X235111Y111776D01*
X235193Y111764D01*
X235294Y111736D01*
X235360Y111737D01*
X235416Y111729D01*
X271970Y111729D01*
X281583Y102115D01*
X281660Y102058D01*
X281732Y101993D01*
X281772Y101973D01*
X281809Y101946D01*
X281899Y101912D01*
X281985Y101870D01*
X282027Y101864D01*
X282073Y101847D01*
X282200Y101837D01*
X282290Y101823D01*
X296222Y101823D01*
X296339Y101839D01*
G37*
G36*
X179577Y312148D02*
X179577Y312148D01*
X179673Y312153D01*
X179716Y312168D01*
X179761Y312175D01*
X179849Y312214D01*
X179940Y312246D01*
X179974Y312271D01*
X180018Y312291D01*
X180116Y312374D01*
X180189Y312427D01*
X208780Y341019D01*
X208781Y341019D01*
X209421Y341660D01*
X209493Y341755D01*
X209568Y341847D01*
X209577Y341868D01*
X209591Y341886D01*
X209633Y341997D01*
X209679Y342106D01*
X209682Y342128D01*
X209690Y342150D01*
X209699Y342268D01*
X209714Y342386D01*
X209710Y342408D01*
X209712Y342431D01*
X209688Y342547D01*
X209669Y342664D01*
X209659Y342685D01*
X209655Y342707D01*
X209599Y342812D01*
X209548Y342919D01*
X209533Y342936D01*
X209522Y342956D01*
X209439Y343041D01*
X209361Y343129D01*
X209342Y343141D01*
X209325Y343158D01*
X209242Y343205D01*
X206627Y345820D01*
X206288Y346640D01*
X206283Y346648D01*
X206280Y346658D01*
X206210Y346771D01*
X206144Y346883D01*
X206137Y346890D01*
X206132Y346898D01*
X206034Y346986D01*
X205938Y347076D01*
X205930Y347080D01*
X205923Y347087D01*
X205805Y347144D01*
X205687Y347204D01*
X205677Y347206D01*
X205669Y347210D01*
X205593Y347222D01*
X205410Y347256D01*
X205386Y347254D01*
X205364Y347257D01*
X204073Y347257D01*
X181511Y369819D01*
X181442Y369871D01*
X181379Y369930D01*
X181330Y369955D01*
X181286Y369988D01*
X181205Y370019D01*
X181127Y370058D01*
X181073Y370068D01*
X181022Y370088D01*
X180935Y370094D01*
X180850Y370110D01*
X180795Y370105D01*
X180741Y370109D01*
X180656Y370092D01*
X180569Y370083D01*
X180518Y370063D01*
X180465Y370052D01*
X180388Y370011D01*
X180307Y369979D01*
X180264Y369945D01*
X180216Y369919D01*
X180153Y369859D01*
X180085Y369805D01*
X180053Y369761D01*
X180014Y369723D01*
X179971Y369647D01*
X179920Y369577D01*
X179902Y369525D01*
X179875Y369477D01*
X179855Y369393D01*
X179826Y369311D01*
X179822Y369256D01*
X179810Y369203D01*
X179814Y369116D01*
X179809Y369029D01*
X179821Y368980D01*
X179824Y368921D01*
X179861Y368814D01*
X179882Y368730D01*
X181245Y365439D01*
X181245Y346561D01*
X179853Y343200D01*
X177280Y340627D01*
X173919Y339235D01*
X170281Y339235D01*
X166920Y340627D01*
X164347Y343200D01*
X162955Y346561D01*
X162955Y358188D01*
X162942Y358283D01*
X162937Y358379D01*
X162922Y358422D01*
X162915Y358467D01*
X162876Y358555D01*
X162844Y358646D01*
X162819Y358680D01*
X162799Y358724D01*
X162716Y358821D01*
X162663Y358895D01*
X157551Y364007D01*
X157525Y364026D01*
X157504Y364051D01*
X157412Y364110D01*
X157325Y364176D01*
X157295Y364187D01*
X157268Y364205D01*
X157163Y364237D01*
X157061Y364276D01*
X157029Y364278D01*
X156998Y364287D01*
X156889Y364289D01*
X156780Y364297D01*
X156748Y364291D01*
X156716Y364291D01*
X156611Y364262D01*
X156504Y364240D01*
X156475Y364225D01*
X156444Y364216D01*
X156351Y364159D01*
X156255Y364107D01*
X156232Y364085D01*
X156204Y364068D01*
X156131Y363987D01*
X156053Y363911D01*
X156037Y363882D01*
X156015Y363859D01*
X155968Y363760D01*
X155914Y363665D01*
X155906Y363634D01*
X155892Y363605D01*
X155878Y363516D01*
X155849Y363391D01*
X155851Y363342D01*
X155845Y363300D01*
X155845Y346561D01*
X154453Y343200D01*
X151880Y340627D01*
X148519Y339235D01*
X145936Y339235D01*
X145904Y339231D01*
X145872Y339233D01*
X145765Y339211D01*
X145657Y339195D01*
X145627Y339182D01*
X145596Y339176D01*
X145499Y339124D01*
X145400Y339079D01*
X145375Y339058D01*
X145347Y339043D01*
X145268Y338967D01*
X145185Y338896D01*
X145168Y338869D01*
X145145Y338846D01*
X145091Y338751D01*
X145031Y338660D01*
X145021Y338629D01*
X145006Y338601D01*
X144980Y338494D01*
X144949Y338390D01*
X144948Y338358D01*
X144941Y338327D01*
X144946Y338217D01*
X144945Y338108D01*
X144953Y338077D01*
X144955Y338045D01*
X144991Y337942D01*
X145020Y337836D01*
X145037Y337809D01*
X145048Y337778D01*
X145101Y337705D01*
X145168Y337596D01*
X145204Y337564D01*
X145229Y337529D01*
X162203Y320555D01*
X162280Y320498D01*
X162351Y320433D01*
X162392Y320413D01*
X162429Y320386D01*
X162519Y320352D01*
X162605Y320310D01*
X162647Y320304D01*
X162693Y320287D01*
X162820Y320277D01*
X162910Y320263D01*
X164292Y320263D01*
X167101Y317454D01*
X167101Y313134D01*
X167110Y313070D01*
X167109Y313006D01*
X167130Y312931D01*
X167141Y312855D01*
X167167Y312796D01*
X167184Y312734D01*
X167225Y312668D01*
X167257Y312598D01*
X167299Y312549D01*
X167332Y312494D01*
X167390Y312442D01*
X167440Y312384D01*
X167494Y312348D01*
X167542Y312305D01*
X167611Y312272D01*
X167676Y312229D01*
X167738Y312210D01*
X167795Y312182D01*
X167865Y312171D01*
X167946Y312147D01*
X168031Y312146D01*
X168100Y312135D01*
X179482Y312135D01*
X179577Y312148D01*
G37*
G36*
X273578Y315184D02*
X273578Y315184D01*
X273587Y315183D01*
X273717Y315204D01*
X273848Y315223D01*
X273856Y315226D01*
X273866Y315228D01*
X273985Y315285D01*
X274104Y315339D01*
X274112Y315345D01*
X274120Y315349D01*
X274219Y315437D01*
X274319Y315522D01*
X274324Y315530D01*
X274331Y315536D01*
X274371Y315602D01*
X274473Y315758D01*
X274480Y315781D01*
X274491Y315800D01*
X274942Y316887D01*
X278113Y320058D01*
X282257Y321775D01*
X286743Y321775D01*
X290750Y320115D01*
X290864Y320086D01*
X290978Y320051D01*
X291001Y320051D01*
X291023Y320045D01*
X291141Y320049D01*
X291260Y320047D01*
X291282Y320053D01*
X291305Y320054D01*
X291417Y320091D01*
X291532Y320122D01*
X291551Y320134D01*
X291573Y320141D01*
X291671Y320208D01*
X291772Y320270D01*
X291787Y320287D01*
X291806Y320300D01*
X291881Y320392D01*
X291961Y320480D01*
X291971Y320500D01*
X291985Y320518D01*
X292032Y320627D01*
X292084Y320734D01*
X292087Y320755D01*
X292097Y320777D01*
X292117Y320941D01*
X292119Y320949D01*
X292119Y320963D01*
X292131Y321038D01*
X292131Y329962D01*
X292115Y330079D01*
X292103Y330197D01*
X292095Y330218D01*
X292091Y330241D01*
X292043Y330349D01*
X291999Y330459D01*
X291985Y330477D01*
X291975Y330498D01*
X291898Y330588D01*
X291825Y330682D01*
X291807Y330695D01*
X291792Y330712D01*
X291693Y330777D01*
X291596Y330847D01*
X291575Y330854D01*
X291556Y330867D01*
X291442Y330901D01*
X291331Y330941D01*
X291308Y330942D01*
X291286Y330949D01*
X291168Y330951D01*
X291049Y330958D01*
X291028Y330953D01*
X291004Y330953D01*
X290825Y330903D01*
X290750Y330885D01*
X286743Y329225D01*
X282257Y329225D01*
X278113Y330942D01*
X274942Y334113D01*
X274280Y335710D01*
X274275Y335719D01*
X274273Y335728D01*
X274203Y335840D01*
X274137Y335953D01*
X274130Y335960D01*
X274125Y335968D01*
X274027Y336056D01*
X273931Y336146D01*
X273922Y336150D01*
X273915Y336157D01*
X273797Y336214D01*
X273679Y336274D01*
X273670Y336276D01*
X273662Y336280D01*
X273586Y336292D01*
X273402Y336326D01*
X273378Y336324D01*
X273357Y336327D01*
X235110Y336327D01*
X235062Y336321D01*
X235015Y336323D01*
X234923Y336301D01*
X234830Y336287D01*
X234787Y336268D01*
X234740Y336257D01*
X234659Y336210D01*
X234573Y336171D01*
X234537Y336140D01*
X234496Y336116D01*
X234430Y336049D01*
X234359Y335988D01*
X234333Y335948D01*
X234300Y335914D01*
X234256Y335831D01*
X234205Y335752D01*
X234191Y335706D01*
X234169Y335664D01*
X234150Y335572D01*
X234122Y335482D01*
X234122Y335434D01*
X234112Y335388D01*
X234120Y335294D01*
X234119Y335200D01*
X234131Y335154D01*
X234135Y335107D01*
X234169Y335019D01*
X234194Y334928D01*
X234219Y334888D01*
X234236Y334843D01*
X234293Y334768D01*
X234342Y334688D01*
X234377Y334656D01*
X234406Y334618D01*
X234473Y334570D01*
X234551Y334499D01*
X234610Y334471D01*
X234656Y334438D01*
X234945Y334290D01*
X236239Y333350D01*
X237370Y332219D01*
X238310Y330925D01*
X239036Y329500D01*
X239531Y327979D01*
X239591Y327599D01*
X223000Y327599D01*
X222937Y327590D01*
X222872Y327591D01*
X222798Y327570D01*
X222721Y327559D01*
X222662Y327533D01*
X222600Y327516D01*
X222534Y327475D01*
X222464Y327443D01*
X222415Y327401D01*
X222360Y327368D01*
X222309Y327310D01*
X222250Y327260D01*
X222214Y327206D01*
X222171Y327158D01*
X222138Y327089D01*
X222095Y327024D01*
X222076Y326962D01*
X222048Y326905D01*
X222038Y326835D01*
X222013Y326754D01*
X222012Y326669D01*
X222001Y326600D01*
X222001Y324600D01*
X222010Y324536D01*
X222009Y324472D01*
X222030Y324397D01*
X222041Y324321D01*
X222067Y324262D01*
X222084Y324200D01*
X222125Y324134D01*
X222157Y324064D01*
X222199Y324015D01*
X222232Y323960D01*
X222290Y323908D01*
X222340Y323850D01*
X222394Y323814D01*
X222442Y323771D01*
X222511Y323738D01*
X222576Y323695D01*
X222638Y323676D01*
X222696Y323648D01*
X222765Y323637D01*
X222846Y323613D01*
X222931Y323612D01*
X223000Y323601D01*
X239591Y323601D01*
X239531Y323221D01*
X239036Y321700D01*
X238310Y320275D01*
X237370Y318981D01*
X236239Y317850D01*
X235056Y316990D01*
X234977Y316914D01*
X234893Y316842D01*
X234876Y316816D01*
X234854Y316794D01*
X234799Y316698D01*
X234739Y316606D01*
X234730Y316576D01*
X234714Y316549D01*
X234689Y316442D01*
X234656Y316336D01*
X234656Y316305D01*
X234649Y316275D01*
X234654Y316164D01*
X234653Y316054D01*
X234661Y316024D01*
X234662Y315993D01*
X234698Y315889D01*
X234728Y315782D01*
X234744Y315756D01*
X234754Y315726D01*
X234818Y315636D01*
X234876Y315542D01*
X234899Y315522D01*
X234917Y315496D01*
X235003Y315427D01*
X235085Y315353D01*
X235113Y315340D01*
X235138Y315320D01*
X235240Y315278D01*
X235339Y315230D01*
X235368Y315226D01*
X235399Y315213D01*
X235555Y315197D01*
X235644Y315183D01*
X273568Y315183D01*
X273578Y315184D01*
G37*
%LPC*%
G36*
X81108Y432715D02*
X81108Y432715D01*
X80215Y433608D01*
X80215Y455192D01*
X81108Y456085D01*
X102692Y456085D01*
X103585Y455192D01*
X103585Y433608D01*
X102692Y432715D01*
X81108Y432715D01*
G37*
%LPD*%
%LPC*%
G36*
X66176Y58815D02*
X66176Y58815D01*
X61881Y60594D01*
X58594Y63881D01*
X56815Y68176D01*
X56815Y72824D01*
X58594Y77119D01*
X61881Y80406D01*
X66176Y82185D01*
X70824Y82185D01*
X75119Y80406D01*
X78406Y77119D01*
X80185Y72824D01*
X80185Y68176D01*
X78406Y63881D01*
X75119Y60594D01*
X70824Y58815D01*
X66176Y58815D01*
G37*
%LPD*%
%LPC*%
G36*
X307257Y134225D02*
X307257Y134225D01*
X303113Y135942D01*
X299942Y139113D01*
X298225Y143257D01*
X298225Y147743D01*
X299942Y151887D01*
X303113Y155058D01*
X307257Y156775D01*
X311743Y156775D01*
X315887Y155058D01*
X319058Y151887D01*
X320775Y147743D01*
X320775Y143257D01*
X319058Y139113D01*
X315887Y135942D01*
X311743Y134225D01*
X307257Y134225D01*
G37*
%LPD*%
%LPC*%
G36*
X149299Y420999D02*
X149299Y420999D01*
X149299Y436591D01*
X149679Y436531D01*
X151200Y436036D01*
X152625Y435310D01*
X153919Y434370D01*
X155050Y433239D01*
X155990Y431945D01*
X156716Y430520D01*
X157211Y428999D01*
X157461Y427420D01*
X157461Y420999D01*
X149299Y420999D01*
G37*
%LPD*%
%LPC*%
G36*
X137139Y420999D02*
X137139Y420999D01*
X137139Y427420D01*
X137210Y427869D01*
X137389Y428999D01*
X137884Y430520D01*
X138610Y431945D01*
X139550Y433239D01*
X140681Y434370D01*
X141975Y435310D01*
X143400Y436036D01*
X144921Y436531D01*
X145301Y436591D01*
X145301Y420999D01*
X137139Y420999D01*
G37*
%LPD*%
%LPC*%
G36*
X223999Y391639D02*
X223999Y391639D01*
X223999Y399801D01*
X239591Y399801D01*
X239531Y399421D01*
X239036Y397900D01*
X238310Y396475D01*
X237370Y395181D01*
X236239Y394050D01*
X234945Y393110D01*
X233520Y392384D01*
X231999Y391889D01*
X230420Y391639D01*
X223999Y391639D01*
G37*
%LPD*%
%LPC*%
G36*
X213580Y391639D02*
X213580Y391639D01*
X212001Y391889D01*
X210480Y392384D01*
X209055Y393110D01*
X207761Y394050D01*
X206630Y395181D01*
X205690Y396475D01*
X204964Y397900D01*
X204469Y399421D01*
X204409Y399801D01*
X220001Y399801D01*
X220001Y391639D01*
X213580Y391639D01*
G37*
%LPD*%
%LPC*%
G36*
X327373Y177499D02*
X327373Y177499D01*
X327512Y178378D01*
X328110Y180218D01*
X328988Y181942D01*
X330125Y183507D01*
X331493Y184875D01*
X333058Y186012D01*
X334782Y186890D01*
X336622Y187488D01*
X337501Y187627D01*
X337501Y177499D01*
X327373Y177499D01*
G37*
%LPD*%
%LPC*%
G36*
X327373Y237499D02*
X327373Y237499D01*
X327512Y238378D01*
X328110Y240218D01*
X328988Y241942D01*
X330125Y243507D01*
X331493Y244875D01*
X333058Y246012D01*
X334782Y246890D01*
X336622Y247488D01*
X337501Y247627D01*
X337501Y237499D01*
X327373Y237499D01*
G37*
%LPD*%
%LPC*%
G36*
X336622Y163512D02*
X336622Y163512D01*
X334782Y164110D01*
X333058Y164988D01*
X331493Y166125D01*
X330125Y167493D01*
X328988Y169058D01*
X328110Y170782D01*
X327512Y172622D01*
X327373Y173501D01*
X337501Y173501D01*
X337501Y163373D01*
X336622Y163512D01*
G37*
%LPD*%
%LPC*%
G36*
X336622Y223512D02*
X336622Y223512D01*
X334782Y224110D01*
X333058Y224988D01*
X331493Y226125D01*
X330125Y227493D01*
X328988Y229058D01*
X328110Y230782D01*
X327512Y232622D01*
X327373Y233501D01*
X337501Y233501D01*
X337501Y223373D01*
X336622Y223512D01*
G37*
%LPD*%
D10*
X364500Y130500D03*
X364500Y160500D03*
X364500Y190500D03*
X364500Y220500D03*
X364500Y250500D03*
X364500Y280500D03*
X364500Y310500D03*
X364500Y340500D03*
X364500Y370500D03*
X339500Y145500D03*
X339500Y175500D03*
X339500Y205500D03*
X339500Y235500D03*
X339500Y265500D03*
X339500Y295500D03*
X339500Y325500D03*
X339500Y355500D03*
X309500Y145500D03*
X309500Y175500D03*
X309500Y205500D03*
X309500Y235500D03*
X309500Y265500D03*
X309500Y295500D03*
X309500Y325500D03*
X309500Y355500D03*
D11*
X284500Y130500D03*
D10*
X284500Y160500D03*
X284500Y190500D03*
X284500Y220500D03*
X284500Y250500D03*
X284500Y280500D03*
X284500Y310500D03*
X284500Y340500D03*
X284500Y370500D03*
D12*
X95900Y363620D02*
X95900Y348380D01*
X121300Y348380D02*
X121300Y363620D01*
X146700Y363620D02*
X146700Y348380D01*
X172100Y348380D02*
X172100Y363620D01*
X95400Y290620D02*
X95400Y275380D01*
X120800Y275380D02*
X120800Y290620D01*
X146200Y290620D02*
X146200Y275380D01*
X171600Y275380D02*
X171600Y290620D01*
X95900Y226620D02*
X95900Y211380D01*
X121300Y211380D02*
X121300Y226620D01*
X146700Y226620D02*
X146700Y211380D01*
X172100Y211380D02*
X172100Y226620D01*
X97400Y153120D02*
X97400Y137880D01*
X122800Y137880D02*
X122800Y153120D01*
X148200Y153120D02*
X148200Y137880D01*
X173600Y137880D02*
X173600Y153120D01*
X147300Y411380D02*
X147300Y426620D01*
X172700Y426620D02*
X172700Y411380D01*
X148300Y87620D02*
X148300Y72380D01*
X173700Y72380D02*
X173700Y87620D01*
X212800Y230380D02*
X212800Y245620D01*
X238200Y245620D02*
X238200Y230380D01*
X229620Y351000D02*
X214380Y351000D01*
X214380Y325600D02*
X229620Y325600D01*
X229620Y300200D02*
X214380Y300200D01*
X214380Y376400D02*
X229620Y376400D01*
X229620Y401800D02*
X214380Y401800D01*
D13*
X66500Y419000D03*
D14*
X91900Y419000D02*
X91900Y398680D01*
X117300Y419000D02*
X117300Y439320D01*
D15*
X91900Y444400D03*
D13*
X68500Y70500D03*
D14*
X93900Y70500D02*
X93900Y50180D01*
X119300Y70500D02*
X119300Y90820D01*
D15*
X93900Y95900D03*
D12*
X214380Y173100D02*
X229620Y173100D01*
X229620Y147700D02*
X214380Y147700D01*
X214380Y122300D02*
X229620Y122300D01*
X229620Y96900D02*
X214380Y96900D01*
D16*
X171450Y356616D02*
X169926Y356616D01*
X151638Y374904D01*
X90678Y374904D01*
X83820Y368046D01*
X83820Y207264D01*
X120396Y170688D01*
X175260Y170688D01*
X211836Y134112D01*
X281178Y134112D01*
X284226Y131064D01*
X172100Y356000D02*
X171450Y356616D01*
X284226Y131064D02*
X284500Y130500D01*
X252222Y192786D02*
X174498Y192786D01*
D17*
X174498Y192786D03*
X252222Y192786D03*
D16*
X162306Y315468D02*
X121920Y355854D01*
X207264Y276606D02*
X239268Y276606D01*
X281940Y233934D01*
X291846Y233934D01*
X306324Y219456D01*
X314706Y219456D01*
X323088Y211074D01*
X323088Y199644D01*
X313944Y190500D01*
X284500Y190500D01*
X121920Y355854D02*
X121300Y356000D01*
D17*
X162306Y315468D03*
X207264Y276606D03*
D16*
X96012Y306324D02*
X96012Y355854D01*
X96012Y306324D02*
X108966Y293370D01*
X108966Y271272D01*
X123444Y256794D01*
X248412Y256794D01*
X284226Y220980D01*
X96012Y355854D02*
X95900Y356000D01*
X284226Y220980D02*
X284500Y220500D01*
X281940Y283464D02*
X172212Y283464D01*
X281940Y283464D02*
X284226Y281178D01*
X172212Y283464D02*
X171600Y283000D01*
X284226Y281178D02*
X284500Y280500D01*
X148590Y283464D02*
X146304Y283464D01*
X148590Y283464D02*
X167640Y302514D01*
X200406Y302514D01*
X209550Y311658D01*
X283464Y311658D01*
X284226Y310896D01*
X146304Y283464D02*
X146200Y283000D01*
X284226Y310896D02*
X284500Y310500D01*
X122682Y283464D02*
X121158Y283464D01*
X122682Y283464D02*
X147828Y308610D01*
X181356Y308610D01*
X212598Y339852D01*
X284226Y339852D01*
X121158Y283464D02*
X120800Y283000D01*
X284226Y339852D02*
X284500Y340500D01*
X198120Y218694D02*
X172212Y218694D01*
X172100Y219000D01*
D17*
X198120Y218694D03*
D16*
X148590Y218694D02*
X147066Y218694D01*
X148590Y218694D02*
X167640Y199644D01*
X264414Y199644D01*
X268986Y204216D01*
X147066Y218694D02*
X146700Y219000D01*
D17*
X268986Y204216D03*
D16*
X98298Y219456D02*
X96012Y219456D01*
X98298Y219456D02*
X117348Y238506D01*
X188214Y238506D01*
X208026Y218694D01*
X263652Y218694D01*
X96012Y219456D02*
X95900Y219000D01*
D17*
X263652Y218694D03*
D16*
X176022Y144780D02*
X173736Y144780D01*
X176022Y144780D02*
X212598Y108204D01*
X270510Y108204D01*
X280416Y98298D01*
X313182Y98298D01*
X361950Y147066D01*
X370332Y147066D01*
X377952Y154686D01*
X377952Y267462D01*
X364998Y280416D01*
X173600Y145500D02*
X173736Y144780D01*
X364500Y280500D02*
X364998Y280416D01*
X150114Y144780D02*
X148590Y144780D01*
X150114Y144780D02*
X209550Y85344D01*
X338328Y85344D01*
X394716Y141732D01*
X394716Y298704D01*
X383286Y310134D01*
X364998Y310134D01*
X148200Y145500D02*
X148590Y144780D01*
X364500Y310500D02*
X364998Y310134D01*
X124968Y144780D02*
X123444Y144780D01*
X124968Y144780D02*
X170688Y99060D01*
X187452Y99060D01*
X207264Y79248D01*
X340614Y79248D01*
X400812Y139446D01*
X400812Y304038D01*
X364998Y339852D01*
X123444Y144780D02*
X122800Y145500D01*
X364998Y339852D02*
X364500Y340500D01*
X99060Y145542D02*
X97536Y145542D01*
X99060Y145542D02*
X118110Y164592D01*
X163068Y164592D01*
X163830Y163830D01*
X252984Y421386D02*
X313944Y421386D01*
X364236Y371094D01*
X97536Y145542D02*
X97400Y145500D01*
X364500Y370500D02*
X364236Y371094D01*
D17*
X163830Y163830D03*
X252984Y421386D03*
D18*
X221742Y351282D02*
X205740Y351282D01*
X176022Y381000D02*
X172974Y384048D01*
X176022Y381000D02*
X205740Y351282D01*
X172974Y384048D02*
X86106Y384048D01*
X67056Y403098D01*
X67056Y418338D01*
X221742Y351282D02*
X222000Y351000D01*
X67056Y418338D02*
X66500Y419000D01*
X339852Y156210D02*
X339852Y145542D01*
X339852Y156210D02*
X353568Y169926D01*
X353568Y181356D01*
X350520Y184404D01*
X350520Y196596D01*
X353568Y199644D01*
X353568Y211836D01*
X350520Y214884D01*
X350520Y226314D01*
X353568Y229362D01*
X353568Y241554D01*
X350520Y244602D01*
X350520Y256794D01*
X353568Y259842D01*
X353568Y271272D01*
X350520Y274320D01*
X350520Y286512D01*
X353568Y289560D01*
X353568Y301752D01*
X350520Y304800D01*
X350520Y316992D01*
X353568Y320040D01*
X353568Y331470D01*
X350520Y334518D01*
X350520Y346710D01*
X353568Y349758D01*
X353568Y361188D01*
X300990Y413766D01*
X208788Y413766D01*
X176022Y381000D01*
X339500Y145500D02*
X339852Y145542D01*
X339090Y143256D02*
X301752Y105918D01*
X339090Y143256D02*
X339500Y145500D01*
D19*
X301752Y105918D03*
D20*
X386334Y221742D02*
X386334Y295656D01*
X103632Y96012D02*
X94488Y96012D01*
X103632Y96012D02*
X113538Y105918D01*
X125730Y105918D01*
X135636Y96012D01*
X94488Y96012D02*
X93900Y95900D01*
D21*
X386334Y221742D03*
X386334Y295656D03*
X135636Y96012D03*
D22*
X144780Y44196D02*
X316230Y44196D01*
X408432Y136398D01*
X408432Y347472D01*
X325374Y430530D01*
X310896Y430530D01*
D23*
X144780Y44196D03*
X310896Y430530D03*
D22*
X172212Y418338D02*
X152400Y398526D01*
X112014Y398526D01*
X92202Y418338D01*
X172212Y418338D02*
X172700Y419000D01*
X92202Y418338D02*
X91900Y419000D01*
X172974Y79248D02*
X161544Y67818D01*
X161544Y67056D01*
X149352Y54864D01*
X109728Y54864D01*
X94488Y70104D01*
X172974Y79248D02*
X173700Y80000D01*
X94488Y70104D02*
X93900Y70500D01*
D24*
X222504Y147828D02*
X254508Y147828D01*
X281940Y175260D01*
X309372Y175260D01*
X222504Y147828D02*
X222000Y147700D01*
X309372Y175260D02*
X309500Y175500D01*
D16*
X248412Y173736D02*
X222504Y173736D01*
X248412Y173736D02*
X279654Y204978D01*
X309372Y204978D01*
X222504Y173736D02*
X222000Y173100D01*
X309372Y204978D02*
X309500Y205500D01*
X259842Y375666D02*
X222504Y375666D01*
X259842Y375666D02*
X281178Y354330D01*
X289560Y354330D01*
X297942Y345948D01*
X297942Y332994D01*
X295656Y330708D01*
X295656Y318516D01*
X297942Y316230D01*
X297942Y303276D01*
X295656Y300990D01*
X295656Y288798D01*
X297942Y286512D01*
X297942Y272796D01*
X295656Y270510D01*
X295656Y258318D01*
X309372Y244602D01*
X309372Y236220D01*
X222504Y375666D02*
X222000Y376400D01*
X309372Y236220D02*
X309500Y235500D01*
D22*
X187452Y327660D02*
X187452Y355854D01*
X222504Y121920D02*
X265938Y121920D01*
X272796Y115062D01*
X300228Y115062D01*
X324612Y139446D01*
X324612Y160782D01*
X339090Y175260D01*
X222504Y121920D02*
X222000Y122300D01*
X339090Y175260D02*
X339500Y175500D01*
X284988Y401574D02*
X222504Y401574D01*
X284988Y401574D02*
X324612Y361950D01*
X324612Y250698D01*
X339090Y236220D01*
X222504Y401574D02*
X222000Y401800D01*
X339090Y236220D02*
X339500Y235500D01*
D23*
X187452Y327660D03*
X187452Y355854D03*
M02*
