G04 EAGLE Gerber RS-274X export*
G75*
%MOMM*%
%FSLAX34Y34*%
%LPD*%
%IN*%
%IPPOS*%
%AMOC8*
5,1,8,0,0,1.08239X$1,22.5*%
G01*
%ADD10C,0.254000*%


D10*
X40000Y30000D02*
X455000Y30000D01*
X455000Y470000D01*
X40000Y470000D01*
X40000Y30000D01*
X77000Y354964D02*
X76924Y353896D01*
X76771Y352835D01*
X76543Y351788D01*
X76241Y350760D01*
X75867Y349756D01*
X75422Y348781D01*
X74908Y347841D01*
X74329Y346940D01*
X73687Y346082D01*
X72985Y345272D01*
X72228Y344515D01*
X71418Y343813D01*
X70560Y343171D01*
X69659Y342592D01*
X68719Y342078D01*
X67744Y341633D01*
X66740Y341259D01*
X65712Y340957D01*
X64665Y340729D01*
X63604Y340576D01*
X62536Y340500D01*
X61464Y340500D01*
X60396Y340576D01*
X59335Y340729D01*
X58288Y340957D01*
X57260Y341259D01*
X56256Y341633D01*
X55281Y342078D01*
X54341Y342592D01*
X53440Y343171D01*
X52582Y343813D01*
X51772Y344515D01*
X51015Y345272D01*
X50313Y346082D01*
X49671Y346940D01*
X49092Y347841D01*
X48578Y348781D01*
X48133Y349756D01*
X47759Y350760D01*
X47457Y351788D01*
X47229Y352835D01*
X47076Y353896D01*
X47000Y354964D01*
X47000Y356036D01*
X47076Y357104D01*
X47229Y358165D01*
X47457Y359212D01*
X47759Y360240D01*
X48133Y361244D01*
X48578Y362219D01*
X49092Y363159D01*
X49671Y364060D01*
X50313Y364918D01*
X51015Y365728D01*
X51772Y366485D01*
X52582Y367187D01*
X53440Y367829D01*
X54341Y368408D01*
X55281Y368922D01*
X56256Y369367D01*
X57260Y369741D01*
X58288Y370043D01*
X59335Y370271D01*
X60396Y370424D01*
X61464Y370500D01*
X62536Y370500D01*
X63604Y370424D01*
X64665Y370271D01*
X65712Y370043D01*
X66740Y369741D01*
X67744Y369367D01*
X68719Y368922D01*
X69659Y368408D01*
X70560Y367829D01*
X71418Y367187D01*
X72228Y366485D01*
X72985Y365728D01*
X73687Y364918D01*
X74329Y364060D01*
X74908Y363159D01*
X75422Y362219D01*
X75867Y361244D01*
X76241Y360240D01*
X76543Y359212D01*
X76771Y358165D01*
X76924Y357104D01*
X77000Y356036D01*
X77000Y354964D01*
X77000Y193964D02*
X76924Y192896D01*
X76771Y191835D01*
X76543Y190788D01*
X76241Y189760D01*
X75867Y188756D01*
X75422Y187781D01*
X74908Y186841D01*
X74329Y185940D01*
X73687Y185082D01*
X72985Y184272D01*
X72228Y183515D01*
X71418Y182813D01*
X70560Y182171D01*
X69659Y181592D01*
X68719Y181078D01*
X67744Y180633D01*
X66740Y180259D01*
X65712Y179957D01*
X64665Y179729D01*
X63604Y179576D01*
X62536Y179500D01*
X61464Y179500D01*
X60396Y179576D01*
X59335Y179729D01*
X58288Y179957D01*
X57260Y180259D01*
X56256Y180633D01*
X55281Y181078D01*
X54341Y181592D01*
X53440Y182171D01*
X52582Y182813D01*
X51772Y183515D01*
X51015Y184272D01*
X50313Y185082D01*
X49671Y185940D01*
X49092Y186841D01*
X48578Y187781D01*
X48133Y188756D01*
X47759Y189760D01*
X47457Y190788D01*
X47229Y191835D01*
X47076Y192896D01*
X47000Y193964D01*
X47000Y195036D01*
X47076Y196104D01*
X47229Y197165D01*
X47457Y198212D01*
X47759Y199240D01*
X48133Y200244D01*
X48578Y201219D01*
X49092Y202159D01*
X49671Y203060D01*
X50313Y203918D01*
X51015Y204728D01*
X51772Y205485D01*
X52582Y206187D01*
X53440Y206829D01*
X54341Y207408D01*
X55281Y207922D01*
X56256Y208367D01*
X57260Y208741D01*
X58288Y209043D01*
X59335Y209271D01*
X60396Y209424D01*
X61464Y209500D01*
X62536Y209500D01*
X63604Y209424D01*
X64665Y209271D01*
X65712Y209043D01*
X66740Y208741D01*
X67744Y208367D01*
X68719Y207922D01*
X69659Y207408D01*
X70560Y206829D01*
X71418Y206187D01*
X72228Y205485D01*
X72985Y204728D01*
X73687Y203918D01*
X74329Y203060D01*
X74908Y202159D01*
X75422Y201219D01*
X75867Y200244D01*
X76241Y199240D01*
X76543Y198212D01*
X76771Y197165D01*
X76924Y196104D01*
X77000Y195036D01*
X77000Y193964D01*
X430040Y74500D02*
X431118Y74429D01*
X432189Y74288D01*
X433249Y74078D01*
X434292Y73798D01*
X435315Y73451D01*
X436313Y73037D01*
X437282Y72560D01*
X438218Y72019D01*
X439116Y71419D01*
X439973Y70762D01*
X440785Y70049D01*
X441549Y69285D01*
X442262Y68473D01*
X442919Y67616D01*
X443519Y66718D01*
X444060Y65782D01*
X444537Y64813D01*
X444951Y63815D01*
X445298Y62792D01*
X445578Y61749D01*
X445788Y60689D01*
X445929Y59618D01*
X446000Y58540D01*
X446000Y57460D01*
X445929Y56382D01*
X445788Y55311D01*
X445578Y54251D01*
X445298Y53208D01*
X444951Y52185D01*
X444537Y51187D01*
X444060Y50218D01*
X443519Y49282D01*
X442919Y48384D01*
X442262Y47527D01*
X441549Y46715D01*
X440785Y45951D01*
X439973Y45239D01*
X439116Y44581D01*
X438218Y43981D01*
X437282Y43441D01*
X436313Y42963D01*
X435315Y42549D01*
X434292Y42202D01*
X433249Y41922D01*
X432189Y41712D01*
X431118Y41571D01*
X430040Y41500D01*
X428960Y41500D01*
X427882Y41571D01*
X426811Y41712D01*
X425751Y41922D01*
X424708Y42202D01*
X423685Y42549D01*
X422687Y42963D01*
X421718Y43441D01*
X420782Y43981D01*
X419884Y44581D01*
X419027Y45239D01*
X418215Y45951D01*
X417451Y46715D01*
X416739Y47527D01*
X416081Y48384D01*
X415481Y49282D01*
X414941Y50218D01*
X414463Y51187D01*
X414049Y52185D01*
X413702Y53208D01*
X413422Y54251D01*
X413212Y55311D01*
X413071Y56382D01*
X413000Y57460D01*
X413000Y58540D01*
X413071Y59618D01*
X413212Y60689D01*
X413422Y61749D01*
X413702Y62792D01*
X414049Y63815D01*
X414463Y64813D01*
X414941Y65782D01*
X415481Y66718D01*
X416081Y67616D01*
X416739Y68473D01*
X417451Y69285D01*
X418215Y70049D01*
X419027Y70762D01*
X419884Y71419D01*
X420782Y72019D01*
X421718Y72560D01*
X422687Y73037D01*
X423685Y73451D01*
X424708Y73798D01*
X425751Y74078D01*
X426811Y74288D01*
X427882Y74429D01*
X428960Y74500D01*
X430040Y74500D01*
X430040Y459500D02*
X431118Y459429D01*
X432189Y459288D01*
X433249Y459078D01*
X434292Y458798D01*
X435315Y458451D01*
X436313Y458037D01*
X437282Y457560D01*
X438218Y457019D01*
X439116Y456419D01*
X439973Y455762D01*
X440785Y455049D01*
X441549Y454285D01*
X442262Y453473D01*
X442919Y452616D01*
X443519Y451718D01*
X444060Y450782D01*
X444537Y449813D01*
X444951Y448815D01*
X445298Y447792D01*
X445578Y446749D01*
X445788Y445689D01*
X445929Y444618D01*
X446000Y443540D01*
X446000Y442460D01*
X445929Y441382D01*
X445788Y440311D01*
X445578Y439251D01*
X445298Y438208D01*
X444951Y437185D01*
X444537Y436187D01*
X444060Y435218D01*
X443519Y434282D01*
X442919Y433384D01*
X442262Y432527D01*
X441549Y431715D01*
X440785Y430951D01*
X439973Y430239D01*
X439116Y429581D01*
X438218Y428981D01*
X437282Y428441D01*
X436313Y427963D01*
X435315Y427549D01*
X434292Y427202D01*
X433249Y426922D01*
X432189Y426712D01*
X431118Y426571D01*
X430040Y426500D01*
X428960Y426500D01*
X427882Y426571D01*
X426811Y426712D01*
X425751Y426922D01*
X424708Y427202D01*
X423685Y427549D01*
X422687Y427963D01*
X421718Y428441D01*
X420782Y428981D01*
X419884Y429581D01*
X419027Y430239D01*
X418215Y430951D01*
X417451Y431715D01*
X416739Y432527D01*
X416081Y433384D01*
X415481Y434282D01*
X414941Y435218D01*
X414463Y436187D01*
X414049Y437185D01*
X413702Y438208D01*
X413422Y439251D01*
X413212Y440311D01*
X413071Y441382D01*
X413000Y442460D01*
X413000Y443540D01*
X413071Y444618D01*
X413212Y445689D01*
X413422Y446749D01*
X413702Y447792D01*
X414049Y448815D01*
X414463Y449813D01*
X414941Y450782D01*
X415481Y451718D01*
X416081Y452616D01*
X416739Y453473D01*
X417451Y454285D01*
X418215Y455049D01*
X419027Y455762D01*
X419884Y456419D01*
X420782Y457019D01*
X421718Y457560D01*
X422687Y458037D01*
X423685Y458451D01*
X424708Y458798D01*
X425751Y459078D01*
X426811Y459288D01*
X427882Y459429D01*
X428960Y459500D01*
X430040Y459500D01*
M02*
