G04 EAGLE Gerber RS-274X export*
G75*
%MOMM*%
%FSLAX34Y34*%
%LPD*%
%INSilkscreen Top*%
%IPPOS*%
%AMOC8*
5,1,8,0,0,1.08239X$1,22.5*%
G01*
%ADD10C,0.076200*%
%ADD11C,0.050800*%
%ADD12C,0.101600*%
%ADD13C,0.200000*%
%ADD14C,0.127000*%
%ADD15C,0.400000*%
%ADD16C,0.254000*%
%ADD17C,0.203200*%


D10*
X267381Y452881D02*
X273646Y462279D01*
X267381Y462279D02*
X273646Y452881D01*
X278526Y452881D02*
X281136Y452881D01*
X278526Y452881D02*
X278449Y452883D01*
X278373Y452889D01*
X278296Y452898D01*
X278220Y452911D01*
X278145Y452928D01*
X278071Y452948D01*
X277998Y452973D01*
X277927Y453000D01*
X277856Y453031D01*
X277788Y453066D01*
X277721Y453104D01*
X277656Y453145D01*
X277593Y453189D01*
X277533Y453236D01*
X277474Y453287D01*
X277419Y453340D01*
X277366Y453395D01*
X277315Y453454D01*
X277268Y453514D01*
X277224Y453577D01*
X277183Y453642D01*
X277145Y453709D01*
X277110Y453777D01*
X277079Y453848D01*
X277052Y453919D01*
X277027Y453992D01*
X277007Y454066D01*
X276990Y454141D01*
X276977Y454217D01*
X276968Y454294D01*
X276962Y454370D01*
X276960Y454447D01*
X276960Y457058D01*
X276962Y457148D01*
X276968Y457237D01*
X276977Y457327D01*
X276991Y457416D01*
X277008Y457504D01*
X277029Y457591D01*
X277054Y457678D01*
X277083Y457763D01*
X277115Y457847D01*
X277150Y457929D01*
X277190Y458010D01*
X277232Y458089D01*
X277278Y458166D01*
X277328Y458241D01*
X277380Y458314D01*
X277436Y458385D01*
X277494Y458453D01*
X277556Y458518D01*
X277620Y458581D01*
X277687Y458641D01*
X277756Y458698D01*
X277828Y458752D01*
X277902Y458803D01*
X277978Y458851D01*
X278056Y458895D01*
X278136Y458936D01*
X278218Y458974D01*
X278301Y459008D01*
X278386Y459038D01*
X278472Y459065D01*
X278558Y459088D01*
X278646Y459107D01*
X278735Y459122D01*
X278824Y459134D01*
X278913Y459142D01*
X279003Y459146D01*
X279093Y459146D01*
X279183Y459142D01*
X279272Y459134D01*
X279361Y459122D01*
X279450Y459107D01*
X279538Y459088D01*
X279624Y459065D01*
X279710Y459038D01*
X279795Y459008D01*
X279878Y458974D01*
X279960Y458936D01*
X280040Y458895D01*
X280118Y458851D01*
X280194Y458803D01*
X280268Y458752D01*
X280340Y458698D01*
X280409Y458641D01*
X280476Y458581D01*
X280540Y458518D01*
X280602Y458453D01*
X280660Y458385D01*
X280716Y458314D01*
X280768Y458241D01*
X280818Y458166D01*
X280864Y458089D01*
X280906Y458010D01*
X280946Y457929D01*
X280981Y457847D01*
X281013Y457763D01*
X281042Y457678D01*
X281067Y457591D01*
X281088Y457504D01*
X281105Y457416D01*
X281119Y457327D01*
X281128Y457237D01*
X281134Y457148D01*
X281136Y457058D01*
X281136Y456014D01*
X276960Y456014D01*
X285235Y459146D02*
X285235Y449748D01*
X285235Y459146D02*
X287845Y459146D01*
X287922Y459144D01*
X287998Y459138D01*
X288075Y459129D01*
X288151Y459116D01*
X288226Y459099D01*
X288300Y459079D01*
X288373Y459054D01*
X288444Y459027D01*
X288515Y458996D01*
X288583Y458961D01*
X288650Y458923D01*
X288715Y458882D01*
X288778Y458838D01*
X288838Y458791D01*
X288897Y458740D01*
X288952Y458687D01*
X289005Y458632D01*
X289056Y458573D01*
X289103Y458513D01*
X289147Y458450D01*
X289188Y458385D01*
X289226Y458318D01*
X289261Y458250D01*
X289292Y458179D01*
X289319Y458108D01*
X289344Y458035D01*
X289364Y457961D01*
X289381Y457886D01*
X289394Y457810D01*
X289403Y457734D01*
X289409Y457657D01*
X289411Y457580D01*
X289412Y457580D02*
X289412Y454447D01*
X289411Y454447D02*
X289409Y454370D01*
X289403Y454294D01*
X289394Y454217D01*
X289381Y454141D01*
X289364Y454066D01*
X289344Y453992D01*
X289319Y453919D01*
X289292Y453848D01*
X289261Y453777D01*
X289226Y453709D01*
X289188Y453642D01*
X289147Y453577D01*
X289103Y453514D01*
X289056Y453454D01*
X289005Y453395D01*
X288952Y453340D01*
X288897Y453287D01*
X288838Y453236D01*
X288778Y453189D01*
X288715Y453145D01*
X288650Y453104D01*
X288583Y453066D01*
X288515Y453031D01*
X288444Y453000D01*
X288373Y452973D01*
X288300Y452948D01*
X288226Y452928D01*
X288151Y452911D01*
X288075Y452898D01*
X287998Y452889D01*
X287922Y452883D01*
X287845Y452881D01*
X285235Y452881D01*
X293419Y452881D02*
X293419Y462279D01*
X293419Y459146D02*
X296029Y459146D01*
X296106Y459144D01*
X296182Y459138D01*
X296259Y459129D01*
X296335Y459116D01*
X296410Y459099D01*
X296484Y459079D01*
X296557Y459054D01*
X296628Y459027D01*
X296699Y458996D01*
X296767Y458961D01*
X296834Y458923D01*
X296899Y458882D01*
X296962Y458838D01*
X297022Y458791D01*
X297081Y458740D01*
X297136Y458687D01*
X297189Y458632D01*
X297240Y458573D01*
X297287Y458513D01*
X297331Y458450D01*
X297372Y458385D01*
X297410Y458318D01*
X297445Y458250D01*
X297476Y458179D01*
X297503Y458108D01*
X297528Y458035D01*
X297548Y457961D01*
X297565Y457886D01*
X297578Y457810D01*
X297587Y457734D01*
X297593Y457657D01*
X297595Y457580D01*
X297596Y457580D02*
X297596Y452881D01*
X303798Y452881D02*
X305887Y452881D01*
X303798Y452881D02*
X303709Y452883D01*
X303621Y452889D01*
X303533Y452898D01*
X303445Y452911D01*
X303358Y452928D01*
X303272Y452948D01*
X303187Y452973D01*
X303102Y453000D01*
X303019Y453032D01*
X302938Y453066D01*
X302858Y453105D01*
X302780Y453146D01*
X302703Y453191D01*
X302629Y453239D01*
X302556Y453290D01*
X302486Y453344D01*
X302419Y453402D01*
X302353Y453462D01*
X302291Y453524D01*
X302231Y453590D01*
X302173Y453657D01*
X302119Y453727D01*
X302068Y453800D01*
X302020Y453874D01*
X301975Y453951D01*
X301934Y454029D01*
X301895Y454109D01*
X301861Y454190D01*
X301829Y454273D01*
X301802Y454358D01*
X301777Y454443D01*
X301757Y454529D01*
X301740Y454616D01*
X301727Y454704D01*
X301718Y454792D01*
X301712Y454880D01*
X301710Y454969D01*
X301710Y460191D01*
X301712Y460282D01*
X301718Y460373D01*
X301728Y460464D01*
X301742Y460554D01*
X301759Y460643D01*
X301781Y460731D01*
X301807Y460819D01*
X301836Y460905D01*
X301869Y460990D01*
X301906Y461073D01*
X301946Y461155D01*
X301990Y461235D01*
X302037Y461313D01*
X302088Y461389D01*
X302141Y461462D01*
X302198Y461533D01*
X302259Y461602D01*
X302322Y461667D01*
X302387Y461730D01*
X302456Y461790D01*
X302527Y461848D01*
X302600Y461901D01*
X302676Y461952D01*
X302754Y461999D01*
X302834Y462043D01*
X302916Y462083D01*
X302999Y462120D01*
X303084Y462153D01*
X303170Y462182D01*
X303258Y462208D01*
X303346Y462230D01*
X303435Y462247D01*
X303525Y462261D01*
X303616Y462271D01*
X303707Y462277D01*
X303798Y462279D01*
X305887Y462279D01*
X309268Y457058D02*
X309268Y454969D01*
X309269Y457058D02*
X309271Y457148D01*
X309277Y457237D01*
X309286Y457327D01*
X309300Y457416D01*
X309317Y457504D01*
X309338Y457591D01*
X309363Y457678D01*
X309392Y457763D01*
X309424Y457847D01*
X309459Y457929D01*
X309499Y458010D01*
X309541Y458089D01*
X309587Y458166D01*
X309637Y458241D01*
X309689Y458314D01*
X309745Y458385D01*
X309803Y458453D01*
X309865Y458518D01*
X309929Y458581D01*
X309996Y458641D01*
X310065Y458698D01*
X310137Y458752D01*
X310211Y458803D01*
X310287Y458851D01*
X310365Y458895D01*
X310445Y458936D01*
X310527Y458974D01*
X310610Y459008D01*
X310695Y459038D01*
X310781Y459065D01*
X310867Y459088D01*
X310955Y459107D01*
X311044Y459122D01*
X311133Y459134D01*
X311222Y459142D01*
X311312Y459146D01*
X311402Y459146D01*
X311492Y459142D01*
X311581Y459134D01*
X311670Y459122D01*
X311759Y459107D01*
X311847Y459088D01*
X311933Y459065D01*
X312019Y459038D01*
X312104Y459008D01*
X312187Y458974D01*
X312269Y458936D01*
X312349Y458895D01*
X312427Y458851D01*
X312503Y458803D01*
X312577Y458752D01*
X312649Y458698D01*
X312718Y458641D01*
X312785Y458581D01*
X312849Y458518D01*
X312911Y458453D01*
X312969Y458385D01*
X313025Y458314D01*
X313077Y458241D01*
X313127Y458166D01*
X313173Y458089D01*
X313215Y458010D01*
X313255Y457929D01*
X313290Y457847D01*
X313322Y457763D01*
X313351Y457678D01*
X313376Y457591D01*
X313397Y457504D01*
X313414Y457416D01*
X313428Y457327D01*
X313437Y457237D01*
X313443Y457148D01*
X313445Y457058D01*
X313445Y454969D01*
X313443Y454879D01*
X313437Y454790D01*
X313428Y454700D01*
X313414Y454611D01*
X313397Y454523D01*
X313376Y454436D01*
X313351Y454349D01*
X313322Y454264D01*
X313290Y454180D01*
X313255Y454098D01*
X313215Y454017D01*
X313173Y453938D01*
X313127Y453861D01*
X313077Y453786D01*
X313025Y453713D01*
X312969Y453642D01*
X312911Y453574D01*
X312849Y453509D01*
X312785Y453446D01*
X312718Y453386D01*
X312649Y453329D01*
X312577Y453275D01*
X312503Y453224D01*
X312427Y453176D01*
X312349Y453132D01*
X312269Y453091D01*
X312187Y453053D01*
X312104Y453019D01*
X312019Y452989D01*
X311933Y452962D01*
X311847Y452939D01*
X311759Y452920D01*
X311670Y452905D01*
X311581Y452893D01*
X311492Y452885D01*
X311402Y452881D01*
X311312Y452881D01*
X311222Y452885D01*
X311133Y452893D01*
X311044Y452905D01*
X310955Y452920D01*
X310867Y452939D01*
X310781Y452962D01*
X310695Y452989D01*
X310610Y453019D01*
X310527Y453053D01*
X310445Y453091D01*
X310365Y453132D01*
X310287Y453176D01*
X310211Y453224D01*
X310137Y453275D01*
X310065Y453329D01*
X309996Y453386D01*
X309929Y453446D01*
X309865Y453509D01*
X309803Y453574D01*
X309745Y453642D01*
X309689Y453713D01*
X309637Y453786D01*
X309587Y453861D01*
X309541Y453938D01*
X309499Y454017D01*
X309459Y454098D01*
X309424Y454180D01*
X309392Y454264D01*
X309363Y454349D01*
X309338Y454436D01*
X309317Y454523D01*
X309300Y454611D01*
X309286Y454700D01*
X309277Y454790D01*
X309271Y454879D01*
X309269Y454969D01*
X317498Y452881D02*
X317498Y459146D01*
X320108Y459146D01*
X320185Y459144D01*
X320261Y459138D01*
X320338Y459129D01*
X320414Y459116D01*
X320489Y459099D01*
X320563Y459079D01*
X320636Y459054D01*
X320707Y459027D01*
X320778Y458996D01*
X320846Y458961D01*
X320913Y458923D01*
X320978Y458882D01*
X321041Y458838D01*
X321101Y458791D01*
X321160Y458740D01*
X321215Y458687D01*
X321268Y458632D01*
X321319Y458573D01*
X321366Y458513D01*
X321410Y458450D01*
X321451Y458385D01*
X321489Y458318D01*
X321524Y458250D01*
X321555Y458179D01*
X321582Y458108D01*
X321607Y458035D01*
X321627Y457961D01*
X321644Y457886D01*
X321657Y457810D01*
X321666Y457734D01*
X321672Y457657D01*
X321674Y457580D01*
X321675Y457580D02*
X321675Y452881D01*
X326032Y452881D02*
X326032Y459146D01*
X328643Y459146D01*
X328720Y459144D01*
X328796Y459138D01*
X328873Y459129D01*
X328949Y459116D01*
X329024Y459099D01*
X329098Y459079D01*
X329171Y459054D01*
X329242Y459027D01*
X329313Y458996D01*
X329381Y458961D01*
X329448Y458923D01*
X329513Y458882D01*
X329576Y458838D01*
X329636Y458791D01*
X329695Y458740D01*
X329750Y458687D01*
X329803Y458632D01*
X329854Y458573D01*
X329901Y458513D01*
X329945Y458450D01*
X329986Y458385D01*
X330024Y458318D01*
X330059Y458250D01*
X330090Y458179D01*
X330117Y458108D01*
X330142Y458035D01*
X330162Y457961D01*
X330179Y457886D01*
X330192Y457810D01*
X330201Y457734D01*
X330207Y457657D01*
X330209Y457580D01*
X330209Y452881D01*
X335828Y452881D02*
X338439Y452881D01*
X335828Y452881D02*
X335751Y452883D01*
X335675Y452889D01*
X335598Y452898D01*
X335522Y452911D01*
X335447Y452928D01*
X335373Y452948D01*
X335300Y452973D01*
X335229Y453000D01*
X335158Y453031D01*
X335090Y453066D01*
X335023Y453104D01*
X334958Y453145D01*
X334895Y453189D01*
X334835Y453236D01*
X334776Y453287D01*
X334721Y453340D01*
X334668Y453395D01*
X334617Y453454D01*
X334570Y453514D01*
X334526Y453577D01*
X334485Y453642D01*
X334447Y453709D01*
X334412Y453777D01*
X334381Y453848D01*
X334354Y453919D01*
X334329Y453992D01*
X334309Y454066D01*
X334292Y454141D01*
X334279Y454217D01*
X334270Y454294D01*
X334264Y454370D01*
X334262Y454447D01*
X334262Y457058D01*
X334264Y457148D01*
X334270Y457237D01*
X334279Y457327D01*
X334293Y457416D01*
X334310Y457504D01*
X334331Y457591D01*
X334356Y457678D01*
X334385Y457763D01*
X334417Y457847D01*
X334452Y457929D01*
X334492Y458010D01*
X334534Y458089D01*
X334580Y458166D01*
X334630Y458241D01*
X334682Y458314D01*
X334738Y458385D01*
X334796Y458453D01*
X334858Y458518D01*
X334922Y458581D01*
X334989Y458641D01*
X335058Y458698D01*
X335130Y458752D01*
X335204Y458803D01*
X335280Y458851D01*
X335358Y458895D01*
X335438Y458936D01*
X335520Y458974D01*
X335603Y459008D01*
X335688Y459038D01*
X335774Y459065D01*
X335860Y459088D01*
X335948Y459107D01*
X336037Y459122D01*
X336126Y459134D01*
X336215Y459142D01*
X336305Y459146D01*
X336395Y459146D01*
X336485Y459142D01*
X336574Y459134D01*
X336663Y459122D01*
X336752Y459107D01*
X336840Y459088D01*
X336926Y459065D01*
X337012Y459038D01*
X337097Y459008D01*
X337180Y458974D01*
X337262Y458936D01*
X337342Y458895D01*
X337420Y458851D01*
X337496Y458803D01*
X337570Y458752D01*
X337642Y458698D01*
X337711Y458641D01*
X337778Y458581D01*
X337842Y458518D01*
X337904Y458453D01*
X337962Y458385D01*
X338018Y458314D01*
X338070Y458241D01*
X338120Y458166D01*
X338166Y458089D01*
X338208Y458010D01*
X338248Y457929D01*
X338283Y457847D01*
X338315Y457763D01*
X338344Y457678D01*
X338369Y457591D01*
X338390Y457504D01*
X338407Y457416D01*
X338421Y457327D01*
X338430Y457237D01*
X338436Y457148D01*
X338438Y457058D01*
X338439Y457058D02*
X338439Y456014D01*
X334262Y456014D01*
X343763Y452881D02*
X345851Y452881D01*
X343763Y452881D02*
X343686Y452883D01*
X343610Y452889D01*
X343533Y452898D01*
X343457Y452911D01*
X343382Y452928D01*
X343308Y452948D01*
X343235Y452973D01*
X343164Y453000D01*
X343093Y453031D01*
X343025Y453066D01*
X342958Y453104D01*
X342893Y453145D01*
X342830Y453189D01*
X342770Y453236D01*
X342711Y453287D01*
X342656Y453340D01*
X342603Y453395D01*
X342552Y453454D01*
X342505Y453514D01*
X342461Y453577D01*
X342420Y453642D01*
X342382Y453709D01*
X342347Y453777D01*
X342316Y453848D01*
X342289Y453919D01*
X342264Y453992D01*
X342244Y454066D01*
X342227Y454141D01*
X342214Y454217D01*
X342205Y454294D01*
X342199Y454370D01*
X342197Y454447D01*
X342197Y457580D01*
X342199Y457657D01*
X342205Y457733D01*
X342214Y457810D01*
X342227Y457886D01*
X342244Y457961D01*
X342264Y458035D01*
X342289Y458108D01*
X342316Y458179D01*
X342347Y458250D01*
X342382Y458318D01*
X342420Y458385D01*
X342461Y458450D01*
X342505Y458513D01*
X342552Y458573D01*
X342603Y458632D01*
X342656Y458687D01*
X342711Y458740D01*
X342770Y458791D01*
X342830Y458838D01*
X342893Y458882D01*
X342958Y458923D01*
X343025Y458961D01*
X343093Y458996D01*
X343164Y459027D01*
X343235Y459054D01*
X343308Y459079D01*
X343382Y459099D01*
X343457Y459116D01*
X343533Y459129D01*
X343610Y459138D01*
X343686Y459144D01*
X343763Y459146D01*
X345851Y459146D01*
X348428Y459146D02*
X351561Y459146D01*
X349472Y462279D02*
X349472Y454447D01*
X349473Y454447D02*
X349475Y454370D01*
X349481Y454294D01*
X349490Y454217D01*
X349503Y454141D01*
X349520Y454066D01*
X349540Y453992D01*
X349565Y453919D01*
X349592Y453848D01*
X349623Y453777D01*
X349658Y453709D01*
X349696Y453642D01*
X349737Y453577D01*
X349781Y453514D01*
X349828Y453454D01*
X349879Y453395D01*
X349932Y453340D01*
X349987Y453287D01*
X350046Y453236D01*
X350106Y453189D01*
X350169Y453145D01*
X350234Y453104D01*
X350301Y453066D01*
X350369Y453031D01*
X350440Y453000D01*
X350511Y452973D01*
X350584Y452948D01*
X350658Y452928D01*
X350733Y452911D01*
X350809Y452898D01*
X350886Y452889D01*
X350962Y452883D01*
X351039Y452881D01*
X351561Y452881D01*
X361648Y452881D02*
X359560Y459146D01*
X363737Y459146D02*
X361648Y452881D01*
X367267Y457580D02*
X367269Y457765D01*
X367276Y457950D01*
X367287Y458134D01*
X367302Y458318D01*
X367322Y458502D01*
X367346Y458686D01*
X367375Y458868D01*
X367408Y459050D01*
X367445Y459231D01*
X367487Y459411D01*
X367533Y459591D01*
X367583Y459769D01*
X367637Y459945D01*
X367696Y460121D01*
X367758Y460295D01*
X367825Y460467D01*
X367896Y460638D01*
X367971Y460807D01*
X368050Y460974D01*
X368080Y461054D01*
X368113Y461133D01*
X368150Y461210D01*
X368190Y461286D01*
X368233Y461360D01*
X368279Y461432D01*
X368329Y461501D01*
X368381Y461569D01*
X368437Y461634D01*
X368495Y461697D01*
X368557Y461756D01*
X368620Y461814D01*
X368687Y461868D01*
X368755Y461919D01*
X368826Y461967D01*
X368899Y462012D01*
X368973Y462054D01*
X369050Y462092D01*
X369128Y462127D01*
X369207Y462159D01*
X369288Y462187D01*
X369370Y462211D01*
X369454Y462232D01*
X369537Y462249D01*
X369622Y462262D01*
X369707Y462271D01*
X369792Y462277D01*
X369878Y462279D01*
X369964Y462277D01*
X370049Y462271D01*
X370134Y462262D01*
X370219Y462249D01*
X370302Y462232D01*
X370386Y462211D01*
X370468Y462187D01*
X370549Y462159D01*
X370628Y462127D01*
X370706Y462092D01*
X370783Y462054D01*
X370857Y462012D01*
X370930Y461967D01*
X371001Y461919D01*
X371069Y461868D01*
X371136Y461814D01*
X371199Y461756D01*
X371261Y461697D01*
X371319Y461634D01*
X371375Y461569D01*
X371427Y461501D01*
X371477Y461432D01*
X371523Y461360D01*
X371566Y461286D01*
X371606Y461210D01*
X371643Y461133D01*
X371676Y461054D01*
X371706Y460974D01*
X371785Y460807D01*
X371860Y460638D01*
X371931Y460467D01*
X371998Y460295D01*
X372060Y460121D01*
X372119Y459945D01*
X372173Y459769D01*
X372223Y459591D01*
X372269Y459411D01*
X372311Y459231D01*
X372348Y459050D01*
X372381Y458868D01*
X372410Y458686D01*
X372434Y458502D01*
X372454Y458318D01*
X372469Y458134D01*
X372480Y457950D01*
X372487Y457765D01*
X372489Y457580D01*
X367267Y457580D02*
X367269Y457395D01*
X367276Y457210D01*
X367287Y457026D01*
X367302Y456842D01*
X367322Y456658D01*
X367346Y456474D01*
X367375Y456292D01*
X367408Y456110D01*
X367445Y455929D01*
X367487Y455749D01*
X367533Y455569D01*
X367583Y455391D01*
X367637Y455215D01*
X367696Y455039D01*
X367758Y454865D01*
X367825Y454693D01*
X367896Y454522D01*
X367971Y454353D01*
X368050Y454186D01*
X368080Y454106D01*
X368113Y454027D01*
X368150Y453950D01*
X368190Y453874D01*
X368233Y453800D01*
X368279Y453728D01*
X368329Y453659D01*
X368382Y453591D01*
X368437Y453526D01*
X368496Y453463D01*
X368557Y453404D01*
X368620Y453346D01*
X368687Y453292D01*
X368755Y453241D01*
X368826Y453193D01*
X368899Y453148D01*
X368973Y453106D01*
X369050Y453068D01*
X369128Y453033D01*
X369207Y453001D01*
X369288Y452973D01*
X369370Y452949D01*
X369454Y452928D01*
X369537Y452911D01*
X369622Y452898D01*
X369707Y452889D01*
X369792Y452883D01*
X369878Y452881D01*
X371706Y454186D02*
X371785Y454353D01*
X371860Y454522D01*
X371931Y454693D01*
X371998Y454865D01*
X372060Y455039D01*
X372119Y455215D01*
X372173Y455391D01*
X372223Y455569D01*
X372269Y455749D01*
X372311Y455929D01*
X372348Y456110D01*
X372381Y456292D01*
X372410Y456474D01*
X372434Y456658D01*
X372454Y456842D01*
X372469Y457026D01*
X372480Y457210D01*
X372487Y457395D01*
X372489Y457580D01*
X371706Y454186D02*
X371676Y454106D01*
X371643Y454027D01*
X371606Y453950D01*
X371566Y453874D01*
X371523Y453800D01*
X371477Y453728D01*
X371427Y453659D01*
X371375Y453591D01*
X371319Y453526D01*
X371261Y453463D01*
X371199Y453404D01*
X371136Y453346D01*
X371069Y453292D01*
X371001Y453241D01*
X370930Y453193D01*
X370857Y453148D01*
X370783Y453106D01*
X370706Y453068D01*
X370628Y453033D01*
X370549Y453001D01*
X370468Y452973D01*
X370386Y452949D01*
X370302Y452928D01*
X370219Y452911D01*
X370134Y452898D01*
X370049Y452889D01*
X369964Y452883D01*
X369878Y452881D01*
X367789Y454969D02*
X371966Y460191D01*
X376018Y453403D02*
X376018Y452881D01*
X376018Y453403D02*
X376540Y453403D01*
X376540Y452881D01*
X376018Y452881D01*
X380069Y460191D02*
X382679Y462279D01*
X382679Y452881D01*
X380069Y452881D02*
X385290Y452881D01*
D11*
X89104Y314254D02*
X87862Y315806D01*
X93450Y315806D01*
X93450Y314254D02*
X93450Y317358D01*
X90346Y320006D02*
X90346Y321558D01*
X90348Y321635D01*
X90354Y321713D01*
X90363Y321789D01*
X90377Y321866D01*
X90394Y321941D01*
X90415Y322015D01*
X90440Y322089D01*
X90468Y322161D01*
X90500Y322231D01*
X90535Y322300D01*
X90574Y322367D01*
X90616Y322432D01*
X90661Y322495D01*
X90709Y322556D01*
X90760Y322614D01*
X90814Y322669D01*
X90871Y322722D01*
X90930Y322771D01*
X90992Y322818D01*
X91056Y322862D01*
X91122Y322902D01*
X91190Y322939D01*
X91260Y322973D01*
X91331Y323003D01*
X91404Y323029D01*
X91478Y323052D01*
X91553Y323071D01*
X91628Y323086D01*
X91705Y323098D01*
X91782Y323106D01*
X91859Y323110D01*
X91937Y323110D01*
X92014Y323106D01*
X92091Y323098D01*
X92168Y323086D01*
X92243Y323071D01*
X92318Y323052D01*
X92392Y323029D01*
X92465Y323003D01*
X92536Y322973D01*
X92606Y322939D01*
X92674Y322902D01*
X92740Y322862D01*
X92804Y322818D01*
X92866Y322771D01*
X92925Y322722D01*
X92982Y322669D01*
X93036Y322614D01*
X93087Y322556D01*
X93135Y322495D01*
X93180Y322432D01*
X93222Y322367D01*
X93261Y322300D01*
X93296Y322231D01*
X93328Y322161D01*
X93356Y322089D01*
X93381Y322015D01*
X93402Y321941D01*
X93419Y321866D01*
X93433Y321789D01*
X93442Y321713D01*
X93448Y321635D01*
X93450Y321558D01*
X93450Y320006D01*
X87862Y320006D01*
X87862Y321558D01*
X87864Y321628D01*
X87870Y321697D01*
X87880Y321766D01*
X87893Y321834D01*
X87911Y321902D01*
X87932Y321968D01*
X87957Y322033D01*
X87985Y322097D01*
X88017Y322159D01*
X88052Y322219D01*
X88091Y322277D01*
X88133Y322332D01*
X88178Y322386D01*
X88226Y322436D01*
X88276Y322484D01*
X88330Y322529D01*
X88385Y322571D01*
X88443Y322610D01*
X88503Y322645D01*
X88565Y322677D01*
X88629Y322705D01*
X88694Y322730D01*
X88760Y322751D01*
X88828Y322769D01*
X88896Y322782D01*
X88965Y322792D01*
X89034Y322798D01*
X89104Y322800D01*
X89174Y322798D01*
X89243Y322792D01*
X89312Y322782D01*
X89380Y322769D01*
X89448Y322751D01*
X89514Y322730D01*
X89579Y322705D01*
X89643Y322677D01*
X89705Y322645D01*
X89765Y322610D01*
X89823Y322571D01*
X89878Y322529D01*
X89932Y322484D01*
X89982Y322436D01*
X90030Y322386D01*
X90075Y322332D01*
X90117Y322277D01*
X90156Y322219D01*
X90191Y322159D01*
X90223Y322097D01*
X90251Y322033D01*
X90276Y321968D01*
X90297Y321902D01*
X90315Y321834D01*
X90328Y321766D01*
X90338Y321697D01*
X90344Y321628D01*
X90346Y321558D01*
X115294Y315806D02*
X116536Y314254D01*
X115294Y315806D02*
X120882Y315806D01*
X120882Y314254D02*
X120882Y317358D01*
X120882Y319430D02*
X115294Y321293D01*
X120882Y323155D01*
X119485Y322690D02*
X119485Y319896D01*
X142726Y315961D02*
X142728Y316034D01*
X142734Y316107D01*
X142743Y316180D01*
X142757Y316251D01*
X142774Y316323D01*
X142794Y316393D01*
X142819Y316462D01*
X142847Y316529D01*
X142878Y316595D01*
X142913Y316660D01*
X142951Y316722D01*
X142993Y316782D01*
X143037Y316840D01*
X143085Y316896D01*
X143135Y316949D01*
X143188Y316999D01*
X143244Y317047D01*
X143302Y317091D01*
X143362Y317133D01*
X143425Y317171D01*
X143489Y317206D01*
X143555Y317237D01*
X143622Y317265D01*
X143691Y317290D01*
X143761Y317310D01*
X143833Y317327D01*
X143904Y317341D01*
X143977Y317350D01*
X144050Y317356D01*
X144123Y317358D01*
X142726Y315961D02*
X142728Y315877D01*
X142734Y315794D01*
X142743Y315711D01*
X142757Y315628D01*
X142774Y315547D01*
X142796Y315466D01*
X142821Y315386D01*
X142849Y315308D01*
X142881Y315230D01*
X142917Y315155D01*
X142956Y315081D01*
X142999Y315009D01*
X143045Y314939D01*
X143094Y314872D01*
X143147Y314806D01*
X143202Y314744D01*
X143260Y314684D01*
X143321Y314626D01*
X143384Y314572D01*
X143450Y314520D01*
X143518Y314472D01*
X143589Y314427D01*
X143661Y314385D01*
X143736Y314347D01*
X143812Y314312D01*
X143889Y314281D01*
X143968Y314253D01*
X145209Y316892D02*
X145156Y316946D01*
X145099Y316997D01*
X145040Y317045D01*
X144979Y317090D01*
X144916Y317131D01*
X144850Y317170D01*
X144783Y317205D01*
X144714Y317237D01*
X144643Y317265D01*
X144572Y317289D01*
X144499Y317310D01*
X144425Y317327D01*
X144350Y317341D01*
X144275Y317350D01*
X144199Y317356D01*
X144123Y317358D01*
X145210Y316893D02*
X148314Y314254D01*
X148314Y317358D01*
X148314Y319430D02*
X142726Y321293D01*
X148314Y323155D01*
X146917Y322690D02*
X146917Y319896D01*
X170158Y315961D02*
X170160Y316034D01*
X170166Y316107D01*
X170175Y316180D01*
X170189Y316251D01*
X170206Y316323D01*
X170226Y316393D01*
X170251Y316462D01*
X170279Y316529D01*
X170310Y316595D01*
X170345Y316660D01*
X170383Y316722D01*
X170425Y316782D01*
X170469Y316840D01*
X170517Y316896D01*
X170567Y316949D01*
X170620Y316999D01*
X170676Y317047D01*
X170734Y317091D01*
X170794Y317133D01*
X170857Y317171D01*
X170921Y317206D01*
X170987Y317237D01*
X171054Y317265D01*
X171123Y317290D01*
X171193Y317310D01*
X171265Y317327D01*
X171336Y317341D01*
X171409Y317350D01*
X171482Y317356D01*
X171555Y317358D01*
X170158Y315961D02*
X170160Y315877D01*
X170166Y315794D01*
X170175Y315711D01*
X170189Y315628D01*
X170206Y315547D01*
X170228Y315466D01*
X170253Y315386D01*
X170281Y315308D01*
X170313Y315230D01*
X170349Y315155D01*
X170388Y315081D01*
X170431Y315009D01*
X170477Y314939D01*
X170526Y314872D01*
X170579Y314806D01*
X170634Y314744D01*
X170692Y314684D01*
X170753Y314626D01*
X170816Y314572D01*
X170882Y314520D01*
X170950Y314472D01*
X171021Y314427D01*
X171093Y314385D01*
X171168Y314347D01*
X171244Y314312D01*
X171321Y314281D01*
X171400Y314253D01*
X172641Y316892D02*
X172588Y316946D01*
X172531Y316997D01*
X172472Y317045D01*
X172411Y317090D01*
X172348Y317131D01*
X172282Y317170D01*
X172215Y317205D01*
X172146Y317237D01*
X172075Y317265D01*
X172004Y317289D01*
X171931Y317310D01*
X171857Y317327D01*
X171782Y317341D01*
X171707Y317350D01*
X171631Y317356D01*
X171555Y317358D01*
X172642Y316893D02*
X175746Y314254D01*
X175746Y317358D01*
X172642Y320006D02*
X172642Y321558D01*
X172644Y321635D01*
X172650Y321713D01*
X172659Y321789D01*
X172673Y321866D01*
X172690Y321941D01*
X172711Y322015D01*
X172736Y322089D01*
X172764Y322161D01*
X172796Y322231D01*
X172831Y322300D01*
X172870Y322367D01*
X172912Y322432D01*
X172957Y322495D01*
X173005Y322556D01*
X173056Y322614D01*
X173110Y322669D01*
X173167Y322722D01*
X173226Y322771D01*
X173288Y322818D01*
X173352Y322862D01*
X173418Y322902D01*
X173486Y322939D01*
X173556Y322973D01*
X173627Y323003D01*
X173700Y323029D01*
X173774Y323052D01*
X173849Y323071D01*
X173924Y323086D01*
X174001Y323098D01*
X174078Y323106D01*
X174155Y323110D01*
X174233Y323110D01*
X174310Y323106D01*
X174387Y323098D01*
X174464Y323086D01*
X174539Y323071D01*
X174614Y323052D01*
X174688Y323029D01*
X174761Y323003D01*
X174832Y322973D01*
X174902Y322939D01*
X174970Y322902D01*
X175036Y322862D01*
X175100Y322818D01*
X175162Y322771D01*
X175221Y322722D01*
X175278Y322669D01*
X175332Y322614D01*
X175383Y322556D01*
X175431Y322495D01*
X175476Y322432D01*
X175518Y322367D01*
X175557Y322300D01*
X175592Y322231D01*
X175624Y322161D01*
X175652Y322089D01*
X175677Y322015D01*
X175698Y321941D01*
X175715Y321866D01*
X175729Y321789D01*
X175738Y321713D01*
X175744Y321635D01*
X175746Y321558D01*
X175746Y320006D01*
X170158Y320006D01*
X170158Y321558D01*
X170160Y321628D01*
X170166Y321697D01*
X170176Y321766D01*
X170189Y321834D01*
X170207Y321902D01*
X170228Y321968D01*
X170253Y322033D01*
X170281Y322097D01*
X170313Y322159D01*
X170348Y322219D01*
X170387Y322277D01*
X170429Y322332D01*
X170474Y322386D01*
X170522Y322436D01*
X170572Y322484D01*
X170626Y322529D01*
X170681Y322571D01*
X170739Y322610D01*
X170799Y322645D01*
X170861Y322677D01*
X170925Y322705D01*
X170990Y322730D01*
X171056Y322751D01*
X171124Y322769D01*
X171192Y322782D01*
X171261Y322792D01*
X171330Y322798D01*
X171400Y322800D01*
X171470Y322798D01*
X171539Y322792D01*
X171608Y322782D01*
X171676Y322769D01*
X171744Y322751D01*
X171810Y322730D01*
X171875Y322705D01*
X171939Y322677D01*
X172001Y322645D01*
X172061Y322610D01*
X172119Y322571D01*
X172174Y322529D01*
X172228Y322484D01*
X172278Y322436D01*
X172326Y322386D01*
X172371Y322332D01*
X172413Y322277D01*
X172452Y322219D01*
X172487Y322159D01*
X172519Y322097D01*
X172547Y322033D01*
X172572Y321968D01*
X172593Y321902D01*
X172611Y321834D01*
X172624Y321766D01*
X172634Y321697D01*
X172640Y321628D01*
X172642Y321558D01*
D12*
X419308Y184254D02*
X430992Y184254D01*
X419308Y181008D02*
X419308Y187499D01*
X430992Y192080D02*
X430992Y197272D01*
X430992Y192080D02*
X419308Y192080D01*
X419308Y197272D01*
X424501Y195974D02*
X424501Y192080D01*
X432290Y201088D02*
X432290Y206281D01*
X424501Y210726D02*
X424501Y214621D01*
X424503Y214720D01*
X424509Y214820D01*
X424518Y214919D01*
X424531Y215017D01*
X424548Y215115D01*
X424569Y215213D01*
X424594Y215309D01*
X424622Y215404D01*
X424654Y215498D01*
X424689Y215591D01*
X424728Y215683D01*
X424771Y215773D01*
X424816Y215861D01*
X424866Y215948D01*
X424918Y216032D01*
X424974Y216115D01*
X425032Y216195D01*
X425094Y216273D01*
X425159Y216348D01*
X425227Y216421D01*
X425297Y216491D01*
X425370Y216559D01*
X425445Y216624D01*
X425523Y216686D01*
X425603Y216744D01*
X425686Y216800D01*
X425770Y216852D01*
X425857Y216902D01*
X425945Y216947D01*
X426035Y216990D01*
X426127Y217029D01*
X426220Y217064D01*
X426314Y217096D01*
X426409Y217124D01*
X426505Y217149D01*
X426603Y217170D01*
X426701Y217187D01*
X426799Y217200D01*
X426898Y217209D01*
X426998Y217215D01*
X427097Y217217D01*
X427746Y217217D01*
X427746Y217218D02*
X427859Y217216D01*
X427972Y217210D01*
X428085Y217200D01*
X428198Y217186D01*
X428310Y217169D01*
X428421Y217147D01*
X428531Y217122D01*
X428641Y217092D01*
X428749Y217059D01*
X428856Y217022D01*
X428962Y216982D01*
X429066Y216937D01*
X429169Y216889D01*
X429270Y216838D01*
X429369Y216783D01*
X429466Y216725D01*
X429561Y216663D01*
X429654Y216598D01*
X429744Y216530D01*
X429832Y216459D01*
X429918Y216384D01*
X430001Y216307D01*
X430081Y216227D01*
X430158Y216144D01*
X430233Y216058D01*
X430304Y215970D01*
X430372Y215880D01*
X430437Y215787D01*
X430499Y215692D01*
X430557Y215595D01*
X430612Y215496D01*
X430663Y215395D01*
X430711Y215292D01*
X430756Y215188D01*
X430796Y215082D01*
X430833Y214975D01*
X430866Y214867D01*
X430896Y214757D01*
X430921Y214647D01*
X430943Y214536D01*
X430960Y214424D01*
X430974Y214311D01*
X430984Y214198D01*
X430990Y214085D01*
X430992Y213972D01*
X430990Y213859D01*
X430984Y213746D01*
X430974Y213633D01*
X430960Y213520D01*
X430943Y213408D01*
X430921Y213297D01*
X430896Y213187D01*
X430866Y213077D01*
X430833Y212969D01*
X430796Y212862D01*
X430756Y212756D01*
X430711Y212652D01*
X430663Y212549D01*
X430612Y212448D01*
X430557Y212349D01*
X430499Y212252D01*
X430437Y212157D01*
X430372Y212064D01*
X430304Y211974D01*
X430233Y211886D01*
X430158Y211800D01*
X430081Y211717D01*
X430001Y211637D01*
X429918Y211560D01*
X429832Y211485D01*
X429744Y211414D01*
X429654Y211346D01*
X429561Y211281D01*
X429466Y211219D01*
X429369Y211161D01*
X429270Y211106D01*
X429169Y211055D01*
X429066Y211007D01*
X428962Y210962D01*
X428856Y210922D01*
X428749Y210885D01*
X428641Y210852D01*
X428531Y210822D01*
X428421Y210797D01*
X428310Y210775D01*
X428198Y210758D01*
X428085Y210744D01*
X427972Y210734D01*
X427859Y210728D01*
X427746Y210726D01*
X424501Y210726D01*
X424358Y210728D01*
X424215Y210734D01*
X424072Y210744D01*
X423930Y210758D01*
X423788Y210775D01*
X423646Y210797D01*
X423505Y210822D01*
X423365Y210852D01*
X423226Y210885D01*
X423088Y210922D01*
X422951Y210963D01*
X422815Y211007D01*
X422680Y211056D01*
X422547Y211108D01*
X422415Y211163D01*
X422285Y211223D01*
X422156Y211286D01*
X422029Y211352D01*
X421905Y211422D01*
X421782Y211495D01*
X421661Y211572D01*
X421542Y211651D01*
X421426Y211735D01*
X421311Y211821D01*
X421200Y211910D01*
X421091Y212003D01*
X420984Y212098D01*
X420880Y212197D01*
X420779Y212298D01*
X420680Y212402D01*
X420585Y212508D01*
X420492Y212618D01*
X420403Y212729D01*
X420317Y212843D01*
X420234Y212960D01*
X420154Y213079D01*
X420077Y213200D01*
X420004Y213322D01*
X419934Y213447D01*
X419868Y213574D01*
X419805Y213703D01*
X419745Y213833D01*
X419690Y213965D01*
X419638Y214098D01*
X419589Y214233D01*
X419545Y214369D01*
X419504Y214506D01*
X419467Y214644D01*
X419434Y214783D01*
X419404Y214923D01*
X419379Y215064D01*
X419357Y215206D01*
X419340Y215348D01*
X419326Y215490D01*
X419316Y215633D01*
X419310Y215776D01*
X419308Y215919D01*
X419308Y224752D02*
X428396Y222156D01*
X428396Y228647D01*
X425799Y226700D02*
X430992Y226700D01*
X430992Y233586D02*
X430992Y236831D01*
X430990Y236944D01*
X430984Y237057D01*
X430974Y237170D01*
X430960Y237283D01*
X430943Y237395D01*
X430921Y237506D01*
X430896Y237616D01*
X430866Y237726D01*
X430833Y237834D01*
X430796Y237941D01*
X430756Y238047D01*
X430711Y238151D01*
X430663Y238254D01*
X430612Y238355D01*
X430557Y238454D01*
X430499Y238551D01*
X430437Y238646D01*
X430372Y238739D01*
X430304Y238829D01*
X430233Y238917D01*
X430158Y239003D01*
X430081Y239086D01*
X430001Y239166D01*
X429918Y239243D01*
X429832Y239318D01*
X429744Y239389D01*
X429654Y239457D01*
X429561Y239522D01*
X429466Y239584D01*
X429369Y239642D01*
X429270Y239697D01*
X429169Y239748D01*
X429066Y239796D01*
X428962Y239841D01*
X428856Y239881D01*
X428749Y239918D01*
X428641Y239951D01*
X428531Y239981D01*
X428421Y240006D01*
X428310Y240028D01*
X428198Y240045D01*
X428085Y240059D01*
X427972Y240069D01*
X427859Y240075D01*
X427746Y240077D01*
X427633Y240075D01*
X427520Y240069D01*
X427407Y240059D01*
X427294Y240045D01*
X427182Y240028D01*
X427071Y240006D01*
X426961Y239981D01*
X426851Y239951D01*
X426743Y239918D01*
X426636Y239881D01*
X426530Y239841D01*
X426426Y239796D01*
X426323Y239748D01*
X426222Y239697D01*
X426123Y239642D01*
X426026Y239584D01*
X425931Y239522D01*
X425838Y239457D01*
X425748Y239389D01*
X425660Y239318D01*
X425574Y239243D01*
X425491Y239166D01*
X425411Y239086D01*
X425334Y239003D01*
X425259Y238917D01*
X425188Y238829D01*
X425120Y238739D01*
X425055Y238646D01*
X424993Y238551D01*
X424935Y238454D01*
X424880Y238355D01*
X424829Y238254D01*
X424781Y238151D01*
X424736Y238047D01*
X424696Y237941D01*
X424659Y237834D01*
X424626Y237726D01*
X424596Y237616D01*
X424571Y237506D01*
X424549Y237395D01*
X424532Y237283D01*
X424518Y237170D01*
X424508Y237057D01*
X424502Y236944D01*
X424500Y236831D01*
X419308Y237481D02*
X419308Y233586D01*
X419308Y237481D02*
X419310Y237582D01*
X419316Y237682D01*
X419326Y237782D01*
X419339Y237882D01*
X419357Y237981D01*
X419378Y238080D01*
X419403Y238177D01*
X419432Y238274D01*
X419465Y238369D01*
X419501Y238463D01*
X419541Y238555D01*
X419584Y238646D01*
X419631Y238735D01*
X419681Y238822D01*
X419735Y238908D01*
X419792Y238991D01*
X419852Y239071D01*
X419915Y239150D01*
X419982Y239226D01*
X420051Y239299D01*
X420123Y239369D01*
X420197Y239437D01*
X420274Y239502D01*
X420354Y239563D01*
X420436Y239622D01*
X420520Y239677D01*
X420606Y239729D01*
X420694Y239778D01*
X420784Y239823D01*
X420876Y239865D01*
X420969Y239903D01*
X421064Y239937D01*
X421159Y239968D01*
X421256Y239995D01*
X421354Y240018D01*
X421453Y240038D01*
X421553Y240053D01*
X421653Y240065D01*
X421753Y240073D01*
X421854Y240077D01*
X421954Y240077D01*
X422055Y240073D01*
X422155Y240065D01*
X422255Y240053D01*
X422355Y240038D01*
X422454Y240018D01*
X422552Y239995D01*
X422649Y239968D01*
X422744Y239937D01*
X422839Y239903D01*
X422932Y239865D01*
X423024Y239823D01*
X423114Y239778D01*
X423202Y239729D01*
X423288Y239677D01*
X423372Y239622D01*
X423454Y239563D01*
X423534Y239502D01*
X423611Y239437D01*
X423685Y239369D01*
X423757Y239299D01*
X423826Y239226D01*
X423893Y239150D01*
X423956Y239071D01*
X424016Y238991D01*
X424073Y238908D01*
X424127Y238822D01*
X424177Y238735D01*
X424224Y238646D01*
X424267Y238555D01*
X424307Y238463D01*
X424343Y238369D01*
X424376Y238274D01*
X424405Y238177D01*
X424430Y238080D01*
X424451Y237981D01*
X424469Y237882D01*
X424482Y237782D01*
X424492Y237682D01*
X424498Y237582D01*
X424500Y237481D01*
X424501Y237481D02*
X424501Y234884D01*
X420606Y245016D02*
X419308Y245016D01*
X419308Y251507D01*
X430992Y248261D01*
X419308Y260016D02*
X419310Y260123D01*
X419316Y260229D01*
X419326Y260335D01*
X419339Y260441D01*
X419357Y260547D01*
X419378Y260651D01*
X419403Y260755D01*
X419432Y260858D01*
X419464Y260959D01*
X419501Y261059D01*
X419541Y261158D01*
X419584Y261256D01*
X419631Y261352D01*
X419682Y261446D01*
X419736Y261538D01*
X419793Y261628D01*
X419853Y261716D01*
X419917Y261801D01*
X419984Y261884D01*
X420054Y261965D01*
X420126Y262043D01*
X420202Y262119D01*
X420280Y262191D01*
X420361Y262261D01*
X420444Y262328D01*
X420529Y262392D01*
X420617Y262452D01*
X420707Y262509D01*
X420799Y262563D01*
X420893Y262614D01*
X420989Y262661D01*
X421087Y262704D01*
X421186Y262744D01*
X421286Y262781D01*
X421387Y262813D01*
X421490Y262842D01*
X421594Y262867D01*
X421698Y262888D01*
X421804Y262906D01*
X421910Y262919D01*
X422016Y262929D01*
X422122Y262935D01*
X422229Y262937D01*
X419308Y260016D02*
X419310Y259895D01*
X419316Y259774D01*
X419326Y259654D01*
X419339Y259533D01*
X419357Y259414D01*
X419378Y259294D01*
X419403Y259176D01*
X419432Y259059D01*
X419465Y258942D01*
X419501Y258827D01*
X419542Y258713D01*
X419585Y258600D01*
X419633Y258488D01*
X419684Y258379D01*
X419739Y258271D01*
X419797Y258164D01*
X419858Y258060D01*
X419923Y257958D01*
X419991Y257858D01*
X420062Y257760D01*
X420136Y257664D01*
X420213Y257571D01*
X420294Y257481D01*
X420377Y257393D01*
X420463Y257308D01*
X420552Y257225D01*
X420643Y257146D01*
X420737Y257069D01*
X420833Y256996D01*
X420931Y256926D01*
X421032Y256859D01*
X421135Y256795D01*
X421240Y256735D01*
X421347Y256677D01*
X421455Y256624D01*
X421565Y256574D01*
X421677Y256528D01*
X421790Y256485D01*
X421905Y256446D01*
X424501Y261963D02*
X424423Y262042D01*
X424343Y262118D01*
X424260Y262191D01*
X424174Y262261D01*
X424087Y262328D01*
X423996Y262392D01*
X423904Y262452D01*
X423810Y262510D01*
X423713Y262564D01*
X423615Y262614D01*
X423515Y262661D01*
X423414Y262705D01*
X423311Y262745D01*
X423206Y262781D01*
X423101Y262813D01*
X422994Y262842D01*
X422887Y262867D01*
X422778Y262889D01*
X422669Y262906D01*
X422560Y262920D01*
X422450Y262929D01*
X422339Y262935D01*
X422229Y262937D01*
X424501Y261963D02*
X430992Y256446D01*
X430992Y262937D01*
X427746Y267875D02*
X427633Y267877D01*
X427520Y267883D01*
X427407Y267893D01*
X427294Y267907D01*
X427182Y267924D01*
X427071Y267946D01*
X426961Y267971D01*
X426851Y268001D01*
X426743Y268034D01*
X426636Y268071D01*
X426530Y268111D01*
X426426Y268156D01*
X426323Y268204D01*
X426222Y268255D01*
X426123Y268310D01*
X426026Y268368D01*
X425931Y268430D01*
X425838Y268495D01*
X425748Y268563D01*
X425660Y268634D01*
X425574Y268709D01*
X425491Y268786D01*
X425411Y268866D01*
X425334Y268949D01*
X425259Y269035D01*
X425188Y269123D01*
X425120Y269213D01*
X425055Y269306D01*
X424993Y269401D01*
X424935Y269498D01*
X424880Y269597D01*
X424829Y269698D01*
X424781Y269801D01*
X424736Y269905D01*
X424696Y270011D01*
X424659Y270118D01*
X424626Y270226D01*
X424596Y270336D01*
X424571Y270446D01*
X424549Y270557D01*
X424532Y270669D01*
X424518Y270782D01*
X424508Y270895D01*
X424502Y271008D01*
X424500Y271121D01*
X424502Y271234D01*
X424508Y271347D01*
X424518Y271460D01*
X424532Y271573D01*
X424549Y271685D01*
X424571Y271796D01*
X424596Y271906D01*
X424626Y272016D01*
X424659Y272124D01*
X424696Y272231D01*
X424736Y272337D01*
X424781Y272441D01*
X424829Y272544D01*
X424880Y272645D01*
X424935Y272744D01*
X424993Y272841D01*
X425055Y272936D01*
X425120Y273029D01*
X425188Y273119D01*
X425259Y273207D01*
X425334Y273293D01*
X425411Y273376D01*
X425491Y273456D01*
X425574Y273533D01*
X425660Y273608D01*
X425748Y273679D01*
X425838Y273747D01*
X425931Y273812D01*
X426026Y273874D01*
X426123Y273932D01*
X426222Y273987D01*
X426323Y274038D01*
X426426Y274086D01*
X426530Y274131D01*
X426636Y274171D01*
X426743Y274208D01*
X426851Y274241D01*
X426961Y274271D01*
X427071Y274296D01*
X427182Y274318D01*
X427294Y274335D01*
X427407Y274349D01*
X427520Y274359D01*
X427633Y274365D01*
X427746Y274367D01*
X427859Y274365D01*
X427972Y274359D01*
X428085Y274349D01*
X428198Y274335D01*
X428310Y274318D01*
X428421Y274296D01*
X428531Y274271D01*
X428641Y274241D01*
X428749Y274208D01*
X428856Y274171D01*
X428962Y274131D01*
X429066Y274086D01*
X429169Y274038D01*
X429270Y273987D01*
X429369Y273932D01*
X429466Y273874D01*
X429561Y273812D01*
X429654Y273747D01*
X429744Y273679D01*
X429832Y273608D01*
X429918Y273533D01*
X430001Y273456D01*
X430081Y273376D01*
X430158Y273293D01*
X430233Y273207D01*
X430304Y273119D01*
X430372Y273029D01*
X430437Y272936D01*
X430499Y272841D01*
X430557Y272744D01*
X430612Y272645D01*
X430663Y272544D01*
X430711Y272441D01*
X430756Y272337D01*
X430796Y272231D01*
X430833Y272124D01*
X430866Y272016D01*
X430896Y271906D01*
X430921Y271796D01*
X430943Y271685D01*
X430960Y271573D01*
X430974Y271460D01*
X430984Y271347D01*
X430990Y271234D01*
X430992Y271121D01*
X430990Y271008D01*
X430984Y270895D01*
X430974Y270782D01*
X430960Y270669D01*
X430943Y270557D01*
X430921Y270446D01*
X430896Y270336D01*
X430866Y270226D01*
X430833Y270118D01*
X430796Y270011D01*
X430756Y269905D01*
X430711Y269801D01*
X430663Y269698D01*
X430612Y269597D01*
X430557Y269498D01*
X430499Y269401D01*
X430437Y269306D01*
X430372Y269213D01*
X430304Y269123D01*
X430233Y269035D01*
X430158Y268949D01*
X430081Y268866D01*
X430001Y268786D01*
X429918Y268709D01*
X429832Y268634D01*
X429744Y268563D01*
X429654Y268495D01*
X429561Y268430D01*
X429466Y268368D01*
X429369Y268310D01*
X429270Y268255D01*
X429169Y268204D01*
X429066Y268156D01*
X428962Y268111D01*
X428856Y268071D01*
X428749Y268034D01*
X428641Y268001D01*
X428531Y267971D01*
X428421Y267946D01*
X428310Y267924D01*
X428198Y267907D01*
X428085Y267893D01*
X427972Y267883D01*
X427859Y267877D01*
X427746Y267875D01*
X421904Y268525D02*
X421803Y268527D01*
X421703Y268533D01*
X421603Y268543D01*
X421503Y268556D01*
X421404Y268574D01*
X421305Y268595D01*
X421208Y268620D01*
X421111Y268649D01*
X421016Y268682D01*
X420922Y268718D01*
X420830Y268758D01*
X420739Y268801D01*
X420650Y268848D01*
X420563Y268898D01*
X420477Y268952D01*
X420394Y269009D01*
X420314Y269069D01*
X420235Y269132D01*
X420159Y269199D01*
X420086Y269268D01*
X420016Y269340D01*
X419948Y269414D01*
X419883Y269491D01*
X419822Y269571D01*
X419763Y269653D01*
X419708Y269737D01*
X419656Y269823D01*
X419607Y269911D01*
X419562Y270001D01*
X419520Y270093D01*
X419482Y270186D01*
X419448Y270281D01*
X419417Y270376D01*
X419390Y270473D01*
X419367Y270571D01*
X419347Y270670D01*
X419332Y270770D01*
X419320Y270870D01*
X419312Y270970D01*
X419308Y271071D01*
X419308Y271171D01*
X419312Y271272D01*
X419320Y271372D01*
X419332Y271472D01*
X419347Y271572D01*
X419367Y271671D01*
X419390Y271769D01*
X419417Y271866D01*
X419448Y271961D01*
X419482Y272056D01*
X419520Y272149D01*
X419562Y272241D01*
X419607Y272331D01*
X419656Y272419D01*
X419708Y272505D01*
X419763Y272589D01*
X419822Y272671D01*
X419883Y272751D01*
X419948Y272828D01*
X420016Y272902D01*
X420086Y272974D01*
X420159Y273043D01*
X420235Y273110D01*
X420314Y273173D01*
X420394Y273233D01*
X420477Y273290D01*
X420563Y273344D01*
X420650Y273394D01*
X420739Y273441D01*
X420830Y273484D01*
X420922Y273524D01*
X421016Y273560D01*
X421111Y273593D01*
X421208Y273622D01*
X421305Y273647D01*
X421404Y273668D01*
X421503Y273686D01*
X421603Y273699D01*
X421703Y273709D01*
X421803Y273715D01*
X421904Y273717D01*
X422005Y273715D01*
X422105Y273709D01*
X422205Y273699D01*
X422305Y273686D01*
X422404Y273668D01*
X422503Y273647D01*
X422600Y273622D01*
X422697Y273593D01*
X422792Y273560D01*
X422886Y273524D01*
X422978Y273484D01*
X423069Y273441D01*
X423158Y273394D01*
X423245Y273344D01*
X423331Y273290D01*
X423414Y273233D01*
X423494Y273173D01*
X423573Y273110D01*
X423649Y273043D01*
X423722Y272974D01*
X423792Y272902D01*
X423860Y272828D01*
X423925Y272751D01*
X423986Y272671D01*
X424045Y272589D01*
X424100Y272505D01*
X424152Y272419D01*
X424201Y272331D01*
X424246Y272241D01*
X424288Y272149D01*
X424326Y272056D01*
X424360Y271961D01*
X424391Y271866D01*
X424418Y271769D01*
X424441Y271671D01*
X424461Y271572D01*
X424476Y271472D01*
X424488Y271372D01*
X424496Y271272D01*
X424500Y271171D01*
X424500Y271071D01*
X424496Y270970D01*
X424488Y270870D01*
X424476Y270770D01*
X424461Y270670D01*
X424441Y270571D01*
X424418Y270473D01*
X424391Y270376D01*
X424360Y270281D01*
X424326Y270186D01*
X424288Y270093D01*
X424246Y270001D01*
X424201Y269911D01*
X424152Y269823D01*
X424100Y269737D01*
X424045Y269653D01*
X423986Y269571D01*
X423925Y269491D01*
X423860Y269414D01*
X423792Y269340D01*
X423722Y269268D01*
X423649Y269199D01*
X423573Y269132D01*
X423494Y269069D01*
X423414Y269009D01*
X423331Y268952D01*
X423245Y268898D01*
X423158Y268848D01*
X423069Y268801D01*
X422978Y268758D01*
X422886Y268718D01*
X422792Y268682D01*
X422697Y268649D01*
X422600Y268620D01*
X422503Y268595D01*
X422404Y268574D01*
X422305Y268556D01*
X422205Y268543D01*
X422105Y268533D01*
X422005Y268527D01*
X421904Y268525D01*
X427746Y279305D02*
X427633Y279307D01*
X427520Y279313D01*
X427407Y279323D01*
X427294Y279337D01*
X427182Y279354D01*
X427071Y279376D01*
X426961Y279401D01*
X426851Y279431D01*
X426743Y279464D01*
X426636Y279501D01*
X426530Y279541D01*
X426426Y279586D01*
X426323Y279634D01*
X426222Y279685D01*
X426123Y279740D01*
X426026Y279798D01*
X425931Y279860D01*
X425838Y279925D01*
X425748Y279993D01*
X425660Y280064D01*
X425574Y280139D01*
X425491Y280216D01*
X425411Y280296D01*
X425334Y280379D01*
X425259Y280465D01*
X425188Y280553D01*
X425120Y280643D01*
X425055Y280736D01*
X424993Y280831D01*
X424935Y280928D01*
X424880Y281027D01*
X424829Y281128D01*
X424781Y281231D01*
X424736Y281335D01*
X424696Y281441D01*
X424659Y281548D01*
X424626Y281656D01*
X424596Y281766D01*
X424571Y281876D01*
X424549Y281987D01*
X424532Y282099D01*
X424518Y282212D01*
X424508Y282325D01*
X424502Y282438D01*
X424500Y282551D01*
X424502Y282664D01*
X424508Y282777D01*
X424518Y282890D01*
X424532Y283003D01*
X424549Y283115D01*
X424571Y283226D01*
X424596Y283336D01*
X424626Y283446D01*
X424659Y283554D01*
X424696Y283661D01*
X424736Y283767D01*
X424781Y283871D01*
X424829Y283974D01*
X424880Y284075D01*
X424935Y284174D01*
X424993Y284271D01*
X425055Y284366D01*
X425120Y284459D01*
X425188Y284549D01*
X425259Y284637D01*
X425334Y284723D01*
X425411Y284806D01*
X425491Y284886D01*
X425574Y284963D01*
X425660Y285038D01*
X425748Y285109D01*
X425838Y285177D01*
X425931Y285242D01*
X426026Y285304D01*
X426123Y285362D01*
X426222Y285417D01*
X426323Y285468D01*
X426426Y285516D01*
X426530Y285561D01*
X426636Y285601D01*
X426743Y285638D01*
X426851Y285671D01*
X426961Y285701D01*
X427071Y285726D01*
X427182Y285748D01*
X427294Y285765D01*
X427407Y285779D01*
X427520Y285789D01*
X427633Y285795D01*
X427746Y285797D01*
X427859Y285795D01*
X427972Y285789D01*
X428085Y285779D01*
X428198Y285765D01*
X428310Y285748D01*
X428421Y285726D01*
X428531Y285701D01*
X428641Y285671D01*
X428749Y285638D01*
X428856Y285601D01*
X428962Y285561D01*
X429066Y285516D01*
X429169Y285468D01*
X429270Y285417D01*
X429369Y285362D01*
X429466Y285304D01*
X429561Y285242D01*
X429654Y285177D01*
X429744Y285109D01*
X429832Y285038D01*
X429918Y284963D01*
X430001Y284886D01*
X430081Y284806D01*
X430158Y284723D01*
X430233Y284637D01*
X430304Y284549D01*
X430372Y284459D01*
X430437Y284366D01*
X430499Y284271D01*
X430557Y284174D01*
X430612Y284075D01*
X430663Y283974D01*
X430711Y283871D01*
X430756Y283767D01*
X430796Y283661D01*
X430833Y283554D01*
X430866Y283446D01*
X430896Y283336D01*
X430921Y283226D01*
X430943Y283115D01*
X430960Y283003D01*
X430974Y282890D01*
X430984Y282777D01*
X430990Y282664D01*
X430992Y282551D01*
X430990Y282438D01*
X430984Y282325D01*
X430974Y282212D01*
X430960Y282099D01*
X430943Y281987D01*
X430921Y281876D01*
X430896Y281766D01*
X430866Y281656D01*
X430833Y281548D01*
X430796Y281441D01*
X430756Y281335D01*
X430711Y281231D01*
X430663Y281128D01*
X430612Y281027D01*
X430557Y280928D01*
X430499Y280831D01*
X430437Y280736D01*
X430372Y280643D01*
X430304Y280553D01*
X430233Y280465D01*
X430158Y280379D01*
X430081Y280296D01*
X430001Y280216D01*
X429918Y280139D01*
X429832Y280064D01*
X429744Y279993D01*
X429654Y279925D01*
X429561Y279860D01*
X429466Y279798D01*
X429369Y279740D01*
X429270Y279685D01*
X429169Y279634D01*
X429066Y279586D01*
X428962Y279541D01*
X428856Y279501D01*
X428749Y279464D01*
X428641Y279431D01*
X428531Y279401D01*
X428421Y279376D01*
X428310Y279354D01*
X428198Y279337D01*
X428085Y279323D01*
X427972Y279313D01*
X427859Y279307D01*
X427746Y279305D01*
X421904Y279955D02*
X421803Y279957D01*
X421703Y279963D01*
X421603Y279973D01*
X421503Y279986D01*
X421404Y280004D01*
X421305Y280025D01*
X421208Y280050D01*
X421111Y280079D01*
X421016Y280112D01*
X420922Y280148D01*
X420830Y280188D01*
X420739Y280231D01*
X420650Y280278D01*
X420563Y280328D01*
X420477Y280382D01*
X420394Y280439D01*
X420314Y280499D01*
X420235Y280562D01*
X420159Y280629D01*
X420086Y280698D01*
X420016Y280770D01*
X419948Y280844D01*
X419883Y280921D01*
X419822Y281001D01*
X419763Y281083D01*
X419708Y281167D01*
X419656Y281253D01*
X419607Y281341D01*
X419562Y281431D01*
X419520Y281523D01*
X419482Y281616D01*
X419448Y281711D01*
X419417Y281806D01*
X419390Y281903D01*
X419367Y282001D01*
X419347Y282100D01*
X419332Y282200D01*
X419320Y282300D01*
X419312Y282400D01*
X419308Y282501D01*
X419308Y282601D01*
X419312Y282702D01*
X419320Y282802D01*
X419332Y282902D01*
X419347Y283002D01*
X419367Y283101D01*
X419390Y283199D01*
X419417Y283296D01*
X419448Y283391D01*
X419482Y283486D01*
X419520Y283579D01*
X419562Y283671D01*
X419607Y283761D01*
X419656Y283849D01*
X419708Y283935D01*
X419763Y284019D01*
X419822Y284101D01*
X419883Y284181D01*
X419948Y284258D01*
X420016Y284332D01*
X420086Y284404D01*
X420159Y284473D01*
X420235Y284540D01*
X420314Y284603D01*
X420394Y284663D01*
X420477Y284720D01*
X420563Y284774D01*
X420650Y284824D01*
X420739Y284871D01*
X420830Y284914D01*
X420922Y284954D01*
X421016Y284990D01*
X421111Y285023D01*
X421208Y285052D01*
X421305Y285077D01*
X421404Y285098D01*
X421503Y285116D01*
X421603Y285129D01*
X421703Y285139D01*
X421803Y285145D01*
X421904Y285147D01*
X422005Y285145D01*
X422105Y285139D01*
X422205Y285129D01*
X422305Y285116D01*
X422404Y285098D01*
X422503Y285077D01*
X422600Y285052D01*
X422697Y285023D01*
X422792Y284990D01*
X422886Y284954D01*
X422978Y284914D01*
X423069Y284871D01*
X423158Y284824D01*
X423245Y284774D01*
X423331Y284720D01*
X423414Y284663D01*
X423494Y284603D01*
X423573Y284540D01*
X423649Y284473D01*
X423722Y284404D01*
X423792Y284332D01*
X423860Y284258D01*
X423925Y284181D01*
X423986Y284101D01*
X424045Y284019D01*
X424100Y283935D01*
X424152Y283849D01*
X424201Y283761D01*
X424246Y283671D01*
X424288Y283579D01*
X424326Y283486D01*
X424360Y283391D01*
X424391Y283296D01*
X424418Y283199D01*
X424441Y283101D01*
X424461Y283002D01*
X424476Y282902D01*
X424488Y282802D01*
X424496Y282702D01*
X424500Y282601D01*
X424500Y282501D01*
X424496Y282400D01*
X424488Y282300D01*
X424476Y282200D01*
X424461Y282100D01*
X424441Y282001D01*
X424418Y281903D01*
X424391Y281806D01*
X424360Y281711D01*
X424326Y281616D01*
X424288Y281523D01*
X424246Y281431D01*
X424201Y281341D01*
X424152Y281253D01*
X424100Y281167D01*
X424045Y281083D01*
X423986Y281001D01*
X423925Y280921D01*
X423860Y280844D01*
X423792Y280770D01*
X423722Y280698D01*
X423649Y280629D01*
X423573Y280562D01*
X423494Y280499D01*
X423414Y280439D01*
X423331Y280382D01*
X423245Y280328D01*
X423158Y280278D01*
X423069Y280231D01*
X422978Y280188D01*
X422886Y280148D01*
X422792Y280112D01*
X422697Y280079D01*
X422600Y280050D01*
X422503Y280025D01*
X422404Y280004D01*
X422305Y279986D01*
X422205Y279973D01*
X422105Y279963D01*
X422005Y279957D01*
X421904Y279955D01*
X426448Y290849D02*
X426448Y298638D01*
X421904Y303690D02*
X419308Y306935D01*
X430992Y306935D01*
X430992Y303690D02*
X430992Y310181D01*
D11*
X92346Y179806D02*
X92346Y178254D01*
X92346Y179806D02*
X92348Y179883D01*
X92354Y179961D01*
X92363Y180037D01*
X92377Y180114D01*
X92394Y180189D01*
X92415Y180263D01*
X92440Y180337D01*
X92468Y180409D01*
X92500Y180479D01*
X92535Y180548D01*
X92574Y180615D01*
X92616Y180680D01*
X92661Y180743D01*
X92709Y180804D01*
X92760Y180862D01*
X92814Y180917D01*
X92871Y180970D01*
X92930Y181019D01*
X92992Y181066D01*
X93056Y181110D01*
X93122Y181150D01*
X93190Y181187D01*
X93260Y181221D01*
X93331Y181251D01*
X93404Y181277D01*
X93478Y181300D01*
X93553Y181319D01*
X93628Y181334D01*
X93705Y181346D01*
X93782Y181354D01*
X93859Y181358D01*
X93937Y181358D01*
X94014Y181354D01*
X94091Y181346D01*
X94168Y181334D01*
X94243Y181319D01*
X94318Y181300D01*
X94392Y181277D01*
X94465Y181251D01*
X94536Y181221D01*
X94606Y181187D01*
X94674Y181150D01*
X94740Y181110D01*
X94804Y181066D01*
X94866Y181019D01*
X94925Y180970D01*
X94982Y180917D01*
X95036Y180862D01*
X95087Y180804D01*
X95135Y180743D01*
X95180Y180680D01*
X95222Y180615D01*
X95261Y180548D01*
X95296Y180479D01*
X95328Y180409D01*
X95356Y180337D01*
X95381Y180263D01*
X95402Y180189D01*
X95419Y180114D01*
X95433Y180037D01*
X95442Y179961D01*
X95448Y179883D01*
X95450Y179806D01*
X95450Y178254D01*
X89862Y178254D01*
X89862Y179806D01*
X89864Y179876D01*
X89870Y179945D01*
X89880Y180014D01*
X89893Y180082D01*
X89911Y180150D01*
X89932Y180216D01*
X89957Y180281D01*
X89985Y180345D01*
X90017Y180407D01*
X90052Y180467D01*
X90091Y180525D01*
X90133Y180580D01*
X90178Y180634D01*
X90226Y180684D01*
X90276Y180732D01*
X90330Y180777D01*
X90385Y180819D01*
X90443Y180858D01*
X90503Y180893D01*
X90565Y180925D01*
X90629Y180953D01*
X90694Y180978D01*
X90760Y180999D01*
X90828Y181017D01*
X90896Y181030D01*
X90965Y181040D01*
X91034Y181046D01*
X91104Y181048D01*
X91174Y181046D01*
X91243Y181040D01*
X91312Y181030D01*
X91380Y181017D01*
X91448Y180999D01*
X91514Y180978D01*
X91579Y180953D01*
X91643Y180925D01*
X91705Y180893D01*
X91765Y180858D01*
X91823Y180819D01*
X91878Y180777D01*
X91932Y180732D01*
X91982Y180684D01*
X92030Y180634D01*
X92075Y180580D01*
X92117Y180525D01*
X92156Y180467D01*
X92191Y180407D01*
X92223Y180345D01*
X92251Y180281D01*
X92276Y180216D01*
X92297Y180150D01*
X92315Y180082D01*
X92328Y180014D01*
X92338Y179945D01*
X92344Y179876D01*
X92346Y179806D01*
X89862Y183668D02*
X95450Y183668D01*
X93587Y183668D02*
X91725Y186152D01*
X92811Y184755D02*
X95450Y186152D01*
X119778Y181358D02*
X119778Y180427D01*
X119778Y181358D02*
X122882Y181358D01*
X122882Y179496D01*
X122880Y179426D01*
X122874Y179357D01*
X122864Y179288D01*
X122851Y179220D01*
X122833Y179152D01*
X122812Y179086D01*
X122787Y179021D01*
X122759Y178957D01*
X122727Y178895D01*
X122692Y178835D01*
X122653Y178777D01*
X122611Y178722D01*
X122566Y178668D01*
X122518Y178618D01*
X122468Y178570D01*
X122414Y178525D01*
X122359Y178483D01*
X122301Y178444D01*
X122241Y178409D01*
X122179Y178377D01*
X122115Y178349D01*
X122050Y178324D01*
X121984Y178303D01*
X121916Y178285D01*
X121848Y178272D01*
X121779Y178262D01*
X121710Y178256D01*
X121640Y178254D01*
X118536Y178254D01*
X118466Y178256D01*
X118397Y178262D01*
X118328Y178272D01*
X118260Y178285D01*
X118192Y178303D01*
X118126Y178324D01*
X118061Y178349D01*
X117997Y178377D01*
X117935Y178409D01*
X117875Y178444D01*
X117817Y178483D01*
X117762Y178525D01*
X117708Y178570D01*
X117658Y178618D01*
X117610Y178668D01*
X117565Y178722D01*
X117523Y178777D01*
X117484Y178835D01*
X117449Y178895D01*
X117417Y178957D01*
X117389Y179021D01*
X117364Y179086D01*
X117343Y179152D01*
X117325Y179220D01*
X117312Y179288D01*
X117302Y179357D01*
X117296Y179426D01*
X117294Y179496D01*
X117294Y181358D01*
X119157Y184083D02*
X122882Y184083D01*
X119157Y184083D02*
X119157Y185946D01*
X119778Y185946D01*
X147210Y179806D02*
X147210Y178254D01*
X147210Y179806D02*
X147212Y179883D01*
X147218Y179961D01*
X147227Y180037D01*
X147241Y180114D01*
X147258Y180189D01*
X147279Y180263D01*
X147304Y180337D01*
X147332Y180409D01*
X147364Y180479D01*
X147399Y180548D01*
X147438Y180615D01*
X147480Y180680D01*
X147525Y180743D01*
X147573Y180804D01*
X147624Y180862D01*
X147678Y180917D01*
X147735Y180970D01*
X147794Y181019D01*
X147856Y181066D01*
X147920Y181110D01*
X147986Y181150D01*
X148054Y181187D01*
X148124Y181221D01*
X148195Y181251D01*
X148268Y181277D01*
X148342Y181300D01*
X148417Y181319D01*
X148492Y181334D01*
X148569Y181346D01*
X148646Y181354D01*
X148723Y181358D01*
X148801Y181358D01*
X148878Y181354D01*
X148955Y181346D01*
X149032Y181334D01*
X149107Y181319D01*
X149182Y181300D01*
X149256Y181277D01*
X149329Y181251D01*
X149400Y181221D01*
X149470Y181187D01*
X149538Y181150D01*
X149604Y181110D01*
X149668Y181066D01*
X149730Y181019D01*
X149789Y180970D01*
X149846Y180917D01*
X149900Y180862D01*
X149951Y180804D01*
X149999Y180743D01*
X150044Y180680D01*
X150086Y180615D01*
X150125Y180548D01*
X150160Y180479D01*
X150192Y180409D01*
X150220Y180337D01*
X150245Y180263D01*
X150266Y180189D01*
X150283Y180114D01*
X150297Y180037D01*
X150306Y179961D01*
X150312Y179883D01*
X150314Y179806D01*
X150314Y178254D01*
X144726Y178254D01*
X144726Y179806D01*
X144728Y179876D01*
X144734Y179945D01*
X144744Y180014D01*
X144757Y180082D01*
X144775Y180150D01*
X144796Y180216D01*
X144821Y180281D01*
X144849Y180345D01*
X144881Y180407D01*
X144916Y180467D01*
X144955Y180525D01*
X144997Y180580D01*
X145042Y180634D01*
X145090Y180684D01*
X145140Y180732D01*
X145194Y180777D01*
X145249Y180819D01*
X145307Y180858D01*
X145367Y180893D01*
X145429Y180925D01*
X145493Y180953D01*
X145558Y180978D01*
X145624Y180999D01*
X145692Y181017D01*
X145760Y181030D01*
X145829Y181040D01*
X145898Y181046D01*
X145968Y181048D01*
X146038Y181046D01*
X146107Y181040D01*
X146176Y181030D01*
X146244Y181017D01*
X146312Y180999D01*
X146378Y180978D01*
X146443Y180953D01*
X146507Y180925D01*
X146569Y180893D01*
X146629Y180858D01*
X146687Y180819D01*
X146742Y180777D01*
X146796Y180732D01*
X146846Y180684D01*
X146894Y180634D01*
X146939Y180580D01*
X146981Y180525D01*
X147020Y180467D01*
X147055Y180407D01*
X147087Y180345D01*
X147115Y180281D01*
X147140Y180216D01*
X147161Y180150D01*
X147179Y180082D01*
X147192Y180014D01*
X147202Y179945D01*
X147208Y179876D01*
X147210Y179806D01*
X146589Y183602D02*
X149383Y183602D01*
X149441Y183604D01*
X149500Y183609D01*
X149557Y183618D01*
X149615Y183631D01*
X149671Y183648D01*
X149726Y183667D01*
X149779Y183691D01*
X149832Y183717D01*
X149882Y183747D01*
X149930Y183780D01*
X149976Y183816D01*
X150020Y183854D01*
X150062Y183896D01*
X150100Y183940D01*
X150136Y183986D01*
X150169Y184034D01*
X150199Y184084D01*
X150225Y184137D01*
X150249Y184190D01*
X150268Y184245D01*
X150285Y184301D01*
X150298Y184359D01*
X150307Y184416D01*
X150312Y184475D01*
X150314Y184533D01*
X150314Y186086D01*
X146589Y186086D01*
X172158Y178254D02*
X177746Y178254D01*
X172158Y178254D02*
X172158Y179806D01*
X172160Y179883D01*
X172166Y179961D01*
X172175Y180037D01*
X172189Y180114D01*
X172206Y180189D01*
X172227Y180263D01*
X172252Y180337D01*
X172280Y180409D01*
X172312Y180479D01*
X172347Y180548D01*
X172386Y180615D01*
X172428Y180680D01*
X172473Y180743D01*
X172521Y180804D01*
X172572Y180862D01*
X172626Y180917D01*
X172683Y180970D01*
X172742Y181019D01*
X172804Y181066D01*
X172868Y181110D01*
X172934Y181150D01*
X173002Y181187D01*
X173072Y181221D01*
X173143Y181251D01*
X173216Y181277D01*
X173290Y181300D01*
X173365Y181319D01*
X173440Y181334D01*
X173517Y181346D01*
X173594Y181354D01*
X173671Y181358D01*
X173749Y181358D01*
X173826Y181354D01*
X173903Y181346D01*
X173980Y181334D01*
X174055Y181319D01*
X174130Y181300D01*
X174204Y181277D01*
X174277Y181251D01*
X174348Y181221D01*
X174418Y181187D01*
X174486Y181150D01*
X174552Y181110D01*
X174616Y181066D01*
X174678Y181019D01*
X174737Y180970D01*
X174794Y180917D01*
X174848Y180862D01*
X174899Y180804D01*
X174947Y180743D01*
X174992Y180680D01*
X175034Y180615D01*
X175073Y180548D01*
X175108Y180479D01*
X175140Y180409D01*
X175168Y180337D01*
X175193Y180263D01*
X175214Y180189D01*
X175231Y180114D01*
X175245Y180037D01*
X175254Y179961D01*
X175260Y179883D01*
X175262Y179806D01*
X175262Y178254D01*
X175262Y180117D02*
X177746Y181358D01*
X177746Y186104D02*
X172158Y186104D01*
X177746Y186104D02*
X177746Y184551D01*
X177744Y184493D01*
X177739Y184434D01*
X177730Y184377D01*
X177717Y184319D01*
X177700Y184263D01*
X177681Y184208D01*
X177657Y184155D01*
X177631Y184102D01*
X177601Y184052D01*
X177568Y184004D01*
X177532Y183958D01*
X177494Y183914D01*
X177452Y183872D01*
X177408Y183834D01*
X177362Y183798D01*
X177314Y183765D01*
X177264Y183735D01*
X177211Y183709D01*
X177158Y183685D01*
X177103Y183666D01*
X177047Y183649D01*
X176989Y183636D01*
X176932Y183627D01*
X176873Y183622D01*
X176815Y183620D01*
X174952Y183620D01*
X174894Y183622D01*
X174835Y183627D01*
X174778Y183636D01*
X174720Y183649D01*
X174664Y183666D01*
X174609Y183685D01*
X174556Y183709D01*
X174503Y183735D01*
X174453Y183765D01*
X174405Y183798D01*
X174359Y183834D01*
X174315Y183872D01*
X174273Y183914D01*
X174235Y183958D01*
X174199Y184004D01*
X174166Y184052D01*
X174136Y184102D01*
X174110Y184155D01*
X174086Y184208D01*
X174067Y184263D01*
X174050Y184319D01*
X174037Y184377D01*
X174028Y184434D01*
X174023Y184493D01*
X174021Y184551D01*
X174021Y186104D01*
X61979Y435427D02*
X58254Y435427D01*
X60117Y433564D02*
X60117Y437290D01*
X64417Y433254D02*
X66279Y433254D01*
X66349Y433256D01*
X66418Y433262D01*
X66487Y433272D01*
X66555Y433285D01*
X66623Y433303D01*
X66689Y433324D01*
X66754Y433349D01*
X66818Y433377D01*
X66880Y433409D01*
X66940Y433444D01*
X66998Y433483D01*
X67053Y433525D01*
X67107Y433570D01*
X67157Y433618D01*
X67205Y433668D01*
X67250Y433722D01*
X67292Y433777D01*
X67331Y433835D01*
X67366Y433895D01*
X67398Y433957D01*
X67426Y434021D01*
X67451Y434086D01*
X67472Y434152D01*
X67490Y434220D01*
X67503Y434288D01*
X67513Y434357D01*
X67519Y434426D01*
X67521Y434496D01*
X67521Y435117D01*
X67519Y435187D01*
X67513Y435256D01*
X67503Y435325D01*
X67490Y435393D01*
X67472Y435461D01*
X67451Y435527D01*
X67426Y435592D01*
X67398Y435656D01*
X67366Y435718D01*
X67331Y435778D01*
X67292Y435836D01*
X67250Y435891D01*
X67205Y435945D01*
X67157Y435995D01*
X67107Y436043D01*
X67053Y436088D01*
X66998Y436130D01*
X66940Y436169D01*
X66880Y436204D01*
X66818Y436236D01*
X66754Y436264D01*
X66689Y436289D01*
X66623Y436310D01*
X66555Y436328D01*
X66487Y436341D01*
X66418Y436351D01*
X66349Y436357D01*
X66279Y436359D01*
X66279Y436358D02*
X64417Y436358D01*
X64417Y438842D01*
X67521Y438842D01*
X69593Y438842D02*
X71455Y433254D01*
X73318Y438842D01*
X64479Y86927D02*
X60754Y86927D01*
X62617Y85064D02*
X62617Y88790D01*
X66917Y84754D02*
X68779Y84754D01*
X68849Y84756D01*
X68918Y84762D01*
X68987Y84772D01*
X69055Y84785D01*
X69123Y84803D01*
X69189Y84824D01*
X69254Y84849D01*
X69318Y84877D01*
X69380Y84909D01*
X69440Y84944D01*
X69498Y84983D01*
X69553Y85025D01*
X69607Y85070D01*
X69657Y85118D01*
X69705Y85168D01*
X69750Y85222D01*
X69792Y85277D01*
X69831Y85335D01*
X69866Y85395D01*
X69898Y85457D01*
X69926Y85521D01*
X69951Y85586D01*
X69972Y85652D01*
X69990Y85720D01*
X70003Y85788D01*
X70013Y85857D01*
X70019Y85926D01*
X70021Y85996D01*
X70021Y86617D01*
X70019Y86687D01*
X70013Y86756D01*
X70003Y86825D01*
X69990Y86893D01*
X69972Y86961D01*
X69951Y87027D01*
X69926Y87092D01*
X69898Y87156D01*
X69866Y87218D01*
X69831Y87278D01*
X69792Y87336D01*
X69750Y87391D01*
X69705Y87445D01*
X69657Y87495D01*
X69607Y87543D01*
X69553Y87588D01*
X69498Y87630D01*
X69440Y87669D01*
X69380Y87704D01*
X69318Y87736D01*
X69254Y87764D01*
X69189Y87789D01*
X69123Y87810D01*
X69055Y87828D01*
X68987Y87841D01*
X68918Y87851D01*
X68849Y87857D01*
X68779Y87859D01*
X68779Y87858D02*
X66917Y87858D01*
X66917Y90342D01*
X70021Y90342D01*
X72093Y90342D02*
X73955Y84754D01*
X75818Y90342D01*
X80254Y461427D02*
X83979Y461427D01*
X82117Y459564D02*
X82117Y463290D01*
X86417Y463600D02*
X87969Y464842D01*
X87969Y459254D01*
X86417Y459254D02*
X89521Y459254D01*
X95007Y463445D02*
X95005Y463518D01*
X94999Y463591D01*
X94990Y463664D01*
X94976Y463735D01*
X94959Y463807D01*
X94939Y463877D01*
X94914Y463946D01*
X94886Y464013D01*
X94855Y464079D01*
X94820Y464144D01*
X94782Y464206D01*
X94740Y464266D01*
X94696Y464324D01*
X94648Y464380D01*
X94598Y464433D01*
X94545Y464483D01*
X94489Y464531D01*
X94431Y464575D01*
X94371Y464617D01*
X94309Y464655D01*
X94244Y464690D01*
X94178Y464721D01*
X94111Y464749D01*
X94042Y464774D01*
X93972Y464794D01*
X93900Y464811D01*
X93829Y464825D01*
X93756Y464834D01*
X93683Y464840D01*
X93610Y464842D01*
X93526Y464840D01*
X93443Y464834D01*
X93360Y464825D01*
X93278Y464811D01*
X93196Y464794D01*
X93115Y464772D01*
X93035Y464747D01*
X92957Y464719D01*
X92879Y464687D01*
X92804Y464651D01*
X92730Y464612D01*
X92658Y464569D01*
X92588Y464523D01*
X92521Y464474D01*
X92455Y464421D01*
X92393Y464366D01*
X92333Y464308D01*
X92275Y464247D01*
X92221Y464184D01*
X92169Y464118D01*
X92121Y464050D01*
X92076Y463979D01*
X92034Y463907D01*
X91996Y463832D01*
X91961Y463756D01*
X91930Y463679D01*
X91902Y463600D01*
X94541Y462359D02*
X94595Y462412D01*
X94646Y462469D01*
X94694Y462528D01*
X94739Y462589D01*
X94780Y462652D01*
X94819Y462718D01*
X94854Y462785D01*
X94886Y462854D01*
X94914Y462925D01*
X94938Y462996D01*
X94959Y463069D01*
X94976Y463143D01*
X94990Y463218D01*
X94999Y463293D01*
X95005Y463369D01*
X95007Y463445D01*
X94542Y462358D02*
X91903Y459254D01*
X95007Y459254D01*
X98942Y459254D02*
X97079Y464842D01*
X100804Y464842D02*
X98942Y459254D01*
X86479Y111427D02*
X82754Y111427D01*
X84617Y109564D02*
X84617Y113290D01*
X88917Y113600D02*
X90469Y114842D01*
X90469Y109254D01*
X88917Y109254D02*
X92021Y109254D01*
X97507Y113445D02*
X97505Y113518D01*
X97499Y113591D01*
X97490Y113664D01*
X97476Y113735D01*
X97459Y113807D01*
X97439Y113877D01*
X97414Y113946D01*
X97386Y114013D01*
X97355Y114079D01*
X97320Y114144D01*
X97282Y114206D01*
X97240Y114266D01*
X97196Y114324D01*
X97148Y114380D01*
X97098Y114433D01*
X97045Y114483D01*
X96989Y114531D01*
X96931Y114575D01*
X96871Y114617D01*
X96809Y114655D01*
X96744Y114690D01*
X96678Y114721D01*
X96611Y114749D01*
X96542Y114774D01*
X96472Y114794D01*
X96400Y114811D01*
X96329Y114825D01*
X96256Y114834D01*
X96183Y114840D01*
X96110Y114842D01*
X96026Y114840D01*
X95943Y114834D01*
X95860Y114825D01*
X95778Y114811D01*
X95696Y114794D01*
X95615Y114772D01*
X95535Y114747D01*
X95457Y114719D01*
X95379Y114687D01*
X95304Y114651D01*
X95230Y114612D01*
X95158Y114569D01*
X95088Y114523D01*
X95021Y114474D01*
X94955Y114421D01*
X94893Y114366D01*
X94833Y114308D01*
X94775Y114247D01*
X94721Y114184D01*
X94669Y114118D01*
X94621Y114050D01*
X94576Y113979D01*
X94534Y113907D01*
X94496Y113832D01*
X94461Y113756D01*
X94430Y113679D01*
X94402Y113600D01*
X97041Y112359D02*
X97095Y112412D01*
X97146Y112469D01*
X97194Y112528D01*
X97239Y112589D01*
X97280Y112652D01*
X97319Y112718D01*
X97354Y112785D01*
X97386Y112854D01*
X97414Y112925D01*
X97438Y112996D01*
X97459Y113069D01*
X97476Y113143D01*
X97490Y113218D01*
X97499Y113293D01*
X97505Y113369D01*
X97507Y113445D01*
X97042Y112358D02*
X94403Y109254D01*
X97507Y109254D01*
X101442Y109254D02*
X99579Y114842D01*
X103304Y114842D02*
X101442Y109254D01*
X108754Y52927D02*
X112479Y52927D01*
X110617Y51064D02*
X110617Y54790D01*
X116624Y56342D02*
X116697Y56340D01*
X116770Y56334D01*
X116843Y56325D01*
X116914Y56311D01*
X116986Y56294D01*
X117056Y56274D01*
X117125Y56249D01*
X117192Y56221D01*
X117258Y56190D01*
X117323Y56155D01*
X117385Y56117D01*
X117445Y56075D01*
X117503Y56031D01*
X117559Y55983D01*
X117612Y55933D01*
X117662Y55880D01*
X117710Y55824D01*
X117754Y55766D01*
X117796Y55706D01*
X117834Y55644D01*
X117869Y55579D01*
X117900Y55513D01*
X117928Y55446D01*
X117953Y55377D01*
X117973Y55307D01*
X117990Y55235D01*
X118004Y55164D01*
X118013Y55091D01*
X118019Y55018D01*
X118021Y54945D01*
X116624Y56342D02*
X116540Y56340D01*
X116457Y56334D01*
X116374Y56325D01*
X116292Y56311D01*
X116210Y56294D01*
X116129Y56272D01*
X116049Y56247D01*
X115971Y56219D01*
X115893Y56187D01*
X115818Y56151D01*
X115744Y56112D01*
X115672Y56069D01*
X115602Y56023D01*
X115535Y55974D01*
X115469Y55921D01*
X115407Y55866D01*
X115347Y55808D01*
X115289Y55747D01*
X115235Y55684D01*
X115183Y55618D01*
X115135Y55550D01*
X115090Y55479D01*
X115048Y55407D01*
X115010Y55332D01*
X114975Y55256D01*
X114944Y55179D01*
X114916Y55100D01*
X117555Y53859D02*
X117609Y53912D01*
X117660Y53969D01*
X117708Y54028D01*
X117753Y54089D01*
X117794Y54152D01*
X117833Y54218D01*
X117868Y54285D01*
X117900Y54354D01*
X117928Y54425D01*
X117952Y54496D01*
X117973Y54569D01*
X117990Y54643D01*
X118004Y54718D01*
X118013Y54793D01*
X118019Y54869D01*
X118021Y54945D01*
X117555Y53858D02*
X114917Y50754D01*
X118021Y50754D01*
X120403Y51996D02*
X121645Y56342D01*
X120403Y51996D02*
X123507Y51996D01*
X122576Y53238D02*
X122576Y50754D01*
X127442Y50754D02*
X125579Y56342D01*
X129304Y56342D02*
X127442Y50754D01*
X109979Y400427D02*
X106254Y400427D01*
X108117Y398564D02*
X108117Y402290D01*
X114124Y403842D02*
X114197Y403840D01*
X114270Y403834D01*
X114343Y403825D01*
X114414Y403811D01*
X114486Y403794D01*
X114556Y403774D01*
X114625Y403749D01*
X114692Y403721D01*
X114758Y403690D01*
X114823Y403655D01*
X114885Y403617D01*
X114945Y403575D01*
X115003Y403531D01*
X115059Y403483D01*
X115112Y403433D01*
X115162Y403380D01*
X115210Y403324D01*
X115254Y403266D01*
X115296Y403206D01*
X115334Y403144D01*
X115369Y403079D01*
X115400Y403013D01*
X115428Y402946D01*
X115453Y402877D01*
X115473Y402807D01*
X115490Y402735D01*
X115504Y402664D01*
X115513Y402591D01*
X115519Y402518D01*
X115521Y402445D01*
X114124Y403842D02*
X114040Y403840D01*
X113957Y403834D01*
X113874Y403825D01*
X113792Y403811D01*
X113710Y403794D01*
X113629Y403772D01*
X113549Y403747D01*
X113471Y403719D01*
X113393Y403687D01*
X113318Y403651D01*
X113244Y403612D01*
X113172Y403569D01*
X113102Y403523D01*
X113035Y403474D01*
X112969Y403421D01*
X112907Y403366D01*
X112847Y403308D01*
X112789Y403247D01*
X112735Y403184D01*
X112683Y403118D01*
X112635Y403050D01*
X112590Y402979D01*
X112548Y402907D01*
X112510Y402832D01*
X112475Y402756D01*
X112444Y402679D01*
X112416Y402600D01*
X115055Y401359D02*
X115109Y401412D01*
X115160Y401469D01*
X115208Y401528D01*
X115253Y401589D01*
X115294Y401652D01*
X115333Y401718D01*
X115368Y401785D01*
X115400Y401854D01*
X115428Y401925D01*
X115452Y401996D01*
X115473Y402069D01*
X115490Y402143D01*
X115504Y402218D01*
X115513Y402293D01*
X115519Y402369D01*
X115521Y402445D01*
X115055Y401358D02*
X112417Y398254D01*
X115521Y398254D01*
X117903Y399496D02*
X119145Y403842D01*
X117903Y399496D02*
X121007Y399496D01*
X120076Y400738D02*
X120076Y398254D01*
X124942Y398254D02*
X123079Y403842D01*
X126804Y403842D02*
X124942Y398254D01*
X55117Y390254D02*
X53254Y395842D01*
X56979Y395842D02*
X55117Y390254D01*
X59245Y390254D02*
X59245Y395842D01*
X61728Y395842D01*
X61728Y393358D02*
X59245Y393358D01*
X63495Y390254D02*
X65358Y395842D01*
X67221Y390254D01*
X66755Y391651D02*
X63961Y391651D01*
X69475Y390254D02*
X69475Y395842D01*
X72579Y390254D01*
X72579Y395842D01*
X53254Y46342D02*
X55117Y40754D01*
X56979Y46342D01*
X59245Y46342D02*
X59245Y40754D01*
X59245Y46342D02*
X61728Y46342D01*
X61728Y43858D02*
X59245Y43858D01*
X63495Y40754D02*
X65358Y46342D01*
X67221Y40754D01*
X66755Y42151D02*
X63961Y42151D01*
X69475Y40754D02*
X69475Y46342D01*
X72579Y40754D01*
X72579Y46342D01*
D13*
X76000Y393000D02*
X79000Y396000D01*
X80500Y47500D02*
X76000Y43000D01*
D14*
X257024Y57974D02*
X394500Y57974D01*
X394500Y23000D01*
X464500Y23000D01*
X464500Y58000D01*
X622000Y58000D01*
X622000Y443000D01*
X464500Y443000D01*
X464500Y478000D01*
X394500Y478000D01*
X394500Y443000D01*
X257000Y443000D01*
X257000Y58000D01*
D15*
X281020Y38955D02*
X281022Y39044D01*
X281028Y39133D01*
X281038Y39222D01*
X281052Y39310D01*
X281069Y39397D01*
X281091Y39483D01*
X281117Y39569D01*
X281146Y39653D01*
X281179Y39736D01*
X281215Y39817D01*
X281256Y39897D01*
X281299Y39974D01*
X281346Y40050D01*
X281397Y40123D01*
X281450Y40194D01*
X281507Y40263D01*
X281567Y40329D01*
X281630Y40393D01*
X281695Y40453D01*
X281763Y40511D01*
X281834Y40565D01*
X281907Y40616D01*
X281982Y40664D01*
X282059Y40709D01*
X282138Y40750D01*
X282219Y40787D01*
X282301Y40821D01*
X282385Y40852D01*
X282470Y40878D01*
X282556Y40901D01*
X282643Y40919D01*
X282731Y40934D01*
X282820Y40945D01*
X282909Y40952D01*
X282998Y40955D01*
X283087Y40954D01*
X283176Y40949D01*
X283264Y40940D01*
X283353Y40927D01*
X283440Y40910D01*
X283527Y40890D01*
X283613Y40865D01*
X283697Y40837D01*
X283780Y40805D01*
X283862Y40769D01*
X283942Y40730D01*
X284020Y40687D01*
X284096Y40641D01*
X284170Y40591D01*
X284242Y40538D01*
X284311Y40482D01*
X284378Y40423D01*
X284442Y40361D01*
X284503Y40297D01*
X284562Y40229D01*
X284617Y40159D01*
X284669Y40087D01*
X284718Y40012D01*
X284763Y39936D01*
X284805Y39857D01*
X284843Y39777D01*
X284878Y39695D01*
X284909Y39611D01*
X284937Y39526D01*
X284960Y39440D01*
X284980Y39353D01*
X284996Y39266D01*
X285008Y39177D01*
X285016Y39089D01*
X285020Y39000D01*
X285020Y38910D01*
X285016Y38821D01*
X285008Y38733D01*
X284996Y38644D01*
X284980Y38557D01*
X284960Y38470D01*
X284937Y38384D01*
X284909Y38299D01*
X284878Y38215D01*
X284843Y38133D01*
X284805Y38053D01*
X284763Y37974D01*
X284718Y37898D01*
X284669Y37823D01*
X284617Y37751D01*
X284562Y37681D01*
X284503Y37613D01*
X284442Y37549D01*
X284378Y37487D01*
X284311Y37428D01*
X284242Y37372D01*
X284170Y37319D01*
X284096Y37269D01*
X284020Y37223D01*
X283942Y37180D01*
X283862Y37141D01*
X283780Y37105D01*
X283697Y37073D01*
X283613Y37045D01*
X283527Y37020D01*
X283440Y37000D01*
X283353Y36983D01*
X283264Y36970D01*
X283176Y36961D01*
X283087Y36956D01*
X282998Y36955D01*
X282909Y36958D01*
X282820Y36965D01*
X282731Y36976D01*
X282643Y36991D01*
X282556Y37009D01*
X282470Y37032D01*
X282385Y37058D01*
X282301Y37089D01*
X282219Y37123D01*
X282138Y37160D01*
X282059Y37201D01*
X281982Y37246D01*
X281907Y37294D01*
X281834Y37345D01*
X281763Y37399D01*
X281695Y37457D01*
X281630Y37517D01*
X281567Y37581D01*
X281507Y37647D01*
X281450Y37716D01*
X281397Y37787D01*
X281346Y37860D01*
X281299Y37936D01*
X281256Y38013D01*
X281215Y38093D01*
X281179Y38174D01*
X281146Y38257D01*
X281117Y38341D01*
X281091Y38427D01*
X281069Y38513D01*
X281052Y38600D01*
X281038Y38688D01*
X281028Y38777D01*
X281022Y38866D01*
X281020Y38955D01*
D14*
X95900Y381400D02*
X95900Y385210D01*
D16*
X83200Y385210D01*
D14*
X95900Y385210D02*
X98440Y385210D01*
D16*
X95900Y385210D02*
X184800Y385210D01*
X83200Y385210D02*
X83200Y326790D01*
D14*
X107330Y326790D01*
D16*
X184800Y326790D02*
X184800Y385210D01*
X178450Y326790D02*
X107330Y326790D01*
X89550Y326790D02*
X85740Y326790D01*
X89550Y326790D02*
X89550Y333140D01*
X102250Y333140D01*
X102250Y326790D01*
X114950Y326790D02*
X114950Y333140D01*
X127650Y333140D01*
X127650Y326790D01*
X89550Y326790D01*
X102250Y326790D02*
X114950Y326790D01*
X127650Y326790D02*
X140350Y326790D01*
X140350Y333140D01*
X153050Y333140D01*
X153050Y326790D01*
X165750Y326790D01*
X165750Y333140D01*
X178450Y333140D01*
X178450Y326790D01*
X184800Y326790D01*
X95900Y375050D02*
X95900Y385210D01*
X95900Y375050D02*
X98440Y375050D01*
X169560Y375050D01*
X172100Y375050D01*
X172100Y385210D01*
X98440Y369970D02*
X95900Y375050D01*
X98440Y375050D02*
X98440Y385210D01*
X98440Y369970D02*
X169560Y369970D01*
X172100Y375050D01*
X169560Y375050D02*
X169560Y385210D01*
D12*
X70541Y326759D02*
X66477Y326759D01*
X66477Y335903D01*
X70541Y335903D01*
X69525Y331839D02*
X66477Y331839D01*
X74077Y331331D02*
X74079Y331511D01*
X74086Y331691D01*
X74096Y331870D01*
X74111Y332049D01*
X74131Y332228D01*
X74154Y332407D01*
X74182Y332584D01*
X74214Y332761D01*
X74250Y332938D01*
X74291Y333113D01*
X74335Y333287D01*
X74384Y333460D01*
X74437Y333632D01*
X74494Y333803D01*
X74555Y333972D01*
X74620Y334140D01*
X74689Y334306D01*
X74762Y334470D01*
X74839Y334633D01*
X74867Y334711D01*
X74900Y334788D01*
X74935Y334863D01*
X74974Y334937D01*
X75016Y335009D01*
X75061Y335078D01*
X75110Y335146D01*
X75161Y335212D01*
X75215Y335275D01*
X75272Y335336D01*
X75331Y335395D01*
X75393Y335450D01*
X75458Y335503D01*
X75524Y335553D01*
X75593Y335600D01*
X75664Y335644D01*
X75737Y335684D01*
X75811Y335721D01*
X75887Y335756D01*
X75965Y335786D01*
X76043Y335813D01*
X76123Y335837D01*
X76204Y335857D01*
X76286Y335874D01*
X76368Y335886D01*
X76451Y335896D01*
X76534Y335901D01*
X76617Y335903D01*
X76700Y335901D01*
X76783Y335896D01*
X76866Y335886D01*
X76948Y335874D01*
X77030Y335857D01*
X77111Y335837D01*
X77191Y335813D01*
X77269Y335786D01*
X77347Y335756D01*
X77423Y335721D01*
X77497Y335684D01*
X77570Y335644D01*
X77641Y335600D01*
X77710Y335553D01*
X77776Y335503D01*
X77841Y335450D01*
X77903Y335395D01*
X77962Y335336D01*
X78019Y335275D01*
X78073Y335212D01*
X78124Y335146D01*
X78173Y335078D01*
X78218Y335009D01*
X78260Y334937D01*
X78299Y334863D01*
X78334Y334788D01*
X78367Y334711D01*
X78395Y334633D01*
X78394Y334633D02*
X78471Y334470D01*
X78544Y334306D01*
X78613Y334140D01*
X78678Y333972D01*
X78739Y333803D01*
X78796Y333632D01*
X78849Y333460D01*
X78898Y333287D01*
X78942Y333113D01*
X78983Y332938D01*
X79019Y332761D01*
X79051Y332584D01*
X79079Y332407D01*
X79102Y332228D01*
X79122Y332049D01*
X79137Y331870D01*
X79147Y331691D01*
X79154Y331511D01*
X79156Y331331D01*
X74077Y331331D02*
X74079Y331151D01*
X74086Y330971D01*
X74096Y330792D01*
X74111Y330613D01*
X74131Y330434D01*
X74154Y330255D01*
X74182Y330078D01*
X74214Y329901D01*
X74250Y329724D01*
X74291Y329549D01*
X74335Y329375D01*
X74384Y329202D01*
X74437Y329030D01*
X74494Y328859D01*
X74555Y328690D01*
X74620Y328522D01*
X74689Y328356D01*
X74762Y328192D01*
X74839Y328029D01*
X74867Y327951D01*
X74900Y327874D01*
X74935Y327799D01*
X74974Y327725D01*
X75016Y327653D01*
X75061Y327584D01*
X75110Y327516D01*
X75161Y327450D01*
X75215Y327387D01*
X75272Y327326D01*
X75331Y327267D01*
X75393Y327212D01*
X75458Y327159D01*
X75524Y327109D01*
X75593Y327062D01*
X75664Y327018D01*
X75737Y326978D01*
X75811Y326941D01*
X75887Y326906D01*
X75965Y326876D01*
X76043Y326849D01*
X76123Y326825D01*
X76204Y326805D01*
X76286Y326788D01*
X76368Y326776D01*
X76451Y326766D01*
X76534Y326761D01*
X76617Y326759D01*
X78394Y328029D02*
X78471Y328192D01*
X78544Y328356D01*
X78613Y328522D01*
X78678Y328690D01*
X78739Y328859D01*
X78796Y329030D01*
X78849Y329202D01*
X78898Y329375D01*
X78942Y329549D01*
X78983Y329724D01*
X79019Y329901D01*
X79051Y330078D01*
X79079Y330255D01*
X79102Y330434D01*
X79122Y330613D01*
X79137Y330792D01*
X79147Y330971D01*
X79154Y331151D01*
X79156Y331331D01*
X78395Y328029D02*
X78367Y327951D01*
X78334Y327874D01*
X78299Y327799D01*
X78260Y327725D01*
X78218Y327653D01*
X78173Y327584D01*
X78124Y327516D01*
X78073Y327450D01*
X78019Y327387D01*
X77962Y327326D01*
X77903Y327267D01*
X77841Y327212D01*
X77776Y327159D01*
X77710Y327109D01*
X77641Y327062D01*
X77570Y327018D01*
X77497Y326978D01*
X77423Y326941D01*
X77347Y326906D01*
X77269Y326876D01*
X77191Y326849D01*
X77111Y326825D01*
X77030Y326805D01*
X76948Y326788D01*
X76866Y326776D01*
X76783Y326766D01*
X76700Y326761D01*
X76617Y326759D01*
X74585Y328791D02*
X78649Y333871D01*
D14*
X95400Y312210D02*
X95400Y308400D01*
D16*
X95400Y312210D02*
X82700Y312210D01*
D14*
X95400Y312210D02*
X97940Y312210D01*
D16*
X95400Y312210D02*
X184300Y312210D01*
X82700Y312210D02*
X82700Y253790D01*
D14*
X106830Y253790D01*
D16*
X184300Y253790D02*
X184300Y312210D01*
X177950Y253790D02*
X106830Y253790D01*
X89050Y253790D02*
X85240Y253790D01*
X89050Y253790D02*
X89050Y260140D01*
X101750Y260140D01*
X101750Y253790D01*
X114450Y253790D02*
X114450Y260140D01*
X127150Y260140D01*
X127150Y253790D01*
X89050Y253790D01*
X101750Y253790D02*
X114450Y253790D01*
X127150Y253790D02*
X139850Y253790D01*
X139850Y260140D01*
X152550Y260140D01*
X152550Y253790D01*
X165250Y253790D01*
X165250Y260140D01*
X177950Y260140D01*
X177950Y253790D01*
X184300Y253790D01*
X95400Y302050D02*
X95400Y312210D01*
X95400Y302050D02*
X97940Y302050D01*
X169060Y302050D01*
X171600Y302050D01*
X171600Y312210D01*
X97940Y296970D02*
X95400Y302050D01*
X97940Y302050D02*
X97940Y312210D01*
X97940Y296970D02*
X169060Y296970D01*
X171600Y302050D01*
X169060Y302050D02*
X169060Y312210D01*
D12*
X70541Y254259D02*
X66477Y254259D01*
X66477Y263403D01*
X70541Y263403D01*
X69525Y259339D02*
X66477Y259339D01*
X74077Y261371D02*
X76617Y263403D01*
X76617Y254259D01*
X74077Y254259D02*
X79157Y254259D01*
D14*
X95900Y248210D02*
X95900Y244400D01*
D16*
X95900Y248210D02*
X83200Y248210D01*
D14*
X95900Y248210D02*
X98440Y248210D01*
D16*
X95900Y248210D02*
X184800Y248210D01*
X83200Y248210D02*
X83200Y189790D01*
D14*
X107330Y189790D01*
D16*
X184800Y189790D02*
X184800Y248210D01*
X178450Y189790D02*
X107330Y189790D01*
X89550Y189790D02*
X85740Y189790D01*
X89550Y189790D02*
X89550Y196140D01*
X102250Y196140D01*
X102250Y189790D01*
X114950Y189790D02*
X114950Y196140D01*
X127650Y196140D01*
X127650Y189790D01*
X89550Y189790D01*
X102250Y189790D02*
X114950Y189790D01*
X127650Y189790D02*
X140350Y189790D01*
X140350Y196140D01*
X153050Y196140D01*
X153050Y189790D01*
X165750Y189790D01*
X165750Y196140D01*
X178450Y196140D01*
X178450Y189790D01*
X184800Y189790D01*
X95900Y238050D02*
X95900Y248210D01*
X95900Y238050D02*
X98440Y238050D01*
X169560Y238050D01*
X172100Y238050D01*
X172100Y248210D01*
X98440Y232970D02*
X95900Y238050D01*
X98440Y238050D02*
X98440Y248210D01*
X98440Y232970D02*
X169560Y232970D01*
X172100Y238050D01*
X169560Y238050D02*
X169560Y248210D01*
D12*
X70541Y237759D02*
X66477Y237759D01*
X66477Y246903D01*
X70541Y246903D01*
X69525Y242839D02*
X66477Y242839D01*
X76871Y246903D02*
X76965Y246901D01*
X77060Y246895D01*
X77154Y246885D01*
X77247Y246872D01*
X77340Y246854D01*
X77432Y246833D01*
X77523Y246808D01*
X77613Y246779D01*
X77702Y246747D01*
X77789Y246710D01*
X77875Y246671D01*
X77959Y246627D01*
X78041Y246581D01*
X78121Y246531D01*
X78199Y246477D01*
X78275Y246421D01*
X78348Y246361D01*
X78419Y246299D01*
X78487Y246233D01*
X78553Y246165D01*
X78615Y246094D01*
X78675Y246021D01*
X78731Y245945D01*
X78785Y245867D01*
X78835Y245787D01*
X78881Y245705D01*
X78925Y245621D01*
X78964Y245535D01*
X79001Y245448D01*
X79033Y245359D01*
X79062Y245269D01*
X79087Y245178D01*
X79108Y245086D01*
X79126Y244993D01*
X79139Y244900D01*
X79149Y244806D01*
X79155Y244711D01*
X79157Y244617D01*
X76871Y246903D02*
X76765Y246901D01*
X76660Y246895D01*
X76555Y246886D01*
X76450Y246873D01*
X76346Y246856D01*
X76243Y246835D01*
X76140Y246811D01*
X76038Y246782D01*
X75938Y246751D01*
X75838Y246715D01*
X75740Y246677D01*
X75644Y246634D01*
X75548Y246588D01*
X75455Y246539D01*
X75364Y246487D01*
X75274Y246431D01*
X75186Y246372D01*
X75101Y246310D01*
X75018Y246245D01*
X74937Y246177D01*
X74859Y246106D01*
X74784Y246032D01*
X74711Y245956D01*
X74641Y245877D01*
X74574Y245796D01*
X74509Y245712D01*
X74448Y245626D01*
X74390Y245538D01*
X74335Y245448D01*
X74284Y245356D01*
X74235Y245262D01*
X74190Y245166D01*
X74149Y245069D01*
X74111Y244971D01*
X74077Y244871D01*
X78394Y242839D02*
X78461Y242906D01*
X78526Y242975D01*
X78588Y243047D01*
X78647Y243120D01*
X78703Y243197D01*
X78757Y243275D01*
X78807Y243355D01*
X78854Y243437D01*
X78898Y243521D01*
X78938Y243607D01*
X78976Y243694D01*
X79010Y243782D01*
X79040Y243872D01*
X79067Y243962D01*
X79091Y244054D01*
X79111Y244147D01*
X79127Y244240D01*
X79140Y244334D01*
X79149Y244428D01*
X79154Y244522D01*
X79156Y244617D01*
X78395Y242839D02*
X74077Y237759D01*
X79157Y237759D01*
D14*
X97400Y174710D02*
X97400Y170900D01*
D16*
X97400Y174710D02*
X84700Y174710D01*
D14*
X97400Y174710D02*
X99940Y174710D01*
D16*
X97400Y174710D02*
X186300Y174710D01*
X84700Y174710D02*
X84700Y116290D01*
D14*
X108830Y116290D01*
D16*
X186300Y116290D02*
X186300Y174710D01*
X179950Y116290D02*
X108830Y116290D01*
X91050Y116290D02*
X87240Y116290D01*
X91050Y116290D02*
X91050Y122640D01*
X103750Y122640D01*
X103750Y116290D01*
X116450Y116290D02*
X116450Y122640D01*
X129150Y122640D01*
X129150Y116290D01*
X91050Y116290D01*
X103750Y116290D02*
X116450Y116290D01*
X129150Y116290D02*
X141850Y116290D01*
X141850Y122640D01*
X154550Y122640D01*
X154550Y116290D01*
X167250Y116290D01*
X167250Y122640D01*
X179950Y122640D01*
X179950Y116290D01*
X186300Y116290D01*
X97400Y164550D02*
X97400Y174710D01*
X97400Y164550D02*
X99940Y164550D01*
X171060Y164550D01*
X173600Y164550D01*
X173600Y174710D01*
X99940Y159470D02*
X97400Y164550D01*
X99940Y164550D02*
X99940Y174710D01*
X99940Y159470D02*
X171060Y159470D01*
X173600Y164550D01*
X171060Y164550D02*
X171060Y174710D01*
D12*
X72041Y166259D02*
X67977Y166259D01*
X67977Y175403D01*
X72041Y175403D01*
X71025Y171339D02*
X67977Y171339D01*
X75577Y166259D02*
X78117Y166259D01*
X78217Y166261D01*
X78316Y166267D01*
X78416Y166277D01*
X78514Y166290D01*
X78613Y166308D01*
X78710Y166329D01*
X78806Y166354D01*
X78902Y166383D01*
X78996Y166416D01*
X79089Y166452D01*
X79180Y166492D01*
X79270Y166536D01*
X79358Y166583D01*
X79444Y166633D01*
X79528Y166687D01*
X79610Y166744D01*
X79689Y166804D01*
X79767Y166868D01*
X79841Y166934D01*
X79913Y167003D01*
X79982Y167075D01*
X80048Y167149D01*
X80112Y167227D01*
X80172Y167306D01*
X80229Y167388D01*
X80283Y167472D01*
X80333Y167558D01*
X80380Y167646D01*
X80424Y167736D01*
X80464Y167827D01*
X80500Y167920D01*
X80533Y168014D01*
X80562Y168110D01*
X80587Y168206D01*
X80608Y168303D01*
X80626Y168402D01*
X80639Y168500D01*
X80649Y168600D01*
X80655Y168699D01*
X80657Y168799D01*
X80655Y168899D01*
X80649Y168998D01*
X80639Y169098D01*
X80626Y169196D01*
X80608Y169295D01*
X80587Y169392D01*
X80562Y169488D01*
X80533Y169584D01*
X80500Y169678D01*
X80464Y169771D01*
X80424Y169862D01*
X80380Y169952D01*
X80333Y170040D01*
X80283Y170126D01*
X80229Y170210D01*
X80172Y170292D01*
X80112Y170371D01*
X80048Y170449D01*
X79982Y170523D01*
X79913Y170595D01*
X79841Y170664D01*
X79767Y170730D01*
X79689Y170794D01*
X79610Y170854D01*
X79528Y170911D01*
X79444Y170965D01*
X79358Y171015D01*
X79270Y171062D01*
X79180Y171106D01*
X79089Y171146D01*
X78996Y171182D01*
X78902Y171215D01*
X78806Y171244D01*
X78710Y171269D01*
X78613Y171290D01*
X78514Y171308D01*
X78416Y171321D01*
X78316Y171331D01*
X78217Y171337D01*
X78117Y171339D01*
X78625Y175403D02*
X75577Y175403D01*
X78625Y175403D02*
X78714Y175401D01*
X78802Y175395D01*
X78890Y175386D01*
X78978Y175372D01*
X79065Y175355D01*
X79151Y175334D01*
X79236Y175309D01*
X79320Y175280D01*
X79403Y175248D01*
X79484Y175213D01*
X79563Y175173D01*
X79641Y175131D01*
X79717Y175085D01*
X79791Y175036D01*
X79862Y174983D01*
X79931Y174928D01*
X79998Y174869D01*
X80062Y174808D01*
X80123Y174744D01*
X80182Y174677D01*
X80237Y174608D01*
X80290Y174537D01*
X80339Y174463D01*
X80385Y174387D01*
X80427Y174309D01*
X80467Y174230D01*
X80502Y174149D01*
X80534Y174066D01*
X80563Y173982D01*
X80588Y173897D01*
X80609Y173811D01*
X80626Y173724D01*
X80640Y173636D01*
X80649Y173548D01*
X80655Y173460D01*
X80657Y173371D01*
X80655Y173282D01*
X80649Y173194D01*
X80640Y173106D01*
X80626Y173018D01*
X80609Y172931D01*
X80588Y172845D01*
X80563Y172760D01*
X80534Y172676D01*
X80502Y172593D01*
X80467Y172512D01*
X80427Y172433D01*
X80385Y172355D01*
X80339Y172279D01*
X80290Y172205D01*
X80237Y172134D01*
X80182Y172065D01*
X80123Y171998D01*
X80062Y171934D01*
X79998Y171873D01*
X79931Y171814D01*
X79862Y171759D01*
X79791Y171706D01*
X79717Y171657D01*
X79641Y171611D01*
X79563Y171569D01*
X79484Y171529D01*
X79403Y171494D01*
X79320Y171462D01*
X79236Y171433D01*
X79151Y171408D01*
X79065Y171387D01*
X78978Y171370D01*
X78890Y171356D01*
X78802Y171347D01*
X78714Y171341D01*
X78625Y171339D01*
X76593Y171339D01*
D14*
X147300Y444400D02*
X147300Y448210D01*
D16*
X134600Y448210D01*
D14*
X147300Y448210D02*
X149840Y448210D01*
D16*
X147300Y448210D02*
X160000Y448210D01*
D14*
X185400Y448210D01*
D16*
X134600Y448210D02*
X134600Y389790D01*
X140950Y389790D02*
X160000Y389790D01*
X185400Y389790D02*
X185400Y448210D01*
X179050Y389790D02*
X166350Y389790D01*
D14*
X160000Y389790D01*
X140950Y389790D02*
X137140Y389790D01*
D16*
X134600Y389790D02*
X140950Y389790D01*
X140950Y396140D01*
X153650Y396140D01*
X153650Y389790D01*
X166350Y389790D01*
X166350Y396140D01*
X179050Y396140D01*
X179050Y389790D01*
X185400Y389790D01*
X147300Y438050D02*
X147300Y448210D01*
X147300Y438050D02*
X149840Y438050D01*
X170160Y438050D01*
X172700Y438050D01*
X172700Y448210D01*
X147300Y438050D02*
X149840Y432970D01*
X149840Y438050D02*
X149840Y448210D01*
X149840Y432970D02*
X170160Y432970D01*
X172700Y438050D01*
X170160Y438050D02*
X170160Y448210D01*
D10*
X135644Y452004D02*
X135644Y459370D01*
X138917Y459370D01*
X138917Y456096D02*
X135644Y456096D01*
X141315Y452004D02*
X143770Y459370D01*
X146225Y452004D01*
X145612Y453846D02*
X141929Y453846D01*
X149283Y452004D02*
X149283Y459370D01*
X153375Y452004D01*
X153375Y459370D01*
X156520Y451186D02*
X159793Y451186D01*
X163056Y452004D02*
X163056Y459370D01*
X165102Y459370D01*
X165191Y459368D01*
X165280Y459362D01*
X165369Y459352D01*
X165457Y459339D01*
X165545Y459322D01*
X165632Y459300D01*
X165717Y459275D01*
X165802Y459247D01*
X165885Y459214D01*
X165967Y459178D01*
X166047Y459139D01*
X166125Y459096D01*
X166201Y459050D01*
X166276Y459000D01*
X166348Y458947D01*
X166417Y458891D01*
X166484Y458832D01*
X166549Y458771D01*
X166610Y458706D01*
X166669Y458639D01*
X166725Y458570D01*
X166778Y458498D01*
X166828Y458423D01*
X166874Y458347D01*
X166917Y458269D01*
X166956Y458189D01*
X166992Y458107D01*
X167025Y458024D01*
X167053Y457939D01*
X167078Y457854D01*
X167100Y457767D01*
X167117Y457679D01*
X167130Y457591D01*
X167140Y457502D01*
X167146Y457413D01*
X167148Y457324D01*
X167146Y457235D01*
X167140Y457146D01*
X167130Y457057D01*
X167117Y456969D01*
X167100Y456881D01*
X167078Y456794D01*
X167053Y456709D01*
X167025Y456624D01*
X166992Y456541D01*
X166956Y456459D01*
X166917Y456379D01*
X166874Y456301D01*
X166828Y456225D01*
X166778Y456150D01*
X166725Y456078D01*
X166669Y456009D01*
X166610Y455942D01*
X166549Y455877D01*
X166484Y455816D01*
X166417Y455757D01*
X166348Y455701D01*
X166276Y455648D01*
X166201Y455598D01*
X166125Y455552D01*
X166047Y455509D01*
X165967Y455470D01*
X165885Y455434D01*
X165802Y455401D01*
X165717Y455373D01*
X165632Y455348D01*
X165545Y455326D01*
X165457Y455309D01*
X165369Y455296D01*
X165280Y455286D01*
X165191Y455280D01*
X165102Y455278D01*
X163056Y455278D01*
X169600Y452004D02*
X172055Y459370D01*
X174511Y452004D01*
X173897Y453846D02*
X170214Y453846D01*
X177619Y452004D02*
X177619Y459370D01*
X179666Y459370D01*
X179755Y459368D01*
X179844Y459362D01*
X179933Y459352D01*
X180021Y459339D01*
X180109Y459322D01*
X180196Y459300D01*
X180281Y459275D01*
X180366Y459247D01*
X180449Y459214D01*
X180531Y459178D01*
X180611Y459139D01*
X180689Y459096D01*
X180765Y459050D01*
X180840Y459000D01*
X180912Y458947D01*
X180981Y458891D01*
X181048Y458832D01*
X181113Y458771D01*
X181174Y458706D01*
X181233Y458639D01*
X181289Y458570D01*
X181342Y458498D01*
X181392Y458423D01*
X181438Y458347D01*
X181481Y458269D01*
X181520Y458189D01*
X181556Y458107D01*
X181589Y458024D01*
X181617Y457939D01*
X181642Y457854D01*
X181664Y457767D01*
X181681Y457679D01*
X181694Y457591D01*
X181704Y457502D01*
X181710Y457413D01*
X181712Y457324D01*
X181710Y457235D01*
X181704Y457146D01*
X181694Y457057D01*
X181681Y456969D01*
X181664Y456881D01*
X181642Y456794D01*
X181617Y456709D01*
X181589Y456624D01*
X181556Y456541D01*
X181520Y456459D01*
X181481Y456379D01*
X181438Y456301D01*
X181392Y456225D01*
X181342Y456150D01*
X181289Y456078D01*
X181233Y456009D01*
X181174Y455942D01*
X181113Y455877D01*
X181048Y455816D01*
X180981Y455757D01*
X180912Y455701D01*
X180840Y455648D01*
X180765Y455598D01*
X180689Y455552D01*
X180611Y455509D01*
X180531Y455470D01*
X180449Y455434D01*
X180366Y455401D01*
X180281Y455373D01*
X180196Y455348D01*
X180109Y455326D01*
X180021Y455309D01*
X179933Y455296D01*
X179844Y455286D01*
X179755Y455280D01*
X179666Y455278D01*
X177619Y455278D01*
X180075Y455278D02*
X181712Y452004D01*
X186442Y452004D02*
X186442Y459370D01*
X184396Y459370D02*
X188488Y459370D01*
D14*
X148300Y109210D02*
X148300Y105400D01*
D16*
X148300Y109210D02*
X135600Y109210D01*
D14*
X148300Y109210D02*
X150840Y109210D01*
D16*
X148300Y109210D02*
X161000Y109210D01*
D14*
X186400Y109210D01*
D16*
X135600Y109210D02*
X135600Y50790D01*
X141950Y50790D02*
X161000Y50790D01*
X186400Y50790D02*
X186400Y109210D01*
X180050Y50790D02*
X167350Y50790D01*
D14*
X161000Y50790D01*
X141950Y50790D02*
X138140Y50790D01*
D16*
X135600Y50790D02*
X141950Y50790D01*
X141950Y57140D01*
X154650Y57140D01*
X154650Y50790D01*
X167350Y50790D01*
X167350Y57140D01*
X180050Y57140D01*
X180050Y50790D01*
X186400Y50790D01*
X148300Y99050D02*
X148300Y109210D01*
X148300Y99050D02*
X150840Y99050D01*
X171160Y99050D01*
X173700Y99050D01*
X173700Y109210D01*
X148300Y99050D02*
X150840Y93970D01*
X150840Y99050D02*
X150840Y109210D01*
X150840Y93970D02*
X171160Y93970D01*
X173700Y99050D01*
X171160Y99050D02*
X171160Y109210D01*
D10*
X139596Y46874D02*
X139455Y39509D01*
X139596Y46874D02*
X142869Y46811D01*
X142806Y43538D02*
X139533Y43601D01*
X145125Y39401D02*
X147721Y46718D01*
X150034Y39306D01*
X149456Y41159D02*
X145774Y41230D01*
X153091Y39248D02*
X153233Y46612D01*
X157183Y39169D01*
X157324Y46534D01*
X160311Y38290D02*
X163584Y38227D01*
X166744Y38985D02*
X166885Y46350D01*
X166822Y43077D02*
X170914Y42998D01*
X170977Y46271D02*
X170835Y38907D01*
X174341Y40886D02*
X174404Y44159D01*
X174403Y44159D02*
X174407Y44248D01*
X174415Y44337D01*
X174426Y44426D01*
X174441Y44514D01*
X174460Y44601D01*
X174483Y44687D01*
X174510Y44773D01*
X174540Y44857D01*
X174574Y44939D01*
X174612Y45020D01*
X174653Y45099D01*
X174697Y45177D01*
X174745Y45252D01*
X174796Y45325D01*
X174850Y45396D01*
X174907Y45465D01*
X174967Y45531D01*
X175030Y45594D01*
X175096Y45655D01*
X175164Y45712D01*
X175235Y45767D01*
X175308Y45818D01*
X175383Y45866D01*
X175460Y45911D01*
X175539Y45953D01*
X175620Y45991D01*
X175702Y46025D01*
X175786Y46056D01*
X175871Y46083D01*
X175957Y46106D01*
X176045Y46126D01*
X176132Y46141D01*
X176221Y46153D01*
X176310Y46161D01*
X176399Y46165D01*
X176488Y46166D01*
X176577Y46162D01*
X176666Y46154D01*
X176755Y46143D01*
X176843Y46128D01*
X176930Y46109D01*
X177016Y46086D01*
X177102Y46059D01*
X177186Y46029D01*
X177268Y45995D01*
X177349Y45957D01*
X177428Y45916D01*
X177506Y45872D01*
X177581Y45824D01*
X177654Y45773D01*
X177725Y45719D01*
X177794Y45662D01*
X177860Y45602D01*
X177923Y45539D01*
X177984Y45473D01*
X178041Y45405D01*
X178096Y45334D01*
X178147Y45261D01*
X178195Y45186D01*
X178240Y45109D01*
X178282Y45030D01*
X178320Y44949D01*
X178354Y44867D01*
X178385Y44783D01*
X178412Y44698D01*
X178435Y44612D01*
X178455Y44524D01*
X178470Y44437D01*
X178482Y44348D01*
X178490Y44259D01*
X178494Y44170D01*
X178495Y44081D01*
X178432Y40807D01*
X178432Y40808D02*
X178428Y40719D01*
X178420Y40630D01*
X178409Y40541D01*
X178394Y40453D01*
X178375Y40366D01*
X178352Y40280D01*
X178325Y40194D01*
X178295Y40110D01*
X178261Y40028D01*
X178223Y39947D01*
X178182Y39868D01*
X178138Y39790D01*
X178090Y39715D01*
X178039Y39642D01*
X177985Y39571D01*
X177928Y39502D01*
X177868Y39436D01*
X177805Y39373D01*
X177739Y39312D01*
X177671Y39255D01*
X177600Y39200D01*
X177527Y39149D01*
X177452Y39101D01*
X177375Y39056D01*
X177296Y39014D01*
X177215Y38976D01*
X177133Y38942D01*
X177049Y38911D01*
X176964Y38884D01*
X176878Y38861D01*
X176790Y38841D01*
X176703Y38826D01*
X176614Y38814D01*
X176525Y38806D01*
X176436Y38802D01*
X176347Y38801D01*
X176258Y38805D01*
X176169Y38813D01*
X176080Y38824D01*
X175992Y38839D01*
X175905Y38858D01*
X175819Y38881D01*
X175733Y38908D01*
X175649Y38938D01*
X175567Y38972D01*
X175486Y39010D01*
X175407Y39051D01*
X175329Y39095D01*
X175254Y39143D01*
X175181Y39194D01*
X175110Y39248D01*
X175041Y39305D01*
X174975Y39365D01*
X174912Y39428D01*
X174851Y39494D01*
X174794Y39562D01*
X174739Y39633D01*
X174688Y39706D01*
X174640Y39781D01*
X174595Y39858D01*
X174553Y39937D01*
X174515Y40018D01*
X174481Y40100D01*
X174450Y40184D01*
X174423Y40269D01*
X174400Y40355D01*
X174380Y40443D01*
X174365Y40530D01*
X174353Y40619D01*
X174345Y40708D01*
X174341Y40797D01*
X174340Y40886D01*
X183173Y38670D02*
X183315Y46034D01*
X181269Y46074D02*
X185361Y45995D01*
D14*
X212800Y263400D02*
X212800Y267210D01*
D16*
X200100Y267210D01*
D14*
X212800Y267210D02*
X215340Y267210D01*
D16*
X212800Y267210D02*
X225500Y267210D01*
D14*
X250900Y267210D01*
D16*
X200100Y267210D02*
X200100Y208790D01*
X206450Y208790D02*
X225500Y208790D01*
X250900Y208790D02*
X250900Y267210D01*
X244550Y208790D02*
X231850Y208790D01*
D14*
X225500Y208790D01*
X206450Y208790D02*
X202640Y208790D01*
D16*
X200100Y208790D02*
X206450Y208790D01*
X206450Y215140D01*
X219150Y215140D01*
X219150Y208790D01*
X231850Y208790D01*
X231850Y215140D01*
X244550Y215140D01*
X244550Y208790D01*
X250900Y208790D01*
X212800Y257050D02*
X212800Y267210D01*
X212800Y257050D02*
X215340Y257050D01*
X235660Y257050D01*
X238200Y257050D01*
X238200Y267210D01*
X212800Y257050D02*
X215340Y251970D01*
X215340Y257050D02*
X215340Y267210D01*
X215340Y251970D02*
X235660Y251970D01*
X238200Y257050D01*
X235660Y257050D02*
X235660Y267210D01*
D10*
X209296Y270132D02*
X209296Y277498D01*
X207250Y277498D02*
X211342Y277498D01*
X214321Y277498D02*
X214321Y270132D01*
X214321Y274224D02*
X218414Y274224D01*
X218414Y277498D02*
X218414Y270132D01*
X222140Y270132D02*
X225414Y270132D01*
X222140Y270132D02*
X222140Y277498D01*
X225414Y277498D01*
X224595Y274224D02*
X222140Y274224D01*
X228515Y277498D02*
X228515Y270132D01*
X228515Y277498D02*
X230561Y277498D01*
X230650Y277496D01*
X230739Y277490D01*
X230828Y277480D01*
X230916Y277467D01*
X231004Y277450D01*
X231091Y277428D01*
X231176Y277403D01*
X231261Y277375D01*
X231344Y277342D01*
X231426Y277306D01*
X231506Y277267D01*
X231584Y277224D01*
X231660Y277178D01*
X231735Y277128D01*
X231807Y277075D01*
X231876Y277019D01*
X231943Y276960D01*
X232008Y276899D01*
X232069Y276834D01*
X232128Y276767D01*
X232184Y276698D01*
X232237Y276626D01*
X232287Y276551D01*
X232333Y276475D01*
X232376Y276397D01*
X232415Y276317D01*
X232451Y276235D01*
X232484Y276152D01*
X232512Y276067D01*
X232537Y275982D01*
X232559Y275895D01*
X232576Y275807D01*
X232589Y275719D01*
X232599Y275630D01*
X232605Y275541D01*
X232607Y275452D01*
X232605Y275363D01*
X232599Y275274D01*
X232589Y275185D01*
X232576Y275097D01*
X232559Y275009D01*
X232537Y274922D01*
X232512Y274837D01*
X232484Y274752D01*
X232451Y274669D01*
X232415Y274587D01*
X232376Y274507D01*
X232333Y274429D01*
X232287Y274353D01*
X232237Y274278D01*
X232184Y274206D01*
X232128Y274137D01*
X232069Y274070D01*
X232008Y274005D01*
X231943Y273944D01*
X231876Y273885D01*
X231807Y273829D01*
X231735Y273776D01*
X231660Y273726D01*
X231584Y273680D01*
X231506Y273637D01*
X231426Y273598D01*
X231344Y273562D01*
X231261Y273529D01*
X231176Y273501D01*
X231091Y273476D01*
X231004Y273454D01*
X230916Y273437D01*
X230828Y273424D01*
X230739Y273414D01*
X230650Y273408D01*
X230561Y273406D01*
X228515Y273406D01*
X230971Y273406D02*
X232607Y270132D01*
X236102Y270132D02*
X236102Y277498D01*
X238557Y273406D01*
X241012Y277498D01*
X241012Y270132D01*
X244557Y275861D02*
X246604Y277498D01*
X246604Y270132D01*
X248650Y270132D02*
X244557Y270132D01*
D14*
X247400Y401800D02*
X251210Y401800D01*
D16*
X251210Y414500D02*
X222000Y414500D01*
X251210Y414500D02*
X251210Y401800D01*
X251210Y399260D01*
X251210Y338300D01*
X251210Y287500D02*
X222000Y287500D01*
X251210Y287500D02*
X251210Y338300D01*
X222000Y414500D02*
X192790Y414500D01*
X192790Y338300D01*
X192790Y287500D02*
X222000Y287500D01*
X192790Y293850D02*
X192790Y306550D01*
X192790Y319250D02*
X192790Y331950D01*
X192790Y408150D02*
X192790Y411960D01*
X192790Y408150D02*
X199140Y408150D01*
X199140Y395450D01*
X192790Y395450D01*
X192790Y382750D01*
X199140Y382750D01*
X199140Y370050D01*
X192790Y370050D01*
X192790Y357350D01*
X199140Y357350D01*
X199140Y344650D01*
X192790Y344650D01*
X192790Y357350D01*
X192790Y344650D02*
X192790Y331950D01*
X192790Y319250D02*
X192790Y306550D01*
X192790Y293850D02*
X192790Y287500D01*
X241050Y401800D02*
X251210Y401800D01*
X241050Y401800D02*
X241050Y399260D01*
X241050Y302740D01*
X241050Y300200D01*
X251210Y300200D01*
X235970Y399260D02*
X241050Y401800D01*
X241050Y399260D02*
X251210Y399260D01*
X235970Y399260D02*
X235970Y302740D01*
X241050Y300200D01*
X241050Y302740D02*
X251210Y302740D01*
X199140Y331950D02*
X192790Y331950D01*
X199140Y331950D02*
X199140Y319250D01*
X192790Y319250D01*
X192790Y306550D02*
X199140Y306550D01*
X199140Y293850D01*
X192790Y293850D01*
D10*
X232632Y425208D02*
X236724Y425208D01*
X232632Y417842D01*
X236724Y417842D01*
X240065Y417842D02*
X240065Y425208D01*
X242111Y425208D01*
X242200Y425206D01*
X242289Y425200D01*
X242378Y425190D01*
X242466Y425177D01*
X242554Y425160D01*
X242641Y425138D01*
X242726Y425113D01*
X242811Y425085D01*
X242894Y425052D01*
X242976Y425016D01*
X243056Y424977D01*
X243134Y424934D01*
X243210Y424888D01*
X243285Y424838D01*
X243357Y424785D01*
X243426Y424729D01*
X243493Y424670D01*
X243558Y424609D01*
X243619Y424544D01*
X243678Y424477D01*
X243734Y424408D01*
X243787Y424336D01*
X243837Y424261D01*
X243883Y424185D01*
X243926Y424107D01*
X243965Y424027D01*
X244001Y423945D01*
X244034Y423862D01*
X244062Y423777D01*
X244087Y423692D01*
X244109Y423605D01*
X244126Y423517D01*
X244139Y423429D01*
X244149Y423340D01*
X244155Y423251D01*
X244157Y423162D01*
X244155Y423073D01*
X244149Y422984D01*
X244139Y422895D01*
X244126Y422807D01*
X244109Y422719D01*
X244087Y422632D01*
X244062Y422547D01*
X244034Y422462D01*
X244001Y422379D01*
X243965Y422297D01*
X243926Y422217D01*
X243883Y422139D01*
X243837Y422063D01*
X243787Y421988D01*
X243734Y421916D01*
X243678Y421847D01*
X243619Y421780D01*
X243558Y421715D01*
X243493Y421654D01*
X243426Y421595D01*
X243357Y421539D01*
X243285Y421486D01*
X243210Y421436D01*
X243134Y421390D01*
X243056Y421347D01*
X242976Y421308D01*
X242894Y421272D01*
X242811Y421239D01*
X242726Y421211D01*
X242641Y421186D01*
X242554Y421164D01*
X242466Y421147D01*
X242378Y421134D01*
X242289Y421124D01*
X242200Y421118D01*
X242111Y421116D01*
X240065Y421116D01*
X247019Y417842D02*
X249474Y417842D01*
X249552Y417844D01*
X249630Y417849D01*
X249707Y417859D01*
X249784Y417872D01*
X249860Y417888D01*
X249935Y417908D01*
X250009Y417932D01*
X250082Y417959D01*
X250154Y417990D01*
X250224Y418024D01*
X250293Y418061D01*
X250359Y418102D01*
X250424Y418146D01*
X250486Y418192D01*
X250546Y418242D01*
X250604Y418294D01*
X250659Y418349D01*
X250711Y418407D01*
X250761Y418467D01*
X250807Y418529D01*
X250851Y418594D01*
X250892Y418661D01*
X250929Y418729D01*
X250963Y418799D01*
X250994Y418871D01*
X251021Y418944D01*
X251045Y419018D01*
X251065Y419093D01*
X251081Y419169D01*
X251094Y419246D01*
X251104Y419323D01*
X251109Y419401D01*
X251111Y419479D01*
X251111Y420297D01*
X251109Y420375D01*
X251104Y420453D01*
X251094Y420530D01*
X251081Y420607D01*
X251065Y420683D01*
X251045Y420758D01*
X251021Y420832D01*
X250994Y420905D01*
X250963Y420977D01*
X250929Y421047D01*
X250892Y421116D01*
X250851Y421182D01*
X250807Y421247D01*
X250761Y421309D01*
X250711Y421369D01*
X250659Y421427D01*
X250604Y421482D01*
X250546Y421534D01*
X250486Y421584D01*
X250424Y421630D01*
X250359Y421674D01*
X250293Y421715D01*
X250224Y421752D01*
X250154Y421786D01*
X250082Y421817D01*
X250009Y421844D01*
X249935Y421868D01*
X249860Y421888D01*
X249784Y421904D01*
X249707Y421917D01*
X249630Y421927D01*
X249552Y421932D01*
X249474Y421934D01*
X247019Y421934D01*
X247019Y425208D01*
X251111Y425208D01*
D17*
X110950Y431700D02*
X104600Y425350D01*
X110950Y431700D02*
X123650Y431700D01*
X130000Y425350D01*
X130000Y412650D02*
X123650Y406300D01*
X110950Y406300D01*
X104600Y412650D01*
X72850Y431700D02*
X60150Y431700D01*
X72850Y431700D02*
X79200Y425350D01*
X79200Y412650D02*
X72850Y406300D01*
X79200Y425350D02*
X85550Y431700D01*
X98250Y431700D02*
X104600Y425350D01*
X104600Y412650D02*
X98250Y406300D01*
X85550Y406300D01*
X79200Y412650D01*
X53800Y412650D02*
X53800Y425350D01*
X60150Y431700D01*
X53800Y412650D02*
X60150Y406300D01*
X72850Y406300D01*
X130000Y412650D02*
X130000Y425350D01*
X85550Y431700D02*
X79200Y438050D01*
X79200Y450750D01*
X85550Y457100D01*
X98250Y457100D02*
X104600Y450750D01*
X104600Y438050D01*
X98250Y431700D01*
X98250Y457100D02*
X85550Y457100D01*
X112950Y83200D02*
X106600Y76850D01*
X112950Y83200D02*
X125650Y83200D01*
X132000Y76850D01*
X132000Y64150D02*
X125650Y57800D01*
X112950Y57800D01*
X106600Y64150D01*
X74850Y83200D02*
X62150Y83200D01*
X74850Y83200D02*
X81200Y76850D01*
X81200Y64150D02*
X74850Y57800D01*
X81200Y76850D02*
X87550Y83200D01*
X100250Y83200D02*
X106600Y76850D01*
X106600Y64150D02*
X100250Y57800D01*
X87550Y57800D01*
X81200Y64150D01*
X55800Y64150D02*
X55800Y76850D01*
X62150Y83200D01*
X55800Y64150D02*
X62150Y57800D01*
X74850Y57800D01*
X132000Y64150D02*
X132000Y76850D01*
X87550Y83200D02*
X81200Y89550D01*
X81200Y102250D01*
X87550Y108600D01*
X100250Y108600D02*
X106600Y102250D01*
X106600Y89550D01*
X100250Y83200D01*
X100250Y108600D02*
X87550Y108600D01*
D14*
X247400Y173100D02*
X251210Y173100D01*
D16*
X251210Y185800D01*
D14*
X251210Y173100D02*
X251210Y170560D01*
D16*
X251210Y173100D02*
X251210Y84200D01*
X251210Y185800D02*
X192790Y185800D01*
D14*
X192790Y161670D01*
D16*
X192790Y84200D02*
X251210Y84200D01*
X192790Y90550D02*
X192790Y161670D01*
X192790Y179450D02*
X192790Y183260D01*
X192790Y179450D02*
X199140Y179450D01*
X199140Y166750D01*
X192790Y166750D01*
X192790Y154050D02*
X199140Y154050D01*
X199140Y141350D01*
X192790Y141350D01*
X192790Y179450D01*
X192790Y166750D02*
X192790Y154050D01*
X192790Y141350D02*
X192790Y128650D01*
X199140Y128650D01*
X199140Y115950D01*
X192790Y115950D01*
X192790Y103250D01*
X199140Y103250D01*
X199140Y90550D01*
X192790Y90550D01*
X192790Y84200D01*
X241050Y173100D02*
X251210Y173100D01*
X241050Y173100D02*
X241050Y170560D01*
X241050Y99440D01*
X241050Y96900D01*
X251210Y96900D01*
X235970Y170560D02*
X241050Y173100D01*
X241050Y170560D02*
X251210Y170560D01*
X235970Y170560D02*
X235970Y99440D01*
X241050Y96900D01*
X241050Y99440D02*
X251210Y99440D01*
D10*
X237724Y195778D02*
X233632Y195778D01*
X237724Y195778D02*
X233632Y188412D01*
X237724Y188412D01*
X241065Y188412D02*
X241065Y195778D01*
X243111Y195778D01*
X243200Y195776D01*
X243289Y195770D01*
X243378Y195760D01*
X243466Y195747D01*
X243554Y195730D01*
X243641Y195708D01*
X243726Y195683D01*
X243811Y195655D01*
X243894Y195622D01*
X243976Y195586D01*
X244056Y195547D01*
X244134Y195504D01*
X244210Y195458D01*
X244285Y195408D01*
X244357Y195355D01*
X244426Y195299D01*
X244493Y195240D01*
X244558Y195179D01*
X244619Y195114D01*
X244678Y195047D01*
X244734Y194978D01*
X244787Y194906D01*
X244837Y194831D01*
X244883Y194755D01*
X244926Y194677D01*
X244965Y194597D01*
X245001Y194515D01*
X245034Y194432D01*
X245062Y194347D01*
X245087Y194262D01*
X245109Y194175D01*
X245126Y194087D01*
X245139Y193999D01*
X245149Y193910D01*
X245155Y193821D01*
X245157Y193732D01*
X245155Y193643D01*
X245149Y193554D01*
X245139Y193465D01*
X245126Y193377D01*
X245109Y193289D01*
X245087Y193202D01*
X245062Y193117D01*
X245034Y193032D01*
X245001Y192949D01*
X244965Y192867D01*
X244926Y192787D01*
X244883Y192709D01*
X244837Y192633D01*
X244787Y192558D01*
X244734Y192486D01*
X244678Y192417D01*
X244619Y192350D01*
X244558Y192285D01*
X244493Y192224D01*
X244426Y192165D01*
X244357Y192109D01*
X244285Y192056D01*
X244210Y192006D01*
X244134Y191960D01*
X244056Y191917D01*
X243976Y191878D01*
X243894Y191842D01*
X243811Y191809D01*
X243726Y191781D01*
X243641Y191756D01*
X243554Y191734D01*
X243466Y191717D01*
X243378Y191704D01*
X243289Y191694D01*
X243200Y191688D01*
X243111Y191686D01*
X241065Y191686D01*
X248019Y190049D02*
X249655Y195778D01*
X248019Y190049D02*
X252111Y190049D01*
X250883Y191686D02*
X250883Y188412D01*
M02*
