G04 EAGLE Gerber RS-274X export*
G75*
%MOMM*%
%FSLAX34Y34*%
%LPD*%
%INSoldermask Bottom*%
%IPPOS*%
%AMOC8*
5,1,8,0,0,1.08239X$1,22.5*%
G01*
%ADD10C,3.127000*%
%ADD11C,3.427000*%
%ADD12C,2.077000*%
%ADD13R,2.077000X2.077000*%
%ADD14C,1.651000*%
%ADD15C,2.159000*%
%ADD16C,2.159000*%
%ADD17R,2.159000X2.159000*%


D10*
X62000Y355500D03*
X62000Y194500D03*
D11*
X429500Y58000D03*
X429500Y443000D03*
D12*
X364500Y130500D03*
X364500Y160500D03*
X364500Y190500D03*
X364500Y220500D03*
X364500Y250500D03*
X364500Y280500D03*
X364500Y310500D03*
X364500Y340500D03*
X364500Y370500D03*
X339500Y145500D03*
X339500Y175500D03*
X339500Y205500D03*
X339500Y235500D03*
X339500Y265500D03*
X339500Y295500D03*
X339500Y325500D03*
X339500Y355500D03*
X309500Y145500D03*
X309500Y175500D03*
X309500Y205500D03*
X309500Y235500D03*
X309500Y265500D03*
X309500Y295500D03*
X309500Y325500D03*
X309500Y355500D03*
D13*
X284500Y130500D03*
D12*
X284500Y160500D03*
X284500Y190500D03*
X284500Y220500D03*
X284500Y250500D03*
X284500Y280500D03*
X284500Y310500D03*
X284500Y340500D03*
X284500Y370500D03*
D14*
X95900Y363620D02*
X95900Y348380D01*
X121300Y348380D02*
X121300Y363620D01*
X146700Y363620D02*
X146700Y348380D01*
X172100Y348380D02*
X172100Y363620D01*
X95400Y290620D02*
X95400Y275380D01*
X120800Y275380D02*
X120800Y290620D01*
X146200Y290620D02*
X146200Y275380D01*
X171600Y275380D02*
X171600Y290620D01*
X95900Y226620D02*
X95900Y211380D01*
X121300Y211380D02*
X121300Y226620D01*
X146700Y226620D02*
X146700Y211380D01*
X172100Y211380D02*
X172100Y226620D01*
X97400Y153120D02*
X97400Y137880D01*
X122800Y137880D02*
X122800Y153120D01*
X148200Y153120D02*
X148200Y137880D01*
X173600Y137880D02*
X173600Y153120D01*
X147300Y411380D02*
X147300Y426620D01*
X172700Y426620D02*
X172700Y411380D01*
X148300Y87620D02*
X148300Y72380D01*
X173700Y72380D02*
X173700Y87620D01*
X212800Y230380D02*
X212800Y245620D01*
X238200Y245620D02*
X238200Y230380D01*
X229620Y351000D02*
X214380Y351000D01*
X214380Y325600D02*
X229620Y325600D01*
X229620Y300200D02*
X214380Y300200D01*
X214380Y376400D02*
X229620Y376400D01*
X229620Y401800D02*
X214380Y401800D01*
D15*
X66500Y419000D03*
D16*
X91900Y419000D02*
X91900Y398680D01*
X117300Y419000D02*
X117300Y439320D01*
D17*
X91900Y444400D03*
D15*
X68500Y70500D03*
D16*
X93900Y70500D02*
X93900Y50180D01*
X119300Y70500D02*
X119300Y90820D01*
D17*
X93900Y95900D03*
D14*
X214380Y173100D02*
X229620Y173100D01*
X229620Y147700D02*
X214380Y147700D01*
X214380Y122300D02*
X229620Y122300D01*
X229620Y96900D02*
X214380Y96900D01*
M02*
